<svg width="110" height="110" viewBox="0 0 110 110" fill="none" xmlns="http://www.w3.org/2000/svg">
<circle cx="55" cy="55" r="55" fill="url(#paint0_radial_333_5100)"/>
<path d="M18.4975 55.2173C18.8641 54.6192 19.3851 54.4455 20.0798 54.4648C24.5178 54.4841 28.9366 54.4841 33.3746 54.4841C34.5517 54.4841 34.9183 54.8314 34.9376 56.047C34.9569 56.761 34.9376 57.4942 34.9376 58.2854C37.118 57.7065 39.202 57.1469 41.2859 56.6066C44.1803 55.8734 47.0554 55.1208 49.9691 54.4648C50.9338 54.2525 51.9758 54.2525 52.9792 54.2332C58.8066 54.2139 64.6339 54.2139 70.4612 54.2332C73.2784 54.2332 74.9958 55.6804 75.4975 58.5748C76.0378 58.1696 76.5587 57.7837 77.0797 57.3978C79.7233 55.4296 82.3475 53.4228 84.991 51.4739C87.8661 49.3514 91.7832 50.8951 92.4006 54.4262C92.7287 56.3172 91.9375 57.803 90.5096 58.9993C87.6539 61.4306 84.7981 63.8812 81.9423 66.3124C79.4531 68.435 76.9447 70.5382 74.4748 72.6994C70.3648 76.2691 65.5987 77.4462 60.3502 76.3656C56.6454 75.5938 52.9985 74.5132 49.3323 73.4905C46.7081 72.7766 44.1996 72.9502 41.749 74.108C39.723 75.0535 37.6776 75.9604 35.6322 76.8673C35.2656 77.0216 35.1305 77.1953 35.1498 77.6005C35.1884 78.5653 35.2077 79.5301 35.2077 80.4949C35.2077 81.5948 34.8411 82 33.7605 82C29.2646 82 24.7494 82 20.2534 82C19.1729 82 18.8062 81.6141 18.8062 80.5142C18.7484 74.7833 18.6905 69.0525 18.6133 63.3216C18.6133 62.9357 18.5554 62.569 18.5168 62.1831C18.4975 59.8483 18.4975 57.5328 18.4975 55.2173ZM35.0148 74.5904C37.1373 73.6449 39.0476 72.7959 40.9386 71.9275C43.7558 70.6347 46.6502 70.3839 49.6603 71.2136C52.8634 72.1012 56.0665 72.9502 59.2697 73.7992C64.5567 75.1885 69.2842 74.3202 73.4328 70.5768C76.6552 67.6824 80.0127 64.9424 83.293 62.1252C85.2612 60.4272 87.2486 58.7678 89.2168 57.0504C90.3167 56.0856 90.4325 54.7542 89.5834 53.7123C88.7151 52.6703 87.4416 52.5545 86.2453 53.4421C82.1738 56.4523 78.1024 59.4817 74.0696 62.5498C72.9311 63.4181 71.7541 63.8233 70.3455 63.804C65.4829 63.7847 60.6204 63.804 55.7578 63.7847C55.4684 63.7847 55.1789 63.7847 54.8895 63.7268C54.3299 63.611 54.0212 63.2251 54.0019 62.6462C53.9826 62.0674 54.272 61.6814 54.8316 61.5271C55.1017 61.4499 55.4105 61.4692 55.6999 61.4692C60.5046 61.4692 65.3286 61.4692 70.1332 61.4692C70.4613 61.4692 70.8086 61.4692 71.1366 61.4306C72.0628 61.3148 72.7382 60.8131 72.989 59.9255C73.6065 57.7258 72.2172 56.4909 70.5963 56.4909C64.6339 56.5294 58.6522 56.4909 52.6898 56.5294C51.5127 56.5294 50.3164 56.6452 49.1972 56.9154C44.6048 58.0538 40.0317 59.308 35.4586 60.4851C35.0341 60.6009 34.9376 60.7938 34.9569 61.1797C34.9955 62.9357 35.0148 64.6916 35.0148 66.4475C35.0341 69.1296 35.0148 71.7732 35.0148 74.5904ZM20.813 56.8189C20.9095 64.4407 20.9867 72.0433 21.0832 79.6073C25.0581 79.6073 28.9173 79.6073 32.8536 79.6073C32.7764 71.9854 32.6993 64.4215 32.6028 56.8189C28.6664 56.8189 24.7687 56.8189 20.813 56.8189Z" fill="white"/>
<path d="M51.6671 38.893C51.6478 31.2325 57.8225 25.0193 65.4829 25C73.1627 24.9807 79.4145 31.2132 79.4145 38.8737C79.4145 46.4956 73.1627 52.7474 65.5408 52.7474C57.8997 52.7667 51.6864 46.5535 51.6671 38.893ZM53.9633 38.8544C53.9633 45.2413 59.1346 50.4319 65.5215 50.4319C71.8699 50.4319 77.099 45.222 77.099 38.8544C77.099 32.4868 71.9084 27.2962 65.5215 27.2962C59.1346 27.3155 53.9826 32.4675 53.9633 38.8544Z" fill="white"/>
<path d="M53.9633 38.8545C53.9633 32.4483 59.1346 27.2963 65.5215 27.2963C71.9085 27.2963 77.099 32.4868 77.099 38.8545C77.099 45.2028 71.8699 50.432 65.5215 50.432C59.1539 50.432 53.9633 45.2414 53.9633 38.8545ZM70.3841 35.1111C70.2297 33.4902 69.207 32.1974 67.4704 31.5221C66.8915 31.2905 66.6407 31.059 66.6793 30.4029C66.7179 29.6118 66.1969 29.0908 65.5408 29.0908C64.8655 29.0908 64.3638 29.5925 64.4217 30.3836C64.4603 31.0397 64.2094 31.2712 63.6305 31.5028C61.6817 32.2167 60.6011 33.8954 60.6976 35.9022C60.7748 37.7739 61.836 39.0088 63.9586 39.6263C64.8848 39.8965 65.8303 40.0701 66.7565 40.3403C67.4318 40.5332 67.9914 40.8805 68.0879 41.6717C68.2037 42.54 67.9335 43.2346 67.2196 43.7363C65.5215 44.9134 63.3797 44.0258 62.9938 41.9997C62.8587 41.3243 62.357 40.9384 61.7203 40.9963C61.1028 41.0542 60.7169 41.5173 60.7169 42.1927C60.7169 42.4628 60.7362 42.7137 60.794 42.9838C61.1414 44.5082 62.0676 45.5694 63.5148 46.129C64.1708 46.3799 64.5181 46.65 64.4796 47.4411C64.4603 47.7692 64.7883 48.2709 65.097 48.4638C65.8496 48.9269 66.7372 48.3094 66.7179 47.3254C66.7179 46.7079 66.8722 46.4378 67.4897 46.2062C69.4386 45.5116 70.5192 43.7942 70.4227 41.7874C70.3262 39.8579 69.2649 38.6422 67.1038 38.0441C66.1776 37.7932 65.2321 37.6195 64.3059 37.3301C62.878 36.867 62.5307 35.1883 63.6305 34.1849C64.4603 33.4323 65.4636 33.2394 66.5249 33.606C67.4704 33.934 68.0493 34.5515 68.1458 35.6128C68.223 36.346 68.7632 36.7898 69.4 36.7126C70.0175 36.6548 70.4034 36.1531 70.3841 35.1111Z" fill="#FFE9F3"/>
<path d="M28.049 75.2271C28.049 75.8832 27.5473 76.4235 26.8719 76.4428C26.1966 76.462 25.6177 75.8832 25.637 75.2078C25.6563 74.5711 26.2158 74.0115 26.8526 74.0115C27.4894 74.0308 28.0297 74.5903 28.049 75.2271Z" fill="white"/>
<defs>
<radialGradient id="paint0_radial_333_5100" cx="0" cy="0" r="1" gradientUnits="userSpaceOnUse" gradientTransform="translate(54.2466 55.7534) rotate(140.711) scale(124.356 191.831)">
<stop offset="0.0104167" stop-color="#FF3976"/>
<stop offset="0.411458" stop-color="#D57AFF"/>
<stop offset="1" stop-color="#FF759F" stop-opacity="0"/>
<stop offset="1" stop-color="#FF759F" stop-opacity="0"/>
</radialGradient>
</defs>
</svg>
