<svg width="110" height="110" viewBox="0 0 110 110" fill="none" xmlns="http://www.w3.org/2000/svg">
<circle cx="55" cy="55" r="55" fill="url(#paint0_radial_333_5127)"/>
<path d="M21.1995 35.6422C21.5927 35.3239 21.9672 34.9682 22.3978 34.7248C31.8344 29.2388 41.3084 23.7904 50.7449 18.3044C51.4377 17.9112 51.9994 17.8925 52.6921 18.2857C62.2223 23.8091 71.7712 29.3325 81.3201 34.8184C82.0129 35.2116 82.2937 35.7171 82.2937 36.5035C82.275 42.3826 82.2937 48.2805 82.275 54.1596C82.275 54.7587 82.4248 55.0396 82.9865 55.3017C87.6111 57.4549 91.0375 60.7689 92.3856 65.7868C94.052 71.9655 92.1984 77.2267 87.6673 81.5705C84.7839 84.3229 81.2452 85.8394 77.3695 86.6258C76.6018 86.7943 76.0588 86.5135 75.8716 85.9518C75.6657 85.3339 75.9278 84.8097 76.6767 84.4539C78.9235 83.3867 80.9269 82.0012 82.3686 79.9229C84.4469 76.9459 84.3907 73.1076 82.2937 70.5612C81.2827 71.1604 80.2903 71.7595 79.2793 72.3399C70.4231 77.4514 61.567 82.5629 52.7296 87.6743C52.0181 88.0862 51.4377 88.1237 50.7262 87.6931C41.1773 82.1509 31.6097 76.6463 22.0608 71.1229C21.7238 70.9357 21.4616 70.6361 21.1808 70.374C21.1995 58.8217 21.1995 47.232 21.1995 35.6422ZM42.3943 48.9358C42.3943 49.3477 42.3943 49.6098 42.3943 49.8719C42.3943 53.2421 42.3943 56.5936 42.3943 59.9638C42.3943 61.3868 41.6079 61.8549 40.3535 61.1247C37.7884 59.6455 35.242 58.1289 32.6395 56.6872C31.8905 56.2753 31.6097 55.7323 31.6097 54.8898C31.6471 51.0515 31.6097 47.232 31.6284 43.3937C31.6284 42.8881 31.4599 42.6073 31.0293 42.3452C28.7076 41.0345 26.4233 39.6865 24.1203 38.3571C23.9331 38.2448 23.7272 38.1324 23.4276 37.9826C23.4276 38.2635 23.4276 38.4507 23.4276 38.6192C23.4276 48.6737 23.4276 58.7094 23.4089 68.7638C23.4089 69.1944 23.5212 69.4191 23.8957 69.6438C32.6207 74.6616 41.3271 79.6982 50.0334 84.716C50.1832 84.8097 50.3517 84.8658 50.5577 84.9594C50.5764 84.8097 50.5951 84.716 50.5951 84.6412C50.5951 74.4744 50.5951 64.3076 50.6139 54.1409C50.6139 53.6915 50.3892 53.523 50.0709 53.3545C47.8428 52.0813 45.6147 50.7894 43.4054 49.4975C43.1245 49.3477 42.8249 49.1792 42.3943 48.9358ZM79.9907 54.1034C79.9907 48.7485 79.9907 43.4311 79.9907 38.0388C79.7286 38.1699 79.5227 38.2635 79.3354 38.3758C70.6853 43.375 62.0351 48.3554 53.3849 53.3358C52.9917 53.5604 52.8607 53.8226 52.8607 54.2719C52.8794 64.2889 52.8794 74.3246 52.8794 84.3416C52.8794 84.5288 52.8981 84.7348 52.9168 84.9782C53.1977 84.8284 53.4036 84.716 53.5909 84.6037C57.3355 82.4505 61.0615 80.2786 64.8061 78.1254C69.7116 75.2982 74.6359 72.4523 79.5414 69.625C80.1967 69.2506 80.2716 68.5016 79.7099 68.1272C77.5005 66.7042 75.0478 66.1051 72.3704 65.9553C72.3704 67.1536 72.3704 68.2957 72.3704 69.4378C72.3704 69.9621 72.2767 70.4114 71.7712 70.6923C71.247 70.9731 70.7976 70.7859 70.3482 70.4676C66.1917 67.4157 62.0351 64.3638 57.8785 61.3119C56.9423 60.6191 56.9236 59.8889 57.8223 59.1587C61.9415 55.7136 66.0606 52.2685 70.1797 48.8047C70.6478 48.4115 71.0972 48.0558 71.7525 48.3741C72.3891 48.6924 72.4078 49.2728 72.3891 49.8719C72.3704 50.9017 72.3891 51.9128 72.3891 52.9426C73.7184 53.0736 74.9729 53.1485 76.2086 53.3358C77.4444 53.523 78.6801 53.8413 79.9907 54.1034ZM84.3346 81.4769C84.9524 80.9527 85.6826 80.4097 86.338 79.7731C90.6443 75.654 91.9175 69.5689 89.5022 64.4387C87.5737 60.357 84.2409 57.9417 80.0656 56.5187C77.4631 55.6387 74.7669 55.2643 72.0146 55.2268C70.3295 55.2081 70.1048 54.9834 70.1048 53.3358C70.1048 52.8677 70.1048 52.3809 70.1048 51.763C66.6972 54.6277 63.4206 57.3613 60.0691 60.151C63.4206 62.6225 66.7159 65.0191 70.1048 67.5093C70.1048 66.517 70.0861 65.6931 70.1048 64.8506C70.1236 64.1391 70.5355 63.6898 71.2282 63.6898C75.2912 63.7272 79.1295 64.5697 82.2937 67.3034C85.3082 69.9059 86.6937 73.2012 85.8886 77.1705C85.6265 78.6497 84.8775 80.0352 84.3346 81.4769ZM78.8486 36.0354C78.5865 35.8669 78.3993 35.7546 78.1933 35.6422C75.9091 34.2941 73.5874 32.9835 71.3031 31.6354C70.8538 31.3733 70.5542 31.392 70.1048 31.6354C61.9976 36.335 53.8717 41.0345 45.7458 45.7154C45.053 46.1273 44.3603 46.5205 43.5739 46.9698C43.8547 47.1571 44.042 47.2694 44.2292 47.3817C46.5322 48.7111 48.8351 50.0217 51.1381 51.3885C51.5875 51.6507 51.9058 51.6319 52.3364 51.3698C60.9304 46.3894 69.5431 41.4277 78.1559 36.4473C78.3805 36.335 78.5865 36.2039 78.8486 36.0354ZM59.9381 25.0823C57.2232 23.5095 54.6019 21.9929 51.9619 20.5138C51.7934 20.4202 51.4377 20.5325 51.2317 20.6636C42.5628 25.644 33.8939 30.6431 25.225 35.6422C25.0378 35.7546 24.8693 35.8856 24.6259 36.0354C24.8693 36.1852 25.0378 36.2975 25.225 36.4099C27.528 37.7392 29.831 39.0499 32.1339 40.4167C32.602 40.6975 32.9203 40.6975 33.3884 40.4167C41.2709 35.8482 49.1722 31.2797 57.0734 26.7299C58.0096 26.1869 58.927 25.6627 59.9381 25.0823ZM35.0173 42.0643C37.002 43.2064 38.8931 44.2737 40.7467 45.3971C41.1773 45.6592 41.4769 45.6217 41.8701 45.3783C50.5015 40.3792 59.1517 35.3988 67.8019 30.3997C67.9891 30.2873 68.1763 30.1563 68.4385 29.9878C66.51 28.8831 64.6751 27.8346 62.8589 26.7486C62.3908 26.4678 62.0351 26.4491 61.5483 26.7299C57.3168 29.2014 53.0666 31.6354 48.8351 34.0882C44.2666 36.7282 39.6982 39.3682 35.0173 42.0643ZM33.9501 44.049C33.9126 44.2362 33.8939 44.3298 33.8939 44.4047C33.8939 47.7188 33.8752 51.0328 33.9126 54.3468C33.9126 54.5902 34.1373 54.9085 34.3433 55.0396C35.6352 55.826 36.9645 56.5749 38.2752 57.3238C38.8743 57.6608 39.4735 57.9979 40.0726 58.3536C40.1288 58.2413 40.1475 58.2038 40.1475 58.1664C40.1475 54.7775 40.1662 51.3885 40.1475 48.0183C40.1475 47.8311 39.9977 47.569 39.8479 47.4754C37.9194 46.3145 35.9722 45.2098 33.9501 44.049Z" fill="white"/>
<path d="M35.0173 42.0643C39.6982 39.3681 44.2667 36.7281 48.8351 34.0882C53.0853 31.6354 57.3168 29.2014 61.5483 26.7299C62.0351 26.449 62.3908 26.4678 62.8589 26.7486C64.6751 27.8346 66.5287 28.8831 68.4385 29.9877C68.1763 30.1563 68.0078 30.2873 67.8019 30.3997C59.1517 35.3988 50.5202 40.3792 41.8701 45.3783C41.4582 45.6217 41.1586 45.6592 40.7467 45.397C38.8931 44.2736 37.002 43.2064 35.0173 42.0643Z" fill="#FFD0E2"/>
<path d="M33.9501 44.049C35.9722 45.2098 37.9194 46.3332 39.848 47.4566C39.9977 47.5502 40.1475 47.8123 40.1475 47.9996C40.1662 51.3885 40.1475 54.7774 40.1475 58.1476C40.1475 58.1851 40.1101 58.2225 40.0726 58.3348C39.4735 57.9978 38.8556 57.6608 38.2752 57.3051C36.9646 56.5561 35.6352 55.8072 34.3433 55.0208C34.1373 54.8898 33.9127 54.5715 33.9127 54.3281C33.8939 51.014 33.8939 47.7 33.8939 44.386C33.8939 44.3111 33.9127 44.2362 33.9501 44.049Z" fill="#FFD0E2"/>
<defs>
<radialGradient id="paint0_radial_333_5127" cx="0" cy="0" r="1" gradientUnits="userSpaceOnUse" gradientTransform="translate(54.2466 55.7534) rotate(140.711) scale(124.356 191.831)">
<stop offset="0.0104167" stop-color="#FF3976"/>
<stop offset="0.411458" stop-color="#D57AFF"/>
<stop offset="1" stop-color="#FF759F" stop-opacity="0"/>
<stop offset="1" stop-color="#FF759F" stop-opacity="0"/>
</radialGradient>
</defs>
</svg>
