<svg width="77" height="77" viewBox="0 0 77 77" fill="none" xmlns="http://www.w3.org/2000/svg">
<circle cx="38.5" cy="38.5" r="38.5" fill="#F5F5F5"/>
<path d="M43 37H41V29H45C45.5304 29 46.0391 29.2107 46.4142 29.5858C46.7893 29.9609 47 30.4696 47 31C47 31.5304 47.2107 32.0391 47.5858 32.4142C47.9609 32.7893 48.4696 33 49 33C49.5304 33 50.0391 32.7893 50.4142 32.4142C50.7893 32.0391 51 31.5304 51 31C51 29.4087 50.3679 27.8826 49.2426 26.7574C48.1174 25.6321 46.5913 25 45 25H41V21C41 20.4696 40.7893 19.9609 40.4142 19.5858C40.0391 19.2107 39.5304 19 39 19C38.4696 19 37.9609 19.2107 37.5858 19.5858C37.2107 19.9609 37 20.4696 37 21V25H35C32.8783 25 30.8434 25.8429 29.3431 27.3431C27.8429 28.8434 27 30.8783 27 33C27 35.1217 27.8429 37.1566 29.3431 38.6569C30.8434 40.1571 32.8783 41 35 41H37V49H33C32.4696 49 31.9609 48.7893 31.5858 48.4142C31.2107 48.0391 31 47.5304 31 47C31 46.4696 30.7893 45.9609 30.4142 45.5858C30.0391 45.2107 29.5304 45 29 45C28.4696 45 27.9609 45.2107 27.5858 45.5858C27.2107 45.9609 27 46.4696 27 47C27 48.5913 27.6321 50.1174 28.7574 51.2426C29.8826 52.3679 31.4087 53 33 53H37V57C37 57.5304 37.2107 58.0391 37.5858 58.4142C37.9609 58.7893 38.4696 59 39 59C39.5304 59 40.0391 58.7893 40.4142 58.4142C40.7893 58.0391 41 57.5304 41 57V53H43C45.1217 53 47.1566 52.1571 48.6569 50.6569C50.1571 49.1566 51 47.1217 51 45C51 42.8783 50.1571 40.8434 48.6569 39.3431C47.1566 37.8429 45.1217 37 43 37ZM37 37H35C33.9391 37 32.9217 36.5786 32.1716 35.8284C31.4214 35.0783 31 34.0609 31 33C31 31.9391 31.4214 30.9217 32.1716 30.1716C32.9217 29.4214 33.9391 29 35 29H37V37ZM43 49H41V41H43C44.0609 41 45.0783 41.4214 45.8284 42.1716C46.5786 42.9217 47 43.9391 47 45C47 46.0609 46.5786 47.0783 45.8284 47.8284C45.0783 48.5786 44.0609 49 43 49Z" fill="url(#paint0_linear_117_5979)"/>
<defs>
<linearGradient id="paint0_linear_117_5979" x1="28.92" y1="19" x2="60.1708" y2="42.795" gradientUnits="userSpaceOnUse">
<stop stop-color="#FF7051"/>
<stop offset="1" stop-color="#D57AFF"/>
</linearGradient>
</defs>
</svg>
