<svg width="110" height="110" viewBox="0 0 110 110" fill="none" xmlns="http://www.w3.org/2000/svg">
<circle cx="55" cy="54.9998" r="55" fill="url(#paint0_radial_333_5128)"/>
<path d="M48.8082 87.0272C48.1623 86.7629 47.6044 86.3959 47.3842 85.6619C47.076 84.6343 47.6485 83.548 48.6908 83.269C49.0284 83.181 49.3807 83.1663 49.7331 83.1663C58.9228 83.1663 68.0979 83.1663 77.2877 83.1663C77.5373 83.1663 77.7868 83.1663 78.1391 83.1663C78.1391 82.8874 78.1391 82.6525 78.1391 82.4029C78.1391 66.886 78.1391 51.3838 78.1391 35.8669C78.1391 35.5586 78.1391 35.2356 78.1979 34.9273C78.3887 33.9584 79.2255 33.3125 80.1797 33.3859C81.1486 33.4446 81.8973 34.1786 81.9707 35.1475C81.9853 35.3677 81.9853 35.5733 81.9853 35.7935C81.9853 52.0737 81.9853 68.3393 82 84.6196C82 85.8087 81.589 86.6161 80.4586 87.0125C69.9183 87.0272 59.3632 87.0272 48.8082 87.0272Z" fill="white"/>
<path d="M21.9582 72.2442C22.3399 70.6587 22.7363 69.0733 23.118 67.4878C23.4409 66.1372 23.7492 64.7867 24.0575 63.4361C24.3364 62.247 25.0264 61.6891 26.2742 61.6891C32.4692 61.6891 38.6642 61.6891 44.8592 61.6891C46.1217 61.6891 46.797 62.203 47.0759 63.4067C47.7659 66.3134 48.4412 69.2201 49.1165 72.1267C49.3807 73.2718 48.7788 74.2847 47.7366 74.549C46.7089 74.7985 45.6813 74.1819 45.4024 73.0369C44.8299 70.7468 44.3161 68.442 43.7729 66.1519C43.7289 65.9611 43.6848 65.7849 43.6261 65.5794C43.2738 65.5794 42.9508 65.5794 42.5398 65.5794C42.6572 66.607 42.76 67.6052 42.8774 68.6035C43.0242 69.8807 43.2004 71.1578 43.3031 72.4497C43.4059 73.6094 42.6866 74.5049 41.6296 74.6077C40.5286 74.7104 39.6625 74.0205 39.5157 72.8314C39.2367 70.7174 39.0165 68.6035 38.7523 66.4896C38.6349 65.4913 38.6202 65.4913 37.4898 65.6087C37.4898 65.8289 37.4898 66.0491 37.4898 66.2694C37.4898 68.3393 37.5045 70.4092 37.4898 72.4791C37.4751 73.7562 36.7411 74.5783 35.6254 74.6077C34.5097 74.637 33.673 73.8296 33.6583 72.6699C33.6436 70.5413 33.6583 68.4127 33.6583 66.284C33.6583 66.0785 33.6583 65.8583 33.6583 65.6087C33.2619 65.6087 32.8949 65.6087 32.4986 65.6087C32.3518 66.8272 32.205 68.0456 32.0582 69.2641C31.926 70.3945 31.8086 71.5102 31.6765 72.6405C31.5297 73.9617 30.6489 74.7545 29.4745 74.6077C28.3441 74.4755 27.6835 73.492 27.845 72.1854C28.1092 70.0128 28.3588 67.8401 28.623 65.6234C28.256 65.6234 27.9037 65.6234 27.5073 65.6234C26.9495 68.0457 26.3769 70.4679 25.8191 72.9048C25.5402 74.1232 24.6447 74.7838 23.5584 74.6077C22.7509 74.4755 22.3105 73.903 21.9729 73.2131C21.9582 72.8754 21.9582 72.5671 21.9582 72.2442Z" fill="white"/>
<path d="M26.1861 87.0271C25.0704 86.5573 24.7034 85.7059 24.7328 84.5168C24.7915 81.8891 24.7328 79.2466 24.7621 76.6189C24.7768 75.239 25.9512 74.3581 27.2284 74.7398C28.0652 74.9894 28.5643 75.694 28.579 76.707C28.5936 78.6447 28.579 80.5678 28.579 82.5056C28.579 82.7112 28.579 82.9314 28.579 83.1662C33.2032 83.1662 37.7687 83.1662 42.3783 83.1662C42.3783 82.2414 42.3783 81.3459 42.3783 80.4651C42.3783 79.2907 42.3783 78.1163 42.3783 76.9565C42.3783 75.5619 43.1563 74.6518 44.3161 74.6664C45.4611 74.6811 46.2245 75.5766 46.2245 76.9419C46.2245 79.5256 46.1951 82.0946 46.2392 84.6783C46.2539 85.8527 45.8281 86.6748 44.7124 87.0858C38.5321 87.0271 32.3518 87.0271 26.1861 87.0271Z" fill="white"/>
<path d="M36.3007 30.8462C36.3007 31.1838 36.3007 31.4334 36.3007 31.683C36.3007 40.5351 36.3007 49.3872 36.3007 58.2393C36.3007 59.4725 35.8456 60.1918 34.8914 60.456C33.7757 60.779 32.6307 60.001 32.4986 58.8559C32.4692 58.6063 32.4692 58.3421 32.4692 58.0925C32.4692 48.5358 32.4692 38.979 32.4692 29.4369C32.4692 27.6459 33.1298 27 34.9208 27C49.8505 27 64.7802 27 79.7099 27C80.855 27 81.5596 27.411 81.8679 28.2625C82.2643 29.3488 81.6477 30.5086 80.5173 30.7728C80.1944 30.8462 79.8567 30.8609 79.5337 30.8609C65.4114 30.8609 51.2745 30.8609 37.1522 30.8609C36.8879 30.8462 36.6384 30.8462 36.3007 30.8462Z" fill="white"/>
<path d="M49.8945 59.1201C46.7677 59.1201 43.6408 59.1348 40.5139 59.1201C39.09 59.1201 38.1504 57.8429 38.6202 56.5658C38.8844 55.8464 39.4129 55.4207 40.1763 55.3033C40.3818 55.2739 40.602 55.2739 40.8222 55.2739C46.8851 55.2739 52.9333 55.2739 58.9962 55.2739C59.2311 55.2739 59.466 55.2739 59.7009 55.318C60.6991 55.4941 61.3891 56.3456 61.3304 57.2998C61.2717 58.298 60.4936 59.1054 59.466 59.1201C57.9393 59.1495 56.4125 59.1348 54.9005 59.1348C53.2269 59.1201 51.5534 59.1201 49.8945 59.1201Z" fill="white"/>
<path d="M49.8945 44.9392C46.7677 44.9392 43.6408 44.9539 40.5139 44.9392C39.09 44.9392 38.1504 43.6767 38.6202 42.3995C38.8698 41.7242 39.3542 41.2985 40.0589 41.1664C40.2644 41.1223 40.4846 41.1077 40.7048 41.1077C46.8411 41.1077 52.9774 41.1077 59.099 41.1077C60.0385 41.1077 60.7872 41.4159 61.1689 42.3261C61.6827 43.5886 60.7872 44.9245 59.3779 44.9392C56.9117 44.9685 54.4601 44.9539 51.9938 44.9539C51.3038 44.9539 50.5992 44.9539 49.8945 44.9392Z" fill="white"/>
<path d="M67.5107 72.0093C69.2429 70.277 70.8724 68.6475 72.4872 67.018C72.9717 66.5336 73.5149 66.2253 74.2048 66.3134C74.9682 66.4162 75.5114 66.8125 75.7756 67.5465C76.0398 68.2952 75.9077 68.9852 75.3646 69.5577C74.5571 70.3798 73.7351 71.1872 72.9277 72.0093C71.6505 73.3011 70.3586 74.5783 69.0668 75.8555C68.0832 76.8391 67.0262 76.8537 66.0427 75.8849C65.0885 74.96 64.1489 74.0205 63.2241 73.0663C62.6956 72.5231 62.5194 71.8478 62.769 71.1138C63.0039 70.4092 63.5177 69.9834 64.237 69.8366C64.927 69.7045 65.5142 69.9394 65.9986 70.4238C66.5124 70.923 66.9822 71.4368 67.5107 72.0093Z" fill="#FFE9F3"/>
<path d="M67.5254 57.5641C69.243 55.8465 70.8725 54.2317 72.4873 52.5875C72.9717 52.1031 73.5149 51.7948 74.2049 51.8976C74.9536 52.0003 75.5114 52.3967 75.7756 53.1307C76.0399 53.85 75.9078 54.5106 75.394 55.0978C75.2765 55.23 75.1444 55.3474 75.027 55.4795C73.0451 57.4613 71.078 59.4285 69.0962 61.4103C68.0392 62.4673 67.0116 62.4526 65.9399 61.3956C65.0298 60.4854 64.0902 59.59 63.2241 58.6504C62.1525 57.4907 62.725 55.7291 64.2517 55.4355C64.9417 55.3034 65.5289 55.5529 66.0133 56.0227C66.5125 56.5071 66.9969 57.0209 67.5254 57.5641Z" fill="#FFE9F3"/>
<path d="M67.5547 43.2509C68.0685 42.6931 68.4943 42.194 68.9347 41.7389C70.1531 40.5058 71.3863 39.2726 72.6194 38.0542C73.28 37.4082 74.1314 37.2908 74.8801 37.6872C75.5995 38.0689 76.0252 38.8175 75.8637 39.6396C75.7903 40.036 75.5848 40.4764 75.3058 40.7553C73.2066 42.8986 71.078 45.0272 68.9347 47.1412C68.0979 47.9633 67.0116 47.9779 66.1601 47.1705C65.1766 46.231 64.2077 45.2621 63.2681 44.2639C62.4607 43.4271 62.4754 42.2967 63.2388 41.5334C64.0021 40.77 65.1325 40.7553 65.9693 41.548C66.4978 42.0619 66.9528 42.6197 67.5547 43.2509Z" fill="#FFE9F3"/>
<path d="M56.0455 69.4403C57.1025 69.4403 58.1594 69.4403 59.2017 69.4403C60.4495 69.455 61.3304 70.2624 61.3304 71.3781C61.3157 72.4644 60.4495 73.2865 59.2458 73.2865C57.1172 73.3012 54.9885 73.3012 52.8599 73.2865C51.6268 73.2865 50.79 72.4938 50.79 71.3781C50.7753 70.233 51.6268 69.455 52.8893 69.4403C53.9316 69.4403 54.9885 69.4403 56.0455 69.4403Z" fill="white"/>
<defs>
<radialGradient id="paint0_radial_333_5128" cx="0" cy="0" r="1" gradientUnits="userSpaceOnUse" gradientTransform="translate(54.2466 55.7532) rotate(140.711) scale(124.356 191.831)">
<stop offset="0.0104167" stop-color="#FF3976"/>
<stop offset="0.411458" stop-color="#D57AFF"/>
<stop offset="1" stop-color="#FF759F" stop-opacity="0"/>
<stop offset="1" stop-color="#FF759F" stop-opacity="0"/>
</radialGradient>
</defs>
</svg>
