<svg width="110" height="110" viewBox="0 0 110 110" fill="none" xmlns="http://www.w3.org/2000/svg">
<circle cx="55" cy="55" r="55" fill="url(#paint0_radial_333_5054)"/>
<path d="M25.8869 70.9539L25.4731 86.6749V87.0886L83.8062 86.6749V80.4692L82.5651 70.9539L77.1869 66.4031L61.8796 61.8523L54.8465 68.4717H53.6054L46.5723 61.8523L29.1965 67.6442L25.8869 70.9539Z" fill="#FFD0E2"/>
<path d="M56.1416 16C57.7178 16.2817 59.3315 16.4882 60.8889 16.8825C63.4783 17.5209 65.8801 18.6288 67.8691 20.4689C68.9386 21.4453 69.8018 22.572 70.3647 23.9051C72.4475 28.7872 74.4928 33.688 76.5756 38.57C78.0204 41.9311 77.9266 45.2546 76.4067 48.5594C74.3427 53.0471 72.3161 57.5348 70.2709 62.0225C70.1583 62.2478 70.0645 62.4919 69.9331 62.7924C71.1528 63.1867 72.3349 63.5622 73.5358 63.9378C75.7875 64.6513 78.0579 65.3273 80.0844 66.6041C82.2423 67.9561 83.8935 69.7023 84.4376 72.2935C84.569 72.8944 84.6253 73.4953 84.6253 74.0961C84.644 78.5651 84.6253 83.0528 84.6253 87.5217C84.6253 87.6344 84.6065 87.747 84.6065 87.916C82.5237 87.916 80.4597 87.916 78.3581 87.916C78.3581 87.2776 78.3581 86.6204 78.3581 85.8881C79.7091 85.8881 81.0789 85.8881 82.5237 85.8881C82.5237 85.5501 82.5237 85.306 82.5237 85.0619C82.5237 81.5694 82.4674 78.0769 82.5425 74.5843C82.5988 71.8992 81.4917 69.8901 79.24 68.5757C77.7765 67.7307 76.1815 67.0923 74.5866 66.4914C72.7852 65.8342 70.9464 65.3085 69.1075 64.764C68.7885 64.6701 68.357 64.6701 68.0567 64.8015C64.06 66.5665 60.0821 68.3691 56.0853 70.153C55.7476 70.3032 55.5037 70.4534 55.5224 70.904C55.5412 75.7297 55.5412 80.5554 55.5412 85.3811C55.5412 85.5126 55.56 85.644 55.5975 85.8506C61.0578 85.8506 66.4993 85.8506 71.9784 85.8506C71.9784 86.5641 71.9784 87.2213 71.9784 87.916C56.1229 87.916 40.2673 87.916 24.318 87.916C24.318 87.6719 24.318 87.409 24.318 87.1649C24.318 83.0903 24.4118 79.0157 24.2992 74.9411C24.1679 70.8102 26.0631 67.9373 29.6094 66.2098C31.8986 65.1019 34.3942 64.3884 36.8148 63.5059C37.5278 63.243 38.2784 63.0365 39.0289 62.7736C37.115 58.5863 35.2011 54.4741 33.3622 50.3244C32.7055 48.841 32.105 47.3013 31.6172 45.7428C31.0543 43.8839 31.1481 41.9499 31.8236 40.1473C32.9682 37.0866 34.2441 34.0635 35.5013 30.9653C36.1956 31.247 36.8148 31.5098 37.4903 31.7915C37.1338 32.6365 36.796 33.4439 36.4583 34.2513C35.6139 36.3355 34.7132 38.3822 33.9251 40.4852C33.2309 42.3254 33.2309 44.1843 33.9064 46.1747C34.1128 45.893 34.2629 45.6677 34.413 45.4424C37.0962 41.4429 40.0234 37.6499 43.8137 34.6268C46.3281 32.6365 49.0676 31.1343 52.2763 30.6085C56.0853 29.9889 59.5567 30.9653 62.7841 32.9557C66.4806 35.2277 69.3514 38.3447 71.9409 41.7621C73.0104 43.1704 74.0049 44.635 75.0744 46.1371C75.7499 44.2407 75.7687 42.363 75.0557 40.5416C74.0612 37.9503 72.9729 35.3779 71.8846 32.8242C70.8901 30.4583 69.8205 28.1487 68.9011 25.7641C67.8316 22.9287 65.8614 21.0135 63.1218 19.8868C57.0235 17.3707 50.944 17.4458 44.9771 20.2624C42.7442 21.3139 41.093 23.0038 40.1923 25.351C39.6106 26.8531 38.9351 28.3177 38.2784 29.8575C37.6029 29.5758 36.9837 29.3129 36.3269 29.0313C37.1901 27.0597 37.9406 25.0693 38.8976 23.2104C40.3799 20.3375 42.9506 18.6851 45.8778 17.5585C47.923 16.7699 50.0434 16.3192 52.22 16.1127C52.4076 16.0939 52.5765 16.0376 52.7641 16C53.89 16 55.0158 16 56.1416 16ZM26.382 85.7942C35.4263 85.7942 44.3954 85.7942 53.3458 85.7942C53.3646 85.6816 53.3833 85.644 53.3833 85.6065C53.3833 80.6869 53.4021 75.7673 53.3646 70.8477C53.3646 70.6224 53.0831 70.2844 52.8392 70.1717C48.8612 68.3691 44.8833 66.5665 40.8866 64.8015C40.5863 64.6701 40.1548 64.6701 39.8358 64.764C38.1846 65.2522 36.5333 65.7967 34.8821 66.3037C32.9869 66.8858 31.1106 67.5617 29.4406 68.6884C27.4141 70.0779 26.3257 71.9556 26.3633 74.4905C26.4196 78.0018 26.382 81.5131 26.382 85.0244C26.382 85.2685 26.382 85.5314 26.382 85.7942ZM42.8568 42.6634H42.8755C42.8755 43.8088 42.8192 44.9542 42.8755 46.0996C43.2133 52.127 47.9043 56.7837 53.9275 57.0841C60.1571 57.4034 65.6174 52.5589 65.9552 46.3249C66.0865 43.7525 66.0115 41.18 65.9927 38.6075C65.9927 38.3634 65.8238 38.063 65.6362 37.9128C64.2477 36.805 62.8967 35.622 61.4143 34.6831C58.4308 32.8054 55.1847 32.0544 51.6758 32.8993C48.2608 33.7067 45.54 35.6783 43.0444 38.063C42.8943 38.2132 42.838 38.5137 42.838 38.7578C42.8568 40.0346 42.8568 41.349 42.8568 42.6634ZM41.0179 62.1539C42.6879 61.6282 44.3016 61.1212 45.9153 60.5767C46.0842 60.5203 46.2343 60.2575 46.2718 60.0697C46.4594 59.2811 46.5908 58.4549 46.7972 57.6662C46.9285 57.1593 46.7972 56.8776 46.3656 56.5584C43.3634 54.3239 41.4307 51.3759 40.9429 47.6393C40.6802 45.6114 40.7927 43.5271 40.7177 41.4804C40.7177 41.2176 40.6989 40.9547 40.6802 40.5604C40.455 40.8045 40.3424 40.9171 40.2486 41.0486C38.5411 43.3957 36.8523 45.7616 35.1448 48.09C34.8446 48.4843 34.8633 48.8035 35.0697 49.2353C36.6834 52.7279 38.2784 56.258 39.8921 59.7505C40.2673 60.5391 40.6426 61.3278 41.0179 62.1539ZM68.4132 40.5979C68.3194 40.6355 68.2256 40.673 68.1318 40.7106C68.1318 42.1564 68.1318 43.6022 68.1318 45.0481C68.1506 49.8925 66.2554 53.7794 62.3525 56.6898C62.1649 56.8213 62.0147 57.1968 62.0523 57.4221C62.1836 58.3234 62.39 59.206 62.5964 60.1073C62.634 60.2762 62.7841 60.5203 62.9342 60.5579C64.5666 61.1024 66.1991 61.6094 67.8503 62.1352C67.9817 61.8535 68.0943 61.647 68.1881 61.4404C69.8393 57.8352 71.3967 54.1737 73.1793 50.6248C73.9298 49.1227 73.8923 48.0336 72.8791 46.738C71.3217 44.7664 69.8956 42.6634 68.4132 40.5979ZM48.88 58.0606C48.7111 58.9055 48.5047 59.7129 48.3921 60.5203C48.3546 60.8208 48.4484 61.2151 48.6173 61.4404C49.8745 62.9238 51.1504 64.3696 52.4264 65.8342C53.0831 66.5853 53.7399 67.3364 54.3966 68.0875C54.5092 67.9936 54.5842 67.9748 54.6218 67.9185C56.5544 65.7216 58.4684 63.5247 60.3823 61.309C60.4949 61.1775 60.6075 60.971 60.5699 60.8208C60.4011 59.9195 60.1946 59.0182 59.9882 58.0606C56.273 59.6003 52.5953 59.5815 48.88 58.0606ZM58.6748 66.4914C58.6935 66.5478 58.7311 66.5853 58.7498 66.6417C60.9452 65.6653 63.1406 64.6701 65.4861 63.6186C64.3415 63.2618 63.3845 62.9426 62.4276 62.6797C62.2774 62.6422 61.996 62.6985 61.9022 62.8111C60.8326 64.0129 59.7631 65.2522 58.6748 66.4914ZM50.1184 66.6229C50.1559 66.5853 50.1935 66.5478 50.231 66.5102C49.1427 65.2709 48.0544 64.0129 46.9661 62.7736C46.8723 62.6609 46.6283 62.6046 46.497 62.6422C45.5212 62.9238 44.5643 63.243 43.4197 63.5998C45.7652 64.6701 47.9418 65.6465 50.1184 66.6229Z" fill="white"/>
<path d="M61.2642 23.5859C60.5887 23.5859 59.9508 23.5859 59.2753 23.5859C59.2753 22.91 59.2753 22.2528 59.2753 21.5392C59.932 21.5392 60.57 21.5392 61.2642 21.5392C61.2642 22.2152 61.2642 22.8912 61.2642 23.5859Z" fill="white"/>
<path d="M63.4783 23.6235C64.1726 23.6235 64.8106 23.6235 65.4861 23.6235C65.4861 24.2994 65.4861 24.9754 65.4861 25.6702C64.8293 25.6702 64.1726 25.6702 63.4783 25.6702C63.4783 25.013 63.4783 24.3558 63.4783 23.6235Z" fill="white"/>
<path d="M55.5036 49.1602C54.7718 49.1602 54.1339 49.1602 53.4396 49.1602C53.4396 47.7707 53.4396 46.4 53.4396 44.973C54.7531 45.0481 56.029 44.973 56.8359 43.8276C57.2299 43.2455 57.5301 42.4756 57.5677 41.7809C57.6615 40.166 56.3855 38.8517 54.7531 38.6639C53.0643 38.4573 51.7884 39.5652 51.2254 41.7809C50.6062 41.7809 49.9683 41.7809 49.1802 41.7809C49.274 41.2363 49.2928 40.7106 49.4429 40.2224C50.1559 37.9316 52.5014 36.3355 54.8281 36.5609C57.3425 36.805 59.3502 38.6451 59.6505 41.011C59.9882 43.5647 58.6372 45.9494 56.2729 46.738C55.6162 46.9633 55.4286 47.245 55.5036 47.8646C55.5412 48.2965 55.5036 48.7096 55.5036 49.1602Z" fill="white"/>
<path d="M55.4661 51.3571C55.4661 52.0143 55.4661 52.6527 55.4661 53.3475C54.7906 53.3475 54.1338 53.3475 53.4396 53.3475C53.4396 52.6903 53.4396 52.0519 53.4396 51.3571C54.1151 51.3571 54.753 51.3571 55.4661 51.3571Z" fill="white"/>
<defs>
<radialGradient id="paint0_radial_333_5054" cx="0" cy="0" r="1" gradientUnits="userSpaceOnUse" gradientTransform="translate(54.2466 55.7534) rotate(140.711) scale(124.356 191.831)">
<stop offset="0.0104167" stop-color="#FF3976"/>
<stop offset="0.411458" stop-color="#D57AFF"/>
<stop offset="1" stop-color="#FF759F" stop-opacity="0"/>
<stop offset="1" stop-color="#FF759F" stop-opacity="0"/>
</radialGradient>
</defs>
</svg>
