<svg width="33" height="45" viewBox="0 0 33 45" fill="none" xmlns="http://www.w3.org/2000/svg">
<path d="M10.5967 22.423C10.5967 22.423 11.1534 20.968 10.3428 20.5151C9.53222 20.0622 8.56536 21.0065 8.28214 21.999C7.99892 22.9915 5.87966 29.5825 14.2102 33.5911C14.2102 33.5815 8.38957 29.2935 10.5967 22.423Z" fill="url(#paint0_linear_215_11459)"/>
<path d="M22.7358 20.6787C26.2614 24.8029 22.7358 31.5481 22.7358 31.5481C22.7358 31.5481 25.5094 29.0042 25.2458 24.8414C24.9918 20.6787 22.7358 20.6787 22.7358 20.6787Z" fill="url(#paint1_linear_215_11459)"/>
<path d="M32.9121 43.0632C32.9023 42.8897 32.7558 42.7548 32.5801 42.7645C31.8183 42.7645 31.203 42.2056 31.203 41.5214C31.203 40.8373 31.8183 40.2784 32.5801 40.2784C32.6484 40.2784 32.7265 40.288 32.7949 40.2976C32.3457 30.0739 31.8964 19.8598 31.4374 9.61673C31.1835 9.61673 30.9882 9.61673 30.8026 9.61673C28.3806 9.61673 25.9683 9.61673 23.5463 9.61673C23.1752 9.61673 22.8724 9.32765 22.8627 8.96148C22.8334 7.66063 22.9115 6.3405 22.7162 5.06855C22.2376 2.11995 19.5324 -0.0096034 16.4854 3.2569e-05C13.4188 0.00966854 10.7233 2.17776 10.2838 5.12637C10.0885 6.41759 10.1569 7.74735 10.1569 9.05784C10.1569 9.51073 10.0104 9.61673 9.57088 9.60709C7.26606 9.58782 4.96123 9.59746 2.65641 9.59746C2.47085 9.59746 2.27553 9.59746 2.0509 9.59746C1.46493 19.8598 0.869192 30.0643 0.273454 40.288C0.36135 40.2687 0.459012 40.2591 0.556674 40.2591C1.31844 40.2591 1.93371 40.818 1.93371 41.5021C1.93371 42.1863 1.31844 42.7452 0.556674 42.7452C0.527375 42.7452 0.48831 42.7452 0.459012 42.7452C0.273454 42.7355 0.117194 42.8608 0.107428 43.0439C0.0781296 43.6991 0.0390648 44.3448 0 45H33C32.9707 44.3544 32.9414 43.7088 32.9121 43.0632ZM23.8491 13.0471C23.8491 13.8662 23.1752 14.5311 22.3451 14.5311C21.5149 14.5311 20.8411 13.8662 20.8411 13.0471C20.8411 12.2281 21.5149 11.5632 22.3451 11.5632C23.1752 11.5632 23.8491 12.2281 23.8491 13.0471ZM11.5339 9.06748C11.5827 7.9208 11.5144 6.75485 11.6218 5.6178C11.8171 3.60388 13.5067 1.86941 15.5283 1.47434C17.5987 1.06962 19.757 2.06213 20.7825 3.86406C21.2415 4.67348 21.4466 5.52144 21.4563 6.43686C21.4563 7.46791 21.4563 8.50859 21.4563 9.57818C21.2415 9.58782 21.0852 9.60709 20.929 9.60709C17.9796 9.60709 15.0302 9.59746 12.0808 9.61673C11.6413 9.61673 11.5241 9.49146 11.5339 9.06748ZM10.8893 11.5632C11.7194 11.5632 12.3933 12.2281 12.3933 13.0471C12.3933 13.8662 11.7194 14.5311 10.8893 14.5311C10.0592 14.5311 9.38532 13.8662 9.38532 13.0471C9.38532 12.2281 10.0592 11.5632 10.8893 11.5632ZM26.4371 21.6906C27.3844 24.8223 25.4605 28.9657 25.4605 28.9657C25.4605 28.9657 24.0249 31.7313 20.5872 34.4486C17.1592 37.166 16.251 38.3223 16.251 38.3223C16.251 38.3223 15.3525 37.166 11.9148 34.4486C8.48683 31.7216 7.04143 28.9657 7.04143 28.9657C7.04143 28.9657 5.10772 24.8319 6.06481 21.6906C4.20923 20.3223 5.37141 16.6317 5.37141 16.6317C5.44954 18.2409 7.0805 19.9079 7.0805 19.9079C7.50044 19.455 8.04735 19.0792 8.75052 18.7998C14.161 16.6124 16.2412 21.8737 16.2412 21.8737C16.2412 21.8737 18.3214 16.6124 23.7416 18.7998C24.3569 19.0503 24.855 19.3683 25.2554 19.7538C25.2554 19.7538 27.0524 18.5782 27.4137 16.6413C27.4235 16.6317 28.4294 20.3994 26.4371 21.6906Z" fill="url(#paint2_linear_215_11459)"/>
<defs>
<linearGradient id="paint0_linear_215_11459" x1="8.34554" y1="20.3984" x2="17.8752" y2="26.242" gradientUnits="userSpaceOnUse">
<stop stop-color="#FF7051"/>
<stop offset="1" stop-color="#D57AFF"/>
</linearGradient>
<linearGradient id="paint1_linear_215_11459" x1="22.938" y1="20.6787" x2="27.7209" y2="22.0901" gradientUnits="userSpaceOnUse">
<stop stop-color="#FF7051"/>
<stop offset="1" stop-color="#D57AFF"/>
</linearGradient>
<linearGradient id="paint2_linear_215_11459" x1="2.64" y1="-5.86458e-06" x2="39.0172" y2="33.8535" gradientUnits="userSpaceOnUse">
<stop stop-color="#FF7051"/>
<stop offset="1" stop-color="#D57AFF"/>
</linearGradient>
</defs>
</svg>
