<svg width="31" height="52" viewBox="0 0 31 52" fill="none" xmlns="http://www.w3.org/2000/svg">
<path d="M4.14262 51.5395C4.08886 51.5126 4.0351 51.4723 3.96791 51.4454C2.34177 50.975 1.42791 49.7924 1.42791 48.0722C1.42791 43.597 1.42791 39.1217 1.42791 34.6465C1.42791 32.3349 1.45479 30.0234 1.41447 27.6984C1.38759 25.9648 1.41447 24.2715 2.70463 22.7663C2.42241 22.7663 2.28801 22.7663 2.14018 22.7663C0.9441 22.7394 0.0571164 21.9196 0.0302381 20.7235C-0.0100794 19.5006 -0.0100794 18.2776 0.0302381 17.0546C0.0705555 15.8317 0.957539 15.0119 2.19394 14.9984C3.01373 14.985 3.83352 14.985 4.6533 14.985C4.68018 14.985 4.70706 14.9581 4.80113 14.9178C4.80113 14.7431 4.80113 14.555 4.80113 14.3534C4.80113 10.7786 4.85489 7.20374 4.78769 3.64237C4.76082 1.43835 6.45415 -0.0265145 8.44314 0.000363772C13.1603 0.0541204 17.864 0.0541204 22.5811 0.000363772C24.597 -0.0265145 26.2634 1.46523 26.2231 3.65581C26.1559 7.23062 26.2097 10.792 26.2097 14.3668C26.2097 14.5684 26.2097 14.7565 26.2097 14.9984C27.0832 14.9984 27.903 14.9984 28.7228 14.9984C30.1205 14.9984 30.9806 15.8451 30.994 17.2428C31.0075 18.197 30.994 19.1511 30.994 20.1053C30.994 22.0002 30.3624 22.6588 28.4137 22.7797C28.4809 22.9141 28.5347 23.0216 28.6019 23.1157C29.2604 24.0699 29.5829 25.1316 29.5964 26.2739C29.5964 33.5713 29.5964 40.8554 29.5964 48.1528C29.5964 49.7521 28.6422 50.975 27.1101 51.4051C27.0295 51.432 26.9623 51.4723 26.8951 51.4992C19.302 51.5395 11.7223 51.5395 4.14262 51.5395ZM3.47066 28.3704C3.47066 33.8536 3.47066 39.3099 3.47066 44.7662C11.5207 44.7662 19.5439 44.7662 27.567 44.7662C27.567 39.283 27.567 33.8401 27.567 28.3704C19.517 28.3704 11.4938 28.3704 3.47066 28.3704ZM6.83045 14.9716C12.663 14.9716 18.4015 14.9716 24.1669 14.9716C24.1804 14.7969 24.1938 14.649 24.1938 14.5012C24.1938 10.8726 24.1938 7.2575 24.1938 3.62893C24.1938 2.48661 23.7234 2.02967 22.5542 2.02967C17.864 2.02967 13.1603 2.02967 8.47002 2.02967C7.28738 2.02967 6.83045 2.48661 6.83045 3.66925C6.83045 7.2575 6.83045 10.8458 6.83045 14.434C6.83045 14.6087 6.83045 14.77 6.83045 14.9716ZM28.9513 17.0412C19.9605 17.0412 11.0369 17.0412 2.08643 17.0412C2.08643 18.2776 2.08643 19.5006 2.08643 20.7101C11.0638 20.7101 20.0008 20.7101 28.9513 20.7101C28.9513 19.4737 28.9513 18.2776 28.9513 17.0412ZM3.47066 26.2739C11.5207 26.2739 19.5439 26.2739 27.5939 26.2739C27.5805 26.0857 27.5805 25.9245 27.5536 25.7766C27.2579 23.9489 25.8468 22.7663 23.925 22.7663C19.3288 22.7528 14.7327 22.7663 10.1499 22.7663C9.07478 22.7663 7.99965 22.7394 6.93796 22.7797C4.94896 22.8335 3.4169 24.3924 3.47066 26.2739ZM3.44378 46.8492C3.44378 47.2255 3.44378 47.5346 3.44378 47.8572C3.44378 49.0801 3.87383 49.5236 5.0968 49.5236C12.0448 49.5236 18.9794 49.5236 25.9275 49.5236C26.0753 49.5236 26.2366 49.5236 26.3844 49.5236C27.016 49.4699 27.5133 49.0532 27.567 48.4216C27.6208 47.9109 27.5805 47.4002 27.5805 46.8492C19.517 46.8492 11.5073 46.8492 3.44378 46.8492Z" fill="white"/>
<path d="M15.5256 31.6361C16.4126 30.897 17.3936 30.4938 18.5494 30.6819C20.1486 30.9507 21.2238 31.878 21.8017 33.3563C22.3661 34.7943 22.1511 36.1785 21.1163 37.3478C20.1352 38.4632 19.0735 39.5115 18.0387 40.6C17.5952 41.057 17.1652 41.5273 16.7082 41.9708C15.9691 42.71 15.0418 42.7234 14.3161 41.9843C12.9184 40.5463 11.5207 39.0948 10.1365 37.63C8.98072 36.4205 8.60442 34.9959 9.19574 33.4101C9.78706 31.8243 10.9428 30.8701 12.6496 30.6416C13.5635 30.5341 14.3833 30.8163 15.5256 31.6361ZM15.6331 40.1834C15.5659 40.2372 15.6331 40.1969 15.6734 40.1565C16.9233 38.8529 18.1865 37.5493 19.4364 36.2457C19.5976 36.0845 19.732 35.8829 19.853 35.6813C20.3234 34.8078 20.0143 33.6789 19.1541 33.0607C18.3075 32.4425 17.5146 32.5365 16.7217 33.316C16.5604 33.4773 16.3991 33.6654 16.2244 33.8133C15.7675 34.2299 15.2434 34.2299 14.7864 33.8133C14.558 33.5982 14.3429 33.3563 14.1145 33.1413C13.6441 32.7247 13.12 32.55 12.4883 32.7381C11.01 33.1951 10.4725 34.9825 11.4938 36.1382C12.1792 36.9177 12.9049 37.6569 13.6441 38.3826C14.2757 38.9873 14.9477 39.5652 15.6331 40.1834Z" fill="white"/>
</svg>
