<svg width="41" height="57" viewBox="0 0 41 57" fill="none" xmlns="http://www.w3.org/2000/svg">
<g clip-path="url(#clip0_86_151)">
<path d="M0 20.2639C0.342584 19.7592 0.819755 19.6238 1.41928 19.6361C2.55715 19.673 3.68278 19.6484 4.88183 19.6484C4.88183 18.8851 4.88183 18.1711 4.88183 17.4693C4.88183 15.9797 4.88183 14.4778 4.88183 12.9881C4.88183 12.151 5.23665 11.794 6.06864 11.794C7.59803 11.794 9.11519 11.794 10.6813 11.794C10.6813 9.83652 10.6813 7.90369 10.6813 5.89699C10.1307 5.89699 9.56789 5.89699 9.00507 5.89699C8.16085 5.88468 7.80603 5.55229 7.80603 4.71514C7.79379 3.54559 7.79379 2.37604 7.80603 1.21881C7.80603 0.369348 8.14861 0.0123291 8.9806 0.0123291C19.2459 0.0123291 29.5234 0.0123291 39.7887 0.0123291C40.6329 0.0123291 40.9878 0.357037 40.9878 1.19419C40.9878 4.32118 40.9878 7.46049 40.9878 10.5875C40.9878 11.4616 40.6329 11.794 39.752 11.794C38.6386 11.794 37.513 11.794 36.3996 11.794C35.4819 11.794 35.1394 11.4616 35.1394 10.5506C35.1394 9.22097 35.1394 7.89138 35.1394 6.56179C35.1394 6.36481 35.1394 6.16784 35.1394 5.93393C28.9484 5.93393 22.8186 5.93393 16.6398 5.93393C16.6398 7.86676 16.6398 9.79959 16.6398 11.8063C17.9612 11.8063 19.2704 11.8063 20.5918 11.8063C20.812 11.8063 21.0445 11.8063 21.2647 11.8063C22.1089 11.8186 22.4515 12.1633 22.4515 13.0005C22.4637 14.9702 22.4515 16.9277 22.4515 18.8974C22.4515 19.119 22.4515 19.3406 22.4515 19.6361C22.6473 19.6484 22.8186 19.673 22.9899 19.673C24.0665 19.673 25.1432 19.6607 26.2199 19.673C26.9418 19.6853 27.2966 20.0424 27.3333 20.7687C27.3333 20.8672 27.3333 20.978 27.3333 21.0765C27.3333 32.5873 27.3333 44.0858 27.3456 55.5966C27.3456 56.1998 27.2232 56.6676 26.7216 57.0246C17.8266 57.0246 8.91943 57.0246 0 57.0246C0 44.7629 0 32.5134 0 20.2639ZM25.339 55.0056C25.339 43.8519 25.339 32.7473 25.339 21.6674C17.5207 21.6674 9.75142 21.6674 1.99433 21.6674C1.99433 32.8089 1.99433 43.8888 1.99433 55.0056C9.77589 55.0056 17.533 55.0056 25.339 55.0056ZM6.86392 19.6115C11.4276 19.6115 15.9424 19.6115 20.4572 19.6115C20.4572 17.6417 20.4572 15.7089 20.4572 13.7884C15.9057 13.7884 11.4032 13.7884 6.86392 13.7884C6.86392 15.7335 6.86392 17.654 6.86392 19.6115ZM9.78812 3.92723C10.0695 3.92723 10.3142 3.92723 10.5467 3.92723C18.8544 3.92723 27.1743 3.92723 35.4819 3.92723C35.641 3.92723 35.8123 3.92723 35.9713 3.92723C36.7177 3.95185 37.0725 4.30887 37.0847 5.07216C37.097 6.43868 37.0847 7.81751 37.0847 9.18404C37.0847 9.38101 37.097 9.57799 37.1092 9.77496C37.7699 9.77496 38.3939 9.77496 39.0057 9.77496C39.0057 7.16503 39.0057 4.59203 39.0057 1.9944C29.2542 1.9944 19.5273 1.9944 9.77589 1.9944C9.78812 2.63458 9.78812 3.23781 9.78812 3.92723ZM14.6088 5.93393C13.9358 5.93393 13.3363 5.93393 12.7246 5.93393C12.7246 7.90369 12.7246 9.82421 12.7246 11.7447C13.3853 11.7447 13.997 11.7447 14.6088 11.7447C14.6088 9.78728 14.6088 7.86676 14.6088 5.93393Z" fill="white"/>
<path d="M13.63 34.7663C14.1928 34.1753 14.6088 33.6952 15.0492 33.252C16.6643 31.6639 19.1358 31.6516 20.7019 33.2028C22.268 34.754 22.3169 37.2531 20.7386 38.8905C18.6708 41.0326 16.5542 43.1255 14.4497 45.2306C13.9114 45.7723 13.3975 45.7723 12.8591 45.2306C10.7669 43.1378 8.65025 41.0449 6.58251 38.9028C5.02865 37.3023 5.05312 34.8278 6.58251 33.2643C8.11191 31.7008 10.5589 31.6516 12.1862 33.1905C12.6634 33.646 13.0916 34.1753 13.63 34.7663ZM13.63 43.3224C15.5876 41.3404 17.4229 39.4937 19.2459 37.6224C20.1513 36.6991 20.1758 35.3818 19.3315 34.557C18.4996 33.7445 17.2516 33.7937 16.3339 34.7047C15.7099 35.3203 15.1104 35.9604 14.4864 36.576C13.9114 37.1546 13.422 37.1546 12.8469 36.5883C12.2352 35.9851 11.6479 35.3695 11.0361 34.7663C10.094 33.8306 8.79707 33.7937 7.94061 34.6678C7.09639 35.5296 7.1698 36.7607 8.11191 37.7209C8.87049 38.4842 9.65354 39.2475 10.3999 40.0108C11.4766 41.0818 12.5166 42.1652 13.63 43.3224Z" fill="white"/>
</g>
<defs>
<clipPath id="clip0_86_151">
<rect width="41" height="57" fill="white"/>
</clipPath>
</defs>
</svg>
