<svg width="39" height="47" viewBox="0 0 39 47" fill="none" xmlns="http://www.w3.org/2000/svg">
<g clip-path="url(#clip0_63_245)">
<path d="M5.15778 2.44146e-05C6.39603 2.44146e-05 7.64358 2.44146e-05 8.88182 2.44146e-05C9.62663 0.11936 10.3901 0.192798 11.1256 0.358032C14.291 1.07405 16.8792 2.71721 18.9553 5.15901C19.1322 5.36096 19.3091 5.57209 19.5046 5.80159C19.7095 5.55374 19.8864 5.36096 20.0539 5.15901C21.9904 2.89163 24.3645 1.26682 27.2972 0.514087C28.2189 0.275415 29.1778 0.165259 30.1182 -0.00915527C31.3564 -0.00915527 32.604 -0.00915527 33.8422 -0.00915527C33.9446 0.0183838 34.047 0.0551025 34.1494 0.0826416C35.5925 0.440649 36.7097 1.59729 36.7935 2.9926C36.9238 5.28752 36.8587 7.57327 36.3001 9.83147C35.8252 11.7684 34.9594 13.5309 34.0843 15.3026C32.0174 19.4885 31.8126 23.601 34.5405 27.6492C36.0301 29.8615 37.3335 32.1932 38.7207 34.4789C39.1303 35.149 39.1024 35.5805 38.5531 36.1313C37.65 37.0217 36.7563 37.9121 35.7973 38.7383C31.8964 42.0889 27.5579 44.6959 22.5956 46.2289C21.6646 46.5135 20.715 46.743 19.7839 46.9908C19.5977 46.9908 19.4115 46.9908 19.2253 46.9908C19.1416 46.9633 19.0578 46.9174 18.9647 46.899C17.7264 46.5502 16.4696 46.284 15.2592 45.8526C9.57077 43.8239 4.72952 40.51 0.549284 36.2414C-0.130353 35.553 -0.148973 35.2041 0.353772 34.3688C1.89925 31.826 3.43541 29.2832 4.99951 26.7405C6.27499 24.6567 6.70326 22.4168 6.39603 20.0117C6.14465 18.0198 5.45571 16.193 4.49677 14.4489C2.55096 10.9239 1.97373 7.13264 2.18786 3.18538C2.2251 2.47854 2.49509 1.85432 2.93267 1.29436C3.50059 0.559985 4.29194 0.220337 5.15778 2.44146e-05ZM10.027 2.35002C10.0363 2.451 10.0456 2.51526 10.0549 2.57034C10.7997 6.49006 11.5259 10.4098 12.2893 14.3203C13.1738 18.8735 13.2296 23.4266 12.3545 27.9889C11.5538 32.1932 10.7625 36.3975 9.96179 40.6018C9.91524 40.8405 9.95248 40.9506 10.1666 41.0791C12.0659 42.1807 14.0396 43.1446 16.1158 43.8606C16.8513 44.1084 17.6054 44.3196 18.4061 44.5582C18.4061 44.2828 18.4061 44.0992 18.4061 43.9248C18.4061 41.0149 18.4061 38.1141 18.4061 35.2041C18.4061 26.2539 18.4061 17.3129 18.3967 8.36272C18.3967 8.14241 18.3874 7.8762 18.2664 7.72014C16.8606 5.9301 15.3151 4.29612 13.1738 3.32307C12.1869 2.87327 11.1535 2.50608 10.027 2.35002ZM20.6032 36.2965C20.687 36.324 20.7243 36.3424 20.7708 36.3516C21.3201 36.5076 21.6273 36.8473 21.646 37.343C21.6646 37.8295 21.3946 38.2242 20.8546 38.3895C20.5474 38.4813 20.5846 38.674 20.5846 38.8852C20.5846 40.6293 20.5846 42.3735 20.5846 44.1176C20.5846 44.2461 20.6032 44.3746 20.6125 44.5123C20.687 44.5123 20.715 44.5215 20.7429 44.5123C23.629 43.778 26.3103 42.5662 28.8613 41.0516C28.973 40.9873 29.0754 40.7578 29.0475 40.6201C28.9078 39.7756 28.7309 38.9403 28.5727 38.0957C27.7999 33.9006 26.962 29.7239 26.2731 25.5196C25.7797 22.5178 25.8541 19.4701 26.3569 16.4684C27.0272 12.4752 27.8279 8.50041 28.5727 4.52561C28.703 3.81877 28.8334 3.10276 28.973 2.39592C28.9358 2.35002 28.8985 2.30413 28.8613 2.25823C27.8372 2.62542 26.7758 2.93752 25.7796 3.36897C23.6383 4.29612 22.1208 5.94846 20.715 7.72014C20.6219 7.83948 20.5939 8.03225 20.5846 8.1883C20.5753 8.89514 20.5846 9.5928 20.5753 10.2996C20.5753 10.5475 20.5939 10.7127 20.9105 10.777C21.348 10.8688 21.6273 11.3002 21.6367 11.7408C21.646 12.1998 21.3667 12.6496 20.9105 12.7506C20.5939 12.824 20.5753 12.9801 20.5753 13.228C20.5846 14.3938 20.5846 15.5504 20.5753 16.7162C20.5753 16.9824 20.6312 17.1201 20.9291 17.1936C21.3387 17.2946 21.5715 17.6067 21.6273 18.0198C21.6832 18.4145 21.5622 18.7541 21.227 18.9928C21.0501 19.1213 20.8174 19.1856 20.6032 19.2865C20.6032 20.6819 20.6032 22.0864 20.6032 23.4817C21.3387 23.7387 21.646 24.06 21.6367 24.574C21.618 25.235 21.1991 25.5379 20.6032 25.6664C20.6032 27.0985 20.6032 28.503 20.6032 29.8983C21.3015 30.1094 21.6273 30.4307 21.6367 30.9448C21.6553 31.6332 21.2177 31.9453 20.5939 32.083C20.6032 33.4875 20.6032 34.8737 20.6032 36.2965ZM2.38337 35.2041C4.19884 36.7004 6.005 38.1967 7.89495 39.7573C7.96943 39.4451 8.00667 39.2891 8.0346 39.133C8.73286 35.452 9.42181 31.7709 10.1387 28.099C10.9487 23.9407 11.0697 19.7823 10.297 15.6055C9.63594 12.0438 8.9563 8.48206 8.28598 4.92952C8.10908 4.00237 7.92288 3.07522 7.74599 2.14807C6.98256 2.14807 6.27499 2.12053 5.55812 2.15725C4.85055 2.19397 4.31987 2.68049 4.32918 3.35979C4.36642 4.92952 4.37573 6.50842 4.55263 8.06897C4.804 10.2721 5.7257 12.2641 6.75912 14.2102C7.44807 15.5045 7.96012 16.8631 8.26736 18.286C9.04009 21.811 8.61183 25.134 6.61947 28.2276C5.26019 30.3389 3.99402 32.5145 2.69061 34.6717C2.61613 34.8002 2.53234 34.9471 2.38337 35.2041ZM36.5607 35.1031C36.4583 34.9379 36.3839 34.8002 36.3001 34.6717C34.9035 32.3768 33.5163 30.0819 32.1105 27.7961C30.5744 25.2992 30.0902 22.6188 30.4533 19.7364C30.7233 17.5699 31.4402 15.5504 32.5015 13.641C34.2798 10.4465 34.8384 7.00413 34.6708 3.41487C34.6336 2.69885 34.1774 2.18479 33.4605 2.14807C32.7343 2.10217 32.0081 2.13889 31.2447 2.13889C31.0399 3.22209 30.8257 4.28694 30.6302 5.3426C29.8854 9.41838 29.0847 13.4758 28.4237 17.5608C27.9489 20.5258 28.0792 23.5092 28.5913 26.4651C29.122 29.5494 29.7458 32.6246 30.3323 35.6998C30.5743 36.985 30.835 38.2701 31.0957 39.6287C33.0601 38.2518 34.8756 36.783 36.5607 35.1031Z" fill="white"/>
</g>
<defs>
<clipPath id="clip0_63_245">
<rect width="39" height="47" fill="white"/>
</clipPath>
</defs>
</svg>
