<svg width="64" height="64" viewBox="0 0 64 64" fill="none" xmlns="http://www.w3.org/2000/svg">
<path d="M35.8166 6C36.6388 6.41111 37.461 6.77084 38.2319 7.23334C41.5722 9.13475 42.9083 13.1431 41.418 16.689C40.3388 19.1557 39.5166 21.7251 39.0027 24.346C38.4888 27.0182 38.386 29.6905 38.4888 32.3627C39.9791 32.003 41.3152 30.2557 41.3666 28.5599C41.418 26.9668 42.343 25.6821 43.7819 25.1682C46.1458 24.2946 48.6639 26.0932 48.6125 28.6627C48.5097 32.4655 46.9166 35.4975 43.8847 37.7072C42.2402 38.8891 40.5444 39.9683 38.8485 41.0989C38.5916 41.3044 38.4374 41.4586 38.4888 41.8183C38.5402 42.3322 38.4888 42.7947 38.4888 43.4114C39.2082 43.4114 39.8763 43.4114 40.5444 43.4114C42.7027 43.4628 44.2958 44.6961 44.7583 46.6489C45.118 48.0878 44.7069 49.3726 43.7305 50.5031C43.5763 50.6573 43.4222 50.8628 43.2166 51.0684C44.7583 52.199 45.7347 53.7407 46.0944 55.7448C46.8653 55.7448 47.6361 55.7448 48.4069 55.7448C48.6125 55.7448 48.8694 55.7448 49.075 55.7448C49.6403 55.7962 50 56.2073 50 56.7212C50 57.2865 49.6403 57.6462 49.075 57.749C48.9722 57.749 48.818 57.749 48.7153 57.749C37.9235 57.749 27.1318 57.749 16.2886 57.749C15.4664 57.749 15.0553 57.4407 15.0039 56.7726C14.9525 56.1559 15.415 55.7448 16.0831 55.6934C17.0081 55.6934 17.8817 55.6934 18.8067 55.6934C19.1664 53.792 20.0914 52.2504 21.5817 51.1198C21.2734 50.8115 20.9651 50.5031 20.7081 50.1948C19.7317 48.9101 19.5262 47.4712 20.1942 46.0323C20.8623 44.542 21.9928 43.6684 23.6373 43.5142C24.4081 43.4628 25.179 43.5142 26.0526 43.5142C26.0526 43.2058 26.0526 43.0003 26.0526 42.7947C26.0526 38.9919 26.0526 35.1377 26.0526 31.3349C26.0526 31.1294 26.0526 30.9238 26.104 30.7182C26.2068 30.2044 26.6179 29.8446 27.1318 29.8446C27.6457 29.8446 28.0054 30.2044 28.0568 30.7182C28.0568 30.9238 28.0568 31.078 28.0568 31.2835C28.0568 32.928 28.0568 34.5724 28.0568 36.2169C28.0568 36.3711 28.0568 36.5252 28.0568 36.7822C29.3415 35.4461 30.3179 34.0586 30.6776 32.3113C30.8832 31.3349 30.9346 30.3071 31.0374 29.3307C31.0887 28.6113 31.4999 28.0974 32.1679 28.1488C32.6818 28.2002 33.0415 28.6113 33.0929 29.1766C33.1957 32.1571 32.3735 34.778 30.5235 37.0905C29.804 37.9641 29.0846 38.8378 28.3651 39.66C28.2623 39.8142 28.1082 39.9683 28.1082 40.1225C28.1082 41.2017 28.1082 42.2294 28.1082 43.3086C30.8832 43.3086 33.6582 43.3086 36.4846 43.3086C36.4846 43.1031 36.4846 42.8975 36.4846 42.692C36.4846 38.478 36.4846 34.2127 36.4846 29.9988C36.4846 27.5321 36.793 25.1168 37.3068 22.7015C37.4096 22.2904 37.3068 22.1362 36.9471 21.9821C34.6346 20.8001 32.6304 19.207 31.3457 16.9459C31.1401 16.5862 30.9346 16.1751 30.729 15.7126C30.6776 15.8667 30.6262 15.9695 30.5748 16.0723C30.0096 18.0765 29.4443 20.0807 28.9304 22.0848C28.7248 22.8043 28.3137 23.164 27.697 23.0612C27.1318 22.9585 26.8234 22.3932 26.9776 21.7251C27.8512 16.7918 29.6498 12.1667 32.1679 7.85001C32.7332 6.87362 33.6068 6.30834 34.686 6C35.0971 6 35.4568 6 35.8166 6ZM32.3735 45.4156C29.7526 45.4156 27.1318 45.4156 24.5109 45.4156C24.254 45.4156 23.9456 45.4156 23.6887 45.467C22.4553 45.6725 21.6331 46.9059 21.9414 48.1392C22.1984 49.167 23.0206 49.8351 24.254 49.8351C29.6498 49.8351 35.0971 49.8351 40.493 49.8351C40.7499 49.8351 40.9555 49.7837 41.2124 49.7323C42.2402 49.4753 42.9597 48.4476 42.8569 47.3684C42.7027 46.1864 41.8291 45.4156 40.493 45.4156C37.7693 45.4156 35.0971 45.4156 32.3735 45.4156ZM20.9137 55.6421C28.5707 55.6421 36.2791 55.6421 43.9875 55.6421C43.9875 55.5393 43.9361 55.4365 43.9361 55.3851C43.3194 53.2268 41.4694 51.8392 39.1569 51.8392C35.611 51.8392 32.1165 51.8392 28.5707 51.8392C27.4401 51.8392 26.3095 51.7879 25.179 51.8392C23.1748 51.942 21.222 53.6893 20.9137 55.6421ZM37.8721 20.2348C38.4888 18.6418 39.2082 17.1001 39.7221 15.507C40.3388 13.6056 39.9791 11.807 38.6944 10.2139C37.9749 9.3403 36.9985 8.8778 36.0735 8.36391C35.1485 7.85001 34.429 8.00418 33.8638 8.92919C33.4013 9.75142 32.9901 10.5736 32.5276 11.3445C32.1679 11.9098 32.0651 12.5264 32.2193 13.1945C32.3735 13.9653 32.5276 14.7362 32.836 15.4556C33.9152 17.7168 35.7652 19.1043 37.8721 20.2348ZM38.4888 38.9405C39.9791 37.9127 41.418 36.9877 42.8055 36.0113C45.2208 34.2127 46.5055 31.7974 46.6083 28.7655C46.6597 27.7891 45.9402 27.0182 45.0666 27.0182C44.193 27.0182 43.4736 27.6863 43.4736 28.6627C43.4222 30.6669 42.5486 32.2085 40.9555 33.3391C40.2874 33.8016 39.568 34.3155 38.8999 34.778C38.7457 34.8808 38.5916 35.0349 38.5916 35.1891C38.4888 36.4225 38.4888 37.6044 38.4888 38.9405Z" fill="white"/>
<path d="M28.2625 26.4022C28.2625 26.9675 27.8 27.3786 27.2861 27.43C26.7722 27.43 26.2583 26.9675 26.2583 26.4536C26.2583 25.8883 26.7208 25.4258 27.2861 25.4258C27.8 25.4258 28.2625 25.8883 28.2625 26.4022Z" fill="white"/>
</svg>
