<svg width="64" height="64" viewBox="0 0 64 64" fill="none" xmlns="http://www.w3.org/2000/svg">
<path d="M24.1382 25.7191C25.8432 23.457 28.145 23.544 29.7648 24.7621C31.1288 23.022 32.7486 22.5 34.7947 23.457C34.7947 23.022 34.7947 22.587 34.7947 22.065C34.5389 22.065 34.2832 22.065 34.0274 22.065C33.3454 22.065 33.0044 21.7169 33.0044 21.0209C33.0044 20.1509 33.0044 19.2808 33.0044 18.3238C32.6634 18.3238 32.4076 18.3238 32.0666 18.2368C32.0666 17.6277 32.0666 17.0187 32.0666 16.4097C32.3224 16.4097 32.6634 16.4097 32.9191 16.3227C32.9191 15.7136 32.9191 15.1046 32.9191 14.4956C32.6634 14.4956 32.4076 14.4956 32.0666 14.4956C32.0666 13.8865 32.0666 13.2775 32.0666 12.5815C32.3224 12.5815 32.6634 12.5815 32.9191 12.4945C32.9191 11.8854 32.9191 11.2764 32.9191 10.6674C32.6634 10.6674 32.3224 10.6674 32.0666 10.5804C32.0666 9.97134 32.0666 9.3623 32.0666 8.75327C32.3224 8.75327 32.5781 8.75327 32.9191 8.75327C33.0044 6.83917 33.7717 5.27309 35.2209 4.14204C36.3292 3.359 37.5228 2.92397 38.8868 3.01098C41.7001 3.18499 43.6609 5.27309 44.1724 8.66627C44.4282 8.66627 44.6839 8.66627 45.025 8.75327C45.025 9.3623 45.025 9.97134 45.025 10.5804C44.7692 10.5804 44.5134 10.5804 44.1724 10.6674C44.1724 11.2764 44.1724 11.8854 44.1724 12.4945C44.4282 12.4945 44.7692 12.4945 45.025 12.4945C45.025 13.1035 45.025 13.7125 45.025 14.4086C44.7692 14.4086 44.5134 14.4086 44.1724 14.4956C44.1724 15.1046 44.1724 15.7136 44.1724 16.3227C44.4282 16.3227 44.6839 16.3227 45.025 16.4097C45.025 17.0187 45.025 17.6277 45.025 18.2368C44.7692 18.2368 44.4282 18.2368 44.0872 18.2368C44.0872 19.0198 44.0872 19.8028 44.0872 20.5859C44.0872 21.8039 43.9167 22.065 42.6379 22.065C42.5526 22.065 42.3821 22.065 42.2969 22.065C42.2969 22.239 42.2969 22.5 42.2969 22.674C42.2969 26.4152 42.2969 30.1564 42.2969 33.8976C42.2969 34.2456 42.4674 34.5936 42.6379 34.8546C43.0641 35.4636 43.6609 36.0727 44.0872 36.5947C46.389 39.4658 46.6447 43.12 44.6839 46.2522C43.8314 47.6443 42.8936 49.0363 41.9559 50.4284C40.8476 51.9945 40.3361 53.8216 40.3361 55.7357C40.3361 57.8238 40.3361 59.9119 40.3361 62C39.7393 62 39.1425 62 38.4605 62C38.4605 61.826 38.4605 61.652 38.4605 61.391C38.4605 59.4769 38.4605 57.4758 38.4605 55.5617C38.4605 53.2995 39.0573 51.2984 40.2508 49.4714C41.1033 48.0793 42.0411 46.7742 42.8936 45.3821C44.5987 42.772 44.4282 39.9009 42.3821 37.5517C41.7854 36.8557 41.1033 36.0727 40.5066 35.3766C39.3983 34.0716 38.0343 33.4625 36.4145 33.4625C34.6242 33.4625 32.8339 33.4625 31.1288 33.4625C29.9353 33.4625 29.0828 34.2456 29.0828 35.3766C29.0828 36.5077 29.9353 37.2907 31.1288 37.2907C32.5781 37.2907 34.0274 37.2907 35.4767 37.2907C36.1587 37.2907 36.585 37.6387 36.4997 38.2478C36.4145 40.8579 37.1817 43.207 38.972 45.1211C38.5458 45.5562 38.1195 45.9912 37.6933 46.4262C35.7325 44.4251 34.7947 41.989 34.6242 39.2048C34.5389 39.2048 34.4537 39.2048 34.4537 39.1178C33.6012 38.9438 33.1749 39.2918 32.8339 40.1619C31.6404 42.772 30.9583 45.5562 30.9583 48.4273C30.9583 49.1233 30.9583 49.8194 30.9583 50.5154C30.3616 50.5154 29.7648 50.5154 29.168 50.5154C28.9123 46.6002 29.509 42.772 31.2993 39.2048C30.8731 39.1178 30.5321 39.0308 30.1911 39.0308C30.0206 39.0308 29.8501 39.0308 29.6796 39.1178C28.145 40.5099 25.8432 40.3359 24.5644 38.8568C24.5644 38.8568 24.4792 38.8568 24.4792 38.9438C23.7119 39.2918 23.0299 39.8139 22.2626 39.9009C21.4953 40.0749 20.6428 39.8139 19.8755 39.7269C19.8755 41.5539 19.7903 43.5551 19.8755 45.5562C19.9608 46.7742 20.5576 47.8183 21.4953 48.6013C23.6266 50.3414 24.5644 52.6035 24.3939 55.3007C24.3087 57.4758 24.3939 59.6509 24.3939 61.913C23.7972 61.913 23.2004 61.913 22.5184 61.913C22.5184 61.739 22.5184 61.478 22.5184 61.304C22.5184 59.1289 22.5184 56.9537 22.5184 54.7786C22.5184 53.0385 21.9216 51.5595 20.5576 50.4284C18.8525 48.7753 18 46.7742 18 44.3381C18 39.2918 18 34.3326 18 29.2863C18 27.6332 18.4263 26.2412 19.8755 25.3711C21.3248 24.5011 22.7741 24.6751 24.1382 25.7191ZM34.7947 20.0639C37.3523 20.0639 39.7393 20.0639 42.2969 20.0639C42.2969 19.8898 42.2969 19.7158 42.2969 19.6288C42.2969 15.9746 42.2969 12.4075 42.2969 8.75327C42.2969 6.49116 40.6771 4.83807 38.5458 4.83807C36.4997 4.83807 34.8799 6.57816 34.8799 8.75327C34.8799 11.1894 34.8799 13.7125 34.8799 16.1487C34.7947 17.4537 34.7947 18.6718 34.7947 20.0639ZM19.8755 32.4185C19.8755 33.6365 19.8755 34.8546 19.8755 36.0727C19.8755 37.2907 20.6428 38.1608 21.7511 38.1608C22.7741 38.1608 23.6266 37.2907 23.6266 36.1597C23.6266 33.7235 23.6266 31.2004 23.6266 28.7643C23.6266 27.6332 22.8594 26.7632 21.7511 26.7632C20.6428 26.7632 19.8755 27.6332 19.8755 28.8513C19.8755 29.9824 19.8755 31.2004 19.8755 32.4185ZM36.7555 21.9779C36.7555 25.1971 36.7555 28.3293 36.7555 31.2874C38.0343 31.6354 39.2278 31.9835 40.4213 32.3315C40.4213 28.9383 40.4213 25.4581 40.4213 21.8909C39.1425 21.9779 37.949 21.9779 36.7555 21.9779ZM28.3155 37.8998C26.8662 35.6376 27.122 33.9846 29.0828 32.1575C29.168 32.0705 29.2533 31.8965 29.2533 31.7224C29.2533 30.3304 29.2533 29.0253 29.2533 27.6332C29.2533 26.5892 28.4008 25.7191 27.3777 25.8061C26.3547 25.8061 25.5874 26.5892 25.5022 27.6332C25.5022 30.5044 25.5022 33.4625 25.5022 36.3337C25.5022 37.8128 26.9515 38.5958 28.3155 37.8998ZM31.1288 31.4614C32.4076 31.4614 33.6012 31.4614 34.7947 31.4614C34.7947 29.8083 34.7947 28.1553 34.7947 26.5022C34.7947 25.5451 33.8569 24.8491 33.0044 24.8491C32.0666 24.8491 31.2141 25.5451 31.1288 26.5022C31.0436 28.1553 31.1288 29.8083 31.1288 31.4614Z" fill="white"/>
<path d="M37.6079 10.4931C37.6079 9.88408 37.6079 9.27505 37.6079 8.66602C38.2047 8.66602 38.8014 8.66602 39.3982 8.66602C39.3982 9.27505 39.3982 9.88408 39.3982 10.4931C38.8867 10.4931 38.2899 10.4931 37.6079 10.4931Z" fill="white"/>
<path d="M37.6934 14.3212C37.6934 13.7122 37.6934 13.1032 37.6934 12.4941C38.2901 12.4941 38.8869 12.4941 39.4837 12.4941C39.4837 13.1032 39.4837 13.7122 39.4837 14.3212C38.8869 14.3212 38.2901 14.3212 37.6934 14.3212Z" fill="white"/>
<path d="M39.4837 16.3223C39.4837 16.9313 39.4837 17.5403 39.4837 18.1494C38.8869 18.1494 38.2901 18.1494 37.6934 18.1494C37.6934 17.5403 37.6934 16.9313 37.6934 16.3223C38.2049 16.3223 38.8016 16.3223 39.4837 16.3223Z" fill="white"/>
</svg>
