<svg width="64" height="64" viewBox="0 0 64 64" fill="none" xmlns="http://www.w3.org/2000/svg">
<g clip-path="url(#clip0_501_1403)">
<path d="M40.1215 40.3479C40.6866 42.0068 41.2277 43.5236 41.7086 45.064C42.4901 47.588 43.1874 50.1475 44.0171 52.6596C44.6423 54.5674 45.532 56.3686 46.9628 57.8379C47.588 58.4778 48.3575 59.0229 49.127 59.4969C50.0768 60.0775 50.5938 60.8596 50.4736 61.8076C50.3293 62.8503 49.6319 63.5376 48.5258 63.7746C45.027 64.533 42.2256 63.4191 39.9893 60.753C39.4602 60.1249 38.9673 59.4851 38.4503 58.857C37.7289 57.992 36.8271 57.4114 35.733 57.1151C33.3163 56.4515 32.1982 54.4726 32.9196 52.079C33.2682 50.9296 33.689 49.8039 34.0377 48.6545C34.0978 48.453 34.0618 48.1449 33.9415 47.979C30.2023 43.1918 26.944 38.1201 24.383 32.6219C24.2868 32.4204 24.1065 32.2427 23.9141 32.1123C20.6197 29.8372 17.5177 27.3606 14.8125 24.4101C14.6441 24.2205 14.1993 24.1731 13.9107 24.2205C10.8929 24.6471 7.88705 25.0973 4.88123 25.5476C3.65485 25.7372 3.23404 25.3225 3.34225 24.0901C3.57069 21.6728 3.13785 19.3147 2.32027 17.0514C1.7191 15.3806 0.949614 13.7691 0.228216 12.1457C0.0238198 11.6954 -0.108436 11.2925 0.204169 10.8659C0.504752 10.463 0.913544 10.4275 1.38245 10.4867C4.62874 10.8541 7.86301 11.1977 11.1093 11.5769C11.5061 11.6243 11.6383 11.4228 11.7946 11.1621C12.9248 9.15955 13.6222 7.00292 14.067 4.76333C14.3075 3.56651 14.4398 2.346 14.6081 1.13734C14.6682 0.687048 14.7764 0.28416 15.2573 0.0827155C15.7262 -0.106879 16.099 0.0590162 16.4717 0.355258C20.3793 3.50727 24.2868 6.64743 28.2064 9.78758C29.5651 10.8778 30.5389 12.2405 31.0559 13.8757C32.1621 17.3951 33.2081 20.9381 34.3143 24.4575C34.4225 24.8248 34.687 25.204 34.9996 25.4291C38.4022 27.9413 41.8769 30.3467 45.2194 32.93C47.8405 34.9444 50.2812 37.184 52.8422 39.2695C54.7418 40.81 56.8098 42.1016 59.2746 42.5637C59.972 42.6941 60.7054 42.6704 61.4268 42.6585C62.6051 42.623 63.4106 43.0377 63.8314 43.962C64.2523 44.8863 64.0118 45.8224 63.1702 46.64C60.5611 49.1877 57.5192 49.6261 54.1286 48.5241C53.4073 48.2871 52.6859 48.0383 51.9645 47.8131C50.9184 47.4813 49.8844 47.4932 48.8384 47.825C46.4217 48.5715 44.3898 47.5169 43.6804 45.147C43.3317 43.9975 43.0672 42.8244 42.7306 41.6632C42.6704 41.4499 42.442 41.201 42.2376 41.1181C41.5643 40.8337 40.891 40.6322 40.1215 40.3479ZM48.4296 61.6772C48.4416 61.618 48.4416 61.5469 48.4537 61.4876C48.3094 61.3928 48.1651 61.3217 48.0328 61.2151C47.1551 60.5397 46.1933 59.9353 45.4238 59.1533C43.5722 57.2218 42.4781 54.8281 41.7447 52.316C40.4461 47.9198 39.2198 43.5117 37.4764 39.2577C35.4565 34.2927 33.5808 29.2803 32.0419 24.1612C31.0559 20.867 30.034 17.5965 29.012 14.3142C28.6393 13.1292 27.9058 12.1812 26.932 11.3991C25.91 10.5815 24.888 9.75204 23.866 8.92256C23.0244 8.24713 22.1707 7.55985 21.2449 6.82517C20.5957 10.0364 19.3092 12.8685 17.2532 15.4043C17.5538 15.5465 17.7822 15.6532 18.0107 15.748C19.0807 16.2219 20.1869 16.6722 21.2329 17.2055C21.5575 17.3714 21.9423 17.7624 21.9904 18.0823C22.4593 21.4595 23.4211 24.7182 24.6355 27.8939C27.3047 34.8615 31.1281 41.1773 35.7931 47.0074C36.3101 47.6472 36.3943 48.2042 36.1057 48.9626C35.6488 50.1357 35.3122 51.3562 34.8673 52.5411C34.3624 53.8683 35.1198 54.9348 36.3943 55.2192C37.5245 55.4799 38.5344 56.0249 39.328 56.8663C40.0614 57.6484 40.7467 58.4778 41.42 59.3073C43.0792 61.3336 45.1232 62.4001 47.8405 61.855C48.0328 61.8076 48.2252 61.7365 48.4296 61.6772ZM62.064 44.6967C61.6192 44.6967 61.3907 44.7085 61.1503 44.6967C60.2605 44.6256 59.3468 44.6493 58.4691 44.4597C55.7037 43.8672 53.3471 42.4215 51.2431 40.6204C47.3836 37.3262 43.5481 34.0083 39.34 31.1407C38.1136 30.2993 36.9113 29.4225 35.6008 28.4863C35.6488 28.6996 35.6609 28.7944 35.6969 28.8774C36.779 31.745 37.8491 34.6126 38.9552 37.4684C39.0274 37.6698 39.2799 37.8594 39.4963 37.9424C40.8429 38.4638 42.1775 38.9614 43.5481 39.4354C44.1012 39.625 44.4018 39.945 44.5341 40.5019C44.8707 41.8765 45.2194 43.251 45.6162 44.6256C45.9648 45.8342 46.9026 46.3319 48.117 45.9409C49.68 45.4432 51.219 45.4669 52.77 45.9764C53.7559 46.2964 54.7418 46.6282 55.7518 46.8889C57.9881 47.4695 59.9479 46.9126 61.5951 45.3129C61.7394 45.1588 61.8356 44.9811 62.064 44.6967ZM22.6757 28.747C22.5795 28.4389 22.5435 28.2849 22.4954 28.1427C21.4373 25.2869 20.5837 22.3719 20.1268 19.3503C20.0667 18.9948 19.9344 18.817 19.5977 18.663C16.8444 17.4425 14.0911 16.1982 11.3377 14.9896C10.6524 14.6815 10.0152 14.3853 10.1234 13.461C9.70257 13.4254 9.3539 13.4017 9.08938 13.378C9.47413 14.9422 9.95506 16.4352 10.1835 17.9638C10.4119 19.4925 10.3759 21.0566 10.46 22.68C11.7706 22.4904 13.1412 22.3008 14.4878 22.0757C15.1251 21.969 15.582 22.1231 16.0028 22.6326C17.9145 24.8959 20.1628 26.8155 22.6757 28.747ZM16.4476 2.96218C15.8585 6.73037 14.8846 10.2379 12.7565 13.4017C13.55 13.7572 14.2834 14.1127 15.0409 14.409C15.1611 14.4563 15.4377 14.3616 15.5339 14.2431C17.6379 11.7309 18.8884 8.85146 19.3453 5.6402C19.3693 5.49801 19.2972 5.26102 19.189 5.17807C18.3353 4.46709 17.4456 3.76796 16.4476 2.96218ZM2.77715 12.6671C4.35221 16.1272 5.47037 19.5991 5.4343 23.4028C6.22784 23.2962 6.94924 23.1658 7.68266 23.1066C8.07943 23.0711 8.23573 22.8815 8.2718 22.5141C8.57238 19.3503 8.07943 16.3049 6.7208 13.4136C6.64866 13.2595 6.45628 13.0818 6.29998 13.0581C5.16979 12.9159 4.0396 12.7974 2.77715 12.6671Z" fill="white"/>
</g>
<defs>
<clipPath id="clip0_501_1403">
<rect width="64" height="64" fill="white"/>
</clipPath>
</defs>
</svg>
