<svg width="64" height="64" viewBox="0 0 64 64" fill="none" xmlns="http://www.w3.org/2000/svg">
<path d="M12.0078 56.021C11.2371 55.6653 11 55.0132 11 54.1239C11 41.2591 11 28.4536 11 15.5888C11 12.1502 13.1935 9.186 16.3949 8.29673C21.1377 6.93318 25.8212 10.431 25.8805 15.4702C25.8805 16.9523 25.8805 18.4344 25.8805 19.8573C25.8805 31.2992 25.8805 42.8005 25.8805 54.2425C25.8805 55.1317 25.5841 55.7246 24.7541 56.021C20.5449 56.021 16.2763 56.021 12.0078 56.021ZM23.0348 41.1405C23.0348 41.0219 23.0941 40.8441 23.0941 40.7255C23.0941 32.3664 23.0941 23.9479 23.0941 15.5888C23.0941 12.506 20.782 10.4903 17.7585 10.9053C15.3871 11.2017 13.8457 13.1581 13.8457 15.7073C13.8457 24.0072 13.8457 32.3071 13.8457 40.607C13.8457 40.7848 13.8457 40.9627 13.8457 41.1405C16.9285 41.1405 20.0113 41.1405 23.0348 41.1405ZM23.0348 53.1753C23.0348 50.0925 23.0348 47.069 23.0348 43.9862C19.952 43.9862 16.8692 43.9862 13.8457 43.9862C13.8457 47.069 13.8457 50.0925 13.8457 53.1753C16.9285 53.1753 19.952 53.1753 23.0348 53.1753Z" fill="white"/>
<path d="M32.1055 39.4222C32.1055 37.5251 32.1055 35.628 32.1055 33.6716C32.1055 28.1581 35.959 23.771 41.4132 23.1189C46.6895 22.4667 51.9066 26.3203 52.7959 31.5966C52.9144 32.2487 52.9737 32.9602 52.9737 33.6123C52.9737 37.5251 53.033 41.4379 52.9737 45.41C52.9144 49.3228 51.373 52.5834 47.8752 54.5991C42.7767 57.5634 36.1368 55.7255 33.4097 50.7456C32.5205 49.0856 32.1055 47.2478 32.1055 45.41C32.1055 43.3943 32.1055 41.3786 32.1055 39.4222ZM50.1873 39.5408C50.1873 37.5844 50.1873 35.6873 50.1873 33.7309C50.1873 31.8337 49.6538 30.0552 48.4088 28.5731C46.3931 26.2017 42.9546 25.3124 39.8718 26.3795C36.9075 27.4467 35.0104 30.1145 34.9511 33.4344C34.8919 37.4658 34.8326 41.5565 34.9511 45.5878C35.129 51.8127 40.7611 54.2434 45.2667 52.702C48.2902 51.6349 50.1873 48.8485 50.1873 45.4693C50.2466 43.4536 50.1873 41.4972 50.1873 39.5408Z" fill="white"/>
<path d="M42.5986 10.9648C45.5628 11.0834 48.4085 11.5577 51.1356 12.7434C51.3134 12.8027 51.4913 12.862 51.6691 12.9805C52.262 13.3955 52.4991 14.1662 52.2027 14.8184C51.847 15.4705 51.1356 15.7076 50.4242 15.4705C49.2385 15.0555 48.0528 14.6405 46.8078 14.3441C42.7764 13.3955 38.8636 13.7512 35.1287 15.2926C34.5358 15.5298 33.943 15.6483 33.4094 15.2334C32.5794 14.5219 32.698 13.277 33.7651 12.8027C35.4844 12.032 37.2629 11.5577 39.1008 11.2613C40.2272 11.1427 41.4129 11.0834 42.5986 10.9648Z" fill="white"/>
<path d="M42.5986 17.0709C44.7921 17.0709 46.9264 17.4859 48.9421 18.3751C49.7721 18.7309 50.1278 19.5016 49.8313 20.2723C49.5349 21.043 48.7049 21.3394 47.8749 20.9837C44.3771 19.5608 40.8793 19.5608 37.3815 20.9837C36.433 21.3394 35.603 21.043 35.3066 20.1537C35.0694 19.4423 35.4251 18.7309 36.1365 18.4344C37.9744 17.5452 40.4643 17.0116 42.5986 17.0709Z" fill="white"/>
<path d="M38.1523 39.4797C38.1523 37.5233 38.1523 35.6262 38.1523 33.6698C38.1523 31.0019 40.168 29.0455 42.7766 29.1048C45.0887 29.1641 46.9858 31.0612 46.9858 33.5512C47.0451 37.5233 47.0451 41.4954 46.9858 45.4674C46.9858 47.3053 46.2151 48.8467 44.4365 49.5581C42.7766 50.2695 41.1166 50.0917 39.6938 48.906C38.5673 48.0167 38.1523 46.7124 38.1523 45.3489C38.1523 43.3925 38.1523 41.4361 38.1523 39.4797ZM44.1401 41.1396C44.1401 40.0725 44.1401 39.0647 44.1401 37.9975C43.073 37.9975 42.0651 37.9975 40.998 37.9975C40.998 39.0647 40.998 40.0725 40.998 41.1396C42.0651 41.1396 43.073 41.1396 44.1401 41.1396ZM40.9387 43.9853C40.998 44.6967 40.9387 45.2896 41.0573 45.9417C41.1759 46.6531 41.7094 47.0681 42.4801 47.1274C43.1916 47.1867 43.903 46.831 44.0808 46.1789C44.2587 45.4674 44.2587 44.6967 44.318 43.9853C43.073 43.9853 42.0651 43.9853 40.9387 43.9853ZM44.1401 35.0926C44.1401 34.3812 44.1994 33.7883 44.1401 33.1362C44.0808 32.4248 43.4287 31.9505 42.7173 31.8912C42.0059 31.8319 41.2944 32.2469 41.1166 32.9583C40.998 33.6698 40.998 34.3812 40.9387 35.0926C42.0651 35.0926 43.073 35.0926 44.1401 35.0926Z" fill="white"/>
</svg>
