<svg width="64" height="64" viewBox="0 0 64 64" fill="none" xmlns="http://www.w3.org/2000/svg">
<path d="M46.202 2C46.9352 2.39134 47.0786 2.98617 46.9989 3.76885C46.5845 7.41612 46.2179 11.0634 45.8513 14.7107C45.437 18.7493 45.0066 22.7879 44.5922 26.8265C44.2097 30.4425 43.8431 34.0428 43.4765 37.6588C43.094 41.2904 42.7274 44.922 42.3449 48.5536C42.313 48.898 42.2812 49.258 42.2812 49.6024C42.2812 53.234 42.2812 56.8656 42.2812 60.4973C42.2812 61.6087 41.8827 62 40.7352 62C34.6148 62 28.4786 62 22.3583 62C21.2107 62 20.8123 61.6087 20.7963 60.4973C20.7963 57.8675 20.7326 55.222 20.8123 52.5922C20.9079 49.3363 20.4776 46.1273 20.1429 42.9027C19.7763 39.2554 19.3778 35.6081 19.0112 31.9609C18.5968 27.9223 18.1665 23.8836 17.7521 19.845C17.3058 15.8377 16.8914 11.8461 16.4771 7.83877C16.3336 6.47691 16.222 5.11505 16.0308 3.76885C15.9192 2.98617 16.0945 2.39134 16.8277 2C26.6298 2 36.4159 2 46.202 2ZM39.9861 47.9118C41.3089 35.1855 42.6318 22.4905 43.9547 9.77981C35.6349 9.77981 27.3789 9.77981 19.0909 9.77981C20.4138 22.5218 21.7367 35.2168 23.0596 47.9118C28.7017 47.9118 34.312 47.9118 39.9861 47.9118ZM23.1871 59.6207C28.7655 59.6207 34.2961 59.6207 39.8267 59.6207C39.8267 56.49 39.8267 53.4062 39.8267 50.3225C39.0298 50.3225 38.2807 50.3225 37.4837 50.3225C37.4837 51.4808 37.4997 52.6079 37.4837 53.7349C37.4678 54.4863 37.0056 54.9716 36.2724 54.9716C33.1166 54.9872 29.9449 54.9872 26.7891 54.9716C26.04 54.9716 25.5778 54.4863 25.5619 53.7506C25.5459 52.9836 25.5619 52.2322 25.5619 51.4652C25.5619 51.0895 25.5619 50.6982 25.5619 50.3225C24.7172 50.3225 23.984 50.3225 23.203 50.3225C23.1871 53.4219 23.1871 56.49 23.1871 59.6207ZM18.8359 7.36916C27.2992 7.36916 35.7305 7.36916 44.1938 7.36916C44.3053 6.36734 44.401 5.39682 44.5125 4.37934C35.8421 4.37934 27.2035 4.37934 18.5172 4.37934C18.6287 5.38116 18.7403 6.36734 18.8359 7.36916ZM27.9686 52.5922C30.3593 52.5922 32.7182 52.5922 35.0611 52.5922C35.0611 51.8096 35.0611 51.0582 35.0611 50.3225C32.6704 50.3225 30.3434 50.3225 27.9686 50.3225C27.9686 51.0738 27.9686 51.8096 27.9686 52.5922Z" fill="white"/>
<path d="M31.5865 17.9979C36.4318 18.0919 39.9541 21.6452 39.8745 26.3726C39.7948 30.8338 35.9377 34.4185 31.2996 34.3402C26.805 34.262 23.0755 30.4738 23.1711 26.0595C23.2667 21.4104 26.9166 17.904 31.5865 17.9979ZM31.5387 20.2834C28.2873 20.2677 25.5778 22.8818 25.5619 26.0439C25.53 29.3937 28.1279 31.9765 31.5228 31.9765C34.8858 31.9765 37.4678 29.425 37.4837 26.0908C37.4996 22.9288 34.7901 20.299 31.5387 20.2834Z" fill="white"/>
<path d="M31.5228 40.2103C30.0087 40.2103 28.5105 40.2103 26.9963 40.2103C26.0878 40.2103 25.5459 39.7564 25.5619 39.005C25.5778 38.2849 26.1038 37.8623 26.9963 37.8623C30.0405 37.8623 33.0688 37.8623 36.113 37.8623C37.1809 37.8623 37.7865 38.7076 37.3562 39.5685C37.1012 40.0695 36.6549 40.2103 36.113 40.2103C34.5829 40.1947 33.0529 40.2103 31.5228 40.2103Z" fill="white"/>
<path d="M31.5229 44.891C30.3912 44.891 29.2596 44.891 28.128 44.891C27.2673 44.891 26.7414 44.4057 26.7573 43.6857C26.7732 42.9813 27.2833 42.543 28.128 42.543C30.3912 42.543 32.6545 42.543 34.9177 42.543C35.7784 42.543 36.3044 43.0126 36.2884 43.7483C36.2725 44.4527 35.7625 44.891 34.9177 44.891C33.7861 44.891 32.6545 44.891 31.5229 44.891Z" fill="white"/>
<path d="M31.6024 23.9621C32.2878 23.3673 33.1166 23.0073 34.1207 23.3047C34.9017 23.5395 35.4436 24.0091 35.6348 24.8074C35.8102 25.5744 35.5073 26.1849 34.9336 26.6858C33.8019 27.672 32.6703 28.6425 31.5068 29.66C30.2477 28.5643 29.0045 27.5155 27.8091 26.4041C27.2035 25.8249 27.1716 24.9326 27.6179 24.2439C28.096 23.4769 29.1479 23.0229 30.0564 23.2734C30.5665 23.4142 31.0287 23.696 31.6024 23.9621Z" fill="white"/>
</svg>
