<svg width="64" height="64" viewBox="0 0 64 64" fill="none" xmlns="http://www.w3.org/2000/svg">
<path d="M35.2475 55.3488C34.9969 57.6037 33.5772 59.0234 31.5728 59.0234C29.652 59.0234 28.1488 57.5202 27.9817 55.3488C27.8147 55.2653 27.7312 55.2653 27.5642 55.1818C25.7268 54.5972 24.4741 52.9269 24.4741 50.9226C24.4741 41.8195 24.3906 32.8 24.4741 23.6969C24.5576 18.6861 25.3093 13.7588 27.3971 9.16548C27.8982 8.0798 28.5663 6.99411 29.318 6.15897C30.7377 4.5722 32.408 4.65572 33.9112 6.15897C35.2475 7.57871 35.9991 9.33251 36.6672 11.1698C37.8364 14.7609 38.588 18.352 38.6715 22.1102C38.8386 27.3716 38.7551 32.5494 38.8386 37.8108C38.8386 41.9865 38.8386 46.2458 38.8386 50.4215C38.8386 53.0939 37.8364 54.5137 35.2475 55.3488ZM37.0848 40.1492C37.0848 39.8987 37.0848 39.8152 37.0848 39.6482C37.0848 34.6373 37.0848 29.6264 37.0848 24.5321C37.0848 20.4399 36.5002 16.4312 35.331 12.5896C34.7464 10.8358 34.0783 9.08197 32.9926 7.66223C32.0739 6.57654 31.2388 6.57654 30.4036 7.66223C29.819 8.49737 29.2344 9.41602 28.9004 10.4182C26.9796 15.0115 26.3114 19.8553 26.2279 24.7826C26.2279 29.71 26.2279 34.6373 26.2279 39.4811C26.2279 39.6482 26.2279 39.8987 26.2279 40.0657C29.9026 40.1492 33.4101 40.1492 37.0848 40.1492ZM26.2279 41.903C26.2279 42.0701 26.2279 42.2371 26.2279 42.3206C26.2279 45.1601 26.2279 47.9161 26.2279 50.7555C26.2279 52.4258 27.3971 53.595 29.0674 53.595C30.7377 53.595 32.408 53.595 34.0783 53.595C35.9156 53.595 37.0013 52.5093 37.0013 50.672C37.0013 47.9161 37.0013 45.1601 37.0013 42.4876C37.0013 42.3206 37.0013 42.1536 37.0013 41.9865C33.4101 41.903 29.9026 41.903 26.2279 41.903ZM33.4101 55.4323C32.2409 55.4323 31.0717 55.4323 29.9026 55.4323C29.9026 56.518 30.9047 57.1861 31.6563 57.1861C32.6585 57.2696 33.4937 56.351 33.4101 55.4323Z" fill="white"/>
<path d="M21.05 13.5078C21.5511 13.8419 21.9686 14.1759 22.4697 14.51C22.1357 15.0111 21.8016 15.5957 21.4675 16.0968C21.1335 16.5143 21.1335 16.7649 21.5511 17.0989C21.8851 17.3495 22.1357 17.6 22.3862 17.8505C22.7203 18.1846 22.8038 18.6022 22.4697 19.0197C21.8851 19.8549 21.3005 20.7735 20.7159 21.6922C20.2148 21.3581 19.7137 21.0241 19.2127 20.69C19.4632 20.2725 19.7973 19.8549 20.0478 19.4373C20.6324 18.6022 20.6324 18.6022 19.8808 17.8505C19.7137 17.6835 19.4632 17.5165 19.2962 17.2659C18.9621 16.9319 18.8786 16.5143 19.2127 16.0968C19.7973 15.3451 20.3819 14.4265 21.05 13.5078Z" fill="white"/>
<path d="M22.4696 23.5295C22.0521 24.1976 21.6345 24.6987 21.3004 25.2833C21.2169 25.4503 21.2169 25.7009 21.3839 25.8679C21.718 26.202 22.0521 26.536 22.3861 26.8701C22.7202 27.2041 22.8037 27.5382 22.5531 27.9558C21.9685 28.8744 21.3839 29.7931 20.7158 30.7117C20.2147 30.3777 19.7137 30.0436 19.2126 29.7096C19.6301 29.125 19.9642 28.5404 20.3818 27.9558C20.5488 27.7052 20.5488 27.5382 20.2983 27.2877C19.9642 26.9536 19.6301 26.7031 19.3796 26.369C19.0455 26.0349 18.962 25.7009 19.2126 25.2833C19.7972 24.3647 20.3818 23.446 21.0499 22.5273C21.551 22.8614 21.9685 23.1955 22.4696 23.5295Z" fill="white"/>
<path d="M42.5968 22.5273C43.0979 22.8614 43.599 23.1955 44.1001 23.5295C43.6825 24.1141 43.432 24.6987 43.0144 25.1998C42.7639 25.5339 42.7639 25.7844 43.0979 26.0349C43.432 26.2855 43.6825 26.6195 43.9331 26.8701C44.2671 27.2041 44.3506 27.6217 44.0166 28.0393C43.432 28.8744 42.8474 29.7931 42.2628 30.7117C41.7617 30.3777 41.2606 30.0436 40.7595 29.7096C41.0101 29.3755 41.2606 29.0414 41.4276 28.6239C42.0957 27.6217 42.0957 27.6217 41.2606 26.7031C41.1771 26.6195 41.0101 26.4525 40.9265 26.369C40.5925 26.0349 40.509 25.6174 40.843 25.1998C41.4276 24.2811 42.0122 23.446 42.5968 22.5273Z" fill="white"/>
<path d="M42.3462 39.7317C41.8451 39.3977 41.344 39.0636 40.8429 38.7296C41.2605 38.145 41.5946 37.5604 42.0121 36.9758C42.1792 36.7252 42.1792 36.5582 41.9286 36.3912C41.5946 36.0571 41.2605 35.7231 41.01 35.4725C40.6759 35.1385 40.5924 34.7209 40.8429 34.3033C41.4275 33.3847 42.0121 32.5495 42.6803 31.6309C43.1813 31.9649 43.6824 32.299 44.1835 32.633C43.7659 33.2176 43.4319 33.8022 43.0143 34.3868C42.8473 34.6374 42.8473 34.8044 43.0978 34.9714C43.4319 35.3055 43.7659 35.6395 44.0165 35.8901C44.3505 36.2241 44.4341 36.6417 44.1835 37.0593C43.5154 37.8944 42.9308 38.8131 42.3462 39.7317Z" fill="white"/>
<path d="M28.0649 45.5781C28.7331 45.5781 29.2341 45.5781 29.8187 45.5781C29.8187 47.0814 29.8187 48.5011 29.8187 50.0044C30.7374 50.0044 31.5725 50.0044 32.4912 50.0044C32.4912 50.6725 32.4912 51.1736 32.4912 51.8417C31.2385 51.8417 30.0693 51.8417 28.8166 51.8417C28.399 51.8417 28.0649 51.5076 28.0649 51.0065C28.0649 49.1692 28.0649 47.4154 28.0649 45.5781Z" fill="white"/>
</svg>
