<svg width="64" height="64" viewBox="0 0 64 64" fill="none" xmlns="http://www.w3.org/2000/svg">
<path d="M31.7058 64C25.1901 64 18.6922 64 12.1765 64C9.71971 64 8.11748 62.4874 7.83264 60.0495C7.40538 56.4193 6.90691 52.7891 6.42624 49.1589C5.96338 45.5465 5.50051 41.9519 5.03765 38.3395C4.7172 35.777 4.41456 33.1967 4.04071 30.6342C3.91609 29.8334 4.05851 29.2462 4.73501 28.7124C6.01679 27.7158 7.22736 26.6303 8.49133 25.616C8.84738 25.3313 8.9542 25.0288 8.91859 24.6017C8.70496 22.1638 8.52694 19.7436 8.33111 17.3057C8.08188 14.2272 7.83264 11.1664 7.58341 8.08786C7.44099 6.25497 7.29857 4.42208 7.15615 2.57139C7.04933 0.969832 7.93946 0.0444877 9.57729 0.0266926C9.95114 0.0266926 10.3428 0.00889754 10.7166 0.0444877C11.767 0.169053 12.5325 1.04101 12.6215 2.19769C12.9954 6.84221 13.3514 11.4867 13.7075 16.1312C13.8855 18.3912 14.0991 20.6334 14.2237 22.8934C14.2771 23.6586 14.5976 23.8365 15.3097 23.9433C19.7069 24.5839 23.7837 26.1321 27.6646 28.2497C28.4123 28.659 29.16 28.8369 29.9968 28.8191C31.4566 28.7657 32.9876 29.0505 34.3762 28.7302C35.7648 28.4276 37.0287 27.5735 38.3461 26.9506C41.604 25.4203 45.0043 24.3882 48.547 23.8899C48.9742 23.8365 49.0454 23.623 49.0632 23.2849C49.2235 21.3452 49.3837 19.3877 49.5261 17.4481C49.7753 14.3517 50.0246 11.2554 50.2738 8.15904C50.434 6.25497 50.5943 4.3509 50.7189 2.44682C50.8257 0.845266 51.6624 0.00889754 53.2468 0.00889754C53.6385 0.00889754 54.0479 -0.0266926 54.4396 0.0444877C55.4899 0.204643 56.2555 1.18337 56.202 2.30446C56.0596 4.45767 55.8994 6.59308 55.7214 8.74628C55.4721 11.807 55.2229 14.85 54.9737 17.893C54.8134 19.9572 54.671 22.0036 54.4574 24.0678C54.3862 24.8508 54.4574 25.4203 55.1873 25.9363C56.4513 26.8261 57.6262 27.876 58.8546 28.8191C59.4065 29.2284 59.5667 29.7267 59.4777 30.3851C58.5876 37.0405 57.6975 43.6958 56.8073 50.3512C56.3623 53.6611 55.9172 56.9887 55.4899 60.2986C55.2051 62.4874 53.5317 63.9822 51.3064 63.9822C44.8084 64 38.2571 64 31.7058 64ZM30.6198 61.8468C30.6198 52.0239 30.6198 42.2722 30.6198 32.5205C30.1036 35.8126 28.6972 38.6242 26.276 40.9198C23.8371 43.2153 20.8819 44.4254 17.4994 44.6923C18.4607 50.4579 19.4043 56.1524 20.3656 61.8468C23.8015 61.8468 27.1662 61.8468 30.6198 61.8468ZM43.046 61.8468C43.9895 56.1346 44.9509 50.4224 45.8944 44.7635C38.898 43.9094 34.572 40.1546 32.8096 33.4814C32.8096 42.9128 32.8096 52.3798 32.8096 61.8646C36.2454 61.8468 39.6101 61.8468 43.046 61.8468ZM35.5511 35.0652C37.5806 39.5318 40.9097 42.1298 45.7164 42.468C50.1848 42.7883 53.7275 40.9376 56.2733 37.254C56.3979 37.0582 56.4691 36.8091 56.5047 36.5778C56.7717 34.7093 57.0032 32.8408 57.288 30.9901C57.3592 30.563 57.288 30.2427 56.8963 29.958C56.3801 29.6021 55.8994 29.2284 55.4365 28.8013C55.0271 28.4098 54.6354 28.4098 54.1191 28.5878C49.6685 30.1538 45.2179 31.7019 40.7673 33.2501C39.0582 33.8373 37.367 34.4424 35.5511 35.0652ZM27.7002 35.0296C27.5756 34.9762 27.5044 34.9406 27.4154 34.9228C21.2735 32.7874 15.1317 30.6342 8.972 28.5166C8.75837 28.4454 8.42012 28.5344 8.2243 28.6768C7.69022 29.0683 7.20955 29.5309 6.67548 29.9402C6.30163 30.2071 6.19481 30.5275 6.26602 30.9545C6.49745 32.6807 6.71108 34.4246 6.94252 36.1685C7.03153 36.8447 7.08494 37.4853 7.5656 38.0904C11.2329 42.6637 17.6062 43.8916 22.6621 40.9554C25.0121 39.5674 26.6855 37.5921 27.7002 35.0296ZM48.1197 44.6034C47.1584 50.3512 46.2148 56.0812 45.2357 61.8646C45.5918 61.8646 45.841 61.8646 46.0724 61.8646C47.8883 61.8646 49.7219 61.9002 51.5378 61.8468C52.5703 61.8112 53.229 61.1172 53.407 60.0139C53.6029 58.6081 53.7809 57.2023 53.9589 55.7965C54.4752 51.8815 55.0093 47.9844 55.5255 44.0695C55.6502 43.1086 55.757 42.1654 55.8816 41.1333C51.7158 43.8204 50.9325 44.1763 48.1197 44.6034ZM7.65462 41.3113C7.65462 41.4358 7.65462 41.507 7.65462 41.5604C8.08188 44.9059 8.50914 48.2336 8.9364 51.579C9.29245 54.3551 9.6485 57.1133 10.0045 59.8893C10.1826 61.2418 10.9125 61.8646 12.2833 61.8646C13.7431 61.8646 15.2207 61.8646 16.6805 61.8646C17.1612 61.8646 17.6418 61.8646 18.1403 61.8646C18.1225 61.5977 18.1047 61.4197 18.0869 61.2418C17.6062 58.359 17.1255 55.4762 16.6449 52.5934C16.2354 50.1554 15.826 47.6997 15.4165 45.2618C15.3631 44.9415 15.3987 44.5856 14.8646 44.5144C12.3367 44.2119 10.1114 43.1976 8.11748 41.6316C7.97506 41.5248 7.83264 41.4358 7.65462 41.3113ZM10.5208 26.7549C16.5025 28.8369 22.3773 30.8656 28.3233 32.9298C28.3945 32.2002 28.4657 31.613 28.5192 31.0435C28.0919 30.8478 27.718 30.6698 27.3442 30.4741C23.1606 28.2141 18.799 26.5058 14.0457 25.9185C12.7995 25.7762 11.6246 25.794 10.5208 26.7549ZM34.9637 32.9832C40.9631 30.9012 46.8557 28.8369 52.8374 26.7727C51.876 25.9541 50.8613 25.7584 49.7753 25.9007C46.2504 26.3634 42.8324 27.271 39.6101 28.8013C38.0079 29.5487 36.4413 30.3317 34.7856 31.1147C34.8212 31.6485 34.8924 32.2714 34.9637 32.9832ZM52.962 2.19769C52.3923 9.36911 51.8226 16.5405 51.2351 23.7297C51.6268 23.8365 51.965 23.9255 52.3745 24.0323C52.962 16.7363 53.5317 9.47588 54.1191 2.19769C53.6741 2.19769 53.3536 2.19769 52.962 2.19769ZM12.1765 23.6941C11.6068 16.5227 11.0371 9.36911 10.4496 2.19769C10.0402 2.19769 9.7019 2.19769 9.27464 2.19769C9.86213 9.45808 10.4318 16.6829 11.0193 23.9611C11.4287 23.8721 11.767 23.8009 12.1765 23.6941Z" fill="white"/>
</svg>
