<svg width="65" height="64" viewBox="0 0 65 64" fill="none" xmlns="http://www.w3.org/2000/svg">
<path d="M35.8247 9.07437C37.9855 10.9533 38.831 14.0536 36.8582 17.0599C40.8039 20.348 40.71 25.6091 37.7037 28.8033C40.8039 30.964 42.495 33.9703 42.3071 37.7282C42.2131 41.5801 40.3342 44.3985 36.9521 46.3714C37.14 46.935 37.3279 47.4987 37.5158 48.1564C37.7976 48.9079 37.7976 49.7535 37.6097 50.505C37.3279 51.7264 37.5158 52.29 38.5492 53.0416C41.5555 55.1084 43.8102 57.8329 45.3134 61.1211C45.4073 61.309 45.5013 61.4968 45.5952 61.7787C45.7831 62.3424 45.4073 62.9061 44.7497 63C44.5618 63 44.3739 63 44.186 63C36.1066 63 27.9332 63 19.8537 63C19.5719 63 19.1961 63 19.0082 62.8121C18.5385 62.6242 18.3506 62.0605 18.6324 61.4029C19.8537 58.4905 21.6387 56.0479 24.0814 54.075C24.645 53.6053 25.3027 53.1356 25.8663 52.7598C26.524 52.29 26.8998 51.6324 26.6179 50.8808C26.2421 49.5656 26.43 48.2503 26.8998 47.029C26.9937 46.7472 27.0877 46.4653 27.1816 46.2774C20.6053 42.8014 19.8537 33.1248 26.524 28.7093C24.9269 27.0183 24.1753 24.9514 24.3632 22.6027C24.5511 20.2541 25.5845 18.3751 27.3695 16.9659C25.4906 14.0536 26.0542 10.8594 28.4029 8.88647C27.5574 7.7591 27.0877 6.3499 27.4634 4.7528C27.7453 3.62543 28.309 2.68596 29.2484 2.02833C31.1274 0.525178 33.8519 0.713072 35.5429 2.31017C36.9521 3.71938 37.8916 6.44385 35.8247 9.07437ZM32.2548 45.6198C35.449 45.6198 38.4553 43.7408 39.6766 40.8285C41.0858 37.6343 40.616 34.7219 38.4553 31.9975C37.7037 31.058 36.6703 30.4004 35.6368 29.8367C34.7913 29.4609 34.7913 28.6154 35.449 28.0517C35.5429 27.9577 35.6368 27.8638 35.8247 27.7698C39.0189 25.2333 38.6432 20.348 35.1671 18.1872C34.1337 17.6236 34.1337 17.0599 34.8853 16.2143C36.7642 14.3354 36.2945 11.3291 34.0397 10.0138C33.0063 9.45015 32.9124 8.79252 33.9458 8.04095C34.9792 7.28937 35.449 5.97411 34.9792 4.7528C34.6034 3.62543 33.4761 2.77991 32.1608 2.77991C30.9395 2.77991 29.8121 3.62543 29.4363 4.7528C29.0606 5.97411 29.4363 7.28937 30.4698 8.04095C31.5032 8.79252 31.4092 9.45015 30.2819 10.1078C28.0271 11.3291 27.5574 14.3354 29.3424 16.2143C30.1879 17.0599 30.1879 17.6236 29.0606 18.2812C25.4906 20.442 25.3027 25.4212 28.5908 27.9577C29.6242 28.7093 29.5303 29.4609 28.4029 30.0246C24.9269 31.7156 23.2358 35.5674 24.0814 39.3253C25.0208 42.9893 28.4029 45.6198 32.2548 45.6198ZM29.1545 47.1229C28.7787 48.2503 28.309 49.2837 28.5908 50.599C28.9666 52.1021 28.4029 53.4174 27.1816 54.3569C26.7119 54.7327 26.1482 55.0145 25.6785 55.4842C25.0208 56.0479 24.4571 56.6116 23.7995 57.1753L23.8935 57.2692C24.0814 57.2692 24.2692 57.2692 24.4571 57.2692C27.2756 57.2692 30.1879 57.2692 33.0063 57.2692C33.3821 57.2692 33.7579 57.2692 34.1337 57.2692C34.6974 57.3632 35.0732 57.739 34.9792 58.2087C34.9792 58.7724 34.6034 59.0542 34.1337 59.1482C33.9458 59.1482 33.7579 59.1482 33.57 59.1482C29.9061 59.1482 26.3361 59.1482 22.6721 59.1482C22.4843 59.1482 22.2024 59.1482 22.1085 59.2421C21.8266 59.8997 21.4508 60.4634 21.075 61.1211C28.4969 61.1211 35.8247 61.1211 43.2466 61.1211C42.9647 60.5574 42.5889 60.0876 42.401 59.6179C42.2131 59.3361 42.0253 59.1482 41.6495 59.2421C40.5221 59.2421 39.3947 59.2421 38.1734 59.2421C37.4218 59.2421 37.0461 58.8663 37.0461 58.3027C37.0461 57.739 37.5158 57.3632 38.1734 57.3632C38.925 57.3632 39.6766 57.3632 40.4282 57.3632C40.4282 57.2692 40.5221 57.2692 40.5221 57.1753C40.3342 56.9874 40.1463 56.8934 39.8645 56.7055C38.925 55.954 38.0795 55.2963 37.14 54.5448C35.8247 53.5113 35.1671 52.1961 35.6368 50.599C36.0126 49.2837 35.449 48.3443 35.0732 47.2169C33.1942 47.6866 31.2213 47.6866 29.1545 47.1229Z" fill="white"/>
<path d="M26.3359 35.7557C26.3359 33.7828 28.1209 32.0918 30.0938 32.0918C30.7515 32.0918 31.2212 32.4676 31.2212 33.0313C31.2212 33.595 30.8454 33.9707 30.1878 34.0647C29.0604 34.1586 28.4028 34.8163 28.3088 35.9436C28.2149 36.6013 27.8391 36.977 27.2754 36.977C26.7117 36.8831 26.3359 36.4134 26.3359 35.7557Z" fill="white"/>
<path d="M31.1275 19.4082C31.7851 19.4082 32.1609 19.784 32.2548 20.2537C32.2548 20.8174 31.973 21.1932 31.4093 21.2871C30.7517 21.3811 30.3759 21.6629 30.3759 22.3206C30.2819 22.8842 29.8122 23.26 29.3425 23.1661C28.7788 23.0721 28.497 22.6964 28.497 22.1327C28.3091 20.8174 29.6243 19.4082 31.1275 19.4082Z" fill="white"/>
<path d="M29.2485 13.0206C29.2485 11.7992 30.3759 10.6719 31.5972 10.6719C32.1609 10.6719 32.5367 11.0477 32.6306 11.5174C32.7246 11.9871 32.3488 12.4569 31.8791 12.5508C31.4093 12.6448 31.2214 12.8327 31.1275 13.3024C31.0335 13.8661 30.5638 14.1479 30.0941 14.054C29.6243 13.96 29.2485 13.5842 29.2485 13.0206Z" fill="white"/>
<path d="M30.2817 5.6932C30.3756 4.75373 31.1272 3.9082 32.0667 3.9082C32.6304 3.9082 33.0062 4.0961 33.1001 4.65978C33.1941 5.12952 33.0062 5.5053 32.5364 5.78715C32.3485 5.88109 32.1606 6.06899 32.0667 6.16293C31.7848 6.63267 31.503 6.82056 30.9393 6.72662C30.5635 6.72662 30.1877 6.25688 30.2817 5.6932Z" fill="white"/>
</svg>
