<svg width="64" height="64" viewBox="0 0 64 64" fill="none" xmlns="http://www.w3.org/2000/svg">
<path d="M6 48.0391C6 37.3555 6 26.6582 6 15.9745C6.02722 15.9336 6.06805 15.8926 6.08166 15.8517C6.62609 13.9551 7.86465 13 9.79736 13C24.6465 13 39.5093 13 54.3585 13C56.6451 13 58.1559 14.5145 58.1559 16.8068C58.1559 26.9311 58.1559 37.0553 58.1559 47.1932C58.1559 47.4524 58.1559 47.7117 58.115 47.9573C57.7884 49.8539 56.3457 51 54.3177 51C39.5366 51 24.7418 51 9.96069 51C9.79736 51 9.62042 51 9.4571 51C7.97354 50.8908 6.91191 50.1677 6.29943 48.8032C6.17694 48.544 6.09527 48.2847 6 48.0391ZM23.7619 32.5662C23.7619 37.7239 23.7619 42.7587 23.7619 47.8345C23.9388 47.8481 24.0885 47.8618 24.2382 47.8618C34.2556 47.8618 44.2731 47.8618 54.2905 47.8618C54.971 47.8618 55.039 47.7935 55.039 47.084C55.039 41.6671 55.039 36.2639 55.039 30.847C55.039 30.6833 55.0254 30.5196 55.0118 30.3831C45.3211 30.3831 35.6984 30.3831 26.0757 30.3831C26.0484 30.4241 26.0348 30.4513 26.0076 30.4923C26.1437 30.6014 26.2798 30.6833 26.4023 30.8061C27.6681 32.0341 28.9475 33.2621 30.1997 34.5038C31.1388 35.4452 30.7577 36.8506 29.4783 37.1645C28.825 37.3282 28.3214 37.028 27.8723 36.5914C26.5384 35.2679 25.1774 33.958 23.7619 32.5662ZM31.8193 27.1494C39.6046 27.1494 47.3082 27.1494 55.039 27.1494C55.039 26.9447 55.039 26.7673 55.039 26.6036C55.039 23.3835 55.039 20.177 55.039 16.9569C55.039 16.1928 54.9982 16.1382 54.236 16.1382C44.2594 16.1382 34.2692 16.1382 24.2927 16.1382C24.1157 16.1382 23.9388 16.1519 23.7755 16.1655C23.7755 17.3253 23.7755 18.4169 23.7755 19.5357C26.729 17.3662 29.7369 18.2531 31.2885 19.7131C32.1324 20.5045 32.6768 21.4732 32.9082 22.6057C33.2212 24.2567 32.8265 25.7576 31.8193 27.1494ZM20.5634 47.8345C20.5634 42.786 20.5634 37.7921 20.5634 32.7163C20.3728 32.8937 20.2367 33.0165 20.1142 33.1393C19.1342 34.149 18.1543 35.1587 17.1607 36.1684C16.3985 36.9461 15.4458 37.0144 14.7788 36.3594C14.1391 35.7045 14.1936 34.763 14.9422 34.0126C15.9766 32.9619 17.0246 31.9113 18.059 30.8607C18.1951 30.7242 18.3312 30.5741 18.5082 30.3831C15.3369 30.3831 12.2473 30.3831 9.14405 30.3831C9.13044 30.5469 9.11683 30.656 9.11683 30.7788C9.11683 36.2366 9.11683 41.7081 9.11683 47.1659C9.11683 47.7935 9.19849 47.8618 9.82458 47.8754C13.2545 47.8754 16.6843 47.8754 20.1142 47.8754C20.2639 47.8481 20.4 47.8345 20.5634 47.8345ZM20.5634 16.1382C20.3728 16.1382 20.2367 16.1382 20.1006 16.1382C16.6843 16.1382 13.2817 16.1382 9.86542 16.1382C9.18488 16.1382 9.11683 16.1928 9.11683 16.916C9.11683 20.1634 9.11683 23.4108 9.11683 26.6582C9.11683 26.8219 9.13044 26.9856 9.14405 27.1903C9.7157 27.1903 10.2601 27.1903 10.8045 27.1903C11.3354 27.1903 11.8662 27.1903 12.4378 27.1903C10.6276 24.2022 11.5123 21.5824 12.8053 20.2043C13.8261 19.1127 15.0919 18.526 16.5754 18.4305C18.0454 18.335 19.3656 18.7989 20.5634 19.7268C20.5634 18.4987 20.5634 17.3526 20.5634 16.1382ZM24.0885 26.9447C25.681 26.6445 27.1645 26.3307 28.5664 25.7167C29.4919 25.3074 29.9819 24.4341 29.8866 23.4653C29.7914 22.4693 29.1517 21.7052 28.1581 21.4323C27.2053 21.1731 26.0076 21.5142 25.5585 22.2783C24.7282 23.6837 24.456 25.2801 24.0885 26.9447ZM20.1823 27.0948C20.2503 27.0266 20.3048 26.9583 20.3728 26.8901C19.9917 25.6348 19.6514 24.3522 19.2023 23.1242C18.7804 21.9508 17.8276 21.446 16.5891 21.5824C15.5955 21.6916 14.7244 22.4966 14.5611 23.4517C14.3841 24.5569 14.8741 25.5803 15.8949 25.9077C17.3104 26.3716 18.7531 26.6991 20.1823 27.0948Z" fill="white"/>
<path d="M41.6597 34.0395C44.5996 34.0395 47.5259 34.0395 50.4658 34.0395C51.2144 34.0395 51.8133 34.4761 52.0174 35.1311C52.208 35.7587 51.9902 36.4682 51.4322 36.8503C51.2552 36.9731 51.0375 37.055 50.8333 37.1095C50.6427 37.1641 50.425 37.1641 50.2344 37.1641C44.518 37.1641 38.8015 37.1641 33.0714 37.1641C32.772 37.1641 32.459 37.1368 32.1731 37.0277C31.4926 36.7684 31.0979 36.0589 31.2204 35.3494C31.3429 34.6126 31.9418 34.0532 32.6903 34.0395C33.4662 34.0122 34.2556 34.0259 35.0314 34.0259C37.2499 34.0395 39.4548 34.0395 41.6597 34.0395Z" fill="white"/>
<path d="M36.8687 40.9717C38.1889 40.9717 39.5091 40.9717 40.8294 40.9717C41.8093 40.9717 42.5035 41.5993 42.5307 42.4862C42.5579 43.3868 41.8638 44.0826 40.8566 44.0826C38.1889 44.0963 35.5348 44.0963 32.8672 44.0826C31.8872 44.0826 31.2067 43.4277 31.1931 42.5408C31.1794 41.6403 31.9008 40.9717 32.8944 40.9717C34.2282 40.9717 35.5485 40.9717 36.8687 40.9717Z" fill="white"/>
<path d="M48.8872 44.0958C48.3564 44.0958 47.8392 44.1094 47.3083 44.0958C46.342 44.0685 45.6751 43.3999 45.6887 42.4994C45.7023 41.6261 46.3828 40.9848 47.3356 40.9848C48.37 40.9712 49.4044 40.9712 50.4388 40.9848C51.3915 40.9985 52.0584 41.6125 52.0721 42.4994C52.0857 43.4136 51.4324 44.0685 50.466 44.0958C49.9352 44.1094 49.418 44.0958 48.8872 44.0958Z" fill="white"/>
</svg>
