<svg width="64" height="64" viewBox="0 0 64 64" fill="none" xmlns="http://www.w3.org/2000/svg">
<path d="M26.5274 59C26.0343 59 25.5412 59 25.0481 59C24.7522 58.9718 24.4563 58.9295 24.1605 58.9154C22.3571 58.8308 20.5961 58.5347 18.9054 57.9144C11.7203 55.3061 7.38097 50.1318 5.53537 42.7862C5.26768 41.7429 5.16906 40.6573 5 39.5857C5 38.6411 5 37.6824 5 36.7378C5.02818 36.5827 5.07044 36.4276 5.09862 36.2725C5.33813 35.0318 5.46492 33.7629 5.83123 32.5645C7.83181 26.0367 12.1993 21.7083 18.4546 19.1846C18.8632 19.0154 19.0886 18.7898 19.2436 18.3809C20.3707 15.3497 22.019 12.6568 24.4 10.4573C29.486 5.77647 35.5018 4.16918 42.208 5.39579C54.8877 7.70802 60.9881 19.396 58.4239 30.224C56.7897 37.1043 52.4786 41.7993 45.9837 44.5063C45.2511 44.8165 44.8989 45.2112 44.603 45.9444C41.8839 52.585 36.9107 56.6455 30.0636 58.4783C28.9083 58.7744 27.7108 58.8308 26.5274 59ZM45.8851 41.1084C46.1387 40.9815 46.3641 40.8829 46.5754 40.7842C54.2115 36.9069 57.8322 27.4466 54.7046 19.2269C50.2948 7.62343 35.1919 4.15509 26.1047 13.3053C19.4267 20.0305 19.5253 31.0418 26.3301 37.8093C28.7111 40.1779 31.557 41.6865 34.8256 42.4055C34.9805 42.4337 35.2905 42.3632 35.3327 42.2645C35.7554 41.2071 36.0231 40.1074 36.0231 38.9372C35.6427 38.8385 35.3046 38.7539 34.9805 38.6552C27.0205 36.4135 23.7378 29.1102 25.1185 22.6106C26.7105 15.0818 33.8957 10.3868 41.4049 12.0646C46.8572 13.2912 50.5062 16.7032 51.7741 22.1876C53.0421 27.6862 51.5346 32.4658 47.0685 36.1033C46.2937 36.7378 45.8569 37.2735 45.9837 38.3309C46.0964 39.2192 45.9274 40.1356 45.8851 41.1084ZM18.0179 22.8503C18.046 22.8503 18.0038 22.8362 17.9756 22.8503C17.7643 22.949 17.567 23.0477 17.3698 23.1605C14.6225 24.5986 12.467 26.657 10.8327 29.2794C8.62077 32.8182 7.63457 36.6391 8.26855 40.7983C8.88845 44.8729 10.7904 48.2989 13.8054 51.0905C20.6524 57.435 30.599 57.8157 37.8546 50.5547C42.842 45.5778 44.0958 39.4025 41.8558 32.7337C39.7988 26.6288 35.2905 23.0618 29.1338 21.4827C28.9929 21.4545 28.7111 21.5391 28.6688 21.6378C28.2603 22.6811 27.9926 23.7667 27.9785 24.9369C28.1335 24.9792 28.2744 25.0074 28.4012 25.0497C35.7977 26.7557 40.4469 33.7911 38.9253 41.2353C37.446 48.4681 30.5567 53.2194 23.1884 51.9787C15.6369 50.6816 10.565 43.3784 12.0584 35.8636C12.7769 32.2543 14.6225 29.364 17.6375 27.2351C17.7924 27.1223 18.0038 26.939 18.0038 26.7839C18.0319 25.4727 18.0179 24.1615 18.0179 22.8503ZM30.4863 18.536C34.1493 19.5793 37.3333 21.2712 39.982 23.9077C42.6447 26.5583 44.4199 29.7165 45.392 33.4386C48.3929 30.7034 49.4636 27.3902 48.8437 23.527C48.1675 19.3679 44.8989 15.9841 40.7428 15.1382C36.7416 14.3204 33.3463 15.5188 30.4863 18.536ZM33.4308 45.3381C25.8229 43.0823 20.8074 38.2181 18.5673 30.4778C15.6228 33.2553 14.4394 36.5968 15.1861 40.5304C15.9891 44.7883 19.2999 48.0028 23.6392 48.8347C27.6685 49.596 31.5711 47.7631 33.4308 45.3381ZM35.5863 35.4689C34.7692 31.9864 31.2893 28.9269 28.4293 28.4053C29.0774 31.5493 32.2473 34.7075 35.5863 35.4689Z" fill="white"/>
</svg>
