<svg width="64" height="64" viewBox="0 0 64 64" fill="none" xmlns="http://www.w3.org/2000/svg">
<path d="M24.8568 63.9694C23.5036 63.5425 22.4811 62.7802 22.1203 61.3164C22.0301 61.0115 22 60.6456 22 60.3406C22 54.4552 22 48.5698 22 42.6539C22 42.5624 22 42.5014 22 42.4099C22.0301 41.861 22.3609 41.4951 22.8721 41.4951C23.3833 41.4951 23.7742 41.8001 23.8344 42.349C23.8644 42.8064 23.8644 43.2638 23.8644 43.7212C23.8644 46.9841 23.8644 50.2165 23.8644 53.4794C23.8644 53.6928 23.8644 53.9368 23.8644 54.2113C29.5479 54.2113 35.1713 54.2113 40.8849 54.2113C40.8849 53.8758 40.8548 53.5709 40.8849 53.2354C40.915 52.6256 41.3059 52.2291 41.8472 52.2596C42.3885 52.2901 42.7193 52.6256 42.7193 53.2354C42.7193 55.736 42.7493 58.2365 42.6892 60.737C42.6591 62.2008 41.8171 63.2071 40.494 63.756C40.2835 63.8475 40.073 63.9085 39.8625 63.9999C34.8706 63.9694 29.8787 63.9694 24.8568 63.9694ZM23.8644 56.1019C23.8644 56.3459 23.8644 56.5288 23.8644 56.7118C23.8644 58.023 23.8344 59.3343 23.8945 60.6456C23.9246 61.4689 24.6162 62.0788 25.4883 62.0788C30.0892 62.0788 34.6902 62.1093 39.261 62.0788C40.2233 62.0788 40.8548 61.3774 40.8849 60.4016C40.8849 59.9442 40.8849 59.4868 40.8849 59.0294C40.8849 58.0535 40.8849 57.0777 40.8849 56.1019C35.2014 56.1019 29.578 56.1019 23.8644 56.1019Z" fill="white"/>
<path d="M37.2162 5.11543C37.2162 6.12174 37.2162 7.06706 37.2162 8.07338C38.5393 8.43931 38.8701 9.38463 38.8701 10.6654C38.84 14.0808 38.8701 17.4961 38.84 20.9115C38.84 21.3079 38.9603 21.5824 39.261 21.8568C41.4563 23.8694 42.6892 26.37 42.7193 29.3889C42.7794 35.7927 42.7493 42.166 42.7493 48.5699C42.7493 49.2712 42.4185 49.6677 41.8472 49.6982C41.2458 49.6982 40.8849 49.2712 40.8849 48.5089C40.8849 42.3185 40.8849 36.0977 40.8849 29.9073C40.8849 27.1628 39.8625 24.8758 37.7875 23.1071C37.547 22.8936 37.1861 22.7716 36.8553 22.7716C33.8482 22.7412 30.8711 22.7412 27.8639 22.7716C27.5632 22.7716 27.1723 22.9241 26.9317 23.1071C24.947 24.7843 23.8945 26.9494 23.8644 29.6024C23.8344 32.2554 23.8644 34.9389 23.8644 37.5919C23.8644 37.8358 23.8945 38.1713 23.7441 38.3238C23.5036 38.5677 23.1427 38.8422 22.842 38.9032C22.3909 38.9641 22.0902 38.6287 22.0301 38.1408C22 37.9578 22 37.8054 22 37.6224C22 35.0609 22 32.4688 22 29.8768C22 26.6444 23.1728 23.9609 25.5184 21.7958C25.6988 21.6129 25.8191 21.2774 25.8191 21.003C25.8492 17.4961 25.8492 13.9588 25.8191 10.4519C25.8191 9.41513 26.1198 8.62227 27.1122 8.19535C27.2625 8.13437 27.3527 7.85992 27.3527 7.64646C27.4129 6.70113 27.3527 5.72531 27.4429 4.77999C27.7136 2.12698 29.9389 0.0533651 32.5551 0.0228708C34.7804 -0.00762358 36.9756 -0.00762358 39.2009 0.0228708C40.1632 0.0228708 40.8248 0.632758 40.945 1.60858C41.1856 3.46873 39.8625 5.02394 38.0281 5.11543C37.7575 5.11543 37.4868 5.11543 37.2162 5.11543ZM27.7136 20.7895C30.8109 20.7895 33.8782 20.7895 36.9155 20.7895C36.9155 17.1607 36.9155 13.5929 36.9155 9.99452C33.8181 9.99452 30.7809 9.99452 27.7136 9.99452C27.7136 13.5929 27.7136 17.1912 27.7136 20.7895ZM39.0505 1.88303C36.8252 1.88303 34.6601 1.82204 32.495 1.91352C30.9613 1.94401 29.578 3.13329 29.3675 4.62752C29.2172 5.72531 29.3374 6.8536 29.3374 8.01239C31.2921 8.01239 33.3069 8.01239 35.3217 8.01239C35.3217 6.73163 35.3217 5.51185 35.3217 4.29208C35.3217 3.59071 35.6525 3.25527 36.3441 3.25527C36.8854 3.22478 37.4267 3.25527 37.9379 3.25527C38.6897 3.16379 39.0505 2.76736 39.0505 1.88303Z" fill="white"/>
<path d="M32.3746 50.6132C28.8863 50.6132 26.4806 47.2284 27.5933 43.874C28.2849 41.7699 29.3976 39.8792 30.6305 38.0496C31.4725 36.7688 33.3971 36.7688 34.1789 38.0801C35.2916 39.9402 36.3741 41.8309 37.156 43.8435C38.3889 47.1979 35.8629 50.6437 32.3746 50.6132ZM32.3746 48.7531C34.63 48.7531 36.2238 46.5575 35.3517 44.4229C34.63 42.6542 33.6376 41.038 32.7355 39.3608C32.525 38.9644 32.1942 38.9034 31.9837 39.3303C31.0515 41.0685 30.0291 42.7762 29.3073 44.5754C28.5255 46.6185 30.1794 48.7531 32.3746 48.7531Z" fill="white"/>
<path d="M32.3446 31.8586C33.2167 31.8586 34.1188 31.8586 34.9909 31.8586C35.6224 31.8586 36.0134 32.2246 36.0434 32.743C36.0735 33.2919 35.6525 33.7188 34.9909 33.7188C33.2167 33.7188 31.4124 33.7188 29.6382 33.7188C28.9766 33.7188 28.5857 33.2919 28.5857 32.743C28.6158 32.1941 29.0067 31.8586 29.6382 31.8281C30.5403 31.8281 31.4425 31.8586 32.3446 31.8586Z" fill="white"/>
</svg>
