<svg width="64" height="64" viewBox="0 0 64 64" fill="none" xmlns="http://www.w3.org/2000/svg">
<path d="M34.823 49.7784C34.823 51.7923 34.823 53.7287 34.823 55.6457C34.823 56.7301 34.1575 57.6015 33.1788 57.8919C31.6325 58.3566 30.1645 57.2723 30.1449 55.607C30.1058 53.961 30.1449 52.3151 30.1449 50.6885C30.1449 50.4174 30.1449 50.1657 30.1449 49.7978C29.8122 49.7978 29.5381 49.7978 29.2445 49.7978C27.5808 49.7978 25.9171 49.8171 24.2729 49.7978C22.8832 49.7784 21.8849 48.8102 21.8654 47.4935C21.8654 46.1767 22.8636 45.1698 24.2338 45.1698C26.1519 45.1504 28.0897 45.1698 30.0666 45.1698C30.0666 43.9305 30.0666 42.7105 30.0666 41.4713C24.6056 40.6192 20.2212 38.0051 17.1286 33.4739C14.5254 29.5818 13.5467 25.3217 14.1926 20.7324C15.4845 11.5926 23.6857 4.71841 32.9243 5.00887C42.3587 5.29933 50.1489 12.5027 50.9318 21.5457C51.7735 31.4794 44.7271 40.0577 34.8817 41.4325C34.8817 42.6137 34.8817 43.8143 34.8817 45.0923C35.097 45.0923 35.3319 45.1117 35.5667 45.1117C37.113 45.1117 38.6398 45.1117 40.1861 45.1117C42.0651 45.1117 43.1612 45.9831 43.1612 47.4547C43.1416 48.907 42.0651 49.759 40.2252 49.759C38.4636 49.7784 36.702 49.7784 34.823 49.7784ZM46.293 23.2885C46.2538 15.601 40.0882 9.57877 32.3176 9.6175C24.7622 9.65623 18.6358 15.8721 18.6945 23.424C18.7532 30.8598 24.9775 36.9401 32.4937 36.9014C40.1665 36.8626 46.3321 30.7823 46.293 23.2885Z" fill="white"/>
</svg>
