<svg width="64" height="64" viewBox="0 0 64 64" fill="none" xmlns="http://www.w3.org/2000/svg">
<path d="M25.1201 61.0039C23.6282 60.6576 22.0669 60.4844 20.656 59.9419C15.7408 58.0833 12.4216 54.6202 10.7909 49.6218C10.3745 48.3404 10.2358 46.9667 10.0276 45.6276C9.88881 44.6926 10.2705 44.2655 11.2419 44.3578C12.7685 44.4964 14.2836 44.7388 15.7986 44.9466C15.9605 44.9697 16.134 45.0158 16.1456 45.0158C16.5735 43.3304 16.9436 41.6681 17.4062 40.0289C17.6722 39.0939 18.1463 38.8977 19.0253 39.3594C20.4478 40.1097 21.824 40.9409 23.2581 41.749C23.4779 41.3796 23.7554 40.8716 24.0677 40.3983C24.3915 39.902 24.6806 39.3479 25.1201 38.9554C25.9412 38.205 26.08 37.3162 26.0569 36.2772C26.0338 35.3653 26.0916 34.4187 26.3229 33.5529C26.7624 31.8791 28.4509 30.6093 30.1856 30.4707C30.4863 30.4476 30.787 30.4361 31.134 30.413C31.134 29.628 31.134 28.8662 31.134 28.0119C30.5442 28.0119 29.9659 28.0235 29.3761 28.0119C28.6822 27.9888 28.3352 27.7118 28.3237 27.0538C28.3005 25.7724 28.3121 24.4795 28.3468 23.1982C28.4046 21.0164 30.1856 19.0771 32.8688 19.0771C33.5395 19.0771 34.2103 19.0771 34.9158 19.0771C34.9158 18.7308 34.9158 18.4075 34.9158 18.0266C34.511 18.0266 34.1178 18.0381 33.713 18.0266C33.1116 18.0035 32.7531 17.6918 32.7531 17.1839C32.7415 16.6529 33.1116 16.3181 33.7361 16.295C34.1178 16.2835 34.4994 16.295 34.9158 16.295C35.0083 15.6024 34.8001 14.7251 35.8641 14.6789C36.4308 14.6558 36.6043 14.9906 36.7547 16.2489C39.0099 16.2489 41.2766 16.2489 43.5781 16.2489C43.5897 16.1219 43.6244 15.9718 43.6244 15.8333C43.6244 13.0051 43.6359 10.1884 43.6244 7.36019C43.6128 5.50165 42.4447 4.08177 40.7215 3.81626C38.5588 3.48149 36.7547 5.06298 36.72 7.36019C36.6968 8.8147 36.72 10.2808 36.7084 11.7353C36.7084 11.9777 36.6737 12.2432 36.5696 12.451C36.3846 12.8204 36.0376 12.9243 35.6328 12.8435C35.1934 12.7511 34.9852 12.4279 34.9736 12.0123C34.9505 11.2273 34.9505 10.4424 34.9621 9.64584C34.9736 8.60691 34.9274 7.56797 35.043 6.54058C35.3553 3.88552 37.6799 1.9 40.282 2.0039C43.0114 2.10779 45.1972 4.17412 45.336 6.87535C45.417 8.61845 45.3707 10.3731 45.3707 12.1162C45.3707 13.4784 45.3707 14.8405 45.3707 16.2719C45.8102 16.2719 46.2034 16.2604 46.6082 16.2719C47.2327 16.295 47.6028 16.6298 47.5796 17.1608C47.5681 17.6687 47.2096 17.9804 46.6082 18.0035C46.2265 18.015 45.8449 18.0035 45.417 18.0035C45.417 18.3498 45.417 18.6615 45.417 19.054C46.319 19.054 47.2211 19.054 48.1116 19.054C49.6151 19.0655 50.8988 19.5619 51.8356 20.7855C52.4601 21.5936 52.7146 22.5286 52.7261 23.5214C52.7377 24.6296 52.7377 25.7493 52.7261 26.8575C52.7146 27.6541 52.4023 27.9657 51.6043 27.9888C51.0492 28.0004 50.4941 27.9888 49.8927 27.9888C49.8927 28.7969 49.8927 29.5703 49.8927 30.2629C50.7254 30.4592 51.5696 30.54 52.2982 30.8632C54.1486 31.7059 54.9929 33.2528 55.0045 35.2498C55.0276 39.7865 55.016 44.3117 55.0045 48.8483C55.0045 49.0215 54.9813 49.1947 54.9351 49.3563C54.8194 49.7834 54.484 50.0604 54.0908 49.9681C53.7901 49.8988 53.501 49.6102 53.3159 49.3332C53.1887 49.16 53.235 48.8483 53.235 48.6059C53.235 44.2309 53.1887 39.8442 53.2581 35.4692C53.2928 33.2759 51.7893 32.1099 49.9042 32.133C43.6359 32.1907 37.356 32.1561 31.0877 32.1561C28.8904 32.1561 27.8726 33.2643 27.757 35.4461C27.676 37.0391 27.942 38.3666 29.1332 39.5441C29.7577 40.1675 30.1278 41.0332 30.6483 41.8298C31.1571 41.4719 31.6544 41.0563 32.198 40.7331C33.0769 40.2136 33.9675 39.7403 34.8811 39.2901C35.6675 38.9092 36.0607 39.117 36.3846 39.9481C36.9397 41.4142 37.3098 42.9149 37.4023 44.4733C37.4139 44.6349 37.4601 44.808 37.4833 45.0043C38.1887 44.8542 38.8595 44.658 39.5303 44.5772C40.5827 44.4502 41.6351 44.3578 42.6876 44.3232C43.5087 44.2886 43.821 44.6811 43.7631 45.5122C43.3237 51.4572 40.4902 55.9016 35.3668 58.926C35.2743 58.9837 35.1702 59.0415 34.9505 59.18C41.1147 59.18 47.1286 59.18 53.2003 59.18C53.2119 58.9722 53.235 58.776 53.235 58.5682C53.235 56.7673 53.235 54.955 53.235 53.1542C53.235 52.9233 53.2466 52.6924 53.2928 52.4731C53.3738 52.0344 53.686 51.8035 54.1024 51.8035C54.5303 51.792 54.831 52.0229 54.9351 52.4615C54.9813 52.6462 54.9929 52.8425 54.9929 53.0272C54.9929 55.2551 54.9813 57.4831 55.0045 59.711C55.0045 60.2766 54.8657 60.7268 54.3452 61.0039C44.5958 61.0039 34.858 61.0039 25.1201 61.0039ZM50.9104 26.2226C50.9104 25.1029 50.9914 24.0409 50.8873 23.0019C50.7832 21.9284 50.0777 21.2473 49.0484 20.9472C48.7246 20.8548 48.3661 20.8433 48.0191 20.8433C42.9998 20.8317 37.9806 20.8433 32.9613 20.8433C32.7531 20.8433 32.5334 20.8548 32.3252 20.8779C31.2496 20.9933 30.3013 21.686 30.1741 22.7249C30.0237 23.8677 30.1394 25.0336 30.1394 26.2226C37.0553 26.2226 43.9597 26.2226 50.9104 26.2226ZM25.9065 59.1915C25.2473 51.388 18.2042 46.0086 11.878 46.1702C12.2944 52.8656 18.4239 59.1338 25.9065 59.1915ZM27.9073 59.2031C35.5634 59.0992 41.5658 52.6347 41.878 46.1587C34.7423 46.1125 28.3005 52.2537 27.9073 59.2031ZM26.9358 55.1166C27.3522 54.17 26.5542 49.7141 25.5249 47.7055C24.0446 44.7965 21.8009 42.6378 18.6899 41.1256C18.4817 42.557 18.2967 43.8845 18.0769 45.2005C18.0075 45.6161 18.2042 45.8008 18.5511 45.974C21.2458 47.2784 23.4316 49.1716 25.0507 51.6766C25.7793 52.7732 26.3113 53.9622 26.9358 55.1166ZM32.9382 30.3899C38.0153 30.3899 43.0345 30.3899 48.0538 30.3899C48.0538 29.5819 48.0538 28.82 48.0538 28.0465C42.9998 28.0465 37.9921 28.0465 32.9382 28.0465C32.9382 28.8315 32.9382 29.5819 32.9382 30.3899ZM34.9274 41.1949C31.9204 42.6955 29.7115 44.8658 28.208 47.7748C27.9304 48.3289 27.8611 48.8137 28.0461 49.414C28.2774 50.1643 28.4046 50.9493 28.5897 51.8266C30.3707 49.16 32.6375 47.1861 35.4362 45.8585C35.5519 45.8008 35.6675 45.6392 35.6675 45.5238C35.656 44.0577 35.4362 42.6263 34.9274 41.1949ZM26.8896 46.2972C27.6066 45.3506 28.3699 44.3578 29.1101 43.3535C29.1679 43.2727 29.191 43.0996 29.1448 42.9957C28.5665 41.749 27.8379 40.5946 26.7739 39.4402C26.0338 40.6523 25.3399 41.7951 24.6575 42.938C24.5997 43.0419 24.5881 43.2496 24.6575 43.342C25.4092 44.3578 26.1725 45.3506 26.8896 46.2972ZM36.7084 19.0309C39.0214 19.0309 41.2998 19.0309 43.5781 19.0309C43.5781 18.6846 43.5781 18.3844 43.5781 18.0728C41.2766 18.0728 39.0099 18.0728 36.7084 18.0728C36.7084 18.396 36.7084 18.6846 36.7084 19.0309Z" fill="white"/>
</svg>
