<svg width="64" height="64" viewBox="0 0 64 64" fill="none" xmlns="http://www.w3.org/2000/svg">
<path d="M39.1934 28.4501C40.7353 31.3489 40.5503 34.0626 38.885 36.7763C33.0875 45.9661 25.2546 52.9355 15.3865 57.5612C14.2763 58.1162 13.1044 58.6713 11.9326 58.9797C10.0206 59.4114 8.41707 58.733 7.18355 57.2528C5.95003 55.7109 5.64165 53.984 6.44343 52.1954C11.1925 41.217 18.4703 32.3973 28.7085 26.0447C31.2989 24.4411 33.9509 24.5028 36.603 25.9214C36.7264 25.7363 36.8497 25.5513 36.9114 25.3046C39.3784 20.3705 41.8455 15.3748 44.3125 10.4407C45.8544 7.5419 48.2598 6 51.5286 6C55.0442 6 58.0663 8.46704 58.9297 11.8592C59.7315 15.2514 58.2513 18.8286 55.1675 20.4322C51.5903 22.2825 48.0131 24.0711 44.3742 25.8597C42.6473 26.7231 40.9203 27.5866 39.1934 28.4501ZM23.651 31.7189C16.62 37.4548 11.5625 44.5475 7.98533 52.8121C7.43025 54.1073 7.73863 55.3408 8.72545 56.3893C9.77394 57.3761 11.0075 57.6228 12.3027 57.1294C12.8577 56.9444 13.3511 56.636 13.8446 56.3893C20.0122 53.5522 25.563 49.79 30.3121 44.8559C31.3606 43.7457 32.3474 42.6356 33.3959 41.5254C30.127 38.1949 26.9199 34.9877 23.651 31.7189ZM38.0216 26.9699L38.0832 27.0315C38.2683 26.9699 38.4533 26.9082 38.5766 26.7848C40.5503 25.798 42.5856 24.8112 44.5592 23.8244C47.7664 22.2208 50.9735 20.6789 54.1807 19.0136C56.7094 17.7184 57.8813 14.8813 57.1411 12.1676C56.4627 9.45386 53.934 7.60358 51.1586 7.72693C48.7532 7.85028 47.0263 8.96045 45.9161 11.1191C43.4491 16.0532 40.982 20.9873 38.515 25.8597C38.3916 26.2297 38.2066 26.5998 38.0216 26.9699ZM25.1313 30.4237C28.3384 33.6309 31.4839 36.7763 34.6294 39.9218C35.8629 38.2566 37.1581 36.5913 38.0832 34.6177C39.1317 32.3973 38.515 29.6836 36.6647 28.0183C34.8144 26.3531 32.1007 25.983 29.942 27.2166C28.2768 28.2651 26.6732 29.3752 25.1313 30.4237Z" fill="white"/>
<path d="M35.1226 50.653C35.1842 48.0626 35.9243 46.0273 37.5279 44.362C39.8099 42.08 42.0303 39.7363 44.374 37.516C46.9027 35.1106 49.9865 34.4322 53.317 35.6657C56.5858 36.8376 58.4978 39.2429 58.9912 42.6968C59.3612 45.3489 58.6211 47.7542 56.7708 49.7279C54.4888 52.1332 52.2068 54.4769 49.8015 56.6973C47.026 59.226 43.7572 59.7811 40.3033 58.2392C36.9728 56.7589 35.3076 53.9835 35.1226 50.653ZM41.1051 43.2519C40.3033 44.0537 39.4399 44.7938 38.6381 45.6572C36.6645 47.8159 36.3561 51.0847 37.7746 53.6751C39.1932 56.2655 42.1536 57.6224 45.0524 57.1907C47.7045 56.7589 49.2464 54.847 50.9116 53.12C47.7045 49.7895 44.4356 46.5207 41.1051 43.2519ZM42.5237 41.895C45.7925 45.1638 49.0613 48.4327 52.3918 51.7632C53.317 50.838 54.3655 49.8512 55.2906 48.8027C56.5858 47.4459 57.3259 45.9039 57.3259 43.992C57.3259 41.0315 56.0307 38.8112 53.3787 37.5777C50.7266 36.2825 48.1362 36.6525 45.8542 38.5645C44.6207 39.5513 43.5722 40.7848 42.5237 41.895Z" fill="white"/>
<path d="M55.7224 42.8212C55.7224 45.1649 53.8104 47.0769 51.4667 47.0769C49.123 47.0769 47.1494 45.1649 47.1494 42.8212C47.1494 40.4775 49.0614 38.5039 51.4051 38.5039C53.7488 38.5039 55.6607 40.4159 55.7224 42.8212ZM52.5152 40.5392C51.3434 39.9841 50.0482 40.2925 49.3081 41.341C48.568 42.3895 48.6913 43.7464 49.6165 44.6715C50.4799 45.535 51.8985 45.6583 52.8853 44.9182C53.8721 44.1781 54.2422 42.8829 53.6254 41.7111C53.0703 42.3278 52.5769 42.8829 52.0835 43.3763C51.5901 42.9446 51.22 42.5745 50.7266 42.1428C51.3434 41.5877 51.9601 41.0326 52.5152 40.5392Z" fill="white"/>
</svg>
