<svg width="64" height="64" viewBox="0 0 64 64" fill="none" xmlns="http://www.w3.org/2000/svg">
<path d="M33.5807 33.8958C33.7744 32.3993 34.0068 31.0447 34.0972 29.6901C34.4071 24.7102 33.2966 20.04 30.9853 15.6149C29.255 12.2993 29.9006 8.3387 32.4831 5.66816C35.3368 2.71381 39.8433 2.13326 43.3426 4.32645C47.1905 6.73896 49.2436 10.2481 49.7085 14.7377C50.2121 19.6143 50.4187 24.5038 49.9409 29.3933C49.5794 33.0573 49.0112 36.7083 48.4689 40.3464C48.0815 42.9137 47.5908 45.4552 47.1389 48.0097C47.0614 48.4096 47.1518 48.6031 47.5779 48.745C49.6697 49.4933 50.9739 51.3639 50.9868 53.57C50.9997 54.5763 51.0385 55.5955 50.8706 56.5889C50.4703 59.0143 48.4043 60.7689 45.9509 60.7818C40.3598 60.8076 34.7815 60.8205 29.1904 60.7818C26.44 60.7689 24.2191 58.4983 24.1674 55.7503C24.1545 54.7182 24.1029 53.6733 24.2707 52.667C24.6323 50.5125 25.9881 49.1708 28.067 48.5902C28.4673 48.4741 28.6352 48.3064 28.7514 47.9451C28.9322 47.3775 29.1129 46.797 29.3454 46.2422C29.5132 45.8552 29.4099 45.6229 29.1129 45.3649C27.2019 43.6362 25.2521 41.9461 23.4056 40.1529C20.3195 37.1469 17.6853 33.7539 15.4385 30.0771C13.8632 27.5098 13.5791 24.7747 14.5992 21.9236C15.5806 19.2143 18.176 17.5759 21.12 17.7823C23.7542 17.9629 26.0526 20.0529 26.5821 22.8267C27.3956 27.0582 29.4357 30.5544 32.7672 33.2895C33.0125 33.4701 33.2191 33.612 33.5807 33.8958ZM44.9567 48.4225C44.9954 48.2161 45.047 48.0613 45.0729 47.8935C45.5248 45.2746 46.0413 42.6686 46.4287 40.0368C46.971 36.4502 47.5263 32.8766 47.8878 29.2643C48.3656 24.4393 48.1719 19.6143 47.6425 14.8022C47.2422 11.0737 45.5119 8.13228 42.3096 6.1326C40.2436 4.84249 38.0613 4.72638 35.8533 5.78427C32.5218 7.37111 31.1144 11.4737 32.9867 15.0602C36.5506 21.8462 37.1575 28.9547 34.9882 36.2696C34.1101 39.2369 32.9996 42.1396 31.9795 45.0682C31.5921 46.1777 31.2048 47.2743 30.7916 48.4225C35.5692 48.4225 40.2307 48.4225 44.9567 48.4225ZM30.2621 43.6491C31.1273 41.1334 31.9666 38.7854 32.7543 36.4115C32.8059 36.2438 32.7026 35.8955 32.5606 35.7923C28.1961 32.6315 25.5749 28.3999 24.5548 23.1105C24.1932 21.2527 22.5921 20.0013 20.6294 19.8981C18.912 19.8078 17.1817 20.956 16.6006 22.646C15.8001 24.9295 16.0583 27.1098 17.3496 29.174C19.6738 32.8895 22.3726 36.2825 25.5361 39.3143C27.0469 40.7721 28.6223 42.1525 30.2621 43.6491ZM37.5965 58.7434C40.321 58.7434 43.0456 58.7563 45.7831 58.7434C47.5908 58.7305 48.9079 57.4146 48.9337 55.6213C48.9466 54.9376 48.9466 54.2538 48.9337 53.5571C48.895 51.8671 47.5908 50.5125 45.8993 50.5125C40.3598 50.4996 34.8203 50.4867 29.2808 50.5125C27.5892 50.5125 26.298 51.8671 26.2593 53.57C26.2463 54.1764 26.2593 54.7698 26.2593 55.3762C26.2593 57.4791 27.5247 58.7434 29.6165 58.7563C32.2765 58.7563 34.9365 58.7434 37.5965 58.7434Z" fill="white"/>
</svg>
