<svg width="64" height="64" viewBox="0 0 64 64" fill="none" xmlns="http://www.w3.org/2000/svg">
<path d="M34.071 6C35.7091 7.35282 37.4092 8.63048 38.9604 10.071C41.8518 12.739 44.3957 15.7203 46.2944 19.2025C47.4733 21.3695 48.3296 23.6493 48.4909 26.142C48.8632 32.167 45.4878 37.904 40.0648 40.4843C39.5064 40.7474 38.9231 40.9478 38.3523 41.1983C38.2406 41.2484 38.0917 41.3987 38.0917 41.499C38.0793 42.7015 38.0793 43.904 38.0793 45.1566C38.5136 45.1566 38.9107 45.1691 39.3078 45.1566C43.0803 44.9937 46.1083 47.6242 46.8528 50.9562C46.8652 51.0188 46.8901 51.0814 46.9149 51.1816C47.4237 51.1816 47.9573 51.1816 48.4785 51.1816C49.3968 51.1942 49.9924 51.7453 50.0049 52.5845C50.0049 53.4238 49.4092 53.9875 48.4909 54C38.6253 54 28.7721 54 18.9065 54C17.9882 54 17.3926 53.4238 17.3926 52.5971C17.3926 51.7578 18.0006 51.2067 18.919 51.1941C19.4277 51.1941 19.9365 51.1941 20.4826 51.1941C20.9293 49.19 21.9717 47.5866 23.6594 46.4092C25.3595 45.2317 27.283 45.0564 29.3306 45.1941C29.3306 44.7182 29.3306 44.3048 29.3306 43.8914C29.3306 43.1524 29.3057 42.4259 29.343 41.6868C29.3554 41.3486 29.2313 41.2484 28.9335 41.1357C23.9696 39.3194 20.7432 35.8372 19.3409 30.7015C18.3357 27.0188 18.9562 23.499 20.6315 20.1169C22.3936 16.5595 24.8631 13.5157 27.6925 10.785C29.2437 9.29436 30.9066 7.94154 32.5322 6.53862C32.768 6.32568 33.0658 6.17537 33.3264 6C33.5746 6 33.8228 6 34.071 6ZM33.6119 9.10647C31.9862 10.6347 30.3357 12.1002 28.7845 13.666C26.588 15.8956 24.6646 18.3257 23.2375 21.1315C21.9717 23.6242 21.3388 26.2422 21.8352 29.048C23.0637 35.9875 29.7153 40.4092 36.5281 38.8058C41.554 37.6159 45.3513 33.0689 45.6987 27.8831C45.8601 25.4656 45.2272 23.2484 44.16 21.1315C42.8446 18.5386 41.07 16.2839 39.0969 14.167C37.4216 12.3758 35.6346 10.7349 33.6119 9.10647ZM23.4112 51.1691C30.2861 51.1691 37.1238 51.1691 43.9862 51.1691C43.5023 49.4405 41.7897 48.0752 39.9904 48.0125C38.9604 47.9749 37.918 48 36.8756 48C33.7484 48 30.6212 47.9875 27.4939 48.0125C25.6449 48.025 23.8952 49.4029 23.4112 51.1691ZM32.1351 41.9248C32.1351 43.0021 32.1351 44.0668 32.1351 45.144C33.1899 45.144 34.2199 45.144 35.2375 45.144C35.2375 44.0418 35.2375 42.977 35.2375 41.9248C34.1951 41.9248 33.1775 41.9248 32.1351 41.9248Z" fill="white"/>
<path d="M24.8262 27.4198C24.8634 27.0941 24.851 26.8185 24.913 26.568C25.0744 25.9667 25.6576 25.5659 26.2781 25.591C26.8986 25.616 27.4446 26.0419 27.5687 26.6682C27.6555 27.1442 27.6431 27.6327 27.7424 28.1087C28.276 30.6014 29.7776 32.2173 32.2099 32.9187C32.4084 32.9688 32.607 33.0189 32.7807 33.0941C33.4012 33.3822 33.7362 34.0962 33.5377 34.7225C33.3143 35.4615 32.7062 35.8498 31.9865 35.7371C28.7228 35.2235 25.7817 32.33 25.062 28.9104C24.9503 28.4093 24.9006 27.8832 24.8262 27.4198Z" fill="white"/>
</svg>
