<svg width="64" height="64" viewBox="0 0 64 64" fill="none" xmlns="http://www.w3.org/2000/svg">
<path d="M28.2793 62.0068C27.5199 61.8063 26.7461 61.6631 26.0154 61.3911C22.6051 60.0881 20.4414 56.9237 20.4128 53.2296C20.3841 49.6643 20.3984 46.0847 20.4128 42.5194C20.4128 42.0612 20.2838 41.8751 19.8396 41.7175C19.0085 41.4169 18.2205 41.0303 17.4467 40.615C16.8162 40.2857 16.6586 39.7559 16.9595 39.2977C17.2604 38.8252 17.7476 38.768 18.3637 39.1689C22.8343 42.0469 28.8095 40.0566 30.9875 35.4604C31.5463 34.2863 31.8185 32.969 31.7326 31.8521C25.9437 31.8521 20.1549 31.8521 14.3087 31.8521C14.2514 33.1122 14.5666 34.2863 15.0681 35.4174C15.1541 35.6036 15.2687 35.7897 15.3547 35.9902C15.5696 36.4913 15.4407 36.9495 15.0251 37.1786C14.5809 37.422 14.0364 37.2788 13.8215 36.7491C13.406 35.7181 13.0191 34.6729 12.7325 33.6133C12.5606 32.969 12.5606 32.2817 12.5606 31.6087C12.5462 26.9552 12.5462 22.3161 12.5606 17.6626C12.5606 13.0664 14.1654 9.11447 17.3177 5.77828C20.7137 2.19867 24.955 2.04116 28.4799 5.52054C31.7469 8.74219 33.4664 12.7227 33.5094 17.3333C33.5523 21.9867 33.4377 26.6259 33.538 31.2794C33.6526 36.5629 30.228 40.5864 26.0154 41.8178C25.9437 41.8321 25.8721 41.875 25.7861 41.918C25.7861 43.9942 25.7001 46.0704 25.8148 48.1322C25.9151 49.9363 27.3479 51.2823 29.1534 51.3395C31.7326 51.4254 34.2974 51.3539 36.8766 51.3968C37.722 51.4111 38.5818 51.4254 39.3842 51.6402C41.7771 52.2559 43.296 54.375 43.2243 56.8092C43.1384 59.4151 41.4905 61.3911 38.9687 61.9065C38.8254 61.9352 38.6821 61.9925 38.5388 62.0354C35.1142 62.0068 31.6896 62.0068 28.2793 62.0068ZM14.323 25.3373C20.1405 25.3373 25.9294 25.3373 31.7899 25.3373C31.7899 25.0795 31.7899 24.8648 31.7899 24.6357C31.7899 22.3304 31.7612 20.0251 31.8042 17.7199C31.8329 15.9444 31.5463 14.2405 30.9445 12.5939C30.0131 10.0309 28.7092 7.71126 26.5025 6.00737C24.1956 4.2462 21.4444 4.30348 19.3381 6.22215C16.2287 9.0572 14.4949 12.5652 14.323 16.7605C14.2084 19.4953 14.2943 22.2445 14.28 24.9936C14.28 25.0938 14.3087 25.2084 14.323 25.3373ZM22.1895 42.591C22.1752 42.7055 22.1322 42.7914 22.1322 42.8917C22.1322 46.4856 22.0749 50.0795 22.1609 53.6591C22.2469 57.1385 25.2273 60.1167 28.7378 60.2456C31.8329 60.3458 34.9279 60.3029 38.0229 60.2599C39.9 60.2313 41.2326 58.9426 41.4762 57.0956C41.7055 55.4346 40.7311 53.8166 39.1263 53.3155C38.5818 53.1437 37.9943 53.1007 37.4211 53.0864C34.5983 53.0578 31.7756 53.115 28.9528 53.0148C26.5025 52.9289 24.4392 50.9816 24.1383 48.5331C23.995 47.4592 24.0523 46.3567 24.038 45.2542C24.0236 44.3808 24.038 43.493 24.038 42.591C23.3788 42.591 22.7914 42.591 22.1895 42.591ZM31.7469 27.1414C25.9294 27.1414 20.1405 27.1414 14.323 27.1414C14.323 28.1294 14.323 29.0744 14.323 30.0194C20.1549 30.0194 25.9437 30.0194 31.7469 30.0194C31.7469 29.0314 31.7469 28.1007 31.7469 27.1414Z" fill="white"/>
<path d="M61.0208 45.8694C60.7915 46.7715 60.5909 47.6879 60.3186 48.5899C60.1897 49.0195 59.9461 49.4347 59.7168 49.8356C59.4302 50.3225 59.0004 50.4513 58.5419 50.2079C58.0977 49.9788 57.9257 49.5063 58.198 49.0338C59.072 47.5304 59.2726 45.9124 59.2583 44.2085C59.2296 41.4021 59.2583 38.5957 59.244 35.8036C59.2296 33.1117 58.112 30.9926 55.8624 29.4891C55.7477 29.4175 55.6331 29.3459 55.5185 29.2887C55.4755 29.26 55.4182 29.26 55.3035 29.2171C55.2892 30.4628 54.888 31.508 53.8706 32.2669C53.1685 32.7824 52.3804 32.9542 51.5207 32.8683C49.8156 32.7251 48.6979 31.3648 48.5117 29.1884C47.437 29.7182 46.6059 30.4914 45.9325 31.4364C45.0584 32.6821 44.5999 34.0567 44.5999 35.5888C44.5999 38.8677 44.5569 42.1609 44.6142 45.4399C44.7002 50.6804 50.2311 54.1168 55.0026 51.9118C55.4755 51.697 55.9053 51.5538 56.2922 52.0407C56.6934 52.5418 56.5358 53.0859 55.9053 53.4009C53.6127 54.5034 51.2485 54.6466 48.8555 53.7875C45.302 52.4989 42.9521 49.2629 42.8947 45.4828C42.8518 42.0894 42.8374 38.6816 42.8947 35.2881C42.9664 30.9067 46.7349 27.012 51.1195 26.6398C55.6904 26.2532 59.9031 29.3746 60.7772 33.7703C60.8631 34.1999 60.9348 34.6294 61.0064 35.059C61.0208 38.6529 61.0208 42.2612 61.0208 45.8694ZM50.3314 28.4296C50.2884 29.4032 50.1451 30.3196 51.0622 30.8923C51.6497 31.2646 52.2801 31.2503 52.8533 30.8637C53.7274 30.291 53.5841 29.3889 53.5411 28.4296C52.4521 28.4296 51.4061 28.4296 50.3314 28.4296Z" fill="white"/>
<path d="M56.6503 42.3192C56.6503 44.4097 55.2747 46.2997 53.326 46.8868C51.3056 47.4881 49.1706 46.7293 48.01 44.9967C46.8207 43.1926 46.921 40.9303 48.2822 39.3266C48.4112 39.1691 48.5688 38.9973 48.7408 38.8971C49.1133 38.668 49.4859 38.7253 49.7868 39.0259C50.0734 39.3123 50.1307 39.6703 49.9301 40.0282C49.8298 40.2144 49.6721 40.3576 49.5432 40.5294C48.5545 41.861 48.7121 43.5219 49.9587 44.6101C51.1623 45.6554 52.8675 45.6124 54.0281 44.4813C55.1314 43.4217 55.2174 41.6319 54.2001 40.4005C54.1428 40.3289 54.0711 40.2573 54.0138 40.1857C53.7129 39.7705 53.7272 39.3123 54.0711 38.983C54.4293 38.6393 54.9022 38.668 55.3034 39.0403C56.1488 39.8278 56.6503 41.0735 56.6503 42.3192Z" fill="white"/>
<path d="M44.0555 20.3829C43.9838 23.2466 43.0668 25.8668 40.9461 27.986C40.7312 28.2007 40.3443 28.3869 40.0577 28.3582C39.7998 28.3296 39.4416 28.0146 39.3843 27.7712C39.327 27.4991 39.4559 27.0839 39.6708 26.8548C40.7598 25.6807 41.5909 24.3491 41.9921 22.8027C42.8519 19.4378 42.1068 16.4596 39.7998 13.8823C39.6565 13.7248 39.4846 13.5816 39.4129 13.3955C39.2267 12.9659 39.3699 12.5936 39.7425 12.3502C40.1294 12.0925 40.5019 12.1641 40.8315 12.4791C41.8918 13.51 42.6942 14.7271 43.2387 16.0873C43.7832 17.4333 44.0268 18.8508 44.0555 20.3829Z" fill="white"/>
<path d="M2 20.5833C2.07164 17.3617 3.00302 14.7414 5.09504 12.608C5.58222 12.1068 6.04074 12.0495 6.44195 12.4361C6.85749 12.8227 6.8145 13.2952 6.31299 13.8393C2.85973 17.5478 2.8454 23.0318 6.31299 26.7546C6.78584 27.27 6.85749 27.6709 6.54225 28.0719C6.1697 28.5444 5.65386 28.5444 5.15235 28.0575C3.57618 26.4968 2.61614 24.6068 2.21493 22.4304C2.1003 21.7431 2.05732 21.0272 2 20.5833Z" fill="white"/>
<path d="M5.79736 20.2965C5.84035 18.7215 6.32753 17.3183 7.4022 16.1442C7.87505 15.6144 8.40522 15.5285 8.80643 15.8864C9.22196 16.2444 9.17898 16.7599 8.70612 17.2896C7.12995 19.0794 7.12995 21.5709 8.72045 23.3607C9.17898 23.8904 9.20763 24.3343 8.7921 24.7209C8.39089 25.0932 7.91804 25.0502 7.44518 24.5348C6.32753 23.332 5.82602 21.9002 5.79736 20.2965Z" fill="white"/>
<path d="M40.2724 20.3398C40.2151 21.9721 39.6993 23.4182 38.5386 24.6067C38.0514 25.1078 37.3493 25.0362 37.0771 24.5064C36.8765 24.1199 36.9481 23.7619 37.2634 23.4469C38.9971 21.7287 38.9112 18.7791 37.2634 17.1611C36.8335 16.7459 36.8765 16.259 37.2777 15.9011C37.6502 15.5574 38.1088 15.5717 38.51 15.987C39.6993 17.1754 40.2438 18.6645 40.2724 20.3398Z" fill="white"/>
<path d="M51.0905 38.3957C51.0905 38.0091 51.0762 37.6225 51.0905 37.2502C51.1192 36.749 51.4201 36.4627 51.8929 36.4483C52.3801 36.4197 52.7383 36.6918 52.767 37.1786C52.81 37.9804 52.81 38.7966 52.767 39.5984C52.7383 40.1139 52.3371 40.4002 51.8499 40.343C51.3627 40.2857 51.0905 39.9993 51.0762 39.4982C51.0762 39.1259 51.0762 38.7679 51.0905 38.3957Z" fill="white"/>
<path d="M16.3288 17.0608C16.5294 13.4096 17.9193 10.3169 20.5988 7.81113C21.0717 7.36726 21.6162 7.36726 21.9601 7.76818C22.304 8.1691 22.2323 8.6416 21.7165 9.11411C20.1976 10.5316 19.0943 12.2355 18.5498 14.2258C18.2919 15.1851 18.1772 16.1731 18.0626 17.1611C17.9623 17.9915 17.7187 18.3638 17.1312 18.3352C16.5437 18.3209 16.2858 17.9056 16.3288 17.0608Z" fill="white"/>
</svg>
