<svg width="65" height="64" viewBox="0 0 65 64" fill="none" xmlns="http://www.w3.org/2000/svg">
<path d="M23.2586 3.11646C24.0085 2.25848 24.6701 1.45098 25.3758 0.643479C26.1257 -0.214493 26.5668 -0.214493 27.3166 0.643479C27.9782 1.45098 28.684 2.20802 29.4779 3.16692C30.0954 2.40989 30.6688 1.65286 31.2864 0.996761C32.4332 -0.315431 32.6537 -0.315431 33.8005 0.946292C34.4181 1.65286 34.9915 2.35942 35.609 3.16692C36.3588 2.30895 37.0205 1.50145 37.6821 0.744417C38.5201 -0.214493 38.9612 -0.264962 39.7993 0.744417C40.4609 1.50145 41.1225 2.30895 41.8724 3.16692C42.6222 2.25848 43.2838 1.45098 43.9896 0.693948C44.7394 -0.164024 45.1805 -0.164024 45.9304 0.693948C46.6361 1.50145 47.2977 2.30895 48.0476 3.16692C48.7974 2.25848 49.5031 1.45098 50.253 0.643479C50.9146 -0.113555 51.3998 -0.113555 52.0614 0.643479C52.7672 1.45098 53.4729 2.30895 54.2668 3.21739C55.0167 2.35942 55.6783 1.50145 56.384 0.744417C57.1339 -0.113555 57.575 -0.113555 58.3248 0.744417C59.0306 1.55192 59.6922 2.35942 60.442 3.21739C61.1919 2.35942 61.8535 1.60239 62.5151 0.794886C62.9121 0.340665 63.265 -0.0126172 63.8384 0.239727C64.4559 0.542541 64.5 1.0977 64.5 1.7538C64.5 10.6363 64.5 19.4684 64.5 28.3509C64.5 36.5269 64.5 44.7028 64.5 52.8788C64.5 53.2321 64.5 53.5854 64.3677 53.8882C64.0589 54.6452 63.265 54.7462 62.6916 54.0901C61.9417 53.2321 61.1919 52.4246 60.3538 51.5162C59.6922 52.2732 58.9864 53.0807 58.2807 53.8882C57.4868 54.7966 57.0898 54.7966 56.2958 53.8882C55.6342 53.1312 54.9726 52.3741 54.311 51.6676C54.2668 51.6171 54.2227 51.6171 54.1345 51.5666C53.4729 52.3741 52.7672 53.2321 52.0173 53.9891C51.7527 54.2919 51.3116 54.3929 50.9587 54.5443C50.8264 54.6452 50.6058 54.6452 50.5176 54.7966C48.3122 57.9257 45.3569 59.7426 42.1811 61.0548C36.1383 63.5782 29.8749 64.2343 23.5233 63.9315C19.2889 63.7296 15.0986 62.9726 11.0847 61.3576C8.43819 60.2977 5.92401 58.9351 3.76269 56.8154C2.17479 55.2509 0.939755 53.3835 0.586887 50.9105C0.322237 49.0936 0.675104 47.4282 1.46906 45.8636C2.48355 43.8953 3.93913 42.4822 5.57114 41.271C8.57051 39.1008 11.8786 37.7886 15.3191 36.9811C16.0248 36.8297 16.3777 36.4764 16.5982 35.6689C17.3481 32.5398 18.142 29.4612 18.936 26.3826C19.0242 25.9284 19.1124 25.4742 19.1124 25.02C19.1124 17.3487 19.1124 9.67742 19.1124 1.95567C19.1124 1.65286 19.1124 1.35004 19.1565 1.0977C19.3771 0.13879 20.2592 -0.113555 20.9209 0.59301C21.7148 1.29957 22.4206 2.15755 23.2586 3.11646ZM26.1698 54.3929C29.919 54.3424 33.4918 53.9387 36.9763 52.6265C38.6966 51.9704 40.4168 51.2133 41.6959 49.6993C42.1811 49.0936 42.4899 48.2861 42.7987 47.5291C42.9751 47.1254 42.7545 46.7721 42.3135 46.6207C38.1673 45.0561 35.5208 41.8766 34.2857 37.082C33.0948 32.3884 31.9039 27.6948 30.6688 23.0012C30.0072 20.4273 28.3752 18.9132 26.258 18.9132C24.1849 18.9132 22.5088 20.4273 21.8913 22.9507C20.7003 27.5939 19.5094 32.237 18.3185 36.8802C17.0834 41.7252 14.4369 45.0057 10.2025 46.5702C9.76144 46.7216 9.58501 47.0244 9.71733 47.4282C9.93787 48.0843 10.2025 48.8413 10.5995 49.346C11.6581 50.7086 13.0696 51.4657 14.5252 52.1218C18.3626 53.8377 22.2882 54.3424 26.1698 54.3929ZM21.1855 19.317C21.362 19.1656 21.4061 19.1151 21.4502 19.0646C23.1704 17.0459 25.1994 16.1879 27.6695 16.6926C27.8459 16.7431 28.1547 16.4907 28.287 16.2888C32.1685 10.4344 37.2851 7.70913 43.7249 8.41569C51.6203 9.32413 57.9278 16.844 58.3248 25.8779C58.6777 33.3978 55.943 39.2017 50.4294 43.2897C50.253 43.3907 50.1207 43.5421 49.9001 43.6935C51.4439 45.5103 52.1938 47.6805 52.282 50.204C52.6348 49.8507 52.9436 49.4974 53.2524 49.1441C54.0904 48.1852 54.4874 48.1852 55.3696 49.1441C56.0312 49.9011 56.7369 50.7086 57.4427 51.5162C58.1925 50.6077 58.8982 49.8002 59.5599 48.9927C60.2215 48.2357 60.7508 48.2357 61.4565 48.9927C61.7653 49.346 62.1181 49.7497 62.5151 50.204C62.5151 34.7605 62.5151 19.5189 62.5151 4.12583C62.2946 4.37818 62.1622 4.52959 61.9858 4.68099C60.5743 6.296 60.442 6.296 59.0306 4.63052C58.5013 4.0249 58.0161 3.3688 57.4868 2.66224C56.6487 3.62115 55.9871 4.42865 55.2813 5.23615C54.5315 6.09412 54.0904 6.09412 53.3406 5.23615C52.6348 4.42865 51.9732 3.62115 51.2234 2.7127C50.4294 3.62115 49.7678 4.47912 49.0621 5.28662C48.4004 6.04365 47.9152 6.04365 47.2536 5.28662C46.5479 4.47912 45.8421 3.62115 45.0923 2.76317C44.3424 3.62115 43.6367 4.42865 42.9751 5.23615C42.2252 6.09412 41.7842 6.09412 41.0343 5.23615C40.3286 4.42865 39.667 3.62115 38.9171 2.76317C38.1232 3.67161 37.4174 4.52959 36.7117 5.33709C36.0501 6.09412 35.5649 6.09412 34.9032 5.33709C34.1975 4.52959 33.4918 3.72208 32.6978 2.81364C31.9921 3.67161 31.2864 4.42865 30.6247 5.23615C29.8308 6.14459 29.3897 6.14459 28.5957 5.23615C27.9341 4.47912 27.2725 3.67161 26.5226 2.81364C25.7287 3.72208 25.023 4.58005 24.3172 5.38756C23.6997 6.09412 23.1704 6.09412 22.5529 5.38756C22.0236 4.98381 21.6707 4.58005 21.2296 4.12583C21.1855 4.32771 21.1855 4.37818 21.1855 4.47912C21.1855 9.3746 21.1855 14.2701 21.1855 19.317ZM29.919 17.7524C31.7274 19.5189 32.2126 20.3264 32.786 22.5975C33.8888 26.9883 35.0356 31.4295 36.1383 35.8203C36.2706 36.325 36.447 36.5773 36.9322 36.6783C40.8138 37.4858 44.3866 39.1513 47.6506 41.6242C48.0035 41.8766 48.2681 41.9775 48.7092 41.7252C54.311 38.2933 57.3544 30.723 55.943 23.6573C54.4874 16.3898 49.459 11.242 42.931 10.6868C37.5056 10.2326 33.183 12.8065 29.919 17.7524ZM15.2309 39.5045C15.2309 39.4541 15.1868 39.4036 15.1868 39.3531C15.0545 39.3531 14.9221 39.3531 14.8339 39.4036C12.8931 40.1606 10.9524 40.8167 9.05571 41.7252C7.11493 42.5832 5.39471 43.8449 4.02734 45.6618C2.04247 48.2861 1.99836 51.1629 4.07145 53.6863C4.90951 54.6957 5.8799 55.6041 6.89439 56.3612C9.40857 58.178 12.1874 59.2884 15.0545 60.0454C21.803 61.8623 28.5957 62.0137 35.4325 60.5501C39.0494 59.7931 42.5781 58.5818 45.7539 56.3612C47.1213 55.4023 48.3122 54.2919 49.1944 52.7779C50.3412 50.7591 50.3853 48.6899 49.1944 46.6711C48.621 45.7122 47.8711 44.8038 47.0772 44.0972C44.2983 41.5738 41.0343 40.3121 37.638 39.3531C37.5498 39.3531 37.4615 39.3531 37.4174 39.3531C37.5939 39.656 37.8144 39.8074 38.0349 39.9083C39.9316 40.7158 41.7842 41.6747 43.2397 43.3402C45.4011 45.8132 45.4011 48.8413 43.2397 51.2638C41.8724 52.8283 40.2404 53.8377 38.476 54.4938C31.3746 57.3201 24.0967 57.3705 16.8188 55.5032C14.3928 54.8471 12.0551 53.8377 10.0702 52.0208C9.05571 51.1124 8.21765 50.0021 7.90889 48.5385C7.37959 46.2169 8.30586 44.4 9.76144 42.9364C11.1729 41.5233 12.849 40.6149 14.6134 39.9083C14.7898 39.8074 15.0103 39.6055 15.2309 39.5045Z" fill="white"/>
<path d="M30.2719 38.1922C30.9335 37.9904 31.551 37.738 32.2567 37.5361C32.9625 40.5138 34.2857 43.0877 36.2265 45.2579C35.7413 45.813 35.3002 46.3682 34.815 46.9738C32.5655 44.5008 31.1099 41.6241 30.2719 38.1922Z" fill="white"/>
<path d="M51.7527 30.4205C52.6789 25.8278 51.7527 21.8913 48.8856 18.5603C49.3267 18.0052 49.7678 17.5005 50.2089 16.9453C53.3406 19.7716 55.0608 26.0297 53.6493 31.0261C53.0759 30.8243 52.4143 30.6224 51.7527 30.4205Z" fill="white"/>
<path d="M41.8282 15.1783C41.8282 14.6231 41.8282 13.8661 41.8282 13.0586C43.769 13.0586 45.6216 13.5633 47.43 14.5727C47.1213 15.2792 46.8125 15.9353 46.592 16.44C45.0041 16.0363 43.4603 15.582 41.8282 15.1783Z" fill="white"/>
</svg>
