<svg width="65" height="64" viewBox="0 0 65 64" fill="none" xmlns="http://www.w3.org/2000/svg">
<path d="M20.2592 56C19.5848 55.534 19.4989 55.2765 19.7687 54.504C20.1611 53.3758 20.5535 52.2599 20.9459 51.1318C20.9949 50.9724 21.044 50.8129 21.1176 50.5922C20.2592 50.5922 19.4621 50.5922 18.6528 50.5922C17.6841 50.5922 17.3162 50.1017 17.586 49.182C18.5424 45.9815 19.5234 42.781 20.4431 39.5559C21.6081 35.4112 21.8533 31.1806 21.277 26.9255C21.1298 25.8096 20.8846 24.7059 20.6516 23.59C20.6271 23.4429 20.4922 23.2467 20.3573 23.1976C18.6773 22.5722 17.5124 20.7451 18.1132 18.4888C18.2727 17.8879 18.5302 17.3116 18.8367 16.7598C19.781 15.0553 20.8355 13.4244 21.7184 11.6954C23.1041 9.00985 25.9735 8.67876 27.911 9.21832C31.4917 10.2116 32.4359 14.1969 31.3936 16.5759C31.2587 16.8947 31.2587 17.1645 31.3568 17.4833C33.0613 22.8788 33.7235 28.4092 33.3801 34.05C33.2943 35.3621 33.1349 36.6619 33 38.0353C33.1717 37.974 33.3188 37.925 33.466 37.8759C34.8639 37.3609 36.2373 36.7232 37.6843 36.3554C42.0743 35.215 45.8757 37.8269 46.5011 42.315C47.0406 46.1286 44.0976 49.9791 40.2472 50.4941C39.7076 50.5677 39.1558 50.5799 38.5672 50.629C38.8738 51.4996 39.1681 52.358 39.4746 53.2164C39.6218 53.6211 39.7567 54.0257 39.9038 54.4304C40.1859 55.252 40.1245 55.4727 39.4746 56C33.049 56 26.6603 56 20.2592 56ZM31.6634 33.2407C29.3212 32.9341 28.328 31.4381 27.8742 29.4393C27.7639 28.9733 27.6413 28.5196 27.4941 28.0659C27.3224 27.5018 27.0281 27.0236 26.4641 26.7293C26.0103 26.4963 25.8877 25.9812 26.0962 25.5398C26.3169 25.0983 26.8197 24.9144 27.3102 25.1229C27.9846 25.4049 28.5119 25.8831 28.8185 26.5331C29.076 27.0726 29.2599 27.6367 29.4439 28.2008C29.6523 28.8262 29.7872 29.4761 30.0079 30.0892C30.2777 30.8127 30.8173 31.2541 31.6389 31.3645C31.6266 26.999 31.038 22.7562 29.7749 18.5624C29.6033 18.685 29.4684 18.7831 29.3335 18.8812C27.8988 19.9481 26.4641 21.0272 25.0416 22.1063C24.3426 22.6336 23.5946 23.0628 22.7362 23.2835C22.6749 23.2957 22.6136 23.3448 22.5278 23.3693C22.5646 23.5287 22.5891 23.6636 22.6136 23.7985C23.7172 28.8875 23.754 33.9764 22.4665 39.0286C21.6817 42.131 20.6884 45.1844 19.7932 48.2623C19.7564 48.4095 19.7196 48.5444 19.6706 48.716C19.8055 48.7283 19.8913 48.7406 19.9772 48.7406C26.3782 48.7406 32.767 48.7528 39.1681 48.7406C41.6083 48.7406 43.7543 47.0974 44.4655 44.743C45.4833 41.4076 43.0553 37.2628 38.7389 38.0108C37.6107 38.207 36.5194 38.6607 35.428 39.0654C34.1649 39.5314 32.9019 40.0096 31.7002 40.6105C30.4494 41.2236 29.5174 42.2169 28.9534 43.5167C28.7449 43.9827 28.3647 44.2157 27.9478 44.1544C27.5554 44.0931 27.1875 43.7742 27.1753 43.3573C27.163 43.112 27.2366 42.8423 27.347 42.6093C28.0582 41.0887 29.1741 39.9483 30.5965 39.0899C30.7559 38.9918 30.9399 38.8324 30.9644 38.673C31.2097 36.8949 31.4304 35.1046 31.6634 33.2407ZM26.0962 10.8247C25.0293 10.8615 24.0483 11.303 23.4107 12.4556C22.4542 14.2092 21.4119 15.9137 20.4309 17.6672C20.1856 18.1087 19.9649 18.5992 19.8545 19.1019C19.4867 20.7206 20.7865 21.9469 22.3684 21.4686C22.8589 21.3215 23.3371 21.064 23.7418 20.7697C25.4708 19.5066 27.163 18.1945 28.8798 16.9192C29.3458 16.5636 29.6523 16.1099 29.8117 15.5458C30.5107 13.1055 28.8062 10.8247 26.0962 10.8247ZM37.8314 54.1484C37.39 52.9098 36.9853 51.7449 36.5807 50.5799C32.3501 50.5799 28.1931 50.5799 24.0361 50.5799C23.0796 50.5799 23.0796 50.5799 22.7608 51.4874C22.4542 52.358 22.1476 53.2409 21.8411 54.1361C27.1875 54.1484 32.4727 54.1484 37.8314 54.1484Z" fill="white"/>
</svg>
