<svg width="64" height="64" viewBox="0 0 64 64" fill="none" xmlns="http://www.w3.org/2000/svg">
<path d="M64 49.0076C63.7442 50.2879 63.5524 51.5682 63.1047 52.7845C60.8665 58.9941 56.454 62.835 49.9951 63.7953C43.3443 64.7555 37.9726 62.3229 34.0077 56.8175C33.7519 56.4334 33.4321 56.3054 32.9845 56.3054C31.2579 56.3054 29.5312 56.3054 27.8685 56.3054C26.8453 56.3054 26.3977 55.8573 26.3977 54.8331C26.3977 53.1046 26.3977 51.3762 26.3977 49.6478C26.3977 49.3917 26.3977 49.1997 26.3977 48.8796C26.078 48.8796 25.8861 48.8796 25.6943 48.8796C23.7758 48.8796 21.7933 48.8796 19.8749 48.8796C16.8692 48.8796 15.0786 47.0871 15.0786 44.0784C15.0786 42.1579 15.0786 40.2375 15.0786 38.317C15.0786 38.0609 15.0786 37.8689 15.0786 37.5488C14.6949 37.5488 14.3113 37.5488 13.9915 37.5488C12.3928 37.5488 10.794 37.5488 9.19529 37.5488C8.10815 37.5488 7.6605 37.1007 7.6605 36.0124C7.6605 34.284 7.6605 32.5556 7.6605 30.8911C7.6605 30.5071 7.5326 30.251 7.21286 29.9949C1.77715 26.09 -0.716878 20.8407 0.178414 14.247C1.00976 7.90948 4.65488 3.49239 10.5382 1.12381C20.0028 -2.65312 30.9381 3.49239 32.5369 13.5429C33.624 20.4566 31.1939 25.9619 25.5664 30.0589C25.2466 30.315 25.1187 30.5071 25.1827 30.8911C25.1827 32.6196 25.1827 34.348 25.1827 36.0764C25.1827 37.1647 24.735 37.6128 23.6479 37.6128C21.9212 37.6128 20.1946 37.6128 18.468 37.6128C18.2122 37.6128 18.0203 37.6128 17.7006 37.6128C17.7006 37.8689 17.6366 38.0609 17.6366 38.253C17.6366 40.2375 17.6366 42.286 17.6366 44.2705C17.6366 45.6788 18.3401 46.383 19.747 46.447C21.7933 46.447 23.9037 46.447 25.9501 46.447C26.078 46.447 26.2059 46.447 26.4617 46.383C26.4617 46.1269 26.5256 45.9349 26.5256 45.6788C26.5256 43.9504 26.5256 42.2219 26.5256 40.4935C26.5256 39.3412 26.9732 38.9571 28.0604 38.9571C29.787 38.9571 31.5137 38.9571 33.2403 38.9571C33.624 38.9571 33.8158 38.8291 34.0716 38.509C36.7575 34.348 40.6584 31.9154 45.6465 31.2752C53.9599 30.187 61.8897 35.8844 63.6163 44.0784C63.7442 44.7186 63.8721 45.4227 64 46.1269C64 47.0871 64 48.0474 64 49.0076ZM22.4968 34.9882C22.4968 33.3878 22.5607 31.8514 22.4968 30.315C22.4328 29.2908 22.8165 28.6506 23.7118 28.0745C28.4441 25.1297 31.0021 19.3683 30.0428 13.991C28.572 6.18106 21.2817 1.18782 13.416 2.7242C6.18967 4.13255 1.20161 11.4303 2.54455 18.6641C3.31194 22.8252 5.48622 26.0259 9.06739 28.2025C9.70689 28.5866 10.0266 29.0347 10.0266 29.8029C9.96269 31.2752 10.0266 32.7476 10.0266 34.284C10.0266 34.476 10.0266 34.7321 10.0906 34.9882C14.2473 34.9882 18.3401 34.9882 22.4968 34.9882ZM28.8917 41.3897C28.8917 45.5508 28.8917 49.6478 28.8917 53.8088C30.4905 53.8088 32.0253 53.8728 33.56 53.8088C34.5832 53.7448 35.2227 54.1289 35.7983 55.0251C38.74 59.7623 44.6233 62.3229 50.059 61.2986C57.7969 59.6983 62.5931 52.6565 61.2502 44.9106C60.227 38.9571 54.7913 34.0919 48.78 33.7078C43.0885 33.3878 38.676 35.6283 35.6064 40.4295C35.2227 41.0697 34.7111 41.3257 33.9437 41.3257C32.2811 41.3257 30.6184 41.3897 28.8917 41.3897Z" fill="white"/>
<path d="M16.2937 26.6032C10.6022 26.6032 5.9978 21.9941 5.9978 16.3607C5.9978 10.6633 10.6022 6.11816 16.2937 6.11816C21.9852 6.11816 26.5895 10.6633 26.5895 16.3607C26.5256 21.9941 21.9852 26.6032 16.2937 26.6032ZM16.2937 8.61478C12.0091 8.61478 8.49183 12.0716 8.49183 16.3607C8.49183 20.6497 11.9451 24.1066 16.2297 24.1066C20.5143 24.1066 24.0316 20.6497 24.0316 16.3607C24.0316 12.0716 20.5783 8.61478 16.2937 8.61478Z" fill="white"/>
<path d="M16.2937 32.1079C15.7182 32.1079 15.1426 32.1079 14.5671 32.1079C13.7997 32.1079 13.2881 31.5958 13.2881 30.8916C13.2881 30.1875 13.7997 29.6113 14.631 29.6113C15.7821 29.6113 16.9332 29.6113 18.0843 29.6113C18.9156 29.6113 19.4272 30.1235 19.3633 30.8916C19.3633 31.5958 18.8517 32.1079 18.0843 32.1079C17.4448 32.1079 16.8693 32.1079 16.2937 32.1079Z" fill="white"/>
<path d="M47.501 57.842C41.8095 57.842 37.2691 53.2329 37.2691 47.5355C37.2691 41.8381 41.8735 37.293 47.565 37.293C53.2565 37.293 57.8608 41.9021 57.7969 47.5995C57.8608 53.2969 53.1925 57.842 47.501 57.842ZM47.565 55.3454C51.8496 55.3454 55.3668 51.8886 55.3668 47.5995C55.3668 43.3105 51.9135 39.8536 47.6289 39.7896C43.3443 39.7896 39.8271 43.2464 39.8271 47.5355C39.7631 51.8246 43.2164 55.3454 47.565 55.3454Z" fill="white"/>
<path d="M34.3275 47.5991C34.3275 48.1753 34.3275 48.7514 34.3275 49.3275C34.3275 50.0957 33.7519 50.6079 33.0485 50.6079C32.345 50.6079 31.8334 50.0317 31.8334 49.3275C31.8334 48.1753 31.8334 47.023 31.8334 45.8707C31.8334 45.1025 32.345 44.5904 33.0485 44.5264C33.7519 44.5264 34.3275 45.1025 34.3275 45.8707C34.3275 46.4468 34.3275 47.023 34.3275 47.5991Z" fill="white"/>
</svg>
