<svg width="64" height="64" viewBox="0 0 64 64" fill="none" xmlns="http://www.w3.org/2000/svg">
<path d="M31.9076 59.8083C29.923 59.8083 27.9384 59.8083 25.9538 59.8083C24.9957 59.8083 24.2429 59.4661 23.7639 58.6449C23.5586 58.3027 23.2849 58.029 23.0796 57.6868C22.6689 56.9341 22.1899 56.455 21.1634 56.5234C20.479 56.5234 20.0684 55.976 20 55.2232C20 54.881 20 54.6073 20 54.2651C20 53.0333 20.4106 52.5542 21.574 52.0752C23.148 51.4593 24.7904 50.775 26.3644 50.0906C27.5278 49.5431 28.0068 48.585 28.0068 47.2848C27.9384 43.9315 28.0068 40.6467 28.0068 37.2934C28.0068 36.4722 27.7331 35.9931 27.0487 35.5825C25.4748 34.6244 24.2429 33.3242 23.148 31.887C21.9846 30.3815 21.5056 28.6706 21.3687 26.7545C21.1634 22.7853 21.574 18.8845 23.0111 15.1206C24.5851 10.8777 27.1172 7.31907 30.6758 4.51326C31.5654 3.82891 32.3866 3.82891 33.2763 4.51326C33.6185 4.787 33.9606 4.9923 34.2344 5.33447C37.9298 8.61933 40.325 12.657 41.6253 17.4474C42.5834 20.9375 42.7887 24.4961 42.3781 28.1231C42.2412 29.2865 41.8306 30.3815 41.1462 31.3396C39.9829 33.0504 38.6142 34.556 36.8349 35.6509C36.1505 36.0615 35.8768 36.609 35.8768 37.3618C35.8768 40.7151 35.8768 44.0684 35.8768 47.4217C35.8768 48.6535 36.3558 49.6116 37.4508 50.0906C38.9563 50.775 40.4619 51.4593 41.9675 52.0068C43.6783 52.6227 44.3627 53.9229 43.8152 55.6338C43.6099 56.2497 43.1993 56.5234 42.3781 56.5234C41.6937 56.455 41.2831 56.7287 41.0094 57.2762C40.7356 57.7553 40.3935 58.2343 40.0513 58.6449C39.5723 59.3977 38.8879 59.7399 37.9298 59.7399C35.9452 59.7399 33.9606 59.8083 31.9076 59.8083ZM41.899 54.5388C42.1043 53.9914 41.7622 53.9229 41.4884 53.7861C39.9144 53.1017 38.272 52.4858 36.7664 51.8015C34.8503 50.9118 34.0291 49.3378 34.0291 47.2164C34.0291 43.9315 34.0291 40.7151 34.0291 37.4302C34.0291 35.9247 34.5765 34.7613 35.8768 34.0085C37.3824 33.1189 38.6142 31.887 39.5038 30.3815C40.0513 29.5603 40.4619 28.5338 40.5988 27.5757C41.0778 23.2643 40.5988 19.0214 38.8879 14.9837C37.5192 11.6989 35.5346 8.82463 32.8657 6.56629C31.8392 5.67664 32.1813 5.74508 31.0864 6.56629C30.5389 7.04533 29.9914 7.52437 29.5124 8.07185C24.7904 13.2729 22.9427 19.432 23.2849 26.3439C23.3533 28.0547 23.7639 29.5603 24.8588 30.929C25.8169 32.1608 26.9119 33.2557 28.2121 34.0769C29.444 34.8297 29.9914 35.9247 29.9914 37.3618C29.9914 40.7151 29.9914 43.9999 29.9914 47.3532C29.9914 49.3378 29.2387 50.9118 27.3909 51.8015C25.8169 52.5542 24.1061 53.2386 22.4636 53.9229C22.1215 54.0598 21.8477 54.1967 22.053 54.6757C28.6227 54.5388 35.2609 54.5388 41.899 54.5388ZM39.0932 56.5919C34.3028 56.5919 29.5124 56.5919 24.7904 56.5919C25.1326 57.6184 25.6801 57.8921 26.7066 57.8921C30.2652 57.8237 33.7553 57.8237 37.3139 57.8921C38.3404 57.8921 38.751 57.4131 39.0932 56.5919Z" fill="white"/>
</svg>
