<svg width="64" height="64" viewBox="0 0 64 64" fill="none" xmlns="http://www.w3.org/2000/svg">
<path d="M19.7592 56C19.0848 55.534 18.9989 55.2765 19.2687 54.504C19.6611 53.3758 20.0535 52.2599 20.4459 51.1318C20.4949 50.9724 20.544 50.8129 20.6176 50.5922C19.7592 50.5922 18.9621 50.5922 18.1528 50.5922C17.1841 50.5922 16.8162 50.1017 17.086 49.182C18.0424 45.9815 19.0234 42.781 19.9431 39.5559C21.1081 35.4112 21.3533 31.1806 20.777 26.9255C20.6298 25.8096 20.3846 24.7059 20.1516 23.59C20.1271 23.4429 19.9922 23.2467 19.8573 23.1976C18.1773 22.5722 17.0124 20.7451 17.6132 18.4888C17.7727 17.8879 18.0302 17.3116 18.3367 16.7598C19.281 15.0553 20.3355 13.4244 21.2184 11.6954C22.6041 9.00985 25.4735 8.67876 27.411 9.21832C30.9917 10.2116 31.9359 14.1969 30.8936 16.5759C30.7587 16.8947 30.7587 17.1645 30.8568 17.4833C32.5613 22.8788 33.2235 28.4092 32.8801 34.05C32.7943 35.3621 32.6349 36.6619 32.5 38.0353C32.6717 37.974 32.8188 37.925 32.966 37.8759C34.3639 37.3609 35.7373 36.7232 37.1843 36.3554C41.5743 35.215 45.3757 37.8269 46.0011 42.315C46.5406 46.1286 43.5976 49.9791 39.7472 50.4941C39.2076 50.5677 38.6558 50.5799 38.0672 50.629C38.3738 51.4996 38.6681 52.358 38.9746 53.2164C39.1218 53.6211 39.2567 54.0257 39.4038 54.4304C39.6859 55.252 39.6245 55.4727 38.9746 56C32.549 56 26.1603 56 19.7592 56ZM31.1634 33.2407C28.8212 32.9341 27.828 31.4381 27.3742 29.4393C27.2639 28.9733 27.1413 28.5196 26.9941 28.0659C26.8224 27.5018 26.5281 27.0236 25.9641 26.7293C25.5103 26.4963 25.3877 25.9812 25.5962 25.5398C25.8169 25.0983 26.3197 24.9144 26.8102 25.1229C27.4846 25.4049 28.0119 25.8831 28.3185 26.5331C28.576 27.0726 28.7599 27.6367 28.9439 28.2008C29.1523 28.8262 29.2872 29.4761 29.5079 30.0892C29.7777 30.8127 30.3173 31.2541 31.1389 31.3645C31.1266 26.999 30.538 22.7562 29.2749 18.5624C29.1033 18.685 28.9684 18.7831 28.8335 18.8812C27.3988 19.9481 25.9641 21.0272 24.5416 22.1063C23.8426 22.6336 23.0946 23.0628 22.2362 23.2835C22.1749 23.2957 22.1136 23.3448 22.0278 23.3693C22.0646 23.5287 22.0891 23.6636 22.1136 23.7985C23.2172 28.8875 23.254 33.9764 21.9665 39.0286C21.1817 42.131 20.1884 45.1844 19.2932 48.2623C19.2564 48.4095 19.2196 48.5444 19.1706 48.716C19.3055 48.7283 19.3913 48.7406 19.4772 48.7406C25.8782 48.7406 32.267 48.7528 38.6681 48.7406C41.1083 48.7406 43.2543 47.0974 43.9655 44.743C44.9833 41.4076 42.5553 37.2628 38.2389 38.0108C37.1107 38.207 36.0194 38.6607 34.928 39.0654C33.6649 39.5314 32.4019 40.0096 31.2002 40.6105C29.9494 41.2236 29.0174 42.2169 28.4534 43.5167C28.2449 43.9827 27.8647 44.2157 27.4478 44.1544C27.0554 44.0931 26.6875 43.7742 26.6753 43.3573C26.663 43.112 26.7366 42.8423 26.847 42.6093C27.5582 41.0887 28.6741 39.9483 30.0965 39.0899C30.2559 38.9918 30.4399 38.8324 30.4644 38.673C30.7097 36.8949 30.9304 35.1046 31.1634 33.2407ZM25.5962 10.8247C24.5293 10.8615 23.5483 11.303 22.9107 12.4556C21.9542 14.2092 20.9119 15.9137 19.9309 17.6672C19.6856 18.1087 19.4649 18.5992 19.3545 19.1019C18.9867 20.7206 20.2865 21.9469 21.8684 21.4686C22.3589 21.3215 22.8371 21.064 23.2418 20.7697C24.9708 19.5066 26.663 18.1945 28.3798 16.9192C28.8458 16.5636 29.1523 16.1099 29.3117 15.5458C30.0107 13.1055 28.3062 10.8247 25.5962 10.8247ZM37.3314 54.1484C36.89 52.9098 36.4853 51.7449 36.0807 50.5799C31.8501 50.5799 27.6931 50.5799 23.5361 50.5799C22.5796 50.5799 22.5796 50.5799 22.2608 51.4874C21.9542 52.358 21.6476 53.2409 21.3411 54.1361C26.6875 54.1484 31.9727 54.1484 37.3314 54.1484Z" fill="white"/>
</svg>
