<svg width="64" height="64" viewBox="0 0 64 64" fill="none" xmlns="http://www.w3.org/2000/svg">
<path d="M27.663 57C27.663 56.5563 27.6499 56.1256 27.6499 55.6818C27.6499 49.4171 27.6499 43.1394 27.6499 36.8747C27.6499 36.6789 27.6499 36.4832 27.6499 36.2482C20.7579 36.2482 13.9051 36.2482 7 36.2482C7 26.4727 7 16.7494 7 7C16.7615 7 26.51 7 36.2977 7C36.2977 13.9042 36.2977 20.7823 36.2977 27.7387C43.2028 27.7387 50.0687 27.7387 56.9607 27.7387C56.9738 27.8823 57 27.9606 57 28.0389C57 37.6969 57 47.355 57 57.0131C47.2123 57 37.4376 57 27.663 57ZM9.92191 33.2725C17.7573 33.2725 25.5404 33.2725 33.3365 33.2725C33.3365 25.4678 33.3365 17.7022 33.3365 9.93657C25.5142 9.93657 17.718 9.93657 9.92191 9.93657C9.92191 17.7152 9.92191 25.4808 9.92191 33.2725ZM30.598 54.0504C38.4465 54.0504 46.2296 54.0504 54.0257 54.0504C54.0257 46.2587 54.0257 38.4931 54.0257 30.7275C48.1164 30.7275 42.2332 30.7275 36.2977 30.7275C36.2977 32.5677 36.2977 34.3688 36.2977 36.2352C34.3716 36.2352 32.4848 36.2352 30.598 36.2352C30.598 42.2127 30.598 48.112 30.598 54.0504Z" fill="white"/>
<path d="M51.8769 22.9099C50.9204 22.9099 49.9901 22.9099 49.0205 22.9099C48.955 20.7825 48.2212 18.9292 46.7144 17.4152C45.2076 15.9013 43.347 15.1573 41.1851 15.0921C41.1851 14.1132 41.1851 13.1735 41.1851 12.2338C47.0813 12.038 52.0996 17.3108 51.8769 22.9099Z" fill="white"/>
<path d="M12.1102 41.0771C13.0798 41.0771 14.0232 41.0771 15.0059 41.0771C15.0845 43.2045 15.8052 45.0578 17.3251 46.5718C18.845 48.0858 20.6925 48.8166 22.8544 48.8949C22.8544 49.8477 22.8544 50.7874 22.8544 51.7271C17.8885 52.0534 12.0578 47.5898 12.1102 41.0771Z" fill="white"/>
<path d="M46.0068 22.8967C45.0503 22.8967 44.12 22.8967 43.1504 22.8967C42.9932 21.7742 42.3642 21.0825 41.1719 20.9389C41.1719 19.9862 41.1719 19.0595 41.1719 18.1198C43.3338 17.8458 46.0985 20.0384 46.0068 22.8967Z" fill="white"/>
<path d="M18.0064 41.0771C18.9367 41.0771 19.8801 41.0771 20.8628 41.0771C21.02 42.1865 21.649 42.8782 22.8413 43.0218C22.8413 43.9876 22.8413 44.9273 22.8413 45.8801C20.3125 46.0367 17.7968 43.5439 18.0064 41.0771Z" fill="white"/>
<path d="M23.1033 24.6325C22.0944 24.6325 21.1641 24.6325 20.1945 24.6325C20.1683 23.3665 20.011 22.1136 20.8365 21.0042C21.2689 20.43 21.8323 20.0384 22.4875 19.7513C23.3522 19.3728 23.7977 18.5636 23.7322 17.6239C23.6667 16.7756 23.0509 16.0447 22.173 15.8228C20.9282 15.4965 19.6573 16.2535 19.4869 17.8197C18.5304 17.8197 17.5739 17.8197 16.5781 17.8197C16.6436 16.1491 17.2988 14.8048 18.6221 13.826C21.0068 12.051 24.3742 12.7035 25.9204 15.2225C27.4796 17.7414 26.5493 21.0434 23.8632 22.3224C23.2343 22.6226 23.0116 23.0011 23.0771 23.6406C23.1295 23.9539 23.1033 24.2801 23.1033 24.6325Z" fill="white"/>
<path d="M20.2075 30.2969C20.2075 29.305 20.2075 28.3392 20.2075 27.3604C21.1771 27.3604 22.1074 27.3604 23.077 27.3604C23.077 28.3523 23.077 29.3181 23.077 30.2969C22.1074 30.2969 21.1771 30.2969 20.2075 30.2969Z" fill="white"/>
<path d="M33.5854 42.4087C35.1054 40.8948 36.5205 39.3547 38.0666 37.9451C39.1803 36.9141 40.5561 36.7966 41.945 37.4361C42.2333 37.5667 42.4298 37.5536 42.7049 37.4231C44.0152 36.8227 45.3779 36.8749 46.4261 37.8277C48.0115 39.2764 49.4529 40.8817 50.9859 42.4609C50.2259 43.3745 49.3873 44.3403 48.6012 45.3584C47.3433 46.9767 45.6793 47.6946 43.6614 47.6815C42.4691 47.6685 41.2767 47.7076 40.0844 47.6293C38.5514 47.5249 37.2804 46.8332 36.2846 45.6455C35.3805 44.5753 34.4895 43.492 33.5854 42.4087ZM47.1206 42.5523C46.3606 41.7953 45.6269 41.0644 44.88 40.3466C44.3952 39.8768 44.1069 39.8637 43.6352 40.3466C43.2029 40.7773 42.7967 41.2341 42.3381 41.717C41.814 41.1688 41.3685 40.7121 40.923 40.2553C40.6347 39.9681 40.2809 39.8637 39.9665 40.1639C39.1541 40.947 38.3679 41.7823 37.5556 42.6045C37.8569 42.9699 38.1714 43.3223 38.4597 43.7008C39.0231 44.4317 39.7699 44.758 40.6609 44.771C41.7747 44.7841 42.8753 44.7841 43.989 44.771C44.7097 44.758 45.3779 44.5361 45.8889 44.0141C46.3213 43.5573 46.7013 43.0744 47.1206 42.5523Z" fill="white"/>
</svg>
