<svg width="64" height="64" viewBox="0 0 64 64" fill="none" xmlns="http://www.w3.org/2000/svg">
<path d="M0 0.648076C0.667358 -0.114422 1.00104 -0.166116 1.93534 0.299137C5.47233 2.05676 8.95594 3.89192 11.9724 6.45081C17.9386 11.5298 21.876 17.772 23.7045 25.2548C23.9715 26.3145 24.452 27.1933 25.5465 27.6069C25.7734 27.6974 26.067 27.7103 26.3072 27.6457C30.0845 26.5471 33.8617 26.5601 37.639 27.6198C38.0127 27.7232 38.5466 27.5293 38.9203 27.3355C39.6544 26.9349 40.0014 26.237 40.2016 25.4486C42.9378 14.5281 49.5446 6.5542 59.8353 1.41057C60.6361 1.00994 61.437 0.570534 62.2511 0.182823C63.1988 -0.282429 63.9462 0.1699 63.9596 1.20379C63.9596 3.76269 64.0663 6.32158 63.9329 8.88047C63.4924 17.3713 59.9287 24.4406 53.3085 30.0236C52.1073 31.0317 50.7325 31.8329 49.4512 32.7764C49.0374 33.0865 48.6237 33.4355 48.3434 33.862C47.943 34.4564 47.9029 35.0639 48.3567 35.7617C50.2387 38.6825 51.2798 41.9005 51.1463 45.3511C51.0529 47.6903 51.6268 49.8873 52.1073 52.1361C52.5611 54.2168 52.0406 56.1424 50.7726 57.8742C48.3434 61.1956 45.1401 63.3538 40.8823 63.8837C40.8023 63.8966 40.7222 63.9483 40.6421 63.9871C39.7078 63.9871 38.7735 63.9871 37.8392 63.9871C36.064 63.6511 34.4357 63.0049 32.874 62.1131C32.2067 61.7254 31.4192 61.8805 30.7118 62.2682C30.0578 62.6301 29.4038 63.0049 28.7097 63.2634C27.8288 63.5735 26.8945 63.7545 25.9736 64C25.0793 64 24.1984 64 23.3041 64C23.0105 63.9354 22.7169 63.8578 22.4099 63.8061C18.339 63.0824 15.2825 60.8854 13.0001 57.6157C11.8523 55.9615 11.4385 54.1134 11.8389 52.149C12.2794 50.0295 12.92 47.9746 12.8133 45.7518C12.6264 42.0427 13.7209 38.6308 15.7496 35.4903C15.8965 35.2706 15.9365 34.9217 15.9098 34.6503C15.763 33.6423 15.0289 33.0865 14.2014 32.5696C6.8204 27.93 2.24232 21.4552 0.533886 13.1065C0.306985 12.0209 0.173513 10.9095 0 9.81097C0 6.76098 0 3.69807 0 0.648076ZM29.7908 29.0802C29.4839 29.119 29.2036 29.1319 28.9233 29.1836C20.648 30.7344 14.8954 37.4547 14.9355 45.6354C14.9488 47.6903 14.7753 49.6935 14.148 51.6579C13.5607 53.493 13.841 55.2248 15.0556 56.7757C15.5761 57.4477 16.1234 58.0939 16.7373 58.6884C20.2343 62.0873 25.3196 62.8627 29.3637 60.6011C31.1523 59.593 32.8473 59.6059 34.6225 60.6269C36.7047 61.8159 38.9603 62.1907 41.3495 61.7254C44.5795 61.0792 47.022 59.3216 48.9173 56.7498C49.9851 55.3024 50.3722 53.7127 49.8516 51.9939C49.211 49.8356 48.9707 47.6515 48.9841 45.3899C49.0108 41.306 47.5826 37.6874 44.8064 34.5986C41.9902 31.4711 38.4265 29.6359 34.142 29.0543C33.8217 30.1916 33.1944 30.9541 31.9264 30.9412C30.6985 30.9283 30.0845 30.1787 29.7908 29.0802ZM46.2612 33.0478C47.1288 31.7554 47.3157 31.6003 48.6504 30.7732C53.3085 27.8912 56.7788 24.0141 59.1813 19.1806C61.7306 14.0112 61.9975 8.5186 61.784 2.94849C61.784 2.92265 61.7306 2.8968 61.6639 2.8451C61.0499 3.15527 60.4226 3.46544 59.7953 3.78853C51.0128 8.45398 45.2335 15.4328 42.5774 24.8024C42.1637 26.2499 41.8967 27.7361 40.5086 28.7829C42.7509 29.8944 44.6195 31.2901 46.2612 33.0478ZM23.3041 28.8476C22.8904 28.2918 22.4366 27.8137 22.1429 27.245C21.8493 26.6635 21.6891 25.9914 21.5156 25.3582C18.8595 15.5232 12.8533 8.26013 3.59038 3.51714C3.13658 3.28451 2.66943 3.05188 2.20228 2.81926C2.1222 2.8451 2.04211 2.87095 1.96203 2.90972C2.14889 5.89509 2.08216 8.91924 2.53596 11.8788C3.81729 20.0078 8.19515 26.2887 15.2958 30.7732C16.2435 31.3677 17.0977 32.0139 17.6449 33.0736C19.3 31.3031 21.1819 29.9073 23.3041 28.8476Z" fill="white"/>
<path d="M16.0299 51.7355C15.7897 48.957 17.8318 46.9021 20.1275 46.5144C21.6224 46.2559 22.9838 46.5919 24.1984 47.4837C26.3339 49.0603 28.0157 50.9989 29.257 53.2993C30.7385 56.0262 29.257 59.0762 26.1204 59.6965C21.4355 60.627 16.764 57.5124 16.0433 52.9504C15.9765 52.5627 16.0299 52.1491 16.0299 51.7355ZM18.1121 51.7872C18.0587 56.4915 23.2107 58.4559 26.0136 57.5641C27.4551 57.0989 28.1091 55.7419 27.4284 54.4366C26.3206 52.2913 24.7723 50.4949 22.7702 49.0603C22.1296 48.5951 21.3821 48.3883 20.5813 48.5434C18.9529 48.8665 18.0987 49.9909 18.1121 51.7872Z" fill="white"/>
<path d="M47.943 51.7873C48.1032 57.5254 41.9902 60.8597 37.372 59.5802C34.5958 58.8177 33.3012 55.9745 34.5825 53.4803C35.8371 51.0635 37.5856 49.0216 39.8413 47.419C41.4696 46.2559 43.2848 46.0621 45.1134 46.9409C46.9553 47.8326 47.903 49.3318 47.943 51.3349C47.9563 51.49 47.943 51.6451 47.943 51.7873ZM45.8208 51.839C45.8875 50.5078 45.4337 49.4093 44.1524 48.8019C42.8577 48.1815 41.7232 48.5822 40.6688 49.4351C38.9737 50.7921 37.5989 52.4076 36.5846 54.2945C35.7971 55.7678 36.4911 57.2411 38.1328 57.6417C41.1493 58.3525 45.8475 56.3105 45.8208 51.839Z" fill="white"/>
<path d="M31.9531 33.0225C33.1677 33.0225 34.102 33.9271 34.102 35.1032C34.102 36.2405 33.1677 37.1451 31.9931 37.1451C30.7919 37.1451 29.8442 36.2405 29.8442 35.0644C29.8442 33.9271 30.7652 33.0354 31.9531 33.0225Z" fill="white"/>
<path d="M34.0886 41.2409C34.102 42.417 33.1677 43.3346 31.9531 43.3346C30.7785 43.3346 29.8309 42.4428 29.8309 41.3056C29.8175 40.1295 30.7518 39.2119 31.9531 39.2119C33.141 39.2119 34.0886 40.1166 34.0886 41.2409Z" fill="white"/>
<path d="M34.0886 47.4965C34.0753 48.6597 33.1143 49.5514 31.8997 49.5256C30.7385 49.4997 29.8309 48.5821 29.8309 47.4319C29.8442 46.2688 30.7919 45.377 32.0198 45.4029C33.1944 45.4287 34.102 46.3463 34.0886 47.4965Z" fill="white"/>
</svg>
