<svg width="64" height="64" viewBox="0 0 64 64" fill="none" xmlns="http://www.w3.org/2000/svg">
<path d="M13 21.7904C13.2414 20.6089 13.4224 19.4081 13.7643 18.2653C16.0975 10.2273 24.0826 4.64918 32.6711 5.01719C41.6619 5.40456 49.0637 11.525 50.6728 19.9116C52.6439 30.1189 45.5036 39.7838 34.8232 41.3527C34.7227 41.3721 34.6221 41.3914 34.4612 41.4108C34.4612 44.2192 34.4612 47.0471 34.4612 49.933C34.6221 49.8168 34.783 49.7199 34.9037 49.6037C35.9697 48.5772 37.0357 47.5506 38.1018 46.5241C39.208 45.4782 40.6562 45.4201 41.6418 46.3692C42.6474 47.3182 42.6072 48.7321 41.5211 49.778C38.9666 52.2378 36.4122 54.6977 33.8578 57.1575C32.6912 58.2808 31.3235 58.2808 30.1569 57.1575C27.6226 54.717 25.0682 52.2766 22.554 49.8361C21.4678 48.7902 21.4075 47.357 22.3729 46.4079C23.3585 45.4201 24.8469 45.4782 25.9733 46.5628C26.9789 47.5119 27.9645 48.4803 28.9501 49.4294C29.111 49.5843 29.292 49.7393 29.5535 49.9523C29.5535 47.0471 29.5535 44.258 29.5535 41.4302C28.9903 41.3139 28.4271 41.2171 27.8841 41.1009C19.9191 39.3577 14.0861 33.0823 13.1408 25.3155C13.1207 25.1605 13.0603 24.9862 13 24.8313C13 23.8241 13 22.7976 13 21.7904ZM31.9269 36.8979C39.7913 36.9173 46.1472 30.8743 46.1673 23.3399C46.2075 15.7474 39.912 9.62691 32.0476 9.58818C24.2033 9.56881 17.8273 15.6699 17.8273 23.243C17.8072 30.7387 24.163 36.8785 31.9269 36.8979Z" fill="white"/>
</svg>
