<svg width="32" height="32" viewBox="0 0 32 32" fill="none" xmlns="http://www.w3.org/2000/svg">
<path d="M16 32C7.16344 32 0 24.8366 0 16C0 7.16344 7.16344 0 16 0C24.8366 0 32 7.16344 32 16C32 24.8366 24.8366 32 16 32Z" fill="url(#paint0_linear_184_6944)"/>
<path d="M19.2292 25.9988C17.0898 25.9988 14.9505 25.9988 12.815 25.9988C12.7248 25.9871 12.6345 25.9753 12.5442 25.9674C11.9044 25.9124 11.2567 25.8967 10.6207 25.7985C8.38325 25.4529 6.71887 23.8465 6.2439 21.6273C6.03193 20.6375 6.02015 19.6359 6.0123 18.6304C6.00052 16.8708 5.98875 15.1073 6.02015 13.3476C6.03585 12.4168 6.06333 11.478 6.22035 10.5668C6.60111 8.40262 7.85332 6.95722 9.9809 6.31307C10.7935 6.06562 11.6296 6.00278 12.4735 6.00278C14.9897 5.99885 17.5059 5.99492 20.0221 6.02242C20.6149 6.03027 21.2194 6.11275 21.8003 6.25022C23.5707 6.67049 24.8347 7.71919 25.5177 9.42383C25.8985 10.3743 25.9966 11.3798 25.9966 12.3932C26.0005 14.6045 26.0084 16.8158 25.9927 19.0232C25.9887 19.7263 25.9534 20.4333 25.871 21.1285C25.7532 22.1104 25.4078 23.0216 24.7915 23.815C23.712 25.2054 22.236 25.7867 20.5363 25.9164C20.1006 25.9517 19.6649 25.9714 19.2292 25.9988ZM16.0221 24.2274C16.0221 24.2157 16.0221 24.2039 16.0221 24.1921C16.7444 24.1921 17.4706 24.2078 18.1929 24.1882C19.1939 24.1646 20.2027 24.2039 21.1919 24.0036C22.6207 23.7129 23.5628 22.8802 23.9632 21.4584C24.1517 20.7946 24.1791 20.1073 24.1909 19.4238C24.2145 17.7467 24.238 16.0735 24.2184 14.3963C24.2066 13.2848 24.1752 12.1654 24.0653 11.0578C23.9122 9.50238 22.9151 8.41048 21.4078 8.02163C20.5795 7.80953 19.7277 7.80953 18.8837 7.80168C17.2272 7.78204 15.5707 7.78989 13.9181 7.79382C12.9289 7.79775 11.9358 7.77811 10.9544 7.95486C9.43134 8.2298 8.43428 9.09783 8.04959 10.6179C7.86902 11.3249 7.8494 12.0515 7.84547 12.7742C7.82977 14.9187 7.82977 17.0672 7.8494 19.2117C7.85332 19.8402 7.90828 20.4765 8.00641 21.097C8.16735 22.13 8.67373 22.9666 9.5805 23.5244C10.236 23.925 10.9701 24.086 11.7238 24.1135C13.1566 24.1685 14.5893 24.1921 16.0221 24.2274Z" fill="white"/>
<path d="M21.1724 15.9829C21.1724 18.8148 18.8524 21.1361 16.0261 21.1361C13.1881 21.1361 10.8603 18.807 10.8681 15.9712C10.876 13.1393 13.2038 10.818 16.0261 10.8298C18.8642 10.8376 21.1724 13.151 21.1724 15.9829ZM12.6895 15.979C12.6895 17.825 14.1655 19.3097 16.0104 19.3137C17.8593 19.3176 19.347 17.8368 19.351 15.9986C19.3549 14.1526 17.875 12.6562 16.0379 12.6522C14.1812 12.6444 12.6934 14.1251 12.6895 15.979Z" fill="white"/>
<path d="M21.3647 11.8313C20.6934 11.8313 20.1674 11.301 20.1674 10.6294C20.1674 9.96168 20.7052 9.42358 21.3686 9.42751C22.032 9.43144 22.5698 9.97347 22.5698 10.6333C22.5698 11.301 22.0359 11.8313 21.3647 11.8313Z" fill="white"/>
<defs>
<linearGradient id="paint0_linear_184_6944" x1="2.56" y1="-4.17037e-06" x2="27.776" y2="32" gradientUnits="userSpaceOnUse">
<stop stop-color="#FF7051"/>
<stop offset="1" stop-color="#D57AFF"/>
</linearGradient>
</defs>
</svg>
