<svg width="24" height="24" viewBox="0 0 24 24" fill="none" xmlns="http://www.w3.org/2000/svg">
<path fill-rule="evenodd" clip-rule="evenodd" d="M12 2.4C6.69807 2.4 2.4 6.69807 2.4 12C2.4 13.9824 2.99958 15.8211 4.02711 17.3493C5.7528 19.9156 8.67992 21.6 12 21.6C15.3201 21.6 18.2472 19.9156 19.9729 17.3493C21.0004 15.8211 21.6 13.9824 21.6 12C21.6 6.69807 17.3019 2.4 12 2.4ZM0 12C0 5.37258 5.37258 0 12 0C18.6274 0 24 5.37258 24 12C24 14.4742 23.2499 16.7769 21.9645 18.6885C19.812 21.8896 16.1526 24 12 24C7.84735 24 4.18805 21.8896 2.0355 18.6885C0.750105 16.7769 0 14.4742 0 12Z" fill="#F268B3"/>
<path fill-rule="evenodd" clip-rule="evenodd" d="M12 7C11.3096 7 10.75 7.55964 10.75 8.25C10.75 8.94036 11.3096 9.5 12 9.5C12.6904 9.5 13.25 8.94036 13.25 8.25C13.25 7.55964 12.6904 7 12 7ZM8.25 8.25C8.25 6.17893 9.92893 4.5 12 4.5C14.0711 4.5 15.75 6.17893 15.75 8.25C15.75 10.3211 14.0711 12 12 12C9.92893 12 8.25 10.3211 8.25 8.25Z" fill="#F268B3"/>
<path fill-rule="evenodd" clip-rule="evenodd" d="M2.44092 18.6021C3.19503 16.0864 5.54001 14.25 8.31991 14.25H15.6801C18.46 14.25 20.805 16.0864 21.5591 18.6021L21.75 19.239L21.3145 19.7435C19.0666 22.3472 15.7269 24 12 24C8.27309 24 4.93339 22.3472 2.68548 19.7435L2.25 19.239L2.44092 18.6021ZM5.03898 18.6851C6.81783 20.4637 9.27921 21.5625 12 21.5625C14.7208 21.5625 17.1822 20.4637 18.961 18.6851C18.3522 17.4988 17.1103 16.6875 15.6801 16.6875H8.31991C6.88969 16.6875 5.64784 17.4988 5.03898 18.6851Z" fill="#F268B3"/>
</svg>
