<svg width="20" height="20" viewBox="0 0 20 20" fill="none" xmlns="http://www.w3.org/2000/svg">
<path d="M11.1667 9.99992L16.4167 4.74992C16.75 4.41658 16.75 3.91659 16.4167 3.58325C16.0833 3.24992 15.5833 3.24992 15.25 3.58325L10 8.83325L4.75001 3.58325C4.41668 3.24992 3.91668 3.24992 3.58334 3.58325C3.25001 3.91659 3.25001 4.41658 3.58334 4.74992L8.83334 9.99992L3.58334 15.2499C3.41668 15.4166 3.33334 15.5833 3.33334 15.8333C3.33334 16.3333 3.66668 16.6666 4.16668 16.6666C4.41668 16.6666 4.58334 16.5833 4.75001 16.4166L10 11.1666L15.25 16.4166C15.4167 16.5833 15.5833 16.6666 15.8333 16.6666C16.0833 16.6666 16.25 16.5833 16.4167 16.4166C16.75 16.0833 16.75 15.5833 16.4167 15.2499L11.1667 9.99992Z" fill="white"/>
</svg>
