<svg width="24" height="25" viewBox="0 0 24 25" fill="none" xmlns="http://www.w3.org/2000/svg">
<path fill-rule="evenodd" clip-rule="evenodd" d="M9.02975 3.8437C10.9834 3.38543 13.0166 3.38543 14.9703 3.8437C17.7916 4.50549 19.9945 6.70842 20.6563 9.52975C21.1146 11.4834 21.1146 13.5166 20.6563 15.4703C19.9945 18.2916 17.7916 20.4945 14.9703 21.1563C13.0166 21.6146 10.9834 21.6146 9.02975 21.1563C6.20842 20.4945 4.0055 18.2916 3.3437 15.4703C2.88543 13.5166 2.88543 11.4834 3.3437 9.52974C4.0055 6.70841 6.20842 4.50549 9.02975 3.8437ZM10.7139 10.4016C10.4896 10.1773 10.1259 10.1773 9.90158 10.4016C9.67727 10.6259 9.67727 10.9896 9.90158 11.2139L11.1877 12.5L9.90158 13.7861C9.67727 14.0104 9.67727 14.3741 9.90158 14.5984C10.1259 14.8227 10.4896 14.8227 10.7139 14.5984L12 13.3123L13.2861 14.5984C13.5104 14.8227 13.8741 14.8227 14.0984 14.5984C14.3227 14.3741 14.3227 14.0104 14.0984 13.7861L12.8123 12.5L14.0984 11.2139C14.3227 10.9896 14.3227 10.6259 14.0984 10.4016C13.8741 10.1773 13.5104 10.1773 13.2861 10.4016L12 11.6877L10.7139 10.4016Z" fill="#F268B3"/>
</svg>
