<svg width="48" height="48" viewBox="0 0 48 48" fill="none" xmlns="http://www.w3.org/2000/svg">
<path d="M41.16 21.8802L27.16 7.88016C26.399 7.12276 25.2917 6.82887 24.2553 7.10919C23.2189 7.38951 22.4108 8.20146 22.1353 9.23919C21.8599 10.2769 22.159 11.3828 22.92 12.1402L31.78 20.9802H8.95996C7.30311 20.9802 5.95996 22.3233 5.95996 23.9802C5.95996 25.637 7.30311 26.9802 8.95996 26.9802H31.78L22.92 35.8202C22.0631 36.6781 21.8069 37.9675 22.2708 39.0879C22.7347 40.2082 23.8274 40.9391 25.04 40.9402C25.8451 40.9282 26.6106 40.5888 27.16 40.0002L41.16 26.0002C42.3298 24.8289 42.3298 22.9314 41.16 21.7602V21.8802Z" fill="white"/>
</svg>
