<svg width="32" height="32" viewBox="0 0 32 32" fill="none" xmlns="http://www.w3.org/2000/svg">
<path d="M16 32C7.16344 32 0 24.8366 0 16C0 7.16344 7.16344 0 16 0C24.8366 0 32 7.16344 32 16C32 24.8366 24.8366 32 16 32Z" fill="url(#paint0_linear_184_6950)"/>
<path d="M21.175 17.8333C20.9917 17.8333 20.8 17.775 20.6167 17.7333C20.2457 17.6503 19.8809 17.5417 19.525 17.4083C19.1384 17.2677 18.7135 17.275 18.3319 17.4288C17.9504 17.5826 17.6392 17.8722 17.4583 18.2416L17.275 18.625C16.4657 18.166 15.718 17.6059 15.05 16.9583C14.4024 16.2903 13.8423 15.5426 13.3833 14.7333L13.7667 14.5583C14.1361 14.3774 14.4257 14.0662 14.5795 13.6847C14.7333 13.3032 14.7406 12.8782 14.6 12.4916C14.4677 12.1325 14.3591 11.765 14.275 11.3916C14.2333 11.2083 14.2 11.0166 14.175 10.8333C14.0738 10.2463 13.7664 9.71474 13.308 9.33433C12.8497 8.95391 12.2706 8.74963 11.675 8.75829H9.16667C8.81437 8.75783 8.46596 8.83183 8.14427 8.97545C7.82257 9.11906 7.53486 9.32904 7.3 9.59163C7.06027 9.86134 6.88176 10.1798 6.77675 10.525C6.67174 10.8702 6.64272 11.2341 6.69167 11.5916C7.14466 15.0601 8.72934 18.2822 11.2 20.7583C13.6761 23.229 16.8982 24.8136 20.3667 25.2666C20.4748 25.2749 20.5835 25.2749 20.6917 25.2666C21.3062 25.2675 21.8995 25.0421 22.3583 24.6333C22.6209 24.3984 22.8309 24.1107 22.9745 23.789C23.1181 23.4673 23.1921 23.1189 23.1917 22.7666V20.2666C23.1872 19.6908 22.984 19.1342 22.6166 18.6909C22.2492 18.2475 21.74 17.9446 21.175 17.8333ZM21.5833 22.8333C21.5831 22.9496 21.5584 23.0645 21.5111 23.1707C21.4637 23.2769 21.3947 23.372 21.3083 23.45C21.217 23.5332 21.1083 23.595 20.9901 23.6311C20.8719 23.6671 20.7472 23.6764 20.625 23.6583C17.5152 23.2521 14.6252 21.835 12.4 19.625C10.1729 17.3978 8.74336 14.4978 8.33333 11.375C8.31523 11.2527 8.32453 11.128 8.36056 11.0098C8.39659 10.8917 8.45846 10.783 8.54167 10.6916C8.62052 10.6043 8.71698 10.5346 8.82471 10.4872C8.93243 10.4398 9.04898 10.4157 9.16667 10.4166H11.6667C11.8593 10.4119 12.0476 10.4741 12.1996 10.5926C12.3515 10.7111 12.4577 10.8786 12.5 11.0666C12.5 11.2916 12.575 11.525 12.625 11.75C12.7213 12.1865 12.8494 12.6154 13.0083 13.0333L11.8417 13.5833C11.6411 13.6753 11.4853 13.8432 11.4083 14.05C11.325 14.2528 11.325 14.4804 11.4083 14.6833C12.6077 17.2523 14.6727 19.3173 17.2417 20.5166C17.4446 20.6 17.6721 20.6 17.875 20.5166C18.0818 20.4397 18.2496 20.2838 18.3417 20.0833L18.8667 18.9166C19.2966 19.0734 19.7364 19.2015 20.1833 19.3C20.4 19.35 20.6333 19.3916 20.8583 19.425C21.0463 19.4673 21.2138 19.5735 21.3323 19.7254C21.4508 19.8773 21.513 20.0657 21.5083 20.2583L21.5833 22.8333ZM16.6667 8.66663C16.475 8.66663 16.275 8.66663 16.0833 8.66663C15.8623 8.68541 15.6578 8.79123 15.5148 8.96079C15.3718 9.13035 15.302 9.34978 15.3208 9.57079C15.3396 9.79181 15.4454 9.99631 15.615 10.1393C15.7846 10.2823 16.004 10.3521 16.225 10.3333H16.6667C17.9927 10.3333 19.2645 10.8601 20.2022 11.7978C21.1399 12.7354 21.6667 14.0072 21.6667 15.3333C21.6667 15.4833 21.6667 15.625 21.6667 15.775C21.6482 15.9948 21.7176 16.213 21.8598 16.3817C22.002 16.5504 22.2052 16.6559 22.425 16.675H22.4917C22.7003 16.6758 22.9016 16.5984 23.0559 16.458C23.2102 16.3176 23.3062 16.1244 23.325 15.9166C23.325 15.725 23.325 15.525 23.325 15.3333C23.325 13.5666 22.6238 11.8722 21.3753 10.6222C20.1269 9.37219 18.4333 8.66883 16.6667 8.66663ZM18.3333 15.3333C18.3333 15.5543 18.4211 15.7663 18.5774 15.9225C18.7337 16.0788 18.9457 16.1666 19.1667 16.1666C19.3877 16.1666 19.5996 16.0788 19.7559 15.9225C19.9122 15.7663 20 15.5543 20 15.3333C20 14.4492 19.6488 13.6014 19.0237 12.9763C18.3986 12.3511 17.5507 12 16.6667 12C16.4457 12 16.2337 12.0878 16.0774 12.244C15.9211 12.4003 15.8333 12.6123 15.8333 12.8333C15.8333 13.0543 15.9211 13.2663 16.0774 13.4225C16.2337 13.5788 16.4457 13.6666 16.6667 13.6666C17.1087 13.6666 17.5326 13.8422 17.8452 14.1548C18.1577 14.4673 18.3333 14.8913 18.3333 15.3333Z" fill="white"/>
<defs>
<linearGradient id="paint0_linear_184_6950" x1="2.56" y1="-4.17037e-06" x2="27.776" y2="32" gradientUnits="userSpaceOnUse">
<stop stop-color="#FF7051"/>
<stop offset="1" stop-color="#D57AFF"/>
</linearGradient>
</defs>
</svg>
