<svg width="20" height="20" viewBox="0 0 20 20" fill="none" xmlns="http://www.w3.org/2000/svg">
<path d="M18.0917 16.9084L15 13.8417C16.2001 12.3454 16.7812 10.4461 16.624 8.53446C16.4668 6.62279 15.5831 4.84403 14.1546 3.56391C12.7261 2.2838 10.8615 1.59963 8.9441 1.6521C7.0267 1.70457 5.20226 2.48968 3.84595 3.84599C2.48963 5.20231 1.70452 7.02674 1.65206 8.94415C1.59959 10.8615 2.28375 12.7262 3.56387 14.1546C4.84398 15.5831 6.62275 16.4668 8.53441 16.6241C10.4461 16.7813 12.3453 16.2001 13.8417 15L16.9083 18.0667C16.9858 18.1448 17.078 18.2068 17.1795 18.2491C17.2811 18.2914 17.39 18.3132 17.5 18.3132C17.61 18.3132 17.7189 18.2914 17.8205 18.2491C17.922 18.2068 18.0142 18.1448 18.0917 18.0667C18.2419 17.9113 18.3258 17.7037 18.3258 17.4875C18.3258 17.2714 18.2419 17.0638 18.0917 16.9084ZM9.16666 15C8.01294 15 6.88512 14.6579 5.92584 14.0169C4.96655 13.376 4.21888 12.4649 3.77737 11.399C3.33585 10.3331 3.22034 9.16024 3.44542 8.02868C3.6705 6.89713 4.22607 5.85773 5.04187 5.04192C5.85768 4.22611 6.89708 3.67054 8.02864 3.44546C9.16019 3.22038 10.3331 3.3359 11.399 3.77741C12.4649 4.21892 13.3759 4.9666 14.0169 5.92588C14.6579 6.88517 15 8.01299 15 9.16671C15 10.7138 14.3854 12.1975 13.2915 13.2915C12.1975 14.3855 10.7138 15 9.16666 15Z" fill="white"/>
</svg>
