<svg width="48" height="48" viewBox="0 0 48 48" fill="none" xmlns="http://www.w3.org/2000/svg">
<path fill-rule="evenodd" clip-rule="evenodd" d="M6 8C6 6.89543 6.89543 6 8 6H15C18.3137 6 21 8.68629 21 12V17C21 17.5163 20.8004 18.0125 20.4429 18.385L14.792 24.2722C17.1036 27.8454 20.1546 30.8964 23.7278 33.208L29.615 27.5571C29.9875 27.1996 30.4837 27 31 27H36C39.3137 27 42 29.6863 42 33V40C42 41.1046 41.1046 42 40 42C33.8104 42 28.0015 40.3442 22.9985 37.4502C17.8376 34.4647 13.5353 30.1624 10.5498 25.0015C7.65575 19.9985 6 14.1896 6 8ZM27.3954 35.2321C30.6545 36.7433 34.231 37.6866 38 37.9345V33C38 31.8954 37.1046 31 36 31H31.8045L27.3954 35.2321ZM12.7679 20.6046L17 16.1955V12C17 10.8954 16.1046 10 15 10H10.0655C10.3134 13.769 11.2567 17.3455 12.7679 20.6046Z" fill="white"/>
<path d="M26 16C26 14.8954 26.8954 14 28 14C31.3137 14 34 16.6863 34 20C34 21.1046 33.1046 22 32 22C30.8954 22 30 21.1046 30 20C30 18.8954 29.1046 18 28 18C26.8954 18 26 17.1046 26 16Z" fill="white"/>
<path d="M28 6C26.8954 6 26 6.89543 26 8C26 9.10457 26.8954 10 28 10C33.5228 10 38 14.4772 38 20C38 21.1046 38.8954 22 40 22C41.1046 22 42 21.1046 42 20C42 12.268 35.732 6 28 6Z" fill="white"/>
</svg>
