<svg width="24" height="24" viewBox="0 0 24 24" fill="none" xmlns="http://www.w3.org/2000/svg">
<path fill-rule="evenodd" clip-rule="evenodd" d="M12 6C9.79086 6 8 7.79086 8 10C8 12.2091 9.79086 14 12 14C14.2091 14 16 12.2091 16 10C16 7.79086 14.2091 6 12 6ZM10 10C10 8.89543 10.8954 8 12 8C13.1046 8 14 8.89543 14 10C14 11.1046 13.1046 12 12 12C10.8954 12 10 11.1046 10 10Z" fill="white"/>
<path fill-rule="evenodd" clip-rule="evenodd" d="M12 2C7.58172 2 4 5.58172 4 10C4 14.9758 7.14876 18.9616 10.4687 21.221C11.3936 21.8505 12.6064 21.8505 13.5313 21.221C16.8512 18.9616 20 14.9758 20 10C20 5.58172 16.4183 2 12 2ZM6 10C6 6.68629 8.68629 4 12 4C15.3137 4 18 6.68629 18 10C18 14.099 15.3842 17.5408 12.4061 19.5676C12.1602 19.735 11.8398 19.735 11.5939 19.5676C8.61583 17.5409 6 14.099 6 10Z" fill="white"/>
</svg>
