<svg width="110" height="110" viewBox="0 0 110 110" fill="none" xmlns="http://www.w3.org/2000/svg">
<circle cx="55" cy="55" r="55" fill="url(#paint0_radial_333_5009)"/>
<g clip-path="url(#clip0_333_5009)">
<path d="M22.9258 52.3561C23.3215 52.3561 23.6678 52.3561 23.9894 52.3561C29.8268 52.3561 35.6643 52.3561 41.477 52.3561C41.7491 52.3561 42.0707 52.4313 42.2933 52.306C42.5654 52.1807 42.8622 51.88 42.8869 51.6294C42.9116 51.4289 42.6148 51.0781 42.3922 50.9528C42.1449 50.8275 41.7986 50.8776 41.477 50.8776C35.6643 50.8776 29.8763 50.8776 24.0636 50.8776C23.6926 50.8776 23.3215 50.8776 22.8763 50.8776C22.8763 46.1913 22.8763 41.5552 22.8763 36.7937C23.371 36.7937 23.8904 36.7937 24.4099 36.7937C26.4876 36.7937 28.5406 36.7937 30.6184 36.7937C31.1625 36.7937 31.682 36.7186 31.6572 36.0419C31.6572 35.3653 31.1378 35.2901 30.5936 35.2901C28.0459 35.2901 25.4735 35.2901 22.8516 35.2901C22.8516 33.16 22.8516 31.1301 22.8516 29C38.8798 29 54.9081 29 70.9859 29C70.9859 42.9084 70.9859 56.8169 70.9859 70.8005C70.6396 70.8255 70.318 70.8506 69.9717 70.8506C62.3781 70.8506 54.7844 70.8506 47.1908 70.8757C46.5724 70.8757 46.2261 70.7253 45.9293 70.1239C44.3463 67.0164 41.7986 65.3373 38.3604 65.3373C34.8975 65.3373 32.3745 67.0164 30.7668 70.0988C30.4452 70.7002 30.1237 70.8757 29.5053 70.8757C27.6007 70.8506 25.6714 70.8757 23.7668 70.8506C23.47 70.8506 23.1731 70.8255 22.8268 70.8005C22.8268 67.267 22.8268 63.8087 22.8268 60.2501C23.1731 60.2251 23.4947 60.2 23.8162 60.2C25.8198 60.2 27.8233 60.2 29.8268 60.2C30.3463 60.2 30.8904 60.1248 30.8904 59.4482C30.9152 58.7716 30.371 58.6964 29.8516 58.6964C27.5512 58.6964 25.2261 58.6964 22.8516 58.6964C22.9258 56.5913 22.9258 54.5364 22.9258 52.3561ZM35.7138 43.1089C32.4488 43.1089 29.1837 43.1089 25.9187 43.1089C25.3498 43.1089 24.7314 43.2342 24.9293 43.9359C25.0035 44.2366 25.6466 44.5624 26.0424 44.5624C32.424 44.6125 38.8056 44.5875 45.1873 44.5875C45.7562 44.5875 46.424 44.6125 46.3993 43.8106C46.3745 42.9836 45.682 43.1089 45.1378 43.1089C41.9965 43.1089 38.8551 43.1089 35.7138 43.1089ZM40.6113 58.6964C38.9046 58.6964 37.2226 58.6964 35.5159 58.6964C34.9965 58.6964 34.477 58.7465 34.477 59.4482C34.5018 60.1248 35.0212 60.2 35.5406 60.2C38.9293 60.2 42.318 60.2 45.7067 60.2C46.2509 60.2 46.7456 60.0998 46.7456 59.4231C46.7456 58.7465 46.2014 58.6964 45.682 58.6964C44 58.6964 42.318 58.6964 40.6113 58.6964ZM39.0777 36.7687C40.0671 36.7687 41.0565 36.8188 42.0459 36.7436C42.3675 36.7186 42.6643 36.3176 42.9859 36.092C42.6643 35.8164 42.3675 35.3402 42.0459 35.3402C40.0671 35.2651 38.1131 35.2651 36.1343 35.3402C35.8374 35.3402 35.5406 35.8164 35.2685 36.067C35.5654 36.3176 35.8374 36.7436 36.159 36.7687C37.0989 36.8439 38.0883 36.7687 39.0777 36.7687Z" fill="#FFD0E2"/>
<path d="M72.6678 40.2521C78.2332 40.0766 83.7491 39.801 88.5972 43.2342C93.5194 46.7176 96.3145 51.454 96.5618 57.5436C96.735 61.7788 96.6113 66.039 96.6113 70.2993C96.6113 70.4496 96.5618 70.6 96.5371 70.8506C95.3251 70.8506 94.1378 70.9007 92.9505 70.8255C92.7032 70.8005 92.4064 70.3995 92.258 70.0988C89.7845 65.1369 83.6254 63.7084 79.371 67.1918C78.4064 67.9687 77.6891 69.0964 77.0212 70.1489C76.6749 70.6752 76.4028 70.9007 75.8092 70.8757C74.7951 70.8255 73.7809 70.8757 72.6926 70.8757C72.6678 60.626 72.6678 50.4766 72.6678 40.2521ZM84.5901 59.2227C84.5901 59.1725 84.5901 59.1475 84.5901 59.0974C87.0636 59.0974 89.5124 59.0723 91.9859 59.0974C92.8269 59.0974 93.1484 58.7465 93.1237 57.9195C93 54.8622 92.1095 52.0805 90.2792 49.6496C87.0389 45.3393 82.6608 43.5099 77.3675 43.7104C76.2544 43.7605 76.0565 43.8858 76.0565 45.0135C76.0565 49.3239 76.0565 53.6342 76.0565 57.9446C76.0565 59.0472 76.2544 59.2227 77.3675 59.2227C79.7915 59.2227 82.1908 59.2227 84.5901 59.2227Z" fill="white"/>
<path d="M91.6148 73.8579C91.6396 77.7673 88.523 80.9499 84.6643 81C80.8304 81.0501 77.6396 77.8424 77.6148 73.933C77.5901 69.9485 80.7067 66.7658 84.6148 66.7658C88.4982 66.7658 91.5901 69.9234 91.6148 73.8579ZM87.8551 73.908C87.8798 72.0535 86.4205 70.5499 84.6148 70.5499C82.8339 70.5499 81.3746 71.9783 81.3498 73.7827C81.3251 75.6622 82.7102 77.1407 84.5406 77.1658C86.3958 77.1909 87.8551 75.7624 87.8551 73.908Z" fill="white"/>
<path d="M38.4346 66.7658C42.2933 66.7658 45.4346 69.9485 45.4346 73.8579C45.4346 77.8174 42.2438 81.0501 38.3604 81C34.5265 80.9499 31.3604 77.7171 31.3852 73.8328C31.4346 69.9234 34.576 66.7658 38.4346 66.7658ZM38.4346 77.1658C40.2403 77.1658 41.7244 75.6622 41.6996 73.8328C41.6749 72.0034 40.1661 70.5248 38.3604 70.5499C36.5795 70.575 35.1449 72.0535 35.1449 73.8579C35.1449 75.7123 36.6042 77.1658 38.4346 77.1658Z" fill="white"/>
<path d="M46.8693 72.3542C56.6891 72.3542 66.3852 72.3542 76.1307 72.3542C76.1307 73.3567 76.1307 74.3089 76.1307 75.3364C66.4099 75.3364 56.6643 75.3364 46.8693 75.3364C46.8693 74.3841 46.8693 73.4068 46.8693 72.3542Z" fill="white"/>
<path d="M29.9505 75.4116C26.9329 75.4116 23.8905 75.4366 20.848 75.3865C20.0071 75.3865 19.4629 74.6097 19.4876 73.7827C19.5124 72.9557 20.106 72.3542 20.9965 72.3292C22.7279 72.2791 24.4594 72.3041 26.1661 72.3041C27.4028 72.3041 28.6396 72.3041 29.9505 72.3041C29.9505 73.3566 29.9505 74.334 29.9505 75.4116Z" fill="white"/>
<path d="M93.0494 75.4115C93.0494 74.3339 93.0494 73.4067 93.0494 72.4043C95.0035 72.4043 96.9328 72.3542 98.8622 72.4294C99.6289 72.4544 100 73.1311 100.025 73.9079C100.049 74.6597 99.4311 75.3865 98.6395 75.4115C96.7844 75.4366 94.9293 75.4115 93.0494 75.4115Z" fill="white"/>
<path d="M15.159 36.7687C13.4523 36.7687 11.7703 36.7687 10.0636 36.7687C9.51941 36.7687 8.99998 36.6684 9.02471 36.0169C9.04945 35.3904 9.56888 35.2651 10.0883 35.2651C13.477 35.2651 16.8657 35.2651 20.2544 35.2651C20.7738 35.2651 21.318 35.3152 21.3427 35.9918C21.3675 36.7436 20.7738 36.7687 20.2297 36.7687C18.5477 36.7687 16.841 36.7687 15.159 36.7687Z" fill="white"/>
<path d="M16.4452 44.5874C15.3074 44.5874 14.1696 44.5874 13.0318 44.5874C12.4876 44.5874 11.9929 44.412 12.0177 43.7855C12.0424 43.1841 12.5124 43.1089 13.0318 43.1089C15.3074 43.1089 17.583 43.1089 19.8587 43.1089C20.3534 43.1089 20.8481 43.1841 20.8728 43.7855C20.8975 44.4371 20.4028 44.5874 19.8587 44.5874C18.7209 44.5874 17.583 44.5874 16.4452 44.5874Z" fill="white"/>
<path d="M17.0883 60.1749C16.0494 60.1749 14.9858 60.1749 13.947 60.1749C13.4275 60.1749 12.8834 60.0998 12.8834 59.4231C12.8586 58.7716 13.3781 58.6713 13.9222 58.6713C16.0742 58.6713 18.2261 58.6713 20.3781 58.6713C20.8975 58.6713 21.4169 58.7966 21.318 59.373C21.2685 59.6737 20.7491 60.0747 20.4028 60.1248C19.3145 60.2501 18.2014 60.1749 17.0883 60.1749Z" fill="white"/>
<path d="M12.5371 52.3562C11.6714 52.3562 10.8056 52.4313 9.96465 52.3311C9.61836 52.306 9.32154 51.9051 9.02472 51.6795C9.34627 51.4039 9.64309 50.9277 9.96465 50.9027C11.6961 50.8275 13.4028 50.8525 15.1343 50.8776C15.6537 50.8776 16.1484 51.1031 16.0247 51.6795C15.9258 51.9552 15.4311 52.306 15.1095 52.3311C14.2438 52.4313 13.3781 52.3562 12.5371 52.3562Z" fill="white"/>
<path d="M86.3957 73.9079C86.371 74.9103 85.6042 75.6621 84.6148 75.6621C83.6007 75.6621 82.8091 74.8352 82.8339 73.7826C82.8586 72.8053 83.6501 72.0033 84.6148 72.0284C85.6289 72.0535 86.3957 72.8805 86.3957 73.9079Z" fill="#FFD0E2"/>
<path d="M38.4099 72.0535C39.3993 72.0535 40.2403 72.8805 40.2403 73.9079C40.2155 74.8853 39.424 75.6872 38.4594 75.6872C37.4452 75.7123 36.629 74.8853 36.629 73.8578C36.6537 72.8805 37.4452 72.0535 38.4099 72.0535Z" fill="#FFD0E2"/>
</g>
<defs>
<radialGradient id="paint0_radial_333_5009" cx="0" cy="0" r="1" gradientUnits="userSpaceOnUse" gradientTransform="translate(54.2466 55.7534) rotate(140.711) scale(124.356 191.831)">
<stop offset="0.0104167" stop-color="#FF3976"/>
<stop offset="0.411458" stop-color="#D57AFF"/>
<stop offset="1" stop-color="#FF759F" stop-opacity="0"/>
<stop offset="1" stop-color="#FF759F" stop-opacity="0"/>
</radialGradient>
<clipPath id="clip0_333_5009">
<rect width="91" height="52" fill="white" transform="translate(9 29)"/>
</clipPath>
</defs>
</svg>
