<svg width="77" height="77" viewBox="0 0 77 77" fill="none" xmlns="http://www.w3.org/2000/svg">
<circle cx="38.5" cy="38.5" r="38.5" fill="#F5F5F5"/>
<path d="M17 39V49C17 49.5304 17.2107 50.0391 17.5858 50.4142C17.9609 50.7893 18.4696 51 19 51H21C21 52.5913 21.6321 54.1174 22.7574 55.2426C23.8826 56.3679 25.4087 57 27 57C28.5913 57 30.1174 56.3679 31.2426 55.2426C32.3679 54.1174 33 52.5913 33 51H45C45 52.5913 45.6321 54.1174 46.7574 55.2426C47.8826 56.3679 49.4087 57 51 57C52.5913 57 54.1174 56.3679 55.2426 55.2426C56.3679 54.1174 57 52.5913 57 51H59C59.5304 51 60.0391 50.7893 60.4142 50.4142C60.7893 50.0391 61 49.5304 61 49V25C61 23.4087 60.3679 21.8826 59.2426 20.7574C58.1174 19.6321 56.5913 19 55 19H37C35.4087 19 33.8826 19.6321 32.7574 20.7574C31.6321 21.8826 31 23.4087 31 25V29H27C26.0685 29 25.1499 29.2169 24.3167 29.6334C23.4836 30.05 22.7589 30.6548 22.2 31.4L17.4 37.8C17.3415 37.8869 17.2944 37.981 17.26 38.08L17.14 38.3C17.0517 38.523 17.0043 38.7602 17 39ZM49 51C49 50.6044 49.1173 50.2178 49.3371 49.8889C49.5568 49.56 49.8692 49.3036 50.2346 49.1522C50.6001 49.0009 51.0022 48.9613 51.3902 49.0384C51.7781 49.1156 52.1345 49.3061 52.4142 49.5858C52.6939 49.8655 52.8844 50.2219 52.9616 50.6098C53.0387 50.9978 52.9991 51.3999 52.8478 51.7654C52.6964 52.1308 52.44 52.4432 52.1111 52.6629C51.7822 52.8827 51.3956 53 51 53C50.4696 53 49.9609 52.7893 49.5858 52.4142C49.2107 52.0391 49 51.5304 49 51ZM35 25C35 24.4696 35.2107 23.9609 35.5858 23.5858C35.9609 23.2107 36.4696 23 37 23H55C55.5304 23 56.0391 23.2107 56.4142 23.5858C56.7893 23.9609 57 24.4696 57 25V47H55.44C54.8776 46.3813 54.1922 45.8869 53.4276 45.5487C52.663 45.2104 51.8361 45.0356 51 45.0356C50.1639 45.0356 49.337 45.2104 48.5724 45.5487C47.8078 45.8869 47.1224 46.3813 46.56 47H35V25ZM31 37H23L25.4 33.8C25.5863 33.5516 25.8279 33.35 26.1056 33.2111C26.3833 33.0723 26.6895 33 27 33H31V37ZM25 51C25 50.6044 25.1173 50.2178 25.3371 49.8889C25.5568 49.56 25.8692 49.3036 26.2346 49.1522C26.6001 49.0009 27.0022 48.9613 27.3902 49.0384C27.7781 49.1156 28.1345 49.3061 28.4142 49.5858C28.6939 49.8655 28.8844 50.2219 28.9616 50.6098C29.0387 50.9978 28.9991 51.3999 28.8478 51.7654C28.6964 52.1308 28.44 52.4432 28.1111 52.6629C27.7822 52.8827 27.3956 53 27 53C26.4696 53 25.9609 52.7893 25.5858 52.4142C25.2107 52.0391 25 51.5304 25 51ZM21 41H31V46.56C29.8197 45.5051 28.2703 44.9594 26.6894 45.0418C25.1085 45.1243 23.6242 45.8281 22.56 47H21V41Z" fill="url(#paint0_linear_117_5959)"/>
<defs>
<linearGradient id="paint0_linear_117_5959" x1="20.52" y1="19" x2="49.1698" y2="61.0983" gradientUnits="userSpaceOnUse">
<stop stop-color="#FF7051"/>
<stop offset="1" stop-color="#D57AFF"/>
</linearGradient>
</defs>
</svg>
