<svg width="77" height="77" viewBox="0 0 77 77" fill="none" xmlns="http://www.w3.org/2000/svg">
<circle cx="38.5" cy="38.5" r="38.5" fill="#F5F5F5"/>
<path d="M53 34H52.36L49.86 27.76C49.4135 26.6505 48.6456 25.6998 47.6549 25.0298C46.6643 24.3599 45.496 24.0013 44.3 24H32.3C30.9106 23.996 29.5628 24.4744 28.4868 25.3535C27.4108 26.2325 26.6732 27.4577 26.4 28.82L25.36 34H25C23.4087 34 21.8826 34.6322 20.7574 35.7574C19.6321 36.8826 19 38.4087 19 40V46C19 46.5305 19.2107 47.0392 19.5858 47.4142C19.9609 47.7893 20.4696 48 21 48H23C23 49.5913 23.6321 51.1174 24.7574 52.2427C25.8826 53.3679 27.4087 54 29 54C30.5913 54 32.1174 53.3679 33.2426 52.2427C34.3679 51.1174 35 49.5913 35 48H43C43 49.5913 43.6321 51.1174 44.7574 52.2427C45.8826 53.3679 47.4087 54 49 54C50.5913 54 52.1174 53.3679 53.2426 52.2427C54.3679 51.1174 55 49.5913 55 48H57C57.5304 48 58.0391 47.7893 58.4142 47.4142C58.7893 47.0392 59 46.5305 59 46V40C59 38.4087 58.3679 36.8826 57.2426 35.7574C56.1174 34.6322 54.5913 34 53 34ZM41 28H44.3C44.6971 28.0036 45.0842 28.1254 45.4119 28.3498C45.7396 28.5742 45.9931 28.891 46.14 29.26L48.04 34H41V28ZM30.32 29.6C30.4135 29.1415 30.6648 28.7302 31.0303 28.4379C31.3957 28.1455 31.8521 27.9906 32.32 28H37V34H29.44L30.32 29.6ZM29 50C28.6044 50 28.2178 49.8827 27.8889 49.663C27.56 49.4432 27.3036 49.1308 27.1522 48.7654C27.0009 48.3999 26.9613 47.9978 27.0384 47.6098C27.1156 47.2219 27.3061 46.8655 27.5858 46.5858C27.8655 46.3061 28.2219 46.1156 28.6098 46.0385C28.9978 45.9613 29.3999 46.0009 29.7654 46.1523C30.1308 46.3036 30.4432 46.56 30.6629 46.8889C30.8827 47.2178 31 47.6045 31 48C31 48.5305 30.7893 49.0392 30.4142 49.4142C30.0391 49.7893 29.5304 50 29 50ZM49 50C48.6044 50 48.2178 49.8827 47.8889 49.663C47.56 49.4432 47.3036 49.1308 47.1522 48.7654C47.0009 48.3999 46.9613 47.9978 47.0384 47.6098C47.1156 47.2219 47.3061 46.8655 47.5858 46.5858C47.8655 46.3061 48.2219 46.1156 48.6098 46.0385C48.9978 45.9613 49.3999 46.0009 49.7654 46.1523C50.1308 46.3036 50.4432 46.56 50.6629 46.8889C50.8827 47.2178 51 47.6045 51 48C51 48.5305 50.7893 49.0392 50.4142 49.4142C50.0391 49.7893 49.5304 50 49 50ZM55 44H53.44C52.8776 43.3813 52.1922 42.887 51.4276 42.5487C50.663 42.2104 49.8361 42.0357 49 42.0357C48.1639 42.0357 47.337 42.2104 46.5724 42.5487C45.8078 42.887 45.1224 43.3813 44.56 44H33.44C32.8776 43.3813 32.1922 42.887 31.4276 42.5487C30.663 42.2104 29.8361 42.0357 29 42.0357C28.1639 42.0357 27.337 42.2104 26.5724 42.5487C25.8078 42.887 25.1224 43.3813 24.56 44H23V40C23 39.4696 23.2107 38.9609 23.5858 38.5858C23.9609 38.2107 24.4696 38 25 38H53C53.5304 38 54.0391 38.2107 54.4142 38.5858C54.7893 38.9609 55 39.4696 55 40V44Z" fill="url(#paint0_linear_117_5969)"/>
<defs>
<linearGradient id="paint0_linear_117_5969" x1="22.2" y1="24" x2="43.4998" y2="60.0402" gradientUnits="userSpaceOnUse">
<stop stop-color="#FF7051"/>
<stop offset="1" stop-color="#D57AFF"/>
</linearGradient>
</defs>
</svg>
