<svg width="110" height="110" viewBox="0 0 110 110" fill="none" xmlns="http://www.w3.org/2000/svg">
<circle cx="55" cy="55" r="55" fill="url(#paint0_radial_333_5126)"/>
<path d="M14.7157 67.3839C15.1968 66.0405 16.201 65.2429 17.4352 64.6342C18.4812 64.1094 19.4644 63.4797 20.5104 62.913C22.2886 61.9474 24.1923 62.4932 25.2383 64.2353C25.4893 64.6551 25.7194 65.0959 26.0123 65.5787C26.3052 65.4318 26.5562 65.3058 26.7863 65.1799C30.8029 62.892 34.7567 60.5201 38.8151 58.3161C41.7439 56.6999 44.7981 56.5529 48.0198 57.7074C51.8899 59.1137 55.8437 60.2682 59.7557 61.5066C60.2578 61.6745 60.7598 61.7375 61.2828 61.8635C65.0693 62.724 66.8265 66.2924 65.153 69.8397C65.1111 69.9027 65.0902 69.9866 65.153 70.2595C65.9479 69.9027 66.7847 69.5878 67.5378 69.147C72.2656 66.4183 76.9516 63.6476 81.6795 60.8979C83.8551 59.6175 86.0935 58.526 88.6876 58.3791C90.9887 58.2531 92.9552 58.9878 94.1267 61.0868C95.34 63.2698 95.2145 65.4738 93.8129 67.5308C93.4363 68.0975 92.8506 68.5803 92.2648 68.9371C83.5622 74.3526 74.8178 79.7261 66.0943 85.1205C63.2074 86.9047 60.1322 87.3035 56.8688 86.4219C51.0113 84.8267 45.1328 83.2734 39.2753 81.6782C38.585 81.4893 38.0411 81.5102 37.4553 81.93C36.9533 82.2869 36.3884 82.5597 35.7818 82.9166C36.242 83.7562 36.7022 84.5328 37.1415 85.3305C38.2503 87.3455 37.7482 89.2136 35.7818 90.3471C34.5475 91.0608 33.2923 91.7744 32.0371 92.4671C30.1335 93.5166 28.2298 92.9919 27.1419 91.1027C23.1672 84.071 19.1925 77.0393 15.2387 70.0076C15.0504 69.6718 14.9039 69.315 14.7157 68.9791C14.7157 68.4334 14.7157 67.9086 14.7157 67.3839ZM34.5266 80.6916C35.4261 80.1669 36.2629 79.7261 37.0579 79.2223C37.6436 78.8445 38.2294 78.7815 38.9197 78.9704C45.1119 80.6496 51.3041 82.2869 57.4754 83.9661C60.0067 84.6588 62.3916 84.4279 64.63 83.0425C73.4162 77.6061 82.2234 72.1906 90.9887 66.7332C91.4908 66.4183 91.951 65.8096 92.1811 65.2429C93.1016 62.787 91.428 60.646 88.8131 60.8349C86.7211 61.0029 84.9011 61.8844 83.1439 62.913C78.3114 65.7256 73.4999 68.5383 68.6884 71.351C66.4709 72.6524 64.0651 73.1981 61.5548 72.6944C58.9189 72.1906 56.3249 71.4979 53.7308 70.8682C52.392 70.5534 51.0531 70.1965 49.7142 69.8187C48.9402 69.6088 48.5846 68.9791 48.7519 68.2654C48.9193 67.5938 49.5887 67.2159 50.3418 67.3839C50.572 67.4258 50.8021 67.5098 51.0113 67.5728C53.9819 68.3494 56.9524 69.168 59.944 69.8817C61.5966 70.2805 62.9982 69.294 63.2911 67.7197C63.584 66.1874 62.6426 64.7181 61.0945 64.3193C60.0904 64.0674 59.0444 63.9205 58.0612 63.6056C54.1701 62.3462 50.2791 61.0658 46.4089 59.7644C45.2374 59.3866 44.045 59.1347 42.8735 59.4916C41.4719 59.9324 40.0285 60.3941 38.7523 61.1078C35.0287 63.1648 31.3886 65.3478 27.7068 67.4888C27.5813 67.5728 27.4557 67.6567 27.3093 67.7617C29.6732 72.1067 32.079 76.3467 34.5266 80.6916ZM22.3932 64.865C22.0375 64.991 21.8493 65.033 21.7028 65.1169C20.3849 65.8516 19.067 66.6072 17.749 67.3629C17.1214 67.7407 17.1214 68.2445 17.4561 68.8322C21.41 75.8219 25.3429 82.8116 29.2967 89.8014C29.736 90.557 30.1125 90.662 30.9075 90.2212C32.079 89.5705 33.2296 88.9198 34.3801 88.2481C35.3215 87.7023 35.4261 87.3875 34.8822 86.4219C33.376 83.7562 31.8698 81.0904 30.3845 78.4247C27.9996 74.2057 25.6357 70.0076 23.2509 65.7886C23.0208 65.4318 22.6442 65.1379 22.3932 64.865Z" fill="white"/>
<path d="M36.765 34.0515C36.7859 24.0602 44.8609 15.979 54.7977 16C64.7345 16.021 72.8095 24.1442 72.7886 34.1145C72.7677 44.0848 64.6718 52.166 54.7349 52.166C44.7981 52.145 36.744 44.0428 36.765 34.0515ZM39.2753 34.0935C39.2753 42.6785 46.1788 49.6262 54.714 49.6472C63.2911 49.6682 70.2782 42.6995 70.2992 34.1145C70.3201 25.5295 63.3538 18.5188 54.7977 18.5188C46.2206 18.4978 39.2753 25.4875 39.2753 34.0935Z" fill="white"/>
<path d="M22.3932 64.8651C22.6442 65.138 23.0208 65.4318 23.23 65.7887C25.6148 69.9867 27.9997 74.2057 30.3636 78.4248C31.8698 81.0905 33.376 83.7563 34.8613 86.422C35.4052 87.3876 35.3215 87.7024 34.3592 88.2482C33.2086 88.9198 32.0581 89.5705 30.8866 90.2212C30.0916 90.662 29.7151 90.5781 29.2758 89.8014C25.3429 82.8117 21.41 75.822 17.4561 68.8323C17.1214 68.2445 17.1005 67.7198 17.749 67.3629C19.067 66.6073 20.3849 65.8516 21.7028 65.117C21.8493 65.033 22.0166 64.9911 22.3932 64.8651ZM22.7488 69.0212C22.7488 68.2235 22.1212 67.5519 21.3263 67.5519C20.5313 67.5309 19.8828 68.1606 19.8619 68.9792C19.841 69.8188 20.4895 70.5115 21.3054 70.4905C22.1003 70.4695 22.7488 69.8188 22.7488 69.0212Z" fill="#FFD0E2"/>
<path d="M62.3497 25.6135C62.287 25.7604 62.1824 26.0962 61.9941 26.3691C57.9147 32.0994 53.8145 37.8088 49.7142 43.5181C49.1703 44.2947 48.4172 44.4416 47.7478 43.9799C47.0993 43.5391 46.9947 42.7204 47.5386 41.9858C51.6388 36.2345 55.7391 30.5042 59.8603 24.7739C60.2577 24.2071 60.8017 23.9343 61.492 24.1861C62.0568 24.375 62.3497 24.8158 62.3497 25.6135Z" fill="white"/>
<path d="M59.7347 44.2947C57.3917 44.2947 55.5299 42.3846 55.5508 40.0337C55.5717 37.7248 57.4336 35.8357 59.7347 35.8357C62.0568 35.8357 63.9814 37.7458 63.9814 40.0757C63.9605 42.4056 62.0568 44.2947 59.7347 44.2947ZM59.7347 41.7759C60.6552 41.7759 61.4292 41.0413 61.4502 40.0967C61.4711 39.1521 60.6761 38.3335 59.7557 38.3335C58.8352 38.3335 58.0821 39.0892 58.0612 40.0127C58.0403 40.9993 58.7724 41.7759 59.7347 41.7759Z" fill="white"/>
<path d="M54.0237 28.1114C54.0237 30.4623 52.12 32.3514 49.7979 32.3514C47.4758 32.3514 45.5721 30.4203 45.5931 28.0904C45.614 25.8024 47.4968 23.8923 49.7979 23.8923C52.0991 23.8504 54.0237 25.7605 54.0237 28.1114ZM51.5133 28.0904C51.5133 27.1668 50.7393 26.3902 49.8188 26.3902C48.8775 26.3692 48.0616 27.1878 48.0825 28.1324C48.1034 29.0559 48.8565 29.8116 49.777 29.8326C50.7393 29.8326 51.5133 29.0559 51.5133 28.0904Z" fill="white"/>
<defs>
<radialGradient id="paint0_radial_333_5126" cx="0" cy="0" r="1" gradientUnits="userSpaceOnUse" gradientTransform="translate(54.2466 55.7534) rotate(140.711) scale(124.356 191.831)">
<stop offset="0.0104167" stop-color="#FF3976"/>
<stop offset="0.411458" stop-color="#D57AFF"/>
<stop offset="1" stop-color="#FF759F" stop-opacity="0"/>
<stop offset="1" stop-color="#FF759F" stop-opacity="0"/>
</radialGradient>
</defs>
</svg>
