<svg width="33" height="58" viewBox="0 0 33 58" fill="none" xmlns="http://www.w3.org/2000/svg">
<path d="M9.13657 49.6145C9.19781 46.4298 9.64182 43.2921 10.2236 40.1699C11.3719 33.8943 11.3107 27.6656 9.59588 21.4994C9.45809 20.9998 9.33561 20.4846 9.21312 19.9695C9.09064 19.4387 9.25906 19.0328 9.74899 18.7518C11.28 17.862 11.4484 16.6912 10.1624 15.4423C8.83036 14.1467 7.78925 12.6948 7.46774 10.8059C6.8247 6.98128 8.66195 3.12541 12.0149 1.18966C17.5879 -1.99495 24.646 1.5331 25.5647 7.98037C25.9627 10.7123 25.2278 13.0539 23.2987 15.0052C23.0231 15.2862 22.7475 15.5516 22.4873 15.8326C21.6911 16.7537 21.8902 17.9869 22.9466 18.6113C23.8958 19.1733 23.9264 19.3138 23.6968 20.391C23.2069 22.6546 22.671 24.9025 22.3035 27.1661C21.8595 29.9292 21.8595 32.7235 22.1811 35.5023C22.5179 38.4371 23.0997 41.3407 23.4212 44.2756C23.6662 46.5391 23.8193 48.8183 23.7887 51.0819C23.7427 54.688 20.4204 57.9194 16.899 57.9975C12.9336 58.0911 9.9174 55.5778 9.24374 51.597C9.13657 50.957 9.16719 50.2857 9.13657 49.6145ZM11.2953 20.6095C11.3413 20.8281 11.3719 21.0154 11.4178 21.1871C13.1632 27.5876 13.2245 34.0505 12.0302 40.5446C11.4638 43.6199 11.0504 46.7264 11.0044 49.8642C11.0044 50.0672 11.0044 50.2701 11.0044 50.473C14.7096 50.473 18.3534 50.473 22.1198 50.473C21.9055 48.1783 21.7524 45.9303 21.4921 43.6823C21.1246 40.6538 20.5888 37.6566 20.2979 34.6281C19.9304 30.7254 20.2673 26.8539 21.1553 23.0448C21.339 22.2487 21.538 21.4369 21.7217 20.6095C18.2003 20.6095 14.7708 20.6095 11.2953 20.6095ZM16.4856 11.243C18.3228 11.243 20.1448 11.243 21.982 11.243C23.7274 11.243 23.8499 11.1181 23.8346 9.29168C23.8346 9.19802 23.8346 9.10435 23.8193 8.99508C23.4671 3.20346 17.2817 0.00323985 12.4896 3.12541C10.0093 4.73332 8.64664 8.05843 9.33561 10.7591C9.42747 11.1338 9.56526 11.2586 9.94802 11.2586C12.1221 11.2274 14.3115 11.243 16.4856 11.243ZM11.3872 52.4088C11.9843 54.5319 14.2656 56.1554 16.5621 56.1242C18.8434 56.0929 21.094 54.4382 21.5993 52.4088C18.2003 52.4088 14.8167 52.4088 11.3872 52.4088ZM10.6523 13.1319C10.6217 13.1944 10.5758 13.2412 10.5451 13.3037C10.9738 13.7095 11.4484 14.0842 11.8312 14.5369C12.1374 14.9116 12.4436 15.0052 12.9029 15.0052C15.1995 14.9896 17.4808 14.974 19.7773 15.0052C20.4204 15.0209 20.9409 14.9272 21.339 14.3496C21.6299 13.9281 22.0433 13.6003 22.4873 13.1476C18.4453 13.1319 14.5412 13.1319 10.6523 13.1319ZM12.5355 18.6738C15.1689 18.6738 17.8329 18.6738 20.451 18.6738C20.3285 18.0494 20.206 17.4718 20.0835 16.8942C17.6645 16.8942 15.2607 16.8942 12.9029 16.8942C12.7805 17.5186 12.658 18.1118 12.5355 18.6738Z" fill="white"/>
<path d="M29.4534 2.32931C30.0045 2.03271 30.4945 1.75171 30.9997 1.48633C33.6025 5.79492 33.725 12.6637 31.015 17.2845C30.4945 17.0035 29.9892 16.7225 29.4534 16.4259C31.7193 11.727 31.7346 7.04378 29.4534 2.32931Z" fill="white"/>
<path d="M1.98654 1.47083C2.49179 1.75182 3.01234 2.03282 3.54821 2.32942C1.26695 7.02828 1.26695 11.7115 3.54821 16.426C3.01234 16.7226 2.5071 17.0036 1.98654 17.2846C-0.646849 12.7887 -0.67747 6.01358 1.98654 1.47083Z" fill="white"/>
<path d="M4.63528 4.31189C5.23238 4.57727 5.76825 4.79583 6.33473 5.0456C5.23238 7.9336 5.20176 10.7904 6.35004 13.694C5.76825 13.9438 5.24769 14.1779 4.65059 14.4277C3.31858 11.0402 3.31858 7.71505 4.63528 4.31189Z" fill="white"/>
<path d="M26.6516 5.06122C27.2487 4.81145 27.7846 4.57729 28.3664 4.32751C29.6831 7.71506 29.6831 11.0402 28.3664 14.4277C27.7846 14.1779 27.2487 13.9438 26.6669 13.694C27.754 10.8216 27.7693 7.96484 26.6516 5.06122Z" fill="white"/>
<path d="M16.4856 22.4673C18.0013 22.4517 19.2414 23.685 19.2414 25.2148C19.2567 26.8071 18.0625 28.0716 16.5315 28.0716C15.0004 28.0872 13.7603 26.854 13.745 25.2929C13.745 23.7162 14.9545 22.4673 16.4856 22.4673ZM16.5009 26.1983C16.9755 26.1983 17.4042 25.7456 17.4042 25.2616C17.4042 24.7777 16.9602 24.325 16.4856 24.3406C16.0109 24.3406 15.5669 24.7933 15.5822 25.2773C15.5822 25.7612 16.0262 26.1983 16.5009 26.1983Z" fill="white"/>
<path d="M19.2414 32.7236C19.2414 34.3003 18.0472 35.5492 16.5162 35.5648C14.9698 35.5648 13.745 34.3315 13.745 32.7704C13.745 31.2093 14.9545 29.9605 16.5009 29.9605C18.0166 29.9449 19.2414 31.1781 19.2414 32.7236ZM16.4856 33.6759C16.9602 33.6915 17.4042 33.2544 17.4195 32.7704C17.4348 32.2865 17.0061 31.8338 16.5315 31.8182C16.0569 31.8026 15.6129 32.2397 15.5976 32.7236C15.5669 33.2075 16.0109 33.6602 16.4856 33.6759Z" fill="white"/>
</svg>
