<svg width="34" height="53" viewBox="0 0 34 53" fill="none" xmlns="http://www.w3.org/2000/svg">
<path d="M0 48.6424C0 38.51 0 28.3669 0 18.2346C0.0106545 18.2239 0.0319634 18.2132 0.0426178 18.2026C0.948246 15.2193 2.20547 14.1752 5.24199 13.8769C6.12631 13.7916 6.76558 13.0885 6.75492 12.1828C6.21154 12.1828 5.65751 12.1935 5.11414 12.1828C3.65448 12.1615 2.56772 11.0748 2.55707 9.61511C2.54641 7.36702 2.54641 5.11893 2.55707 2.86018C2.55707 1.36856 3.65448 0.271152 5.1461 0.260498C13.041 0.260498 20.936 0.260498 28.8309 0.260498C30.3439 0.260498 31.4306 1.35791 31.4413 2.88149C31.4519 5.09762 31.4519 7.31374 31.4413 9.52987C31.4306 11.0854 30.3439 12.1509 28.7883 12.1722C28.2663 12.1722 27.7442 12.1722 27.2115 12.1722C27.286 13.2483 27.936 13.8343 29.0014 13.8769C31.8035 13.9834 33.977 16.1463 33.9877 18.9271C34.009 28.6013 33.9984 38.2756 33.9877 47.9498C33.9877 50.1659 32.5493 52.0624 30.4504 52.755C30.1521 52.8509 29.8431 52.9148 29.5341 53C21.1384 53 12.7534 53 4.35767 53C4.22982 52.9574 4.10196 52.9041 3.97411 52.8722C2.14154 52.3927 0.905628 51.2634 0.266361 49.4841C0.159817 49.2177 0.0852356 48.93 0 48.6424ZM1.70471 33.4278C1.70471 38.1584 1.70471 42.889 1.70471 47.6195C1.70471 49.8889 3.1111 51.306 5.36984 51.306C13.1156 51.306 20.8721 51.306 28.6179 51.306C30.8766 51.306 32.283 49.8889 32.283 47.6195C32.283 38.1797 32.283 28.7398 32.283 19.2893C32.283 16.9773 30.8872 15.5816 28.5859 15.5816C20.8508 15.5816 13.1156 15.5816 5.39115 15.5816C3.08979 15.5709 1.70471 16.9773 1.70471 19.2893C1.69406 23.9986 1.70471 28.7079 1.70471 33.4278ZM8.11869 13.8449C14.0426 13.8449 19.9558 13.8449 25.8584 13.8449C25.7092 13.2802 25.56 12.7475 25.4109 12.2041C19.7853 12.2041 14.1491 12.2041 8.56618 12.2041C8.41702 12.7688 8.26785 13.2909 8.11869 13.8449ZM7.68186 1.98652C7.68186 4.83126 7.68186 7.63338 7.68186 10.4248C8.2572 10.4248 8.78992 10.4248 9.32264 10.4248C9.32264 7.59076 9.32264 4.79929 9.32264 1.98652C8.76861 1.98652 8.24654 1.98652 7.68186 1.98652ZM12.7214 2.00783C12.1354 2.00783 11.592 2.00783 11.07 2.00783C11.07 4.84191 11.07 7.63338 11.07 10.4355C11.6347 10.4355 12.1674 10.4355 12.7214 10.4355C12.7214 7.61207 12.7214 4.8206 12.7214 2.00783ZM14.4794 1.98652C14.4794 4.83126 14.4794 7.64403 14.4794 10.4462C15.0441 10.4462 15.5662 10.4462 16.1095 10.4462C16.1095 7.62272 16.1095 4.80995 16.1095 1.98652C15.5662 1.98652 15.0441 1.98652 14.4794 1.98652ZM19.5083 10.4462C19.5083 7.60141 19.5083 4.79929 19.5083 2.00783C18.933 2.00783 18.4002 2.00783 17.8675 2.00783C17.8675 4.84191 17.8675 7.63338 17.8675 10.4462C18.4215 10.4462 18.9436 10.4462 19.5083 10.4462ZM22.9071 10.4462C22.9071 7.60141 22.9071 4.79929 22.9071 2.00783C22.3317 2.00783 21.799 2.00783 21.2663 2.00783C21.2663 4.84191 21.2663 7.63338 21.2663 10.4462C21.8203 10.4462 22.3424 10.4462 22.9071 10.4462ZM24.6757 1.98652C24.6757 4.83126 24.6757 7.63338 24.6757 10.4248C25.251 10.4248 25.7838 10.4248 26.3165 10.4248C26.3165 7.59076 26.3165 4.79929 26.3165 1.98652C25.7625 1.98652 25.2404 1.98652 24.6757 1.98652ZM5.91322 10.4675C5.91322 7.60141 5.91322 4.79929 5.91322 1.96521C5.6362 1.96521 5.39115 1.95456 5.1461 1.96521C4.58141 1.98652 4.26178 2.30615 4.25113 2.87084C4.24047 5.09762 4.24047 7.3244 4.25113 9.56183C4.25113 10.1265 4.58141 10.4462 5.13545 10.4675C5.3805 10.4781 5.6362 10.4675 5.91322 10.4675ZM28.0745 1.96521C28.0745 4.83126 28.0745 7.63338 28.0745 10.4675C28.3728 10.4675 28.6392 10.4781 28.8949 10.4675C29.3956 10.4355 29.7259 10.1159 29.7259 9.61511C29.7366 7.35636 29.7366 5.08696 29.7259 2.82822C29.7259 2.31681 29.3956 2.00783 28.8949 1.97586C28.6392 1.95456 28.3728 1.96521 28.0745 1.96521Z" fill="white"/>
<path d="M16.9939 49.6012C13.6803 49.6012 10.3774 49.6012 7.06391 49.6012C4.80516 49.6012 3.39878 48.1841 3.38812 45.9147C3.38812 39.2876 3.38812 32.6606 3.38812 26.0442C3.38812 23.8067 4.80516 22.379 7.02129 22.379C13.659 22.379 20.2967 22.379 26.9238 22.379C29.1506 22.379 30.5676 23.7961 30.5676 26.0335C30.5676 32.6712 30.5676 39.3196 30.5676 45.9573C30.5676 48.1628 29.1399 49.5905 26.9558 49.5905C23.6529 49.6012 20.3287 49.6012 16.9939 49.6012ZM28.8949 36.038C28.8949 32.6925 28.8949 29.3364 28.8949 25.9909C28.8949 24.755 28.213 24.0731 26.9984 24.0731C20.3394 24.0731 13.691 24.0731 7.03194 24.0731C5.76407 24.0731 5.10349 24.7337 5.10349 26.0122C5.10349 32.6606 5.10349 39.2983 5.10349 45.9467C5.10349 47.2146 5.77472 47.8858 7.03194 47.8858C13.6697 47.8858 20.3074 47.8858 26.9451 47.8858C28.245 47.8858 28.8949 47.2252 28.8949 45.9147C28.8949 42.6331 28.8949 39.3409 28.8949 36.038Z" fill="white"/>
<path d="M17.0045 31.1372C17.729 30.5086 18.5387 30.1037 19.4976 30.0504C22.0867 29.9013 24.0791 32.0961 23.7701 34.749C23.4824 37.1356 22.3211 38.9682 20.2648 40.2041C19.3911 40.7368 18.4855 41.2163 17.6012 41.7383C17.1856 41.9834 16.8234 41.9727 16.4079 41.7383C15.5235 41.2163 14.6179 40.7368 13.7442 40.2041C11.5068 38.8403 10.3029 36.8373 10.2283 34.2163C10.175 32.5223 10.9528 31.2331 12.4764 30.4766C13.9999 29.7201 15.4596 29.9119 16.8021 30.9667C16.8447 31.02 16.9086 31.0732 17.0045 31.1372ZM11.901 34.4507C12.0076 36.1021 12.796 37.5938 14.3835 38.6166C15.14 39.1067 15.9391 39.5329 16.7275 39.9591C16.866 40.0336 17.111 40.0443 17.2496 39.9697C18.0913 39.5116 18.933 39.0747 19.7214 38.542C21.245 37.5085 22.0227 36.0382 22.0867 34.195C22.1186 33.0869 21.4474 32.1707 20.4352 31.8617C19.4124 31.5527 18.4748 31.9149 17.8249 32.8632C17.3454 33.5877 16.6529 33.5877 16.1735 32.8738C15.5129 31.8936 14.554 31.5314 13.5205 31.8617C12.519 32.1813 11.8797 33.1082 11.901 34.4507Z" fill="white"/>
</svg>
