<svg width="53" height="54" viewBox="0 0 53 54" fill="none" xmlns="http://www.w3.org/2000/svg">
<path d="M0.620941 0.546814C1.16616 -0.0965431 1.43877 -0.140161 2.20207 0.252396C5.09173 1.73539 7.93777 3.28381 10.4022 5.44287C15.2764 9.72829 18.4932 14.9951 19.9871 21.3087C20.2052 22.2029 20.5977 22.9444 21.4919 23.2933C21.6773 23.3696 21.9172 23.3805 22.1134 23.326C25.1994 22.3992 28.2853 22.4101 31.3712 23.3042C31.6766 23.3915 32.1127 23.2279 32.4181 23.0643C33.0178 22.7263 33.3013 22.1374 33.4649 21.4723C35.7003 12.2581 41.0979 5.53011 49.5052 1.19017C50.1595 0.852136 50.8137 0.481388 51.4789 0.154257C52.2531 -0.2383 52.8637 0.143353 52.8746 1.0157C52.8746 3.17477 52.9619 5.33383 52.8528 7.49289C52.493 14.6571 49.5815 20.6217 44.173 25.3324C43.1916 26.183 42.0684 26.859 41.0216 27.6551C40.6836 27.9168 40.3455 28.2112 40.1165 28.571C39.7894 29.0726 39.7567 29.5851 40.1274 30.174C41.665 32.6384 42.5155 35.3535 42.4065 38.265C42.3301 40.2387 42.799 42.0924 43.1916 43.9898C43.5623 45.7454 43.137 47.3701 42.1011 48.8313C40.1165 51.6338 37.4995 53.4548 34.021 53.9019C33.9556 53.9128 33.8901 53.9564 33.8247 53.9891C33.0614 53.9891 32.2981 53.9891 31.5348 53.9891C30.0845 53.7056 28.7542 53.1604 27.4784 52.408C26.9332 52.0808 26.2898 52.2117 25.7119 52.5388C25.1776 52.8441 24.6433 53.1604 24.0762 53.3784C23.3565 53.6402 22.5932 53.7928 21.8408 54C21.1102 54 20.3906 54 19.66 54C19.4201 53.9455 19.1802 53.8801 18.9294 53.8364C15.6035 53.2258 13.1064 51.372 11.2418 48.6132C10.304 47.2175 9.96598 45.6582 10.2931 44.0007C10.653 42.2124 11.1764 40.4786 11.0891 38.603C10.9365 35.4735 11.8306 32.5947 13.4881 29.945C13.608 29.7596 13.6407 29.4652 13.6189 29.2362C13.499 28.3857 12.8993 27.9168 12.2232 27.4806C6.19307 23.5659 2.45287 18.1028 1.05712 11.0586C0.871741 10.1427 0.762698 9.20488 0.620941 8.27801C0.620941 5.70458 0.620941 3.12024 0.620941 0.546814ZM24.9595 24.5364C24.7087 24.5691 24.4797 24.58 24.2507 24.6236C17.49 25.9322 12.7902 31.6024 12.8229 38.5049C12.8338 40.2387 12.6921 41.9289 12.1796 43.5863C11.6998 45.1348 11.9288 46.5959 12.9211 47.9045C13.3463 48.4715 13.7934 49.0167 14.295 49.5183C17.152 52.3862 21.3065 53.0404 24.6105 51.1321C26.0717 50.2816 27.4566 50.2925 28.9069 51.154C30.6079 52.1572 32.4508 52.4734 34.4027 52.0808C37.0415 51.5356 39.037 50.0526 40.5854 47.8827C41.4578 46.6614 41.774 45.3201 41.3487 43.8698C40.8253 42.0488 40.629 40.206 40.6399 38.2977C40.6618 34.8519 39.495 31.7987 37.2269 29.1926C34.9261 26.5537 32.0146 25.0053 28.5143 24.5146C28.2526 25.4742 27.7401 26.1175 26.7042 26.1066C25.701 26.0957 25.1994 25.4633 24.9595 24.5364ZM38.4155 27.884C39.1242 26.7936 39.2769 26.6628 40.3673 25.9649C44.173 23.5332 47.0081 20.2619 48.9709 16.1837C51.0536 11.8219 51.2717 7.18757 51.0972 2.48779C51.0972 2.46598 51.0536 2.44417 50.9991 2.40056C50.4975 2.66226 49.985 2.92396 49.4725 3.19657C42.2974 7.13305 37.5758 13.0214 35.4059 20.9271C35.0678 22.1484 34.8497 23.4024 33.7157 24.2856C35.5476 25.2234 37.0742 26.4011 38.4155 27.884ZM19.66 24.3401C19.3219 23.8712 18.9512 23.4678 18.7113 22.988C18.4714 22.4973 18.3405 21.9303 18.1988 21.396C16.0288 13.0977 11.1218 6.96948 3.55421 2.96758C3.18347 2.7713 2.80181 2.57503 2.42016 2.37875C2.35473 2.40056 2.28931 2.42236 2.22388 2.45508C2.37654 4.97399 2.32202 7.52561 2.69277 10.0227C3.73959 16.8815 7.31622 22.1811 13.1173 25.9649C13.8916 26.4665 14.5894 27.0117 15.0365 27.9059C16.3886 26.412 17.9262 25.2343 19.66 24.3401Z" fill="white"/>
<path d="M13.7171 43.6517C13.5208 41.3073 15.1892 39.5735 17.0647 39.2464C18.286 39.0283 19.3983 39.3118 20.3905 40.0642C22.1352 41.3945 23.5092 43.0302 24.5233 44.9712C25.7337 47.272 24.5233 49.8454 21.9608 50.3688C18.1333 51.1539 14.3168 48.526 13.728 44.6768C13.6735 44.3496 13.7171 44.0007 13.7171 43.6517ZM15.4182 43.6954C15.3745 47.6646 19.5836 49.322 21.8735 48.5696C23.0512 48.1771 23.5855 47.0321 23.0294 45.9308C22.1243 44.1206 20.8594 42.6049 19.2238 41.3945C18.7004 41.002 18.0897 40.8275 17.4355 40.9584C16.1051 41.231 15.4073 42.1797 15.4182 43.6954Z" fill="white"/>
<path d="M39.7894 43.6953C39.9203 48.5369 34.9261 51.3502 31.1532 50.2707C28.885 49.6273 27.8273 47.2284 28.8741 45.1238C29.8992 43.0847 31.3276 41.3618 33.1705 40.0097C34.5008 39.0283 35.9838 38.8647 37.4777 39.6062C38.9825 40.3586 39.7567 41.6235 39.7894 43.3137C39.8003 43.4445 39.7894 43.5754 39.7894 43.6953ZM38.0556 43.739C38.1101 42.6158 37.7394 41.6889 36.6926 41.1764C35.6348 40.653 34.708 40.9911 33.8465 41.7108C32.4617 42.8557 31.3385 44.2188 30.5098 45.8108C29.8664 47.0539 30.4335 48.297 31.7747 48.635C34.2391 49.2348 38.0774 47.5119 38.0556 43.739Z" fill="white"/>
<path d="M26.726 27.8622C27.7183 27.8622 28.4816 28.6255 28.4816 29.6178C28.4816 30.5774 27.7183 31.3407 26.7587 31.3407C25.7773 31.3407 25.0031 30.5774 25.0031 29.5851C25.0031 28.6255 25.7555 27.8731 26.726 27.8622Z" fill="white"/>
<path d="M28.4707 34.7974C28.4816 35.7897 27.7183 36.5639 26.726 36.5639C25.7664 36.5639 24.9922 35.8115 24.9922 34.852C24.9813 33.8597 25.7446 33.0854 26.726 33.0854C27.6964 33.0854 28.4707 33.8488 28.4707 34.7974Z" fill="white"/>
<path d="M28.4707 40.0752C28.4598 41.0566 27.6747 41.809 26.6824 41.7872C25.7337 41.7654 24.9922 40.9912 24.9922 40.0207C25.0031 39.0393 25.7773 38.2869 26.7805 38.3087C27.7401 38.3305 28.4816 39.1047 28.4707 40.0752Z" fill="white"/>
</svg>
