<svg width="28" height="61" viewBox="0 0 28 61" fill="none" xmlns="http://www.w3.org/2000/svg">
<path d="M6.51529 0C3.20648 0.84507 -0.00868225 4.50704 0.00692558 9.15493C0.00692558 10.9077 -0.00868225 12.6761 0.00692558 14.4288C0.0225334 16.338 0.896557 17.7152 2.66021 18.4664C3.0348 18.6228 3.01919 18.8576 3.01919 19.1549C3.09723 24.3505 6.57772 28.6541 11.619 29.8279C11.9935 29.9218 12.3837 29.9687 12.7895 30.0469C12.7895 31.9092 12.7895 33.7872 12.7895 35.7121C12.6647 35.759 12.493 35.8059 12.3369 35.8685C10.4328 36.5415 9.2154 37.856 8.73156 39.8279C8.65352 40.1565 8.52866 40.313 8.1853 40.3912C3.78396 41.4398 0.896557 47.3396 4.95453 51.5493C7.42053 54.1002 9.87092 56.6823 12.3213 59.2332C13.3514 60.2973 14.6312 60.2817 15.6457 59.2175C18.0961 56.6823 20.5153 54.1158 22.9813 51.5806C27.0549 47.4022 24.2143 41.4554 19.7661 40.3756C19.5788 40.3286 19.3291 40.1565 19.2823 40C18.7672 37.7934 17.4094 36.4163 15.2711 35.7747C15.2399 35.759 15.2087 35.7434 15.1619 35.7121C15.1619 33.8498 15.1619 31.9718 15.1619 30.0626C16.9724 29.8279 18.658 29.2488 20.1407 28.2003C23.2154 26.025 24.8074 23.0516 24.9322 19.2801C24.9478 18.8419 25.0415 18.6072 25.4785 18.4194C27.0549 17.6682 27.9289 16.4163 27.9601 14.7105C28.0069 12.4413 28.0225 10.1721 27.8821 7.91862C27.648 4.42879 24.9791 1.14241 21.6702 0.0782473C21.639 0.0625978 21.6078 0.0312989 21.5922 0C21.124 0 20.6558 0 20.1875 0C20.1251 0.0312989 20.0627 0.0782473 19.9846 0.0938967C18.1429 0.547731 17.0504 1.72144 16.707 3.58372C16.4105 5.22692 17.2377 6.90141 18.7828 7.82473C19.3603 8.16901 19.6257 8.6385 19.61 9.31142C19.5944 11.0642 19.5632 12.8169 19.61 14.5853C19.6569 16.3693 20.4841 17.6839 22.1229 18.4038C22.5443 18.5915 22.6379 18.8106 22.6223 19.2332C22.5287 24.4914 17.7684 28.482 12.571 27.6369C8.43502 26.964 5.32911 23.302 5.32911 19.108C5.32911 18.8263 5.32911 18.6228 5.67248 18.482C7.46735 17.7152 8.35698 16.3067 8.35698 14.3505C8.35698 12.7387 8.3882 11.1111 8.34137 9.49922C8.32577 8.68545 8.62231 8.16901 9.32465 7.73083C10.823 6.79186 11.4785 5.38341 11.26 3.64632C11.0415 1.94053 10.027 0.782473 8.3882 0.219092C8.1853 0.156495 7.9824 0.0782473 7.79511 0.0156495C7.3581 0 6.93669 0 6.51529 0ZM14.0069 57.543C13.8977 57.4648 13.8352 57.4178 13.7884 57.3709C11.3849 54.867 8.96568 52.3787 6.59332 49.8435C4.67359 47.7934 5.01696 44.9296 7.31127 43.302C8.85642 42.2066 10.5576 42.3005 11.9467 43.5837C12.3213 43.928 12.6491 44.3036 13.008 44.6635C13.6636 45.3052 14.2723 45.3052 14.9278 44.6479C15.318 44.2566 15.6769 43.8498 16.0827 43.4898C16.8475 42.8169 17.7371 42.4257 18.7672 42.5665C20.4997 42.8169 21.6546 43.8654 22.3102 45.446C22.9345 46.9797 22.6379 48.4351 21.5298 49.6244C19.0794 52.2848 16.551 54.8826 14.0069 57.543ZM25.7282 11.5806C25.697 11.5806 25.6658 11.5806 25.6346 11.5806C25.6346 12.5039 25.6346 13.4116 25.6346 14.3349C25.619 15.5869 24.8698 16.4163 23.7617 16.4163C22.6847 16.4006 21.9356 15.5712 21.9356 14.3505C21.9356 12.723 21.9044 11.1111 21.9356 9.48357C21.998 7.85603 21.3737 6.63537 19.9534 5.7903C19.017 5.22692 18.736 4.1471 19.2511 3.25509C19.7661 2.34742 20.8587 2.08138 21.8419 2.62911C23.7461 3.70892 25.0259 5.28952 25.4161 7.43349C25.6658 8.79499 25.6346 10.2034 25.7282 11.5806ZM2.33246 11.6432C2.33246 10.7825 2.31685 9.92175 2.33246 9.06103C2.4261 6.27543 3.62789 4.13146 6.03145 2.69171C7.06155 2.06573 8.1853 2.33177 8.71596 3.27074C9.24661 4.19405 8.93446 5.24257 7.91997 5.86854C6.64015 6.63537 6.01584 7.76213 6.01584 9.26448C6.03145 10.9703 6.01584 12.6604 6.01584 14.3662C6.01584 15.5869 5.26668 16.4163 4.18976 16.4319C3.08162 16.4476 2.33246 15.6182 2.31685 14.3505C2.33246 13.4429 2.33246 12.5352 2.33246 11.6432ZM13.9913 42.0814C13.0549 41.4867 12.0872 40.8764 11.0727 40.2347C11.26 38.9202 12.6178 37.8873 14.2098 37.9499C15.5677 38.0125 16.8475 39.1393 16.9099 40.2347C15.8954 40.8764 14.9278 41.4867 13.9913 42.0814Z" fill="white"/>
</svg>
