<svg width="64" height="64" viewBox="0 0 64 64" fill="none" xmlns="http://www.w3.org/2000/svg">
<path d="M39.4017 54.004C39.5559 54.6978 39.7872 55.4688 39.9414 56.1627C40.0956 56.8566 39.7872 57.3963 39.0162 57.3963C34.0048 57.3963 28.9163 57.3963 23.9049 57.3963C23.1339 57.3963 22.8255 56.9337 22.9797 56.1627C23.1339 55.3917 23.2881 54.6978 23.5194 54.004C21.8232 53.3101 21.5148 51.691 21.2064 50.149C20.7438 47.8361 21.1293 45.6002 21.669 43.2872C23.211 36.8109 24.4445 30.2575 25.2155 23.627C25.2155 23.5499 25.2155 23.4728 25.2155 23.3957C25.3697 22.6247 25.3697 22.085 24.5216 21.6225C23.6736 21.1599 23.5965 20.1576 23.7507 19.2324C23.8278 18.3072 24.1361 17.4591 24.7529 16.6881C25.8323 15.2233 26.6804 13.6042 27.2201 11.8309C27.6056 10.5202 28.1453 9.20954 29.0705 8.13016C30.3812 6.51109 32.0002 5.663 34.159 6.12559C35.3155 6.35689 36.1636 7.05078 36.8575 7.97596C37.9368 9.51794 38.5536 11.2912 38.7078 13.1416C38.9391 15.0691 39.0933 17.0736 39.1704 19.0011C39.2475 20.1576 38.862 21.237 37.7826 21.9309C37.7055 22.0079 37.6284 22.1621 37.6284 22.3163C38.0139 26.9423 36.9346 31.3369 35.9323 35.8086C35.3155 38.3529 34.7758 40.8972 34.0819 43.5956C34.4674 43.5956 34.7758 43.5956 35.0071 43.5956C37.243 43.6727 39.3246 44.2124 41.0979 45.7544C43.0254 47.4506 43.488 49.8406 42.4857 52.0765C41.8689 53.3872 41.0208 53.9269 39.7101 53.9269C39.633 53.9269 39.5559 53.9269 39.4788 53.9269C39.4788 53.9269 39.4788 54.004 39.4017 54.004ZM35.0071 31.7995C33.9277 32.3392 33.0796 32.8018 32.1544 33.2644C32.0002 33.3415 31.846 33.5728 31.846 33.727C31.6147 34.498 31.4605 35.2689 31.3063 36.0399C30.8437 36.0399 30.3041 36.0399 29.6873 36.0399C29.7644 35.2689 29.8415 34.498 29.9186 33.727C29.3789 33.8812 28.9163 34.1125 28.3766 34.2667C28.1453 33.8041 27.914 33.3415 27.6056 32.6476C28.6079 32.4163 29.456 32.1079 30.3812 31.8766C30.7666 31.7995 31.1521 31.7995 31.5376 31.6453C32.7712 31.1056 33.9277 30.4888 35.0842 29.872C35.2384 29.7949 35.3926 29.6407 35.4697 29.4865C35.6239 28.0217 35.7781 26.5568 36.0094 25.0148C35.0071 25.5545 34.0819 26.0171 33.1567 26.4797C32.1544 26.8652 31.1521 27.1736 30.0728 27.5591C29.9186 27.0194 29.6873 26.4797 29.5331 25.94C30.3041 25.7087 30.9208 25.4774 31.6147 25.2461C33.0796 24.7835 34.3903 24.0896 35.5468 23.0873C35.701 22.9331 35.7781 22.7018 35.9323 22.4705C32.9254 22.4705 29.9957 22.4705 27.2972 22.4705C26.4491 27.1736 25.601 31.8766 24.83 36.6567C24.83 36.8109 24.83 37.1193 24.9842 37.1964C25.601 37.7361 26.2178 38.2758 26.8346 38.7384C27.9911 39.5094 28.9163 40.3575 29.6102 41.591C29.0705 41.8223 28.6079 42.1307 28.0682 42.362C27.2972 40.6659 25.601 40.2033 24.3674 39.1239C23.8278 41.2827 23.3652 43.4414 22.9026 45.6002C22.44 47.6048 22.6713 49.6093 23.3652 51.6139C23.5194 52.0765 23.7507 52.3078 24.3674 52.3078C26.6033 52.2307 28.7621 52.3078 30.9979 52.3078C33.9277 52.3078 36.8575 52.3078 39.7101 52.3078C40.1727 52.3078 40.5582 52.1536 40.7895 51.691C41.175 50.92 41.3292 50.149 41.175 49.3009C40.8666 47.759 39.7101 46.9109 38.4765 46.217C36.8575 45.446 35.1613 45.446 33.4651 45.446C33.3109 45.446 33.1567 45.5231 33.0796 45.6002C32.3857 45.9857 31.6147 46.2941 30.9208 46.6796C30.6895 46.8338 30.5354 47.0651 30.4583 47.2964C30.227 48.1445 29.9957 48.9925 29.7644 49.9177C29.2247 49.7635 28.685 49.6093 28.1453 49.5322C28.2995 48.7612 28.5308 47.9903 28.685 47.1422C27.914 47.1422 27.143 47.1422 26.4491 47.1422C26.4491 46.5254 26.4491 45.9857 26.4491 45.446C27.4514 45.446 28.3766 45.446 29.3018 45.446C29.456 45.446 29.6873 45.446 29.8415 45.3689C30.6125 44.9834 31.3834 44.5979 32.1544 44.2124C32.3086 44.1353 32.4628 43.9811 32.4628 43.7498C33.0796 40.8972 33.7735 37.9674 34.3903 35.1147C34.5445 34.0354 34.7758 32.956 35.0071 31.7995ZM31.3063 20.6202C32.9254 20.6202 34.5445 20.6202 36.2407 20.6202C36.7804 20.6202 37.0888 20.3889 37.243 19.8492C37.32 19.5408 37.3971 19.2324 37.3971 18.924C37.243 16.9194 37.0888 14.8378 36.8575 12.8332C36.7033 11.5225 36.2407 10.2118 35.4697 9.13245C34.3903 7.51337 32.5399 7.28207 31.075 8.51566C30.6125 8.90115 30.1499 9.44084 29.9186 9.90343C29.456 10.6744 29.1476 11.5996 28.8392 12.4477C28.1453 14.4523 27.2972 16.1484 26.1407 17.6904C25.7552 18.153 25.601 18.7698 25.4468 19.3866C25.2926 20.3118 25.601 20.6202 26.5262 20.6202C28.1453 20.6202 29.7644 20.6202 31.3063 20.6202ZM24.83 55.623C29.2247 55.623 33.6193 55.623 38.0139 55.623C37.8597 55.0062 37.7055 54.4666 37.6284 54.004C33.4651 54.004 29.3789 54.004 25.2926 54.004C25.1384 54.5437 24.9842 55.0833 24.83 55.623Z" fill="white"/>
<path d="M35.7011 48.7617C35.1614 48.7617 34.6217 48.7617 34.082 48.7617C34.082 48.222 34.082 47.6823 34.082 47.1426C34.6217 47.1426 35.1614 47.1426 35.7011 47.1426C35.7011 47.6823 35.7011 48.222 35.7011 48.7617Z" fill="white"/>
<path d="M39.0937 50.5341C38.554 50.5341 38.0143 50.5341 37.4746 50.5341C37.4746 49.9944 37.4746 49.4547 37.4746 48.8379C38.0143 48.8379 38.554 48.8379 39.0937 48.8379C39.0937 49.3776 39.0937 49.9173 39.0937 50.5341Z" fill="white"/>
<path d="M32.8488 9.67188C33.003 10.1345 33.1572 10.52 33.3114 10.9826C33.3114 11.0597 33.3114 11.291 33.2343 11.368C31.9236 12.2932 31.6152 13.6039 31.461 15.1459C31.461 15.3001 31.461 15.4543 31.461 15.6085C30.9214 15.6085 30.3817 15.6085 29.842 15.6085C29.5336 12.9871 30.9985 10.1345 32.8488 9.67188Z" fill="white"/>
</svg>
