<svg width="64" height="64" viewBox="0 0 64 64" fill="none" xmlns="http://www.w3.org/2000/svg">
<path d="M47.2111 23.3206C44.203 18.0884 39.8699 14.9851 34.0506 13.8485C34.1402 14.5521 34.2297 15.1475 34.3013 15.761C34.9101 21.6788 30.8814 27.3259 24.7577 28.5708C18.0432 29.924 11.3108 24.782 10.8273 17.8719C10.3081 10.619 15.805 4.75528 23.0209 5.00787C27.3003 5.17024 30.5591 7.26313 32.7615 10.9618C32.9942 11.3587 33.227 11.5571 33.7104 11.6474C40.9084 12.766 46.1726 16.5909 49.503 23.1221C49.6463 23.3928 49.9685 23.6634 50.255 23.7356C55.6267 25.2331 59.2077 30.1766 58.9571 35.8057C58.7064 41.3627 54.6777 45.9815 49.1986 46.9197C48.0706 47.1181 46.8888 46.9738 45.7429 47.0279C45.4027 47.046 44.9908 47.1362 44.7402 47.3527C40.228 51.2317 35.0354 52.9457 29.1267 52.4045C28.6074 52.3503 28.303 52.4586 28.0165 52.9638C25.5635 57.348 20.6932 59.6754 15.8408 58.8455C10.899 57.9975 7.01348 54.1004 6.17193 49.1208C5.06179 42.6798 9.44862 36.4733 15.8408 35.4088C22.2868 34.3263 28.4642 38.7827 29.449 45.2417C29.6996 46.8836 29.628 48.5074 29.1983 50.2214C34.2118 50.7085 38.6344 49.3914 42.6631 46.2521C39.5476 44.8087 37.3452 42.5715 36.1456 39.3961C35.2503 37.0145 35.1429 34.5789 35.8054 32.1251C37.1483 27.1275 41.5888 23.4108 47.2111 23.3206ZM32.1527 16.8435C32.1706 11.485 27.8733 7.17292 22.5375 7.15488C17.2554 7.13683 12.8865 11.5391 12.9044 16.8615C12.9223 22.202 17.2375 26.5501 22.5196 26.5862C27.8017 26.6223 32.1348 22.2381 32.1527 16.8435ZM37.6138 35.2645C37.6138 40.5869 41.9648 44.9711 47.2469 44.9531C52.4932 44.935 56.7726 40.5688 56.8084 35.2284C56.8442 30.5194 53.1557 25.5398 47.1216 25.5037C41.9111 25.5037 37.6138 29.942 37.6138 35.2645ZM17.8463 37.3934C12.5104 37.3934 8.15943 41.7235 8.14152 47.0279C8.12362 52.4225 12.4209 56.8248 17.7388 56.8248C23.1104 56.8428 27.4435 52.4766 27.4256 47.046C27.4435 41.7777 23.1104 37.4115 17.8463 37.3934Z" fill="white"/>
<path d="M24.2208 47.1359C24.2029 50.7443 21.3022 53.631 17.7212 53.613C14.2296 53.5769 11.3647 50.6541 11.3647 47.1178C11.3647 43.5274 14.2833 40.6227 17.8644 40.6407C21.3739 40.6588 24.2387 43.5996 24.2208 47.1359ZM17.7749 51.4479C20.1205 51.466 22.0543 49.5535 22.0901 47.208C22.1259 44.8084 20.2279 42.8418 17.8644 42.8058C15.483 42.7697 13.5313 44.7002 13.5134 47.0817C13.4955 49.4813 15.4114 51.4299 17.7749 51.4479Z" fill="white"/>
</svg>
