<svg width="64" height="64" viewBox="0 0 64 64" fill="none" xmlns="http://www.w3.org/2000/svg">
<path d="M29.1378 1.06641C29.6309 1.20886 30.0535 1.28008 30.5466 1.42254C33.7868 2.34848 35.8999 4.55649 37.52 7.33431C39.3514 10.6107 39.774 14.0296 39.1401 17.7333C38.8583 19.5852 38.2948 21.4371 38.5766 23.3602C38.7879 24.7135 39.1401 26.0668 39.4218 27.4201C39.9853 30.2692 39.9149 33.1182 39.1401 35.9673C38.9288 36.6795 38.7879 37.3206 38.647 38.0328C38.5061 38.7451 38.0835 39.03 37.52 38.8875C36.9565 38.7451 36.7452 38.3177 36.886 37.6767C37.1678 36.5371 37.4495 35.4687 37.7313 34.3291C38.2948 31.8361 38.1539 29.272 37.4495 26.7791C36.6043 23.93 36.6043 21.1522 37.2382 18.2319C37.8017 15.4541 37.8722 12.6763 36.8156 9.96969C35.8999 7.61922 34.5616 5.62489 32.5189 4.20036C30.8988 3.06074 28.9969 2.56216 27.0247 2.91829C25.8272 3.20319 25.2637 3.773 25.4046 4.91262C25.5455 6.05224 25.8272 7.26309 26.1794 8.40271C26.6725 10.0409 27.3064 11.6079 27.7995 13.2461C28.2221 14.5994 28.1517 15.9527 27.3064 17.1635C27.0247 17.5197 26.8838 18.0182 26.602 18.4456C26.3203 18.9442 25.8272 19.1579 25.3341 18.9442C24.9115 18.7305 24.7002 18.2319 24.982 17.7333C25.2637 17.1635 25.475 16.665 25.8272 16.1664C26.3203 15.5253 26.3907 14.8131 26.109 14.0296C25.5455 12.3914 24.9115 10.7532 24.4184 9.04374C24.1367 7.69045 23.7141 6.33715 23.6436 5.05508C23.5027 2.84706 24.6298 1.56499 26.7429 1.20886C26.8838 1.20886 26.9542 1.13763 27.0951 1.06641C27.7291 1.06641 28.4334 1.06641 29.1378 1.06641Z" fill="white"/>
<path d="M23.221 55.1992C22.0235 53.9171 21.9531 52.7775 22.8688 51.1393C21.3896 49.0737 22.587 46.4384 25.2637 46.4384C25.2637 46.2247 25.2637 45.9398 25.2637 45.7261C25.3341 43.5893 25.1932 41.3813 25.4046 39.2445C25.6159 37.5351 26.1794 35.8257 26.602 34.1162C27.3768 31.1247 27.3064 28.2757 25.7567 25.4979C25.2637 24.6431 24.9819 23.646 24.7002 22.72C24.4889 22.079 24.7002 21.5804 25.2637 21.438C25.8272 21.2955 26.1794 21.5804 26.4611 22.2927C26.7429 23.1474 27.0246 24.0733 27.4473 24.8568C29.1378 27.9908 29.2787 31.196 28.4334 34.5436C28.0812 35.8969 27.5177 37.2502 27.3768 38.6747C27.1655 40.669 27.1655 42.7346 27.0951 44.8002C27.0951 45.37 27.0951 45.9398 27.0951 46.5096C30.2648 46.5096 33.3641 46.5096 36.5338 46.5096C36.5338 45.6549 36.5338 44.8002 36.5338 44.0167C36.5338 43.5181 36.5338 43.0195 36.5338 42.5921C36.5338 41.9511 36.886 41.5238 37.3791 41.5238C37.9426 41.5238 38.2948 41.9511 38.2948 42.5921C38.2948 43.7318 38.2948 44.9426 38.2948 46.0822C38.2948 46.2247 38.2948 46.3671 38.2948 46.5808C39.4922 46.5096 40.5488 46.8657 41.1123 48.0053C41.6758 49.145 41.5349 50.2134 40.7601 51.2105C41.6758 52.5638 41.6758 53.8459 40.5488 55.1992C40.901 55.4129 41.3236 55.6266 41.6758 55.8402C42.3802 56.3388 43.155 56.7662 43.789 57.2648C44.6342 57.9058 44.9864 58.8317 44.7047 59.9001C44.5638 60.8973 43.9298 61.6096 42.8733 61.8232C40.7601 62.1794 38.647 62.6067 36.5338 62.7492C32.0258 63.1053 27.5177 62.9629 23.0096 62.1794C22.3757 62.1081 21.8122 61.9657 21.1782 61.8232C20.1921 61.5383 19.4877 60.8973 19.2764 59.9001C19.0651 58.903 19.2764 57.977 20.1217 57.336C21.1782 56.5525 22.1644 55.9115 23.221 55.1992ZM32.1666 55.8402C30.4761 55.8402 28.7856 55.8402 27.0951 55.8402C26.8838 55.8402 26.602 55.8402 26.3907 55.9115C24.841 56.7662 23.221 57.5497 21.6713 58.4756C21.3191 58.6893 20.9669 59.0454 21.1078 59.544C21.2487 60.0426 21.6009 60.1138 22.0235 60.185C24.5593 60.4699 27.0246 60.8973 29.5604 61.0397C33.7867 61.3246 38.013 61.0397 42.1689 60.185C42.5915 60.1138 42.9437 59.9714 43.0846 59.544C43.2255 59.0454 42.9437 58.7605 42.5915 58.5468C41.1123 57.336 39.4922 56.5525 37.8017 55.9115C37.5904 55.8402 37.3791 55.8402 37.1678 55.8402C35.4772 55.8402 33.7867 55.8402 32.1666 55.8402ZM31.8849 48.3615C29.6309 48.3615 27.3064 48.3615 25.0524 48.3615C24.4184 48.3615 24.1367 48.7176 24.0662 49.2874C24.0662 49.8572 24.348 50.2134 24.9819 50.2846C25.1228 50.2846 25.1932 50.2846 25.3341 50.2846C29.7013 50.2846 34.0685 50.2846 38.4357 50.2846C38.647 50.2846 38.7878 50.2846 38.9992 50.2134C39.4922 50.1421 39.774 49.6435 39.7035 49.145C39.6331 48.6464 39.2809 48.3615 38.647 48.3615C36.3929 48.3615 34.1389 48.3615 31.8849 48.3615ZM31.8849 52.0652C31.1805 52.0652 30.4761 52.0652 29.7717 52.0652C28.2221 52.0652 26.602 52.0652 25.0524 52.0652C24.348 52.0652 23.9253 52.5638 24.0662 53.2049C24.2071 53.7747 24.6297 53.9171 25.1228 53.9171C29.6309 53.9171 34.1389 53.9171 38.5765 53.9171C38.647 53.9171 38.7174 53.9171 38.7878 53.9171C39.3514 53.8459 39.774 53.3473 39.6331 52.7775C39.4922 52.1365 39.0696 52.0652 38.5061 52.0652C36.3225 52.0652 34.1389 52.0652 31.8849 52.0652Z" fill="white"/>
</svg>
