<svg width="64" height="64" viewBox="0 0 64 64" fill="none" xmlns="http://www.w3.org/2000/svg">
<path d="M19.9874 60.4427C19.7813 60.369 19.5751 60.3102 19.369 60.2365C17.7787 59.677 16.7774 58.0278 17.0424 56.408C17.3222 54.6999 18.7064 53.4483 20.3997 53.3894C20.709 53.3746 21.0182 53.3894 21.3716 53.3894C21.3716 52.8004 21.3716 52.2408 21.3716 51.6518C20.5617 51.5634 19.7813 51.2984 19.3395 50.5769C19.045 50.0909 18.8242 49.5019 18.7947 48.9424C18.7358 47.5877 19.7077 46.6453 21.3863 46.2919C21.3863 45.4525 21.3863 44.6132 21.3863 43.7297C20.5028 43.6413 19.6782 43.3321 19.2365 42.5222C18.9714 42.0363 18.78 41.4179 18.78 40.8583C18.78 39.5625 19.796 38.6348 21.3716 38.3698C21.3716 37.5157 21.3716 36.6616 21.3716 35.8076C19.634 35.4395 18.7211 34.4823 18.7505 33.054C18.78 31.6993 19.7518 30.7127 21.401 30.4329C21.401 30.0059 21.401 29.5789 21.401 29.1371C21.401 28.7101 21.401 28.2978 21.401 27.8413C20.547 27.753 19.7666 27.4879 19.3248 26.7516C19.0303 26.2657 18.8094 25.6767 18.78 25.1172C18.7211 23.7625 19.6929 22.82 21.3863 22.4666C21.4158 20.8911 21.7397 19.3891 22.4318 17.9608C23.0944 16.5619 24.0368 15.3691 25.2296 14.3826C27.5709 12.4536 28.8961 9.97976 29.1612 6.94639C29.3232 5.16465 30.3834 4.04554 31.9148 4.00137C33.3284 3.95719 34.5211 4.98795 34.7862 6.38683C35.0218 7.65319 35.2426 8.949 35.6549 10.1712C36.185 11.7615 37.2158 13.0868 38.5116 14.147C41.1032 16.2821 42.4874 18.9915 42.6052 22.3488C42.6052 22.3783 42.6199 22.4225 42.6346 22.4519C44.4017 22.8495 45.2852 23.8066 45.241 25.2497C45.1968 26.5749 44.2102 27.5468 42.5905 27.8266C42.5905 28.2389 42.5905 28.6806 42.5905 29.1077C42.5905 29.5347 42.5905 29.947 42.5905 30.4035C43.4592 30.5065 44.2544 30.7863 44.6962 31.552C44.9759 32.038 45.1968 32.6417 45.2115 33.1865C45.241 34.5412 44.2839 35.4542 42.6199 35.7781C42.6199 36.6175 42.6199 37.4568 42.6199 38.3403C43.5034 38.4287 44.328 38.7379 44.7551 39.5478C45.0201 40.0337 45.2115 40.6521 45.2115 41.2117C45.2115 42.4928 44.1955 43.4205 42.5905 43.715C42.5905 44.142 42.5905 44.5837 42.5905 45.0255C42.5905 45.4525 42.5905 45.8648 42.5905 46.2771C44.3428 46.6305 45.2557 47.6024 45.241 49.0307C45.2115 50.3854 44.2397 51.372 42.6199 51.6518C42.6199 52.2113 42.6199 52.7709 42.6199 53.4188C43.0617 53.4188 43.5034 53.3746 43.9304 53.4335C45.6238 53.6691 46.8902 55.0386 46.9933 56.6878C47.0963 58.3959 46.0067 59.8831 44.328 60.3396C44.225 60.3691 44.1219 60.4132 44.0188 60.4427C36.0083 60.4427 27.9979 60.4427 19.9874 60.4427ZM40.8235 53.3599C40.8235 52.4911 40.8087 51.6812 40.8235 50.8714C40.8382 50.1793 41.1621 49.8701 41.8395 49.8553C42.0898 49.8553 42.3549 49.8701 42.6052 49.8406C43.1058 49.7817 43.474 49.3694 43.4445 48.9129C43.4151 48.4564 43.0764 48.1178 42.5757 48.0883C42.2812 48.0736 41.9867 48.103 41.6922 48.0736C41.1621 48.0441 40.8235 47.7202 40.8087 47.2048C40.794 45.7323 40.794 44.2598 40.8087 42.802C40.8087 42.2719 41.1621 41.9627 41.6775 41.9185C41.972 41.9038 42.2665 41.9332 42.561 41.9038C43.0617 41.8596 43.4445 41.462 43.4445 41.0203C43.4445 40.5491 43.0764 40.1957 42.5463 40.1515C42.3401 40.1368 42.1487 40.1515 41.9426 40.1515C41.1032 40.1515 40.8087 39.857 40.8087 39.0324C40.8087 37.9722 40.8087 36.8972 40.8087 35.837C40.8087 34.0847 40.8087 34.0848 42.5316 33.9817C43.0617 33.9522 43.4298 33.6135 43.4445 33.1423C43.4592 32.6711 43.0617 32.2588 42.5316 32.2294C42.2518 32.2147 41.9867 32.2294 41.707 32.2147C41.1621 32.1852 40.8235 31.8613 40.8087 31.3017C40.794 29.8439 40.794 28.4009 40.8087 26.9431C40.8087 26.3982 41.1621 26.0743 41.7217 26.0448C42.0162 26.0301 42.3107 26.0596 42.6052 26.0301C43.1058 25.9859 43.474 25.5589 43.4445 25.1024C43.4151 24.646 43.0617 24.3073 42.561 24.2778C42.2812 24.2631 42.0162 24.2778 41.7364 24.2631C41.1474 24.2337 40.8235 23.9097 40.8087 23.3354C40.794 23.0409 40.8087 22.7464 40.8087 22.4519C40.7646 20.199 39.9988 18.2111 38.4822 16.5472C38.0846 16.1201 37.6281 15.752 37.1864 15.3544C34.742 13.1309 33.3578 10.3773 33.0781 7.07891C33.0044 6.23958 32.5921 5.73893 31.9737 5.75365C31.3552 5.76838 30.9871 6.21013 30.8987 7.04946C30.8546 7.52067 30.7957 8.0066 30.7073 8.46307C30.133 11.4081 28.6605 13.8083 26.3487 15.7225C25.0381 16.7975 24.0516 18.1375 23.6245 19.7719C23.33 20.8911 23.2859 22.0838 23.1681 23.2471C23.0944 23.9244 22.8294 24.2484 22.1373 24.2631C21.887 24.2631 21.6219 24.2484 21.3716 24.2778C20.8709 24.322 20.5028 24.749 20.5175 25.1908C20.547 25.6473 20.8857 25.9859 21.3863 26.0154C21.6808 26.0301 21.9753 26.0154 22.2698 26.0301C22.7999 26.0596 23.1386 26.3835 23.1533 26.8989C23.1681 28.3714 23.1681 29.8439 23.1533 31.3017C23.1533 31.8465 22.7852 32.1558 22.2257 32.1852C21.9459 32.1999 21.6661 32.1705 21.401 32.1999C20.9004 32.2441 20.5175 32.627 20.5175 33.0834C20.5175 33.5546 20.8857 33.9228 21.401 33.9522C21.6514 33.9669 21.9164 33.9522 22.1668 33.9522C22.7852 33.9669 23.1386 34.2909 23.1386 34.8946C23.1533 36.323 23.1533 37.766 23.1386 39.1944C23.1386 39.7686 22.7852 40.0926 22.1962 40.122C21.9017 40.1368 21.6072 40.1073 21.3127 40.1368C20.8415 40.1957 20.4881 40.608 20.5028 41.035C20.5175 41.4915 20.8709 41.8449 21.3569 41.8743C21.6514 41.8891 21.9459 41.8743 22.2404 41.889C22.7852 41.9185 23.1386 42.2425 23.1386 42.802C23.1533 44.2598 23.1533 45.7029 23.1386 47.1606C23.1386 47.7055 22.7852 48.0294 22.2257 48.0589C21.9312 48.0736 21.6366 48.0441 21.3421 48.0736C20.8415 48.1178 20.4734 48.5448 20.5028 49.0013C20.5323 49.4578 20.8709 49.7964 21.3716 49.8259C21.5777 49.8406 21.7692 49.8259 21.9753 49.8259C22.8441 49.8259 23.1386 50.1204 23.1386 50.9744C23.1386 51.7549 23.1386 52.5353 23.1386 53.3157C29.0875 53.3599 34.9334 53.3599 40.8235 53.3599ZM32.0031 55.1564C28.2335 55.1564 24.4639 55.1564 20.709 55.1564C19.8255 55.1564 19.1923 55.5539 18.9125 56.2607C18.4266 57.4682 19.3101 58.6757 20.6942 58.6757C25.7302 58.6757 30.7662 58.6757 35.8022 58.6757C38.3202 58.6757 40.8382 58.6757 43.3562 58.6757C44.1808 58.6757 44.7845 58.337 45.1085 57.586C45.6386 56.3933 44.7403 55.1416 43.3709 55.1416C39.5718 55.1416 35.7875 55.1564 32.0031 55.1564Z" fill="white"/>
<path d="M25.0235 21.4215C25.318 19.4631 26.2899 17.7844 27.9685 16.5181C28.3661 16.2236 28.852 16.3119 29.1465 16.6801C29.4705 17.0776 29.4263 17.5783 28.9698 17.9464C27.9244 18.7857 27.2028 19.8459 26.8641 21.1565C26.8052 21.3921 26.7758 21.6277 26.7169 21.8486C26.5844 22.3198 26.1573 22.5995 25.7303 22.5112C25.2886 22.4228 24.9941 22.04 25.0235 21.4215Z" fill="white"/>
<path d="M26.7167 26.0447C26.4222 26.0447 26.1277 26.0594 25.8332 26.0447C25.3031 26.0152 24.9497 25.6618 24.9497 25.1759C24.9497 24.69 25.3031 24.3218 25.8185 24.2924C26.4075 24.2629 26.9965 24.2777 27.5855 24.2924C28.1156 24.3071 28.469 24.6752 28.469 25.1612C28.469 25.6471 28.1156 26.0152 27.6002 26.0447C27.3057 26.0594 27.0112 26.0447 26.7167 26.0447Z" fill="white"/>
<path d="M32.0033 24.293C32.3125 24.293 32.6364 24.2783 32.9457 24.293C33.4316 24.3372 33.7703 24.7053 33.7703 25.1618C33.7703 25.6183 33.4316 26.0159 32.9457 26.0306C32.3272 26.0601 31.694 26.0601 31.0756 26.0306C30.5897 26.0012 30.251 25.6183 30.251 25.1618C30.251 24.7053 30.5897 24.3372 31.0756 24.2783C31.105 24.2783 31.1492 24.2783 31.1787 24.2783C31.4437 24.293 31.7235 24.293 32.0033 24.293Z" fill="white"/>
<path d="M37.2894 24.293C37.5986 24.293 37.9226 24.2783 38.2318 24.293C38.7177 24.3372 39.0564 24.7053 39.0564 25.1618C39.0564 25.6183 38.7177 26.0159 38.2318 26.0306C37.6133 26.0601 36.9802 26.0601 36.3617 26.0306C35.8758 26.0012 35.5371 25.6183 35.5371 25.1618C35.5371 24.7053 35.8758 24.3372 36.3617 24.2783C36.3912 24.2783 36.4353 24.2783 36.4648 24.2783C36.7446 24.293 37.0096 24.293 37.2894 24.293Z" fill="white"/>
<path d="M26.7167 32.2292C27.0112 32.2292 27.3057 32.2145 27.6002 32.2292C28.1156 32.2587 28.469 32.6415 28.469 33.1127C28.469 33.5692 28.1303 33.952 27.6296 33.9668C27.0112 33.9962 26.378 33.9962 25.7596 33.9668C25.2736 33.9373 24.935 33.5397 24.9497 33.0833C24.9497 32.6268 25.2884 32.2587 25.789 32.2292C26.0982 32.2145 26.4075 32.2292 26.7167 32.2292Z" fill="white"/>
<path d="M31.9738 33.9813C31.6793 33.9813 31.3848 33.9961 31.0903 33.9813C30.575 33.9372 30.2216 33.5543 30.2363 33.0831C30.251 32.6266 30.5897 32.2585 31.0903 32.2438C31.6941 32.2143 32.2978 32.2143 32.9015 32.2438C33.3875 32.2585 33.7409 32.6266 33.7556 33.0831C33.7703 33.5543 33.4169 33.9519 32.9015 33.9813C32.5923 33.9961 32.2831 33.9813 31.9738 33.9813Z" fill="white"/>
<path d="M37.3041 32.2296C37.5986 32.2296 37.8931 32.2148 38.1876 32.2296C38.703 32.259 39.0564 32.6419 39.0564 33.1131C39.0564 33.5696 38.7177 33.9524 38.2171 33.9671C37.5986 33.9966 36.9654 33.9966 36.347 33.9671C35.861 33.9377 35.5224 33.5401 35.5371 33.0836C35.5371 32.6271 35.8758 32.2737 36.3764 32.2148C36.4059 32.2148 36.45 32.2148 36.4795 32.2148C36.7593 32.2296 37.0243 32.2296 37.3041 32.2296Z" fill="white"/>
<path d="M26.6725 41.9189C26.378 41.9189 26.0835 41.9336 25.789 41.9189C25.3031 41.8747 24.9644 41.5213 24.9497 41.0648C24.9349 40.5789 25.2883 40.1961 25.8037 40.1666C26.4074 40.1372 27.0112 40.1372 27.6149 40.1666C28.1008 40.1813 28.4542 40.5642 28.4542 41.0207C28.469 41.5066 28.1156 41.8747 27.6002 41.9189C27.3057 41.9336 26.9817 41.9189 26.6725 41.9189Z" fill="white"/>
<path d="M32.018 40.1661C32.3125 40.1661 32.607 40.1514 32.9015 40.1661C33.4168 40.1955 33.7702 40.5784 33.7702 41.0496C33.7702 41.5061 33.4316 41.8889 32.9309 41.9037C32.3125 41.9331 31.6793 41.9331 31.0608 41.9037C30.5749 41.8742 30.2362 41.4766 30.251 41.0201C30.251 40.5637 30.5896 40.2103 31.0903 40.1514C31.1197 40.1514 31.1639 40.1514 31.1934 40.1514C31.4584 40.1661 31.7382 40.1661 32.018 40.1661Z" fill="white"/>
<path d="M37.3041 41.9188C36.9949 41.9188 36.6709 41.9336 36.3617 41.9188C35.8758 41.8747 35.5371 41.5065 35.5371 41.05C35.5371 40.5936 35.8611 40.196 36.3617 40.1813C36.9802 40.1518 37.6133 40.1518 38.2318 40.1813C38.7177 40.2107 39.0564 40.5936 39.0564 41.05C39.0564 41.5065 38.7177 41.8894 38.2318 41.9336C37.9226 41.9336 37.6133 41.9188 37.3041 41.9188Z" fill="white"/>
<path d="M26.7167 48.1032C27.0112 48.1032 27.3057 48.0885 27.6002 48.1032C28.1156 48.1327 28.469 48.5155 28.469 48.9867C28.469 49.4432 28.1303 49.8261 27.6296 49.8408C27.0112 49.8702 26.378 49.8702 25.7596 49.8408C25.2736 49.8113 24.935 49.4138 24.9497 48.9573C24.9497 48.5008 25.2884 48.1327 25.789 48.1032C26.0982 48.0885 26.4075 48.1032 26.7167 48.1032Z" fill="white"/>
<path d="M32.018 48.1026C32.3125 48.1026 32.607 48.0879 32.9015 48.1026C33.4168 48.1321 33.7702 48.5149 33.7702 48.9861C33.7702 49.4426 33.4316 49.8255 32.9309 49.8402C32.3125 49.8696 31.6793 49.8696 31.0608 49.8402C30.5749 49.8107 30.2362 49.4131 30.251 48.9567C30.251 48.5002 30.5896 48.1468 31.0903 48.0879C31.1197 48.0879 31.1639 48.0879 31.1934 48.0879C31.4584 48.1026 31.7382 48.1026 32.018 48.1026Z" fill="white"/>
<path d="M37.2898 48.1026C37.599 48.1026 37.923 48.0879 38.2322 48.1026C38.7181 48.1468 39.0568 48.5149 39.0568 48.9714C39.0568 49.4279 38.7181 49.8255 38.2469 49.8402C37.6285 49.8696 36.9953 49.8696 36.3769 49.8402C35.8909 49.8107 35.5522 49.4426 35.5522 48.9714C35.5522 48.4855 35.9056 48.1173 36.421 48.0879C36.7008 48.0879 36.9953 48.1026 37.2898 48.1026Z" fill="white"/>
</svg>
