<svg width="64" height="64" viewBox="0 0 64 64" fill="none" xmlns="http://www.w3.org/2000/svg">
<path d="M49.7065 0C51.7948 1.48585 53.4757 3.3056 54.3756 5.69297C55.9376 9.85001 55.7508 13.8568 53.0512 17.5631C52.6947 18.0472 52.2533 18.4813 51.7609 18.8486C51.2855 19.2159 50.9969 19.6332 50.7931 20.1842C49.5877 23.3228 48.9085 26.5783 48.8406 29.934C48.7897 32.3882 49.4179 34.6754 50.7422 36.7622C52.1514 39.016 53.7304 41.1864 54.5963 43.7073C55.2924 45.694 55.8187 47.7308 56.345 49.7509C56.5827 50.6691 56.1243 51.1199 55.1396 51.2367C53.5945 51.4204 52.0495 51.6708 50.5045 51.8878C50.0461 51.9546 49.8933 52.1716 49.9103 52.6391C49.9442 54.0916 49.9272 55.5607 49.9103 57.0132C49.9103 57.3471 49.9272 57.5808 50.3347 57.7144C50.8271 57.8813 51.0478 58.2987 50.9629 58.8162C50.878 59.3505 50.5215 59.6844 49.9782 59.7178C49.1972 59.7678 48.4162 59.7678 47.6352 59.7178C47.0919 59.6844 46.7353 59.3338 46.6674 58.7995C46.5995 58.282 46.8542 57.9314 47.3126 57.681C47.4824 57.5808 47.7031 57.3972 47.7031 57.2469C47.737 55.8111 47.7201 54.3754 47.5673 52.7894C46.6334 53.3904 45.6827 53.9747 44.7489 54.5924C43.7302 55.2602 43.2208 56.1116 43.3397 57.4138C43.4755 58.8496 43.3736 60.3188 43.3736 61.7879C43.5434 61.8547 43.7132 61.9048 43.849 61.9883C44.3074 62.2387 44.5451 62.6227 44.4432 63.1235C44.3414 63.6244 44.0018 63.9583 43.4755 63.975C42.6945 64.0083 41.9135 64.0083 41.1325 63.975C40.5892 63.9416 40.2326 63.6244 40.1647 63.0734C40.0798 62.4724 40.3685 62.1051 41.2004 61.8046C41.2004 59.8513 41.2004 57.8813 41.1834 55.8946C41.1834 55.7277 41.0476 55.5607 40.9287 55.4105C36.803 49.8677 28.3139 49.8344 24.1542 55.3604C24.0184 55.544 23.8656 55.7944 23.8656 56.0282C23.8486 57.9481 23.8486 59.8513 23.8486 61.7545C24.0863 61.8714 24.307 61.9382 24.4938 62.0717C24.9012 62.3722 25.0031 62.7896 24.8503 63.2404C24.6975 63.7078 24.341 63.9583 23.8486 63.9583C23.2374 63.975 22.6262 63.9583 21.998 63.9583C21.166 63.9583 20.7076 63.6744 20.5888 63.0734C20.4699 62.5058 20.8265 62.0717 21.6584 61.7545C21.6584 59.868 21.6584 57.9481 21.6584 56.0449C21.6584 55.9113 21.5735 55.7611 21.4886 55.6609C20.3511 54.4255 18.9928 53.4905 17.3289 52.7894C17.3289 53.6575 17.3289 54.4255 17.3289 55.2101C17.3289 55.6442 17.3289 56.0783 17.3289 56.529C17.3289 57.0466 17.1931 57.5808 17.9571 57.8145C18.1948 57.898 18.3646 58.5157 18.3476 58.883C18.3306 59.3505 17.9062 59.651 17.4308 59.6844C16.6498 59.7177 15.8688 59.7344 15.0878 59.6844C14.5445 59.651 14.1879 59.3171 14.1031 58.7661C14.0351 58.2486 14.2559 57.8479 14.7482 57.6643C15.1048 57.5474 15.1727 57.3638 15.1727 57.0299C15.1557 55.5273 15.1557 54.0248 15.1727 52.5389C15.1727 52.1216 15.0369 51.9212 14.6294 51.8711C13.1183 51.6541 11.6242 51.3703 10.1132 51.2033C8.89072 51.0698 8.51719 50.7025 8.73791 49.5172C9.451 45.5438 10.9451 41.8876 13.1862 38.5319C14.3068 36.8624 15.3594 35.1595 15.8518 33.1895C16.3951 31.0192 16.2593 28.8488 15.9537 26.6785C15.6141 24.3078 15.0199 21.9872 14.0861 19.7668C14.0012 19.5498 13.8654 19.316 13.6786 19.1658C11.0809 17.2125 9.96035 14.5246 9.77359 11.4193C9.51891 6.69467 11.3526 2.88822 15.3085 0.10017C15.3425 0.0834746 15.3594 0.0333899 15.3764 0C16.0046 0 16.6498 0 17.278 0C18.1099 0.133559 18.9588 0.217034 19.7738 0.383983C22.4903 0.918221 25.088 1.81975 27.3291 3.47254C29.8249 5.30899 31.2172 7.9134 32.2528 10.7348C32.3208 10.9352 32.4056 11.1355 32.5245 11.4694C32.6603 11.1021 32.7282 10.9185 32.7961 10.7348C33.5602 8.63128 34.5789 6.64458 36.1069 4.95839C38.1273 2.68788 40.8269 1.56932 43.6962 0.784661C45.0375 0.417373 46.4297 0.267119 47.788 0.0166949C48.4331 0 49.0613 0 49.7065 0ZM16.7856 20.7518C17.6345 23.2393 18.1269 25.6935 18.3476 28.2144C18.6532 31.7037 18.076 34.9592 16.1574 37.9643C15.1897 39.4835 14.2389 41.0027 13.373 42.5721C12.2694 44.6088 11.5393 46.7959 11.0979 48.9662C12.9825 49.4003 14.8161 49.7676 16.6158 50.2684C18.4325 50.786 20.0624 51.6875 21.5565 52.7894C21.6244 52.7226 21.6584 52.7226 21.6584 52.7059C21.6754 52.2718 21.6754 51.8377 21.6754 51.4037C21.6923 50.6023 22.0828 50.1349 22.745 50.1349C23.3902 50.1349 23.8146 50.619 23.8486 51.4037C23.8486 51.7376 23.8486 52.0715 23.8486 52.372C24.8843 51.7042 25.7841 51.003 26.7858 50.4855C27.8045 49.9679 28.9081 49.634 30.0626 49.1833C29.3156 48.4654 28.5686 47.7308 27.8215 47.0129C26.8537 46.0613 26.8537 45.6606 27.8385 44.6923C28.1441 44.3918 28.4327 44.108 28.7383 43.8075C29.4854 43.0729 30.2324 42.355 30.9964 41.5871C29.8759 40.4852 28.8062 39.4501 27.7366 38.3983C26.8707 37.5469 26.8707 37.0961 27.7196 36.2614C28.7893 35.2096 29.8759 34.1411 30.9964 33.0393C29.8589 31.9207 28.7383 30.8522 27.6347 29.7671C26.9047 29.0492 26.9047 28.5483 27.6517 27.8137C28.2969 27.1793 28.8742 26.4615 29.6042 25.9272C31.1323 24.792 31.7095 23.3729 31.4549 21.5198C31.336 20.6349 31.4379 19.7 31.4379 18.7317C26.7519 21.0189 21.981 22.0373 16.7856 20.7518ZM43.3736 52.9062C44.9866 51.7042 46.6334 50.8027 48.4331 50.2851C50.2498 49.7676 52.1174 49.4003 53.9681 48.9829C53.3059 45.861 52.0835 42.8893 50.3008 40.1513C49.1462 38.3649 47.9408 36.5953 47.2956 34.5418C46.3448 31.4866 46.5486 28.4148 47.1088 25.3262C47.3805 23.807 47.8219 22.3211 48.1955 20.7852C43.102 22.054 38.3311 21.0189 33.679 18.7484C33.662 18.9821 33.6451 19.1491 33.6451 19.3327C33.6451 20.7518 33.6281 22.1709 33.662 23.5732C33.679 23.8904 33.8488 24.2577 34.0695 24.4748C35.1731 25.61 36.3106 26.6952 37.4312 27.7971C38.1783 28.5316 38.1783 29.0325 37.4482 29.7671C36.3446 30.8522 35.224 31.9374 34.0865 33.056C35.0373 33.9742 35.9541 34.8757 36.8709 35.7772C38.416 37.2965 38.416 37.3632 36.854 38.8825C35.9541 39.7673 35.0373 40.6688 34.1035 41.5871C35.1901 42.6555 36.2258 43.6739 37.2614 44.6756C38.2632 45.6606 38.2632 46.0446 37.2445 47.0463C36.7521 47.5305 36.2597 48.0146 35.7673 48.4988C35.5296 48.7492 35.292 48.9996 35.0033 49.2834C37.4142 49.801 39.4177 50.8527 41.2513 52.5055C41.2513 51.988 41.2344 51.6207 41.2513 51.2534C41.2853 50.5689 41.7267 50.1015 42.3379 50.1015C42.9492 50.1015 43.3906 50.5522 43.4076 51.2534C43.3906 51.771 43.3736 52.2718 43.3736 52.9062ZM38.2971 18.2309C38.382 18.2976 38.4329 18.331 38.4839 18.3477C41.0646 19.1157 43.6962 19.4496 46.3788 18.9654C49.0444 18.4813 51.1667 17.1791 52.2872 14.6414C53.4078 12.1205 53.4417 9.51611 52.5589 6.9117C52.423 6.51102 52.2023 6.39416 51.8118 6.42755C50.3856 6.5945 48.9425 6.69467 47.5333 6.92839C45.5468 7.27899 43.7302 8.03026 42.321 9.5495C40.0459 12.0537 38.9762 15.0588 38.2971 18.2309ZM26.8028 18.3811C26.1576 15.3259 25.1899 12.5713 23.2713 10.2006C22.0659 8.71475 20.5378 7.71306 18.6363 7.21221C16.8875 6.76145 15.1217 6.49433 13.322 6.44424C12.8127 6.42755 12.609 6.61119 12.4731 7.04526C11.8959 8.76484 11.794 10.5178 12.0826 12.2875C12.6259 15.6098 14.4766 17.8469 17.8383 18.7818C19.638 19.2826 21.4716 19.2993 23.3053 19.0489C24.4598 18.882 25.6143 18.6148 26.8028 18.3811ZM28.9591 17.5297C29.6721 17.1624 30.3682 16.8285 31.0304 16.4278C31.1832 16.3443 31.336 16.0104 31.2851 15.8602C30.7927 13.9903 30.3852 12.0871 29.7061 10.2841C28.8232 7.94678 27.431 5.89331 25.1729 4.5911C22.5073 3.07187 19.621 2.27051 16.5479 2.13695C16.3781 2.13695 16.1574 2.10356 16.0556 2.18704C15.3425 2.83814 14.6464 3.52263 13.8314 4.2739C15.0369 4.40746 16.0216 4.49093 16.9894 4.64119C19.9945 5.12534 22.6941 6.16043 24.6975 8.5478C25.903 9.98357 26.8707 11.5696 27.5329 13.3226C28.0592 14.6748 28.4667 16.0772 28.9591 17.5297ZM36.1748 17.5631C36.4635 16.5781 36.7012 15.6765 36.9898 14.7917C37.7029 12.588 38.7385 10.5679 40.1987 8.74814C42.4568 5.96009 45.5978 4.9417 49.0104 4.50763C49.6895 4.42416 50.3687 4.37407 51.2346 4.30729C50.5215 3.6061 49.9442 2.98839 49.316 2.43746C49.1123 2.25382 48.7388 2.12026 48.4671 2.17034C46.9391 2.38737 45.394 2.52093 43.9169 2.93831C41.3023 3.65619 38.8574 4.74136 37.1935 7.01187C35.224 9.68306 34.2563 12.7382 33.7639 15.9603C33.7469 16.0772 33.8318 16.2942 33.9337 16.361C34.6638 16.7784 35.3938 17.1624 36.1748 17.5631ZM32.4905 31.4198C33.4074 30.5183 34.3242 29.6168 35.1561 28.7987C34.2902 27.9473 33.3734 27.0625 32.4905 26.1943C31.6246 27.0458 30.7078 27.9473 29.8249 28.8154C30.7248 29.6669 31.6246 30.5684 32.4905 31.4198ZM32.5075 39.9343C33.4243 39.0327 34.3242 38.1312 35.1561 37.3132C34.3072 36.4617 33.4074 35.5602 32.5245 34.6921C31.6416 35.5602 30.7248 36.4617 29.8419 37.3299C30.7248 38.1813 31.6416 39.0828 32.5075 39.9343ZM35.224 45.8443C34.3242 44.9761 33.4243 44.0913 32.5924 43.2732C31.6926 44.1414 30.7757 45.0429 29.9438 45.861C30.7927 46.7124 31.6756 47.6139 32.5415 48.4821C33.4243 47.6306 34.3242 46.7458 35.224 45.8443Z" fill="white"/>
</svg>
