<svg width="64" height="64" viewBox="0 0 64 64" fill="none" xmlns="http://www.w3.org/2000/svg">
<path d="M20.4808 2C20.5728 2.03069 20.6496 2.09208 20.7417 2.10743C22.9055 2.62921 24.3481 4.30199 24.4862 6.54259C24.5476 7.60151 24.962 8.43023 25.7293 9.15152C27.7704 11.0852 29.8422 13.0035 31.7605 15.0446C34.0011 17.4387 35.7046 20.2164 37.0398 23.1937C37.1932 23.5466 37.362 23.7154 37.7917 23.7154C38.2828 23.7154 38.7739 23.8075 39.265 23.9149C39.8175 24.0377 40.1091 24.4828 40.0016 24.9585C39.8789 25.4343 39.4492 25.6798 38.8813 25.5724C35.7506 25.0046 32.9729 26.3397 31.7298 29.0714C30.6249 31.4808 30.9165 33.8135 32.6353 35.8393C34.3694 37.8804 36.6407 38.5709 39.219 37.819C41.7819 37.0823 43.3012 35.2868 43.7155 32.6318C44.0225 30.6368 43.4086 28.9026 42.0581 27.3986C41.8893 27.2145 41.6437 26.9843 41.6744 26.8001C41.7051 26.4778 41.8432 26.0942 42.0888 25.8947C42.4418 25.6031 42.8408 25.7565 43.163 26.0788C44.3908 27.3065 45.1734 28.7798 45.419 30.4986C45.9868 34.412 43.9457 37.865 40.2779 39.3383C40.0784 39.415 39.8635 39.6913 39.8482 39.8908C39.6333 42.1314 39.1883 44.3106 38.513 46.4591C38.4056 46.8121 38.5284 46.9809 38.7432 47.1957C40.815 49.4977 41.5056 52.168 40.5848 55.1299C39.664 58.0611 37.6383 59.9027 34.6303 60.6087C28.9828 61.9131 23.7803 56.772 25.008 51.0938C25.1308 50.4953 25.5451 50.1576 26.0362 50.2497C26.5734 50.3571 26.8189 50.8175 26.6808 51.5081C26.0516 54.9304 28.1234 58.1686 31.4843 58.8899C34.0011 59.4423 36.1803 58.7057 37.8071 56.7106C39.4645 54.6695 39.7408 52.3522 38.5898 49.9888C37.4695 47.6715 35.5358 46.4744 32.9422 46.4131C31.3615 46.3824 29.9803 46.9042 28.7679 47.917C28.5531 48.1012 28.2768 48.3467 28.0466 48.3314C27.7551 48.316 27.3867 48.1319 27.2026 47.9017C26.911 47.5334 27.0645 47.1344 27.4021 46.8274C28.5224 45.7839 29.8268 45.0779 31.3308 44.817C32.0828 44.6942 32.8501 44.6789 33.6788 44.6022C34.1853 42.9754 34.5229 41.272 34.661 39.5224C34.6764 39.3997 34.4001 39.2002 34.216 39.1234C29.5966 37.113 27.9392 31.4655 30.7323 27.3219C31.1927 26.6466 31.7759 26.0635 32.359 25.3882C31.6377 23.7001 30.6556 22.0734 29.5353 20.508C28.2001 18.6204 26.5887 16.9936 24.8852 15.4436C23.8263 14.4768 22.7828 13.4946 21.7392 12.5124C21.1253 11.9293 20.404 11.5916 19.5446 11.5149C17.0892 11.2387 15.4164 9.73469 15.0634 7.52478C14.6644 5.03863 16.1837 2.75198 18.6238 2.12277C18.7466 2.09208 18.8694 2.04604 18.9921 2C19.4832 2 19.9897 2 20.4808 2ZM35.4437 23.9149C35.367 23.7308 35.3056 23.562 35.2289 23.4239C34.1392 21.1372 32.8808 18.9273 31.1773 17.055C29.1209 14.8144 26.9263 12.7119 24.7318 10.6094C23.5501 9.47379 22.8441 8.21537 22.7521 6.55794C22.6446 4.71635 20.9258 3.42723 19.1917 3.76486C17.703 4.07179 16.6441 5.37625 16.7055 6.84953C16.7669 8.41488 17.9486 9.62726 19.6214 9.76538C20.9412 9.87281 22.0461 10.3946 22.9976 11.3C24.3328 12.5585 25.6833 13.8169 27.0184 15.06C29.7962 17.6382 32.0061 20.6461 33.6635 24.0531C33.7402 24.2065 33.817 24.3447 33.8937 24.4828C34.4308 24.2986 34.9219 24.1145 35.4437 23.9149ZM36.4566 39.8294C36.1036 41.6096 35.766 43.3284 35.4284 45.0626C35.9041 45.2774 36.3952 45.4923 37.0091 45.7685C37.4081 43.7735 37.7917 41.8398 38.1907 39.814C37.4848 39.8294 36.963 39.8294 36.4566 39.8294Z" fill="white"/>
<path d="M37.3161 36.4381C37.2394 36.4227 36.9939 36.4227 36.7943 36.346C36.38 36.2079 36.1805 35.8856 36.2419 35.4559C36.3033 35.0415 36.5488 34.7653 36.9939 34.7193C37.2087 34.7039 37.4082 34.7193 37.6231 34.7039C39.0349 34.5965 40.0939 33.6143 40.3548 32.1871C40.4775 31.5272 40.8458 31.2049 41.3676 31.2816C41.8894 31.3737 42.1657 31.8188 42.0582 32.4633C41.6746 34.75 39.7255 36.4381 37.3161 36.4381Z" fill="white"/>
<path d="M32.9419 57.3861C32.8038 57.3861 32.6811 57.4015 32.5429 57.3861C32.0058 57.3401 31.6528 57.0024 31.6528 56.542C31.6528 56.0509 32.0365 55.7133 32.6043 55.6826C32.9419 55.6673 33.2949 55.6826 33.6172 55.5906C34.8296 55.2376 35.5509 54.4242 35.7657 53.1811C35.8731 52.5519 36.2415 52.2143 36.7326 52.2757C37.2697 52.3371 37.5459 52.7668 37.4692 53.4267C37.4692 53.4574 37.4538 53.5034 37.4538 53.5341C37.1009 55.7133 35.1826 57.3708 32.9419 57.3861Z" fill="white"/>
</svg>
