<svg width="65" height="64" viewBox="0 0 65 64" fill="none" xmlns="http://www.w3.org/2000/svg">
<path d="M35.2116 1C36.2473 1.33984 37.0726 1.92242 37.5419 2.94193C37.6067 3.07139 37.9141 3.13612 38.1083 3.13612C39.7913 3.15231 41.4582 3.15231 43.1412 3.15231C46.4748 3.15231 48.5624 4.6573 49.5819 7.82912C49.6143 7.91003 49.6466 7.97476 49.6952 8.10423C50.472 8.10423 51.2487 8.07186 52.0417 8.10423C54.1131 8.2175 55.7799 9.85196 55.9255 11.8263C56.0874 14.0271 54.728 15.9205 52.6404 16.3089C51.8798 16.4545 51.0707 16.3736 50.2939 16.406C50.0997 16.406 49.8894 16.406 49.6628 16.406C49.323 17.8462 48.6109 19.0438 47.462 19.9985C53.9998 25.533 57.1878 32.5402 56.4919 41.0847C55.9741 47.5254 53.1097 52.8819 48.2549 57.1379C38.4967 65.731 23.382 64.7438 14.6757 55.0504C5.54865 44.9038 6.53579 28.8991 17.6533 20.0309C16.5205 19.0761 15.7923 17.8786 15.4525 16.406C14.6595 16.406 13.8828 16.4383 13.1222 16.406C11.0508 16.3251 9.33541 14.723 9.1574 12.7487C8.96321 10.5478 10.2902 8.67062 12.3939 8.20132C12.7985 8.10423 13.2355 8.10423 13.6562 8.10423C14.2388 8.08804 14.8214 8.10423 15.4201 8.10423C15.5172 7.82912 15.5981 7.57019 15.679 7.32745C16.5044 4.88386 18.7214 3.21704 21.2945 3.16849C23.1878 3.13612 25.0974 3.15231 26.9908 3.16849C27.3306 3.16849 27.541 3.08757 27.6866 2.74774C28.1236 1.79295 28.9489 1.32365 29.8875 1C31.6514 1 33.4315 1 35.2116 1ZM54.2911 38.9162C54.1131 37.4759 54.016 36.0195 53.7247 34.6116C52.5919 29.1742 49.7599 24.8048 45.2935 21.4874C45.1155 21.3579 44.8565 21.2932 44.6462 21.2932C44.2416 21.277 43.837 21.3741 43.4486 21.3741C36.1826 21.3741 28.9165 21.3741 21.6505 21.3741C21.343 21.3741 21.0194 21.4226 20.7442 21.3255C20.2588 21.1799 19.9351 21.3579 19.5953 21.633C12.8147 27.0219 9.91799 34.0128 11.245 42.5735C13.0898 54.5325 24.9679 62.6401 36.8299 60.1803C46.9765 58.0604 54.1454 49.2731 54.2911 38.9162ZM27.2983 5.61208C27.1526 5.5959 27.0717 5.57972 26.9908 5.57972C25.1621 5.57972 23.3173 5.56353 21.4887 5.57972C19.3363 5.61208 17.7828 7.19799 17.7666 9.36648C17.7504 11.276 17.7504 13.2018 17.7666 15.1114C17.7828 17.3284 19.3687 18.9143 21.5857 18.9305C23.3173 18.9467 25.0489 18.9305 26.7966 18.9305C26.9746 18.9305 27.1364 18.8981 27.2983 18.8819C27.2983 14.4479 27.2983 10.0462 27.2983 5.61208ZM37.7847 18.9467C39.759 18.9467 41.6685 18.9628 43.5943 18.9467C45.7304 18.9305 47.3163 17.3284 47.3325 15.1761C47.3487 13.2342 47.3487 11.3084 47.3325 9.36648C47.3163 7.21417 45.7466 5.62827 43.5943 5.5959C41.798 5.57972 40.0017 5.5959 38.2054 5.5959C38.076 5.5959 37.9465 5.62827 37.8009 5.64445C37.7847 10.0623 37.7847 14.464 37.7847 18.9467ZM35.2925 18.9143C35.3249 18.801 35.3411 18.7687 35.3411 18.7363C35.3411 13.9138 35.3411 9.09137 35.3411 4.26891C35.3411 3.68634 35.066 3.42741 34.4834 3.42741C33.2697 3.41123 32.056 3.42741 30.8585 3.42741C29.9684 3.42741 29.7742 3.6216 29.7742 4.54402C29.7742 9.13992 29.7742 13.7358 29.7742 18.3317C29.7742 18.5259 29.7904 18.7201 29.8066 18.9305C31.6514 18.9143 33.4477 18.9143 35.2925 18.9143ZM49.7761 13.9624C50.569 13.9624 51.3458 14.0109 52.0902 13.9462C52.9155 13.8653 53.5143 13.0885 53.5143 12.247C53.5143 11.4217 52.9479 10.6611 52.1388 10.5802C51.362 10.4993 50.5852 10.564 49.7761 10.564C49.7761 11.6968 49.7761 12.7972 49.7761 13.9624ZM15.3068 13.9786C15.3068 12.7972 15.3068 11.6968 15.3068 10.5802C14.4815 10.5802 13.6724 10.5155 12.8794 10.5964C12.0703 10.6935 11.5363 11.5188 11.5686 12.3765C11.6172 13.1856 12.2159 13.8976 13.0413 13.9624C13.7857 14.0271 14.5301 13.9786 15.3068 13.9786Z" fill="white"/>
<path d="M32.5254 25.3223C40.0503 25.3061 46.1674 31.3908 46.1998 38.9158C46.2321 46.4246 40.0665 52.5902 32.5254 52.5902C25.0166 52.5902 18.8995 46.457 18.8833 38.9482C18.8833 31.4556 25.0004 25.3385 32.5254 25.3223ZM32.5577 27.7497C26.3759 27.7335 21.3431 32.734 21.3107 38.9158C21.2783 45.0652 26.3274 50.1466 32.493 50.179C38.7072 50.1952 43.7724 45.1623 43.7724 38.9644C43.7885 32.7987 38.7557 27.7659 32.5577 27.7497Z" fill="white"/>
</svg>
