<svg width="64" height="64" viewBox="0 0 64 64" fill="none" xmlns="http://www.w3.org/2000/svg">
<path d="M25.1879 57.3019C20.0975 57.1293 15.2659 55.9214 10.7794 53.5056C9.48524 52.8154 8.79502 51.4349 9.05385 50.1408C9.31269 48.7603 10.348 47.725 11.8148 47.5524C12.505 47.4661 13.1952 47.6387 13.7992 47.9838C15.0071 48.5878 16.215 49.1054 17.4228 49.6231C18.8033 50.1408 20.1838 49.6231 20.7877 48.4152C21.3917 47.2073 21.0465 45.8269 19.9249 44.9641C17.4228 43.066 15.6973 40.4776 14.4894 37.5441C12.8501 33.7479 12.1599 29.7791 12.4187 25.724C12.6775 21.9278 13.8854 18.3041 15.7836 14.9392C17.0777 12.6097 18.6307 10.4527 20.7877 8.81346C21.3917 8.38207 21.9956 7.95068 22.6858 7.60556C24.4114 6.74278 26.137 6.82906 27.8625 7.69184C29.5881 8.6409 31.0548 10.0214 32.2627 11.5744C35.2825 15.4569 37.2669 19.8571 37.7845 24.6887C38.4748 31.3321 36.9218 37.3716 32.7804 42.6346C32.0902 43.4973 31.1411 44.2738 30.2783 45.0504C29.5018 45.7406 29.1567 46.6034 29.3293 47.6387C29.5018 48.674 30.192 49.278 31.1411 49.6231C31.7451 49.7957 32.349 49.7957 32.9529 49.5368C34.2471 48.9329 35.5413 48.4152 36.8355 47.8113C38.6473 46.9485 40.718 47.8975 41.2357 49.7957C41.6671 51.1761 40.9768 52.7291 39.5964 53.4193C36.7492 54.9724 33.8157 56.094 30.6234 56.6116C28.8116 56.9568 26.9997 57.1293 25.1879 57.3019ZM24.8428 55.2312C27.6037 55.2312 30.192 54.8861 32.6078 54.1959C34.6785 53.5919 36.5766 52.8154 38.4748 51.7801C38.9924 51.5212 39.3375 51.0898 39.2513 50.4859C39.165 49.6231 38.3022 49.1917 37.4394 49.6231C36.059 50.2271 34.7648 50.831 33.3843 51.4349C32.5216 51.7801 31.6588 51.8663 30.7097 51.6075C28.8979 51.0898 27.69 49.9682 27.2586 48.0701C26.9135 46.2582 27.5174 44.7052 28.8979 43.4973C29.7607 42.7208 30.7097 41.9443 31.3999 40.9953C34.2471 37.2853 35.5413 32.8851 35.8001 28.3124C36.059 22.014 33.8157 16.5785 29.7607 11.9195C28.8116 10.8841 27.7762 9.93508 26.4821 9.33113C25.533 8.89974 24.584 8.89974 23.6349 9.33113C22.5133 9.8488 21.4779 10.6253 20.7014 11.5744C14.8345 18.3041 12.8501 25.9828 15.5247 34.697C16.6463 38.2344 18.3719 41.3404 21.4779 43.7562C23.0309 44.9641 23.3761 46.6034 22.9447 48.5015C22.2544 51.0898 19.4935 52.4703 16.9915 51.5212C15.611 51.0036 14.2306 50.3133 12.8501 49.7094C11.9873 49.3643 11.1245 49.7094 11.0383 50.5722C10.952 51.0898 11.2108 51.5212 11.901 51.8663C15.9561 54.1096 20.3563 55.2312 24.8428 55.2312Z" fill="white"/>
<path d="M54.8677 31.5049C54.8677 36.4228 54.8677 41.2544 54.8677 46.1723C54.8677 47.2076 54.5226 47.4664 53.5736 47.4664C50.6401 47.4664 47.7066 47.4664 44.7732 47.4664C43.8241 47.4664 43.479 47.1213 43.479 46.2585C43.479 36.5091 43.479 26.7596 43.479 17.0102C43.479 14.0767 45.636 11.6609 48.4831 11.3158C51.3303 10.9707 54.005 12.8688 54.6952 15.716C54.7815 16.1474 54.8677 16.6651 54.8677 17.1827C54.8677 21.9281 54.8677 26.7596 54.8677 31.5049ZM52.8833 45.482C52.8833 45.2232 52.8833 45.0506 52.8833 44.8781C52.8833 40.2191 52.8833 35.6463 52.8833 30.9873C52.8833 26.3282 52.8833 21.6692 52.8833 17.0965C52.8833 16.1474 52.6245 15.2846 52.0206 14.5944C50.9852 13.3865 49.3459 12.9551 47.8792 13.4728C46.4125 13.9904 45.3771 15.3709 45.3771 16.9239C45.3771 26.3282 45.3771 35.7326 45.3771 45.1369C45.3771 45.2232 45.3771 45.3958 45.3771 45.482C47.9655 45.482 50.3813 45.482 52.8833 45.482Z" fill="white"/>
<path d="M49.1733 31.1605C48.2243 31.1605 47.4478 30.384 47.4478 29.3486C47.4478 28.3996 48.2243 27.623 49.1733 27.623C50.1224 27.623 50.9852 28.3996 50.9852 29.3486C50.8989 30.384 50.1224 31.1605 49.1733 31.1605Z" fill="white"/>
</svg>
