<svg width="64" height="64" viewBox="0 0 64 64" fill="none" xmlns="http://www.w3.org/2000/svg">
<path d="M30.8184 37.2701C30.9049 34.7616 31.5969 32.7721 33.1538 31.1286C35.3163 28.8797 37.5653 26.6307 39.8143 24.4682C42.3228 22.1327 45.2637 21.5272 48.4642 22.6517C51.6647 23.7762 53.4812 26.1117 54.0002 29.4851C54.3462 32.0801 53.6542 34.4156 51.8377 36.3186C49.5887 38.6541 47.4262 40.9895 45.0042 43.152C42.3228 45.6605 39.1223 46.1795 35.8353 44.709C32.5483 43.2385 30.9914 40.557 30.8184 37.2701ZM36.6138 30.0906C35.8353 30.8691 34.9703 31.5611 34.2783 32.4261C32.3753 34.5021 32.0293 37.7026 33.4133 40.2111C34.7973 42.7195 37.6518 44.1035 40.5063 43.5845C43.1013 43.152 44.5717 41.249 46.2152 39.6056C43.0148 36.4916 39.8143 33.2911 36.6138 30.0906ZM37.9978 28.7932C41.1983 31.9936 44.3987 35.1941 47.5992 38.3946C48.5507 37.4431 49.5022 36.4916 50.4537 35.5401C51.7512 34.2426 52.4432 32.6856 52.4432 30.8691C52.4432 28.0147 51.1457 25.8522 48.5507 24.6412C45.9557 23.4302 43.4472 23.6897 41.1983 25.5927C39.9873 26.5442 39.0358 27.7552 37.9978 28.7932Z" fill="white"/>
<path d="M50.8 29.6578C50.8 31.9068 48.897 33.8098 46.6481 33.8098C44.3126 33.8098 42.4961 31.9933 42.4961 29.6578C42.4961 27.3223 44.3991 25.5059 46.6481 25.5059C48.897 25.5059 50.8 27.4088 50.8 29.6578ZM47.686 27.4953C46.5616 26.9763 45.2641 27.2358 44.5721 28.2738C43.8801 29.3118 43.9666 30.6093 44.8316 31.4743C45.6966 32.3393 47.0806 32.4258 48.032 31.7338C48.9835 31.0418 49.3295 29.7443 48.8105 28.6198C48.2915 29.2253 47.7725 29.7443 47.3401 30.2633C46.9076 29.8308 46.4751 29.4848 46.0426 29.0523C46.5616 28.4468 47.1671 27.9278 47.686 27.4953Z" fill="white"/>
<path d="M30.6454 57.8569C30.8184 58.6354 31.0779 59.5004 31.2509 60.2789C31.4239 61.0574 31.0779 61.6629 30.2129 61.6629C24.5904 61.6629 18.8815 61.6629 13.259 61.6629C12.394 61.6629 12.048 61.1439 12.221 60.2789C12.394 59.4139 12.567 58.6354 12.8265 57.8569C10.9236 57.0784 10.5776 55.262 10.2316 53.532C9.71256 50.937 10.1451 48.4285 10.7506 45.8335C12.4805 38.5676 13.8645 31.2152 14.7295 23.7762C14.7295 23.6897 14.7295 23.6032 14.7295 23.5167C14.9025 22.6517 14.9025 22.0462 13.951 21.5273C12.9995 21.0083 12.913 19.8838 13.086 18.8458C13.1725 17.8078 13.5185 16.8563 14.2105 15.9913C15.4215 14.3478 16.373 12.5313 16.9785 10.5418C17.411 9.07136 18.0165 7.60087 19.0545 6.38988C20.525 4.5734 22.3415 3.62191 24.7634 4.1409C26.0609 4.4004 27.0124 5.1789 27.7909 6.21689C29.0019 7.94687 29.6939 9.93635 29.8669 12.0123C30.1264 14.1748 30.2994 16.4238 30.3859 18.5863C30.4724 19.8838 30.0399 21.0948 28.8289 21.8732C28.7424 21.9597 28.6559 22.1327 28.6559 22.3057C29.0884 27.4957 27.8774 32.4262 26.7529 37.4431C26.0609 40.2976 25.4554 43.1521 24.6769 46.1795C25.1094 46.1795 25.4554 46.1795 25.7149 46.1795C28.2234 46.266 30.5589 46.8715 32.5484 48.6015C34.7108 50.5045 35.2298 53.186 34.1053 55.6944C33.4134 57.1649 32.4619 57.7704 30.9914 57.7704C30.9049 57.7704 30.8184 57.7704 30.7319 57.7704C30.7319 57.7704 30.7319 57.8569 30.6454 57.8569ZM25.7149 32.9451C24.5039 33.5506 23.5524 34.0696 22.5145 34.5886C22.3415 34.6751 22.1685 34.9346 22.1685 35.1076C21.909 35.9726 21.736 36.8376 21.563 37.7026C21.044 37.7026 20.4385 37.7026 19.7465 37.7026C19.833 36.8376 19.9195 35.9726 20.006 35.1076C19.4005 35.2806 18.8815 35.5401 18.276 35.7131C18.0165 35.1941 17.757 34.6751 17.411 33.8966C18.5355 33.6371 19.487 33.2911 20.525 33.0317C20.9575 32.9452 21.39 32.9451 21.8225 32.7722C23.2064 32.1667 24.5039 31.4747 25.8014 30.7827C25.9744 30.6962 26.1474 30.5232 26.2339 30.3502C26.4069 28.7067 26.5799 27.0632 26.8394 25.3332C25.7149 25.9387 24.6769 26.4577 23.6389 26.9767C22.5145 27.4092 21.39 27.7552 20.179 28.1877C20.006 27.5822 19.7465 26.9767 19.5735 26.3712C20.4385 26.1117 21.1305 25.8522 21.909 25.5927C23.5524 25.0737 25.0229 24.2952 26.3204 23.1707C26.4934 22.9977 26.5799 22.7382 26.7529 22.4787C23.3794 22.4787 20.0925 22.4787 17.065 22.4787C16.1135 27.7552 15.162 33.0316 14.297 38.3946C14.297 38.5676 14.297 38.9136 14.47 39.0001C15.162 39.6056 15.854 40.2111 16.546 40.7301C17.8435 41.5951 18.8815 42.5466 19.66 43.9306C19.0545 44.1901 18.5355 44.536 17.93 44.7955C17.065 42.8926 15.162 42.3736 13.778 41.1626C13.1725 43.5846 12.6535 46.0065 12.1345 48.4285C11.6155 50.6775 11.875 52.9265 12.6535 55.1755C12.8265 55.6945 13.086 55.9539 13.778 55.9539C16.2865 55.8674 18.7085 55.9539 21.217 55.9539C24.5039 55.9539 27.7909 55.9539 30.9914 55.9539C31.5104 55.9539 31.9429 55.7809 32.2024 55.262C32.6349 54.397 32.8079 53.532 32.6349 52.5805C32.2889 50.8505 30.9914 49.899 29.6074 49.1205C27.7909 48.2555 25.8879 48.2555 23.9849 48.2555C23.8119 48.2555 23.6389 48.342 23.5524 48.4285C22.7739 48.861 21.909 49.207 21.1305 49.6395C20.871 49.8125 20.698 50.072 20.6115 50.3315C20.352 51.283 20.0925 52.2345 19.833 53.2725C19.2275 53.0995 18.622 52.9265 18.0165 52.84C18.1895 51.975 18.449 51.11 18.622 50.1585C17.757 50.1585 16.892 50.1585 16.1135 50.1585C16.1135 49.4665 16.1135 48.861 16.1135 48.2555C17.238 48.2555 18.276 48.2555 19.314 48.2555C19.487 48.2555 19.7465 48.2555 19.9195 48.169C20.7845 47.7365 21.6495 47.304 22.5145 46.8715C22.6874 46.785 22.8604 46.612 22.8604 46.3525C23.5524 43.1521 24.3309 39.8651 25.0229 36.6646C25.1959 35.4536 25.4554 34.2426 25.7149 32.9451ZM21.563 20.4028C23.3794 20.4028 25.1959 20.4028 27.0989 20.4028C27.7044 20.4028 28.0504 20.1433 28.2234 19.5378C28.3099 19.1918 28.3964 18.8458 28.3964 18.4998C28.2234 16.2508 28.0504 13.9153 27.7909 11.6663C27.6179 10.1959 27.0989 8.72536 26.2339 7.51437C25.0229 5.69789 22.9469 5.43839 21.3035 6.82238C20.7845 7.25488 20.2655 7.86037 20.006 8.37937C19.487 9.24436 19.141 10.2824 18.795 11.2338C18.0165 13.4828 17.065 15.3858 15.7675 17.1158C15.335 17.6348 15.162 18.3268 14.989 19.0188C14.816 20.0568 15.162 20.4028 16.2 20.4028C18.0165 20.4028 19.833 20.4028 21.563 20.4028ZM14.297 59.6734C19.2275 59.6734 24.1579 59.6734 29.0884 59.6734C28.9154 58.9814 28.7424 58.3759 28.6559 57.8569C23.9849 57.8569 19.4005 57.8569 14.816 57.8569C14.643 58.4624 14.47 59.0679 14.297 59.6734Z" fill="white"/>
<path d="M26.4932 51.9747C25.8877 51.9747 25.2823 51.9747 24.6768 51.9747C24.6768 51.3692 24.6768 50.7637 24.6768 50.1582C25.2823 50.1582 25.8877 50.1582 26.4932 50.1582C26.4932 50.7637 26.4932 51.3692 26.4932 51.9747Z" fill="white"/>
<path d="M30.2999 53.9635C29.6944 53.9635 29.0889 53.9635 28.4834 53.9635C28.4834 53.358 28.4834 52.7525 28.4834 52.0605C29.0889 52.0605 29.6944 52.0605 30.2999 52.0605C30.2999 52.666 30.2999 53.2715 30.2999 53.9635Z" fill="white"/>
<path d="M23.2927 8.11914C23.4657 8.63814 23.6387 9.07063 23.8117 9.58963C23.8117 9.67613 23.8117 9.93562 23.7252 10.0221C22.2547 11.0601 21.9087 12.5306 21.7357 14.2606C21.7357 14.4336 21.7357 14.6066 21.7357 14.7796C21.1302 14.7796 20.5248 14.7796 19.9193 14.7796C19.5733 11.8386 21.2167 8.63814 23.2927 8.11914Z" fill="white"/>
</svg>
