<svg width="64" height="64" viewBox="0 0 64 64" fill="none" xmlns="http://www.w3.org/2000/svg">
<path d="M27.8824 22.1864C28.1499 21.5159 28.4173 20.7114 28.6847 20.0409C28.8184 19.6386 29.0858 19.2364 29.6207 19.2364C30.2893 19.2364 30.8241 19.7727 30.5567 20.4432C30.2893 21.3818 29.8881 22.1864 29.6207 23.125C29.487 23.3932 29.487 23.6614 29.6207 23.7955C30.9578 25.5386 31.2252 27.55 31.4927 29.5614C31.7601 31.8409 32.1612 34.1205 32.5624 36.4C32.5624 36.4 32.5624 36.5341 32.6961 36.6682C32.9635 36.2659 33.3646 35.9977 33.6321 35.7295C35.6377 32.9136 36.9749 29.6955 37.376 26.2091C37.7771 23.3932 37.5097 20.5773 37.1086 17.7614C36.5737 14.4091 36.7074 11.1909 37.9109 7.97274C38.0446 7.43637 38.312 7.0341 38.5794 6.49774C40.5851 3.01137 44.7302 3.54774 46.6021 5.82728C47.8056 7.30228 48.3404 8.91137 48.6078 10.7886C49.5438 16.5546 48.7415 22.1864 46.8696 27.55C44.0616 35.8636 40.0502 43.5068 34.3006 50.0773C31.8938 52.8932 29.0858 55.4409 25.8768 57.5864C23.8711 58.9273 21.8654 59.8659 19.4586 60C18.6563 60 17.854 60 17.0517 59.7318C15.3135 59.1955 14.6449 57.5864 15.1798 55.575C15.7146 53.5636 16.918 51.8205 18.2552 50.0773C20.3946 47.2614 22.8014 44.8477 25.3419 42.5682C25.4756 42.4341 25.743 42.3 25.8768 42.0318C26.9465 41.0932 27.3476 39.8864 26.8127 38.4114C26.0105 36.2659 25.2082 33.9864 24.4059 31.8409C23.8711 30.0977 23.2025 28.2205 22.8014 26.4773C22.4002 24.6 23.0688 22.7227 25.0745 21.9182C25.2082 21.9182 25.3419 21.5159 25.4756 21.3818C25.4756 20.4432 25.4756 19.5046 25.4756 18.4318C25.4756 18.1636 25.4756 18.0296 25.4756 17.7614C25.743 17.6273 26.0105 17.3591 26.679 17.3591C27.2139 17.3591 27.4813 17.7614 27.4813 18.2977C27.4813 19.3705 27.4813 20.5773 27.4813 21.65C27.4813 21.9182 27.615 22.0523 27.615 22.3205C27.7487 22.1864 27.7487 22.1864 27.8824 22.1864ZM27.7487 53.9659C27.8824 53.8318 28.0161 53.6977 28.2836 53.5636C30.423 51.6864 32.2949 49.8091 34.0332 47.5295C38.8468 41.4955 42.3234 34.6568 44.8639 27.4159C46.7359 22.1864 47.4044 16.9568 46.7359 11.4591C46.6021 9.9841 46.201 8.5091 45.265 7.30228C43.7942 5.42501 41.2537 5.5591 40.0502 7.57046C39.7828 7.97274 39.6491 8.37501 39.5154 8.77728C38.5794 12.1296 38.5794 15.3477 39.1143 18.7C40.0502 24.1977 39.3817 29.5614 36.7074 34.5227C35.9052 35.8636 35.2366 37.2045 34.0332 38.2773C32.6961 39.35 30.9578 38.6795 30.6904 37.0705C30.2893 34.2545 29.8881 31.3046 29.487 28.4886C29.2196 27.0136 28.6847 25.6727 27.615 24.6C26.9464 24.0636 26.5453 23.9296 25.743 24.3318C25.0745 24.6 24.8071 25.1364 24.8071 25.8068C24.8071 27.6841 25.4756 29.4273 26.1442 31.1705C26.9465 33.5841 27.8824 35.8636 28.6847 38.2773C29.487 40.5568 28.8184 42.4341 27.0802 44.1773C25.6093 45.5182 24.2722 46.9932 22.8014 48.4682C22.6677 48.6023 22.5339 48.7364 22.2665 49.0045C24.1385 50.3455 25.8768 52.2227 27.7487 53.9659ZM20.7957 50.0773C19.8597 51.2841 18.9237 52.625 17.9877 54.1C17.5866 54.7705 17.3192 55.4409 17.0517 56.1114C16.6506 57.5864 17.1855 58.2568 18.6563 58.2568C21.4643 58.2568 23.7374 57.05 25.8768 55.3068V55.1727C24.2722 53.5636 22.5339 51.8205 20.7957 50.0773Z" fill="white"/>
</svg>
