<svg width="64" height="64" viewBox="0 0 64 64" fill="none" xmlns="http://www.w3.org/2000/svg">
<path d="M3.86541 61.3326L2.36833 61.214C2.47229 60.0088 2.53467 58.8035 2.55546 57.618C2.65943 52.303 2.09802 46.8694 1.5782 41.6334C1.2871 38.808 0.996002 35.8837 0.788074 32.999C0.725696 31.9123 0.600939 30.7466 0.476182 29.5611C-0.0436375 24.7598 -0.625836 19.3262 1.61979 15.1177C3.90699 10.7906 9.04282 9.0123 13.0974 8.7752C13.8044 8.73568 14.5321 8.73568 15.2807 8.73568C17.048 8.73568 18.8986 8.73568 20.4165 8.12317L20.6452 8.00462C21.1234 7.78728 21.5393 7.51066 21.9136 7.19453C22.371 6.7796 22.8077 6.26588 23.2027 5.65337C23.8057 4.68521 24.2424 3.51946 24.4919 2.3142C24.6166 1.72144 24.6998 1.14845 24.7206 0.595215L26.2385 0.674249C26.1969 1.28676 26.1137 1.93879 25.9889 2.59082C25.7186 3.95415 25.2196 5.27796 24.5127 6.40419C24.0552 7.11549 23.5354 7.74776 22.974 8.26148C22.6205 8.57762 22.2047 8.85423 21.768 9.09133V9.11109L21.3314 9.32844C19.4392 10.1978 17.3391 10.1978 15.2807 10.178C14.5737 10.178 13.8667 10.178 13.2014 10.2176C9.58343 10.4151 4.98822 11.9958 2.99211 15.7697C0.954417 19.6028 1.49503 24.7993 1.99406 29.3832C2.11881 30.5885 2.24357 31.774 2.32674 32.8805C2.51388 35.7454 2.82577 38.6499 3.09608 41.4754C3.63669 46.7706 4.19809 52.224 4.09413 57.6378C4.01096 58.8628 3.94858 60.0878 3.86541 61.3326Z" fill="white"/>
<path d="M14.6629 62.9844L13.2421 62.5351C13.6746 61.4493 13.9011 60.1764 14.107 58.9595L14.2305 58.2481C14.5188 56.7131 14.6012 55.1218 14.457 53.5119C14.2305 50.7225 13.3657 47.7647 11.739 44.2078L13.1186 43.6836C14.8071 47.3903 15.6925 50.4791 15.9396 53.4183C16.0838 55.1405 16.0014 56.8441 15.6925 58.4728L15.569 59.1842C15.3836 60.4572 15.1365 61.7676 14.6629 62.9844Z" fill="white"/>
<path d="M2.57626 57.6183C2.55546 58.8434 2.49309 60.0486 2.38912 61.2539C2.32674 62.1233 3.76145 62.1233 3.82383 61.2539C3.92779 60.0486 3.96938 58.8236 4.01096 57.6183C4.03175 56.749 2.59705 56.749 2.57626 57.6183Z" fill="white"/>
<path d="M24.7414 0.654519C24.6998 1.20775 24.6374 1.74123 24.5334 2.27471C24.3671 3.12432 25.7602 3.49973 25.9266 2.63036C26.0513 1.97833 26.1345 1.30655 26.1761 0.63476C26.2385 -0.214851 24.8038 -0.214851 24.7414 0.654519Z" fill="white"/>
<path d="M60.1723 61.3328C60.0683 60.1078 60.0268 58.863 59.9852 57.6578C59.8812 52.244 60.4426 46.7709 60.9832 41.4756C61.2743 38.6502 61.5654 35.7457 61.7526 32.8807C61.8149 31.7743 61.9397 30.6085 62.0645 29.423C62.5427 24.8193 63.0833 19.6228 61.0456 15.7699C59.0495 11.9961 54.4543 10.4352 50.8363 10.2178C50.171 10.1783 49.464 10.1783 48.7571 10.1783C46.9481 10.1981 45.0975 10.1981 43.3925 9.60531C42.4984 9.28918 41.7499 8.85449 41.0845 8.26174C40.5231 7.74802 40.0241 7.17503 39.6082 6.523C38.8805 5.43629 38.3399 4.07296 38.0488 2.59108C37.924 1.87977 37.8408 1.26726 37.7993 0.694268L39.3171 0.615234C39.3379 1.12895 39.4211 1.70195 39.5251 2.33422C39.7954 3.61851 40.2528 4.82378 40.8766 5.77218C41.2301 6.32542 41.6459 6.79962 42.1034 7.21455C42.6232 7.66899 43.2054 8.00488 43.9123 8.26174C45.3678 8.7557 47.0936 8.77546 48.7571 8.7557C49.4848 8.7557 50.2126 8.7557 50.9195 8.79522C54.9533 9.03232 60.0891 10.8106 62.3763 15.1377C64.622 19.3462 64.0398 24.7798 63.5407 29.5811C63.416 30.7666 63.2912 31.9126 63.2289 32.9993C63.0417 35.884 62.7298 38.8082 62.4387 41.6337C61.8981 46.8894 61.3575 52.3032 61.4615 57.638C61.503 58.8235 61.5446 60.0288 61.6278 61.234L60.1723 61.3328Z" fill="white"/>
<path d="M49.416 62.9844C48.9424 61.7875 48.7159 60.4596 48.4688 59.1691L48.3452 58.4585C48.0363 56.8127 47.954 55.1107 48.0981 53.4088C48.3452 50.4726 49.2512 47.3867 50.9191 43.6836L52.2988 44.2073C50.672 47.7607 49.8278 50.7157 49.5807 53.5023C49.4366 55.1107 49.5189 56.7004 49.8072 58.234L49.9307 58.9447C50.1573 60.1604 50.3838 61.4321 50.7956 62.5169L49.416 62.9844Z" fill="white"/>
<path d="M60.0268 57.6183C60.0476 58.8434 60.1099 60.0486 60.2139 61.2539C60.2763 62.1233 61.711 62.1233 61.6486 61.2539C61.5446 60.0486 61.5031 58.8236 61.4615 57.6183C61.4407 56.749 60.006 56.749 60.0268 57.6183Z" fill="white"/>
<path d="M37.8616 0.65495C37.9032 1.32674 37.9864 1.97876 38.1111 2.65055C38.2775 3.51992 39.6498 3.14451 39.5043 2.2949C39.4003 1.76142 39.3379 1.20819 39.2963 0.674708C39.2339 -0.21442 37.7992 -0.21442 37.8616 0.65495Z" fill="white"/>
<path d="M18.961 47.561C17.048 47.561 15.1767 47.0276 13.6588 46.0001C11.2884 44.3799 9.70818 41.673 9.33391 38.5314C8.79329 34.1253 10.6023 30.0748 12.3489 26.1627L12.8895 24.9772C13.0558 24.582 13.3885 24.2856 13.8044 24.1473C14.2202 24.009 14.6777 24.0485 15.0727 24.2461C17.5263 25.5304 21.0818 27.5853 23.7225 30.47C25.7602 32.7027 26.9246 35.3306 28.0474 37.8992C28.4633 38.8278 28.8583 39.7367 29.3158 40.6456C29.4405 40.8827 29.5237 41.2779 29.3366 41.7916C28.588 43.7081 23.7849 46.3953 22.9948 46.7312C21.7056 47.2844 20.3333 47.561 18.961 47.561ZM14.3242 25.4909L14.2618 25.5106L13.7212 26.7159C12.0578 30.4502 10.3112 34.3229 10.8102 38.3536C11.1429 41.0408 12.5152 43.4513 14.5113 44.8146C16.6946 46.2965 19.7511 46.5336 22.3294 45.4271C23.9305 44.7356 27.8811 42.0484 27.9019 41.2186C27.4652 40.3492 27.0494 39.4008 26.6335 38.4524C25.5107 35.8838 24.4295 33.4535 22.5581 31.4184C20.1046 28.6917 16.6738 26.7357 14.3242 25.4909Z" fill="white"/>
<path d="M45.0767 47.561C43.7044 47.561 42.3321 47.2844 41.0637 46.7312C40.2736 46.3953 35.4705 43.7081 34.7219 41.7916C34.514 41.2779 34.618 40.8827 34.7427 40.6456C35.2002 39.7367 35.5952 38.8081 36.0111 37.8992C37.1339 35.3306 38.2983 32.6829 40.336 30.47C42.9767 27.5853 46.5322 25.5304 48.9858 24.2461C49.3809 24.0485 49.8383 24.009 50.2541 24.1473C50.67 24.2856 51.0027 24.582 51.169 24.9772L51.6889 26.1627C53.4354 30.0748 55.2444 34.1253 54.7038 38.5314C54.3295 41.6533 52.7493 44.3799 50.3789 46.0001C48.861 47.0276 46.9897 47.561 45.0767 47.561ZM49.7343 25.4909C47.3432 26.7357 43.9331 28.6917 41.4588 31.3986C39.5874 33.4535 38.527 35.8641 37.3834 38.4326C36.9675 39.381 36.5517 40.3097 36.0943 41.2383C36.115 42.0287 40.0657 44.7158 41.6875 45.4074C44.245 46.5138 47.3224 46.2767 49.5056 44.7949C51.5017 43.4315 52.8948 41.021 53.2067 38.3339C53.7058 34.3031 51.9592 30.4305 50.2957 26.6961L49.7551 25.4909H49.7343Z" fill="white"/>
<path d="M32.7258 39.1243C32.7258 29.6402 32.7258 20.1562 32.7258 10.6722C32.7258 9.80278 31.2911 9.78302 31.2911 10.6722C31.2911 20.1562 31.2911 29.6402 31.2911 39.1243C31.2911 40.0134 32.7258 40.0134 32.7258 39.1243Z" fill="white"/>
<path d="M43.6836 8.97281C39.8993 10.1386 35.9695 10.7116 32.0189 10.672C28.2762 10.6325 24.5127 10.0793 20.8947 8.95305C20.9363 8.85426 20.9571 8.77523 20.9987 8.67644V8.65668C21.4977 8.41958 21.9967 8.1232 22.4542 7.72803C23.0156 7.23407 23.473 6.64132 23.8681 6.02881C29.2534 7.37238 34.8883 7.4119 40.2944 6.1276C40.6687 6.72035 41.1261 7.25383 41.6459 7.70827C42.2697 8.26151 42.9559 8.63692 43.7044 8.89378C43.6836 8.95305 43.6836 8.95305 43.6836 8.97281Z" fill="#DADFE2"/>
<path d="M32.31 11.4031C32.206 11.4031 32.102 11.4031 31.9981 11.4031C28.1306 11.3636 24.3255 10.7906 20.6452 9.64463L19.9174 9.42729L20.2085 8.57768V8.24179L20.6452 8.02444C21.1234 7.8071 21.5393 7.53048 21.9136 7.21435C22.371 6.79942 22.8076 6.2857 23.2027 5.67319L23.4938 5.21875L24.0344 5.35706C29.2742 6.66111 34.8051 6.70063 40.0865 5.45585L40.6271 5.3373L40.9182 5.79174C41.2717 6.32522 41.6667 6.81918 42.145 7.23411C42.6648 7.68855 43.247 8.02445 43.9539 8.2813L44.2242 8.43937L44.453 8.65671L44.4737 9.50633L43.9539 9.66439C40.1696 10.8104 36.2814 11.4031 32.31 11.4031ZM22.4542 8.67647C25.5731 9.50633 28.7752 9.94101 32.0189 9.98053C35.3249 10.02 38.5686 9.60512 41.7291 8.79502C41.5004 8.63696 41.2925 8.47889 41.0845 8.30106C40.6479 7.90589 40.2528 7.47121 39.8993 6.99701C34.7219 8.12324 29.3158 8.10348 24.1592 6.89822C23.7849 7.43169 23.3691 7.88614 22.9116 8.30106C22.7869 8.41961 22.6205 8.53816 22.4542 8.67647Z" fill="white"/>
<path d="M29.7316 39.6383C28.5257 28.0401 10.3112 10.5144 10.124 10.3563L11.2052 9.34863C11.9746 10.0797 29.9604 27.4078 31.2287 39.5L29.7316 39.6383Z" fill="white"/>
<path d="M34.2645 39.6383L32.7674 39.5C34.0358 27.3881 52.0423 10.0797 52.7909 9.34863L53.8721 10.3563C53.685 10.5144 35.4913 28.0401 34.2645 39.6383Z" fill="white"/>
<path d="M32.0189 43.0961C33.3624 43.0961 34.4516 42.0611 34.4516 40.7844C34.4516 39.5077 33.3624 38.4727 32.0189 38.4727C30.6753 38.4727 29.5861 39.5077 29.5861 40.7844C29.5861 42.0611 30.6753 43.0961 32.0189 43.0961Z" fill="#DADFE2"/>
<path d="M32.0189 43.8073C30.2515 43.8073 28.8168 42.4439 28.8168 40.7645C28.8168 39.085 30.2515 37.7217 32.0189 37.7217C33.7862 37.7217 35.221 39.085 35.221 40.7645C35.221 42.4439 33.7862 43.8073 32.0189 43.8073ZM32.0189 39.1838C31.0832 39.1838 30.3346 39.8951 30.3346 40.7842C30.3346 41.6734 31.0832 42.3847 32.0189 42.3847C32.9545 42.3847 33.7031 41.6734 33.7031 40.7842C33.7031 39.8951 32.9545 39.1838 32.0189 39.1838Z" fill="white"/>
<path d="M33.0169 63.3086C33.0169 57.9146 33.0169 52.5008 33.0169 47.1067C33.0169 46.2374 31.5822 46.2176 31.5822 47.1067C31.5822 52.5008 31.5822 57.9146 31.5822 63.3086C31.5614 64.1978 33.0169 64.1978 33.0169 63.3086Z" fill="white"/>
<path d="M14.6985 24.9181C14.6985 22.2112 14.6985 19.5241 14.6985 16.8172C14.6985 15.9478 13.2638 15.928 13.2638 16.8172C13.2638 19.5241 13.2638 22.2112 13.2638 24.9181C13.2638 25.7875 14.6985 25.7875 14.6985 24.9181Z" fill="white"/>
<path d="M50.774 24.9181C50.774 22.2112 50.774 19.5241 50.774 16.8172C50.774 15.9478 49.3393 15.928 49.3393 16.8172C49.3393 19.5241 49.3393 22.2112 49.3393 24.9181C49.3393 25.7875 50.774 25.7875 50.774 24.9181Z" fill="white"/>
<path d="M31.6862 63.7433C31.5822 63.605 20.8115 49.5766 18.8154 47.6007L19.8967 46.6128C21.9551 48.6479 32.4555 62.3207 32.8922 62.8937L31.6862 63.7433Z" fill="white"/>
<path d="M32.8922 64.0004L31.6862 63.131C32.1852 62.5185 43.7252 48.2924 45.7837 46.2573L46.8649 47.2452C44.8688 49.2211 33.0169 63.8423 32.8922 64.0004Z" fill="white"/>
</svg>
