<svg width="64" height="64" viewBox="0 0 64 64" fill="none" xmlns="http://www.w3.org/2000/svg">
<path d="M33.4526 3C33.7774 3.1074 34.1022 3.1611 34.3729 3.26849C35.9969 3.91288 36.7548 5.20166 37.0255 6.81262C37.3503 8.69209 37.0255 10.5178 36.5924 12.3436C35.7804 15.7803 34.3187 19.0023 32.8571 22.2242C30.8 27.0034 31.0165 31.7289 33.5609 36.2933C33.615 36.4007 33.7233 36.5618 33.8857 36.7766C34.2105 36.2933 34.5353 35.9711 34.7518 35.4878C35.1308 34.6824 35.4556 33.8769 35.6721 33.0714C36.0511 31.9437 36.6466 31.0308 37.7834 30.5475C37.9458 30.4938 38.0541 30.2254 38.0541 30.0643C38.1082 29.581 38.0541 29.044 38.0541 28.5607C38.0541 27.433 38.7037 26.6812 39.7864 26.4664C40.7608 26.2516 41.627 26.7349 42.0601 27.7552C43.3052 30.7623 43.7383 33.8232 42.3849 36.9377C41.248 39.569 39.245 41.3947 36.8631 42.8983C36.3759 43.2205 36.2676 43.4353 36.43 43.9723C37.3503 47.6775 37.4586 51.329 36.5383 55.0343C36.3759 55.7323 36.0511 55.9471 35.5097 55.8934C34.9142 55.786 34.6977 55.3564 34.806 54.6584C35.0225 53.1548 35.1849 51.6512 35.4014 50.1477C35.5097 49.557 35.2932 49.2885 34.6436 49.1274C33.0736 48.8052 31.5037 48.4293 29.9338 48.0534C27.9849 47.6238 26.6316 45.9054 26.5774 43.9186C26.5774 43.4353 26.5774 43.0057 26.5774 42.5224C26.5774 41.1799 25.9278 40.3207 24.5744 39.8912C24.1413 42.415 23.7624 44.8852 23.3293 47.409C25.7654 47.9997 27.3353 49.4496 27.7684 51.7586C28.2015 54.1214 27.2812 55.9471 25.2782 57.2896C26.4691 60.4578 30.421 61.2633 32.6947 58.7932C32.8571 58.5784 33.1278 58.3099 33.3443 58.3636C33.6691 58.3636 34.0481 58.5247 34.2646 58.7395C34.5894 59.0617 34.3729 59.4913 34.1022 59.8135C32.2616 62.0688 29.0676 62.6595 26.5233 61.2096C25.1699 60.4578 24.3037 59.2765 23.5459 57.9877C22.1383 55.4101 21.6511 52.6178 21.597 49.7181C21.5429 47.3553 21.8135 44.8852 22.3549 42.4687C23.1669 39.1394 23.0045 35.81 22.3007 32.4807C21.7053 29.581 21.0015 26.6812 20.4601 23.7815C19.8647 20.7743 19.8105 17.7135 20.5143 14.6527C20.6767 14.062 21.0015 13.7935 21.5429 13.9009C22.0842 14.0083 22.3549 14.3842 22.2466 14.9749C21.4346 18.519 21.8135 21.9557 22.5714 25.4461C23.221 28.3459 23.8707 31.2456 24.412 34.1454C24.6827 35.4341 24.6827 36.7766 24.791 38.1728C24.791 38.1728 24.791 38.1728 24.8451 38.2265C27.3353 39.032 28.418 40.4281 28.3639 43.0057C28.2556 45.5832 29.2842 46.3887 31.3413 46.7109C32.6406 46.9257 33.8857 47.3016 35.3473 47.6238C35.1308 46.4961 34.9142 45.4221 34.6977 44.4019C34.6436 44.0797 34.5353 43.7575 34.427 43.4353C34.2105 42.6298 34.3187 42.3613 35.0766 41.9317C36.5383 41.1799 37.8917 40.2134 38.9744 38.9246C41.6811 35.81 42.1142 32.3733 40.4902 28.6144C40.436 28.4533 40.2195 28.2922 40.0571 28.1311C40.0029 28.3459 39.8405 28.507 39.8405 28.7218C39.7864 29.4736 39.7864 30.2791 39.7864 31.0308C39.7864 31.5678 39.5157 31.89 38.9744 31.9974C38.1082 32.1585 37.6751 32.6418 37.3503 33.4473C36.9714 34.5213 36.5924 35.5415 36.1052 36.5618C35.7263 37.3673 35.0766 38.0654 34.2105 38.495C33.5067 38.8709 33.1278 38.7635 32.6947 38.1191C30.5293 35.0583 29.6631 31.5678 29.8255 27.8626C29.8797 25.4461 30.5293 23.1908 31.5579 21.0428C33.0195 17.8746 34.427 14.6527 35.1849 11.2159C35.4556 9.87346 35.6721 8.53099 35.4014 7.18852C35.0225 5.20166 33.9398 4.44987 31.8827 4.77206C28.6887 5.25535 26.3609 7.02742 24.5744 9.60497C24.3037 9.98086 24.0331 10.4105 23.8165 10.7863C23.4917 11.3233 23.0586 11.4844 22.5714 11.2159C22.0842 11.0011 21.9759 10.5178 22.3007 9.98086C24.3579 6.32933 27.2812 3.80548 31.5579 3.0537C31.612 3.0537 31.6661 3 31.7203 3C32.3157 3 32.8571 3 33.4526 3ZM23.4376 49.3422C23.4917 51.5975 23.7624 53.7455 24.5203 55.8397C25.7113 54.8732 26.3067 53.7455 26.0902 52.2956C25.8195 50.8457 24.9534 49.8792 23.4376 49.3422Z" fill="white"/>
<path d="M23.4375 19.6457C23.4916 16.3701 24.1413 13.4703 25.9277 10.8391C26.036 10.7317 26.0901 10.5706 26.1984 10.4632C26.5773 10.0873 27.0646 9.97991 27.4435 10.3021C27.8224 10.5706 27.8766 11.1076 27.5518 11.5372C26.4149 13.0407 25.7112 14.7591 25.4405 16.5849C25.224 17.8737 25.224 19.2161 25.1698 20.5586C25.1698 21.2567 24.8991 21.6326 24.3037 21.6326C23.8164 21.6326 23.4916 21.4178 23.4375 20.9345C23.4916 20.4512 23.4916 19.9679 23.4375 19.6457Z" fill="white"/>
</svg>
