<svg width="64" height="64" viewBox="0 0 64 64" fill="none" xmlns="http://www.w3.org/2000/svg">
<path d="M37.3226 7C37.8483 7.22619 38.4134 7.38586 38.8865 7.67858C39.7933 8.23741 40.3059 9.11558 40.5293 9.99374C41.147 10.2732 41.6989 10.4461 42.1589 10.7522C42.7766 11.1779 43.0131 11.8698 43.0131 12.6282C43.0131 17.1255 43.0263 21.6227 43 26.12C43 27.3707 42.724 28.5815 42.2903 29.7657C41.7778 31.1761 41.2652 32.5998 40.8578 34.0501C40.6607 34.7686 40.6476 35.5536 40.6476 36.3253C40.6344 42.6321 40.6344 48.9389 40.6344 55.2458C40.6344 57.1085 39.7539 58 37.9271 58C33.9582 58 29.9892 58 26.0203 58C24.2724 58 23.3656 57.0819 23.3656 55.2857C23.3656 48.9922 23.3524 42.6987 23.3787 36.4052C23.3787 34.9283 23.1159 33.5179 22.6165 32.1208C22.0777 30.6173 21.5914 29.0871 21.1577 27.5437C20.9869 26.945 21.0131 26.293 21.0131 25.6676C21 21.4764 21 17.2852 21 13.0806C21 11.2178 21.6308 10.4461 23.4444 10.1534C23.8387 8.64988 24.7324 7.62536 26.2306 7.14636C26.3883 7.09314 26.546 7.05322 26.6906 7C30.2258 7 33.7742 7 37.3226 7ZM39.1625 54.8067C38.8996 54.8067 38.7288 54.8067 38.5448 54.8067C35.693 54.8067 32.8411 54.8067 29.9892 54.8067C29.8315 54.8067 29.6607 54.82 29.503 54.7801C29.1219 54.6869 28.8984 54.4341 28.9247 54.0217C28.9379 53.6225 29.1744 53.383 29.5556 53.3165C29.7001 53.2899 29.8447 53.3032 30.0024 53.3032C32.8674 53.3032 35.7455 53.3032 38.6105 53.3032C38.7814 53.3032 38.9522 53.3032 39.1756 53.3032C39.1756 53.037 39.1756 52.8375 39.1756 52.6379C39.1756 47.1959 39.1625 41.7407 39.1888 36.2987C39.1888 35.4871 39.1888 34.6488 39.399 33.8771C39.8327 32.3071 40.3847 30.7636 40.9367 29.2202C41.3309 28.1025 41.5544 26.9583 41.5544 25.7608C41.5544 22.3013 41.5544 18.8552 41.5544 15.3958C41.5544 15.2228 41.5412 15.0498 41.5281 14.8502C41.0155 14.8502 40.5556 14.8502 40.0956 14.8502C39.5042 14.8502 39.1888 14.5841 39.1888 14.1051C39.1888 13.6394 39.5173 13.36 40.0956 13.36C40.5687 13.36 41.0418 13.36 41.5544 13.36C41.5544 13.0673 41.5675 12.8411 41.5544 12.6149C41.5281 11.9896 41.2127 11.6702 40.595 11.6702C34.8913 11.6702 29.1744 11.6702 23.4707 11.6702C23.0108 11.6702 22.6428 11.8565 22.5639 12.3355C22.4982 12.6681 22.5508 13.0141 22.5508 13.3733C22.7873 13.3733 22.9845 13.3733 23.1816 13.3733C27.5711 13.3733 31.9737 13.3733 36.3632 13.3733C36.5209 13.3733 36.6918 13.36 36.8495 13.3866C37.2569 13.4665 37.4934 13.7193 37.4803 14.1451C37.4671 14.5575 37.2174 14.8103 36.7969 14.8502C36.6392 14.8636 36.4683 14.8636 36.3106 14.8636C31.9211 14.8636 27.5185 14.8636 23.129 14.8636C22.9319 14.8636 22.7479 14.8636 22.5376 14.8636C22.5245 15.0498 22.5114 15.1829 22.5114 15.3159C22.5114 18.8685 22.5114 22.4211 22.5114 25.9736C22.5114 26.466 22.5245 26.9849 22.6559 27.4506C23.0765 28.8476 23.5102 30.2314 24.0227 31.5886C24.601 33.1453 24.8901 34.742 24.8901 36.4052C24.8638 41.8205 24.8769 47.2358 24.8769 52.6379C24.8769 52.8508 24.8769 53.0504 24.8769 53.3032C25.2449 53.3032 25.534 53.3032 25.8363 53.3032C26.9008 53.3032 27.2294 53.4761 27.2425 54.035C27.2557 54.6071 26.9008 54.7934 25.8626 54.7934C25.5603 54.7934 25.2449 54.7934 24.9558 54.7934C24.7718 55.8711 24.9164 56.5364 26.2832 56.5098C28.675 56.4566 31.0669 56.4965 33.4719 56.4965C35.049 56.4965 36.626 56.4965 38.19 56.4965C38.8734 56.4965 39.1756 56.1904 39.2019 55.4986C39.1625 55.299 39.1625 55.0861 39.1625 54.8067ZM38.9654 10.1667C38.7419 9.24863 37.8614 8.51683 36.8757 8.50352C33.6296 8.47691 30.3835 8.49022 27.1505 8.50352C26.1517 8.50352 25.2843 9.23532 25.0478 10.1667C29.687 10.1667 34.3262 10.1667 38.9654 10.1667Z" fill="white"/>
<path d="M28.9247 23.7118C28.9247 22.8203 28.8721 21.9156 28.9378 21.0241C29.043 19.4807 30.2521 18.3098 31.8028 18.1767C33.2353 18.057 34.6153 19.0549 34.9964 20.5185C35.0752 20.8245 35.1015 21.1438 35.1147 21.4499C35.1278 22.9534 35.1409 24.4702 35.1147 25.9737C35.0884 27.9962 33.6296 29.3666 31.6977 29.2203C30.3046 29.1138 29.0824 27.9563 28.9641 26.5326C28.8853 25.5879 28.951 24.6432 28.951 23.6985C28.9378 23.7118 28.9247 23.7118 28.9247 23.7118ZM30.344 24.4835C30.3703 25.202 30.344 25.8939 30.4492 26.5725C30.5675 27.2644 31.2509 27.7434 31.9737 27.7434C32.7096 27.7567 33.4193 27.2777 33.5376 26.5592C33.6427 25.8806 33.6164 25.1887 33.6427 24.4702C32.5256 24.4835 31.4874 24.4835 30.344 24.4835ZM33.577 22.9401C33.577 22.2615 33.6427 21.5962 33.5639 20.9443C33.485 20.2258 32.7885 19.7069 32.0657 19.6802C31.356 19.6536 30.5937 20.1326 30.4755 20.8378C30.3572 21.5164 30.3835 22.2349 30.3572 22.9534C31.4874 22.9401 32.5388 22.9401 33.577 22.9401Z" fill="white"/>
<path d="M31.251 32.8788C31.2641 32.6925 31.2641 32.5195 31.3035 32.3332C31.3824 31.9607 31.6321 31.7744 32.0001 31.7744C32.3681 31.7744 32.644 31.9607 32.6966 32.3332C32.7492 32.6526 32.7492 32.9985 32.7229 33.3179C32.6966 33.7702 32.4075 34.0364 32.0001 34.0364C31.5927 34.0364 31.3167 33.7702 31.2773 33.3312C31.2641 33.1848 31.2773 33.0384 31.2773 32.8921C31.2641 32.8788 31.2641 32.8788 31.251 32.8788Z" fill="white"/>
</svg>
