<svg width="64" height="64" viewBox="0 0 64 64" fill="none" xmlns="http://www.w3.org/2000/svg">
<path d="M26.483 61.4802C25.5524 61.2971 24.6066 61.1598 23.7065 60.9004C17.3756 59.1153 12.9821 53.058 13.2872 46.5582C13.5923 39.738 18.4129 34.1232 25.0185 32.9025C33.058 31.4073 40.6704 36.8238 41.906 44.9256C41.9213 45.0019 41.9365 45.0782 41.9518 45.2003C44.1638 45.2003 46.3911 45.2003 48.6641 45.2003C48.5726 45.0782 48.4963 44.9561 48.4048 44.8646C47.5962 44.0559 46.7877 43.2473 45.9792 42.4386C45.1554 41.5994 45.1096 40.5009 45.8571 39.7533C46.6047 38.9904 47.7183 39.0209 48.5421 39.8448C50.4795 41.7825 52.4169 43.7203 54.3543 45.658C55.2391 46.5429 55.2391 47.5805 54.3543 48.4654C52.4322 50.3879 50.51 52.3256 48.5878 54.2328C47.764 55.0567 46.6352 55.1025 45.8877 54.3701C45.1096 53.6225 45.1554 52.4934 46.0097 51.639C46.7572 50.8761 47.52 50.1285 48.2675 49.3809C48.3895 49.2588 48.5116 49.1215 48.6794 48.9231C46.3911 48.9231 44.1943 48.9231 41.9671 48.9231C41.8755 49.3504 41.7992 49.7776 41.7077 50.1895C40.3347 56.2316 35.392 60.6563 29.2747 61.3734C29.1526 61.3887 29.0153 61.4345 28.8933 61.4802C28.0695 61.4802 27.2762 61.4802 26.483 61.4802ZM38.3821 47.1227C38.3973 41.157 33.6377 36.3355 27.7034 36.3203C21.7233 36.2897 16.9027 41.0654 16.8722 47.0312C16.8569 52.9817 21.6623 57.8184 27.6271 57.8184C33.5309 57.8336 38.3668 53.0122 38.3821 47.1227Z" fill="white"/>
<path d="M14.4771 19.2318C12.8906 19.2318 11.365 19.2318 9.85476 19.2318C9.00047 19.2318 8.31398 18.713 8.08515 17.9501C7.71903 16.7448 8.57332 15.6004 9.88527 15.5852C11.182 15.5547 12.4787 15.5852 13.7601 15.5852C13.9737 15.5852 14.172 15.5852 14.4619 15.5852C14.4619 15.3258 14.4619 15.1122 14.4619 14.8833C14.4619 13.5864 14.4466 12.2895 14.4619 11.0079C14.4771 9.92457 15.2399 9.14642 16.2772 9.13116C17.3146 9.13116 18.1079 9.90931 18.1079 10.9773C18.1231 12.4726 18.1079 13.9831 18.1079 15.5241C19.0842 15.5241 20.0453 15.5241 21.0216 15.5241C21.6928 11.2672 23.7523 7.84952 27.322 5.4388C30.3883 3.40952 33.7445 2.64664 37.36 3.15014C44.5605 4.15715 49.9761 10.5501 49.7473 17.7518C49.5184 25.106 43.8435 31.1786 36.7193 31.7889C28.8933 32.4449 22.1352 26.9522 21.0521 19.2775C20.1216 19.2775 19.1757 19.2775 18.1689 19.2775C18.1689 19.4454 18.1536 19.6285 18.1536 19.8116C18.1536 21.0169 18.1536 22.207 18.1536 23.4124C18.1536 24.8771 17.4671 25.7316 16.3077 25.7316C15.1636 25.7163 14.4924 24.8771 14.4924 23.4429C14.4771 22.0697 14.4771 20.6965 14.4771 19.2318ZM35.3463 28.1728C41.4026 28.1423 46.147 23.3361 46.1165 17.2788C46.086 11.3893 41.1891 6.61364 35.2395 6.65942C29.3815 6.70519 24.5913 11.5571 24.6219 17.4161C24.6524 23.3971 29.4425 28.2033 35.3463 28.1728Z" fill="white"/>
</svg>
