<svg width="65" height="64" viewBox="0 0 65 64" fill="none" xmlns="http://www.w3.org/2000/svg">
<path d="M32.1802 54.5781C30.718 56.1866 28.9633 56.8446 26.8431 56.8446C25.5271 56.8446 24.2111 56.7715 23.0414 56.2597C20.1169 55.0899 18.3623 52.2386 18.5085 48.9486C18.6547 45.293 21.0674 42.5879 24.6498 41.9299C24.796 41.9299 24.8691 41.8568 25.0885 41.8568C25.0885 41.7106 25.0885 41.4913 25.0885 41.345C25.0885 39.2248 25.0885 37.0315 25.0885 34.9113C25.0885 34.107 25.1616 33.3759 25.6734 32.7911C25.8927 32.4986 25.8927 32.2062 25.6734 31.9137C25.1616 31.2557 25.0154 30.5246 25.0885 29.7204C25.1616 27.8195 25.1616 25.9917 25.0885 24.0908C25.0885 23.3597 25.1616 22.7017 25.6734 22.1168C25.9658 21.7513 25.9658 21.4589 25.6734 21.1664C25.1616 20.5084 25.0885 19.7773 25.0885 19.0462C25.1616 17.3646 25.0154 15.6831 25.2347 14.0746C25.6002 10.1998 29.1827 7.49465 33.0576 8.07954C36.7862 8.59132 39.1989 11.3695 39.1989 15.1713C39.1989 16.4873 39.1989 17.7302 39.1989 19.0462C39.1989 19.8504 39.1258 20.5084 38.614 21.1664C38.3947 21.4589 38.3947 21.7513 38.614 22.0437C39.1258 22.7017 39.1989 23.3597 39.1989 24.164C39.1258 25.9917 39.1258 27.8195 39.1989 29.7204C39.1989 30.5246 39.1258 31.3288 38.614 31.9868C38.3947 32.2793 38.3947 32.4986 38.614 32.7911C39.1258 33.4491 39.272 34.2533 39.1989 35.0575C39.1258 37.3239 39.1989 39.5904 39.1989 41.9299C39.4913 42.003 39.7838 42.0761 40.0762 42.1493C43.7318 42.9535 45.9982 46.0972 45.7789 49.899C45.5595 53.5546 42.9275 56.4059 39.3451 56.8446C38.3216 56.9908 37.2249 56.9908 36.2013 56.9177C34.5929 56.6252 33.2769 55.821 32.1802 54.5781ZM27.9398 44.7081C27.6473 44.7081 27.5011 44.7081 27.2818 44.7081C26.5507 44.7081 25.7465 44.7081 25.0154 44.8544C23.1145 45.1468 21.6522 46.6821 21.4329 48.583C21.1405 50.6301 22.0178 52.531 23.7725 53.4815C25.1616 54.2126 26.6969 54.2126 28.1591 53.9201C29.4751 53.7008 30.2793 52.8235 30.6449 51.5806C30.718 51.2881 30.7911 50.9957 30.7911 50.7032C31.7416 50.7032 32.692 50.7032 33.5693 50.7032C33.7887 52.6041 34.8853 53.7739 36.5669 53.9932C37.298 54.0663 38.0291 54.0663 38.8333 53.9932C40.2224 53.847 41.4653 53.2621 42.2695 52.0923C43.2931 50.557 43.3662 48.8755 42.562 47.267C41.7578 45.6586 40.3687 44.9275 38.614 44.8544C37.956 44.7813 37.2249 44.8544 36.4938 44.8544C36.4938 43.6115 36.4938 42.5148 36.4938 41.345C36.4938 39.2248 36.4938 37.1046 36.4938 34.9844C36.4938 34.3995 36.1282 33.8877 35.6896 33.8877C33.4231 33.8877 31.1567 33.8877 28.8902 33.8877C28.744 33.8877 28.5247 33.9608 28.5247 34.0339C28.3785 34.3995 28.1591 34.6919 28.1591 35.0575C28.1591 37.6895 28.1591 40.3215 28.1591 42.9535C27.9398 43.4653 27.9398 44.0501 27.9398 44.7081ZM32.1802 20.1429C33.2769 20.1429 34.3004 20.1429 35.3971 20.1429C35.982 20.1429 36.4207 19.7773 36.4207 19.1924C36.4207 17.8033 36.4938 16.3411 36.4207 14.952C36.3476 12.7586 34.7391 11.004 32.6189 10.9309C30.2793 10.7846 28.3785 12.1738 28.1591 14.5133C27.8667 16.0486 28.0129 17.6571 28.0129 19.2655C28.0129 19.8504 28.4516 20.1429 28.9633 20.1429C30.06 20.1429 31.0836 20.1429 32.1802 20.1429ZM32.1802 30.8902C33.2769 30.8902 34.3004 30.8902 35.3971 30.8902C35.982 30.8902 36.4207 30.5246 36.4207 29.9397C36.4207 27.8926 36.4207 25.9186 36.4207 23.8715C36.4207 23.2866 35.982 22.9211 35.3971 22.9211C33.2769 22.9211 31.1567 22.9211 29.0365 22.9211C28.4516 22.9211 28.0129 23.2866 28.0129 23.8715C28.0129 25.9186 28.0129 27.8926 28.0129 29.9397C28.0129 30.5246 28.4516 30.8902 29.0365 30.8902C30.06 30.8902 31.0836 30.8902 32.1802 30.8902Z" fill="white"/>
</svg>
