<svg width="64" height="64" viewBox="0 0 64 64" fill="none" xmlns="http://www.w3.org/2000/svg">
<path d="M21.8358 53.1537C20.5462 52.8957 20.0948 52.4444 20.1593 51.6061C20.2238 50.7678 20.6751 50.381 21.8358 50.1875C21.8358 49.7361 21.8358 49.2203 21.8358 48.7689C20.6107 48.5755 20.1593 48.1241 20.1593 47.2859C20.2238 46.4476 20.7396 45.9962 21.9648 45.9317C22.3517 44.7711 23.061 43.8683 24.2216 43.3525C24.3506 43.288 24.4151 43.0946 24.4151 42.9656C24.4151 42.2563 24.4151 41.4825 24.4151 40.7732C24.4151 33.8092 24.4151 26.8452 24.4151 19.8812C24.4151 16.9151 25.1244 14.0779 26.6074 11.4986C27.1878 10.5314 27.8971 9.69316 28.7998 9.04835C30.7342 7.62976 33.0556 7.62976 34.99 9.17731C36.4731 10.338 37.3758 11.95 38.0851 13.691C38.9234 15.7544 39.3103 17.8823 39.3103 20.0747C39.3103 27.6835 39.3103 35.2923 39.3103 42.8366C39.3103 43.159 39.3748 43.3525 39.7617 43.5459C41.1158 44.1907 41.8251 45.3514 41.8895 46.8345C41.954 49.4137 41.8895 51.993 41.8895 54.5723C41.8895 55.475 41.3092 56.0553 40.4065 56.0553C34.7321 56.0553 29.0577 56.0553 23.3834 56.0553C22.4806 56.0553 21.9003 55.475 21.9003 54.5723C21.7713 53.9919 21.8358 53.5406 21.8358 53.1537ZM36.4731 43.0301C36.4731 42.8366 36.4731 42.6432 36.4731 42.4497C36.4731 35.0344 36.4731 27.6835 36.4731 20.2681C36.4731 19.9457 36.4731 19.6233 36.4731 19.3009C36.3441 16.7216 35.6993 14.3358 34.2162 12.2079C32.7332 10.209 30.9277 10.209 29.5091 12.2079C27.9615 14.3358 27.3167 16.7216 27.3167 19.2364C27.2523 27.0387 27.3167 34.7765 27.2523 42.5787C27.2523 42.7077 27.2523 42.7722 27.2523 42.9011C30.2829 43.0301 33.3135 43.0301 36.4731 43.0301ZM38.9879 53.1537C38.9879 52.9602 38.9879 52.8313 38.9879 52.7023C38.9879 50.8323 38.9879 49.0269 38.9879 47.1569C38.9879 46.1897 38.6655 45.8673 37.6982 45.8673C33.7649 45.8673 29.8315 45.8673 25.9626 45.8673C24.9954 45.8673 24.673 46.1897 24.673 47.1569C24.673 49.0269 24.673 50.8323 24.673 52.7023C24.673 52.8313 24.673 53.0247 24.673 53.1537C29.4446 53.1537 34.2162 53.1537 38.9879 53.1537Z" fill="white"/>
<path d="M17 27.8133C17 26.7816 17.3869 25.8789 18.0317 25.1051C18.741 24.3313 18.741 23.8155 18.0317 22.9772C16.6776 21.3652 16.6776 19.1083 18.0962 17.5608C18.6765 16.916 19.5148 16.8515 20.0951 17.3673C20.6754 17.8832 20.7399 18.7214 20.2241 19.3663C19.6437 20.0756 19.7082 20.5914 20.2886 21.3007C21.7716 22.9772 21.7071 25.2341 20.2241 26.8461C19.6437 27.4909 19.6437 28.0713 20.1596 28.7161C20.6754 29.4254 20.6754 30.2636 20.0306 30.7795C19.3858 31.2953 18.5476 31.1664 17.9672 30.5216C17.3869 29.7478 17 28.7806 17 27.8133Z" fill="white"/>
<path d="M42.5342 38.9032C42.5342 37.8715 42.9211 36.9043 43.6304 36.1305C44.2752 35.3567 44.2752 34.8409 43.6304 34.0671C42.2118 32.4551 42.2118 30.1337 43.6948 28.5862C44.2752 27.9414 45.1134 27.8769 45.6938 28.3927C46.2741 28.9086 46.3386 29.7468 45.8227 30.3917C45.3069 31.101 45.3069 31.6168 45.8872 32.2616C47.3703 33.9381 47.3703 36.1305 45.8872 37.807C45.2424 38.5163 45.2424 38.9677 45.8227 39.7415C46.3386 40.3863 46.2741 41.2245 45.6938 41.7404C45.1134 42.2562 44.2752 42.1918 43.6948 41.5469C42.9211 40.9021 42.5342 39.9349 42.5342 38.9032Z" fill="white"/>
</svg>
