<svg width="64" height="64" viewBox="0 0 64 64" fill="none" xmlns="http://www.w3.org/2000/svg">
<path d="M39.8524 28.7305C39.8524 27.7298 39.8524 26.7291 39.8524 25.7284C39.8359 23.9566 38.5891 22.6934 36.8338 22.6934C36.0791 22.6934 35.3901 22.7098 35.1276 21.8075C34.8323 20.7904 34.8159 19.8225 35.5542 18.9694C35.669 18.8218 35.9479 18.7725 36.1612 18.7561C36.7189 18.7233 37.2603 18.7397 37.8181 18.7397C38.3267 18.7397 38.7204 18.5101 38.8352 18.0179C39.6063 14.9009 40.0492 11.7511 39.0977 8.58489C38.3759 6.17332 36.9978 4.2375 34.6027 3.22037C34.3074 3.08913 33.9793 3.03991 33.6512 3.02351C32.6833 3.0071 31.7318 3.07272 30.7638 3.0071C29.4678 2.92508 28.4671 3.56488 27.5648 4.33593C25.6946 5.92724 24.8251 8.05992 24.497 10.4387C24.1525 12.9487 24.5298 15.4095 25.104 17.8539C25.2517 18.4608 25.6126 18.7561 26.236 18.7397C26.7446 18.7397 27.2531 18.7561 27.7781 18.7397C28.2374 18.7233 28.5163 18.9366 28.7132 19.3139C29.0577 19.9701 29.1397 20.6756 28.9757 21.3974C28.746 22.4473 28.4507 22.677 27.4008 22.677C25.3501 22.677 24.1853 23.8746 24.1361 25.9088C24.0049 30.7976 24.4478 35.6371 24.8415 40.4931C25.2025 45.021 25.5306 49.5488 25.8751 54.0766C25.9735 55.3399 26.0227 56.6195 26.236 57.8663C26.6461 60.245 28.7296 61.9512 31.1248 61.984C31.9614 62.0004 32.8145 62.0332 33.6348 61.902C36.0956 61.4918 37.7361 59.556 37.9165 57.0788C38.3267 51.419 38.8024 45.7756 39.2125 40.1322C39.4914 36.3262 39.7375 32.5366 40 28.7305C39.9508 28.7305 39.9016 28.7305 39.8524 28.7305ZM37.7361 32.5366C37.7361 32.9139 37.7525 33.2584 37.7361 33.5865C37.6376 34.8989 37.5228 36.1949 37.4244 37.5073C36.9158 44.0366 36.4237 50.5659 35.9315 57.0952C35.8003 58.7522 34.455 60.0154 32.7981 60.0318C32.3223 60.0318 31.863 60.0318 31.3872 60.0318C29.5006 60.0318 28.2046 58.785 28.0734 56.882C27.9585 55.1266 27.8109 53.3712 27.6797 51.6159C27.2531 46.0545 26.8102 40.4767 26.3836 34.9153C26.318 34.1279 26.2852 33.3404 26.2196 32.5366C30.1076 32.5366 33.9137 32.5366 37.7361 32.5366ZM26.8758 16.7711C26.4493 14.7369 26.1868 12.7354 26.4657 10.7012C26.7446 8.74894 27.4172 7.02639 28.9757 5.73038C29.5827 5.23822 30.2225 4.89371 31.0427 4.97573C31.5677 5.02495 32.1091 5.04135 32.634 4.97573C34.0285 4.79528 34.98 5.5007 35.8003 6.46861C36.9158 7.74822 37.3916 9.29031 37.572 10.9636C37.7853 12.9323 37.5392 14.8517 37.1127 16.7711C33.684 16.7711 30.3045 16.7711 26.8758 16.7711ZM37.9001 26.565C33.9301 26.565 30.0256 26.565 26.1376 26.565C26.0227 24.8589 26.2032 24.6948 27.8437 24.6128C28.4179 24.58 29.0577 24.3831 29.5499 24.0714C30.3373 23.5793 30.7802 22.7262 30.8787 21.8075C30.9771 20.8068 30.8951 19.7733 30.8787 18.7561C31.6005 18.7561 32.4536 18.7561 33.3395 18.7561C33.2738 18.9694 33.2246 19.1335 33.1754 19.3139C32.8309 20.6099 32.9293 21.8731 33.5855 23.0543C34.1597 24.0879 35.0128 24.6784 36.2268 24.6128C36.3908 24.6128 36.5549 24.6128 36.7189 24.6128C37.5556 24.6292 37.9001 24.9737 37.9001 25.8268C37.9001 26.0729 37.9001 26.3026 37.9001 26.565ZM26.1376 28.6157C30.0912 28.6157 33.9793 28.6157 37.8673 28.6157C37.8673 29.2719 37.8673 29.8789 37.8673 30.5023C33.9465 30.5023 30.0584 30.5023 26.1376 30.5023C26.1376 29.8789 26.1376 29.2719 26.1376 28.6157Z" fill="white"/>
<path d="M29.0577 40.3787C29.0577 41.3466 29.0413 42.2981 29.0577 43.266C29.0741 44.9558 30.3537 46.2518 31.9778 46.2682C33.6347 46.2846 34.9308 44.9722 34.9472 43.2496C34.9636 41.3302 34.9636 39.4108 34.9472 37.475C34.9308 35.7852 33.6512 34.4892 32.027 34.4728C30.3701 34.4564 29.0741 35.7688 29.0577 37.4914C29.0413 38.4593 29.0577 39.4272 29.0577 40.3787ZM32.9785 40.3131C32.9785 41.2482 32.9785 42.1997 32.9785 43.1348C32.9785 43.8566 32.5848 44.2996 31.9942 44.2996C31.4036 44.2996 31.0099 43.8566 31.0099 43.1348C31.0099 41.2974 31.0099 39.4436 31.0099 37.6062C31.0099 36.8844 31.4036 36.4414 31.9942 36.4414C32.5848 36.4414 32.9621 36.8844 32.9785 37.6062C32.9949 38.5085 32.9785 39.4108 32.9785 40.3131Z" fill="white"/>
<path d="M32.9624 50.1718C32.9624 49.532 32.9624 48.925 32.9624 48.2852C32.339 48.2852 31.7156 48.2852 31.0594 48.2852C31.0594 48.9086 31.0594 49.5156 31.0594 50.1718C31.6664 50.1718 32.2734 50.1718 32.9624 50.1718Z" fill="white"/>
<path d="M34.1926 13.6544C34.6356 13.7693 35.2426 13.9169 35.8496 14.0646C36.5714 11.571 35.4887 7.76495 33.6349 6.32129C33.2083 6.74783 32.7818 7.19077 32.4373 7.53528C32.9294 8.51959 33.52 9.42188 33.8153 10.4062C34.0942 11.4069 34.0778 12.4897 34.1926 13.6544Z" fill="white"/>
</svg>
