<svg width="64" height="64" viewBox="0 0 64 64" fill="none" xmlns="http://www.w3.org/2000/svg">
<path d="M6 18.4002C6.22431 18.0854 6.35889 17.7256 6.62806 17.5008C7.1664 17.0061 7.79446 16.9612 8.46738 17.231C12.3255 18.8948 16.3182 19.9291 20.4006 20.6486C20.4903 20.6486 20.6249 20.6935 20.7146 20.6935C21.2081 20.8284 21.4324 21.1882 21.3426 21.6379C21.2529 22.0426 20.894 22.3124 20.4006 22.2225C19.0098 21.9527 17.6191 21.6828 16.2284 21.3681C16.049 21.3231 15.9144 21.3231 15.6901 21.2781C15.1518 23.1668 14.6583 25.0555 14.1199 27.0341C14.748 27.2139 15.3312 27.4388 15.9593 27.6187C19.5033 28.7429 22.3745 30.7664 24.3932 33.9142C24.4381 34.0042 24.483 34.0491 24.5727 34.1391C25.5148 33.5994 26.4569 33.0149 27.399 32.4752C27.3092 32.0705 27.1746 31.6658 27.1298 31.2611C26.726 28.2932 28.5205 25.5951 31.4365 24.9206C31.7954 24.8306 31.93 24.7407 31.8851 24.3809C31.8402 24.0212 31.8851 23.6615 31.8851 23.2118C31.6608 23.2118 31.4814 23.1668 31.3019 23.1668C28.8345 22.9869 26.412 22.852 23.9446 22.6721C23.3166 22.6272 23.0474 22.2674 23.0922 21.7728C23.1371 21.2781 23.5409 21.0533 24.1241 21.0983C30.4047 21.7728 36.6404 21.7278 42.8762 20.8734C47.6315 20.1989 52.2971 19.1197 56.7384 17.186C58.0394 16.6014 59.2506 17.4558 59.2506 18.8948C59.2506 21.0083 59.2506 23.1218 59.2506 25.2353C59.2506 26.3146 58.6226 27.0341 57.5459 27.079C56.9179 27.124 56.6038 27.3489 56.3795 27.9784C55.7066 29.7771 55.0337 31.6658 54.1364 33.3296C51.9382 37.2868 48.5736 39.94 44.3566 41.5588C42.7865 42.1434 41.2163 42.8179 39.6462 43.4025C39.3321 43.5374 39.1975 43.6723 39.1975 43.9871C39.1975 44.3918 39.1527 44.7966 39.1527 45.2013C39.063 46.2355 38.3452 47 37.3134 47C34.173 47 31.0776 47 27.9373 47C26.8606 47 26.0082 46.2355 26.098 45.1563C26.1877 43.8972 25.6942 43.3576 24.5278 42.9529C22.6885 42.3683 20.894 41.6488 19.1893 40.7944C14.5686 38.6809 11.3834 35.1284 9.63379 30.2718C9.36462 29.4624 9.00572 28.6979 8.78142 27.8885C8.64683 27.4388 8.37766 27.2139 7.92905 27.2139C7.61502 27.2139 7.30098 27.124 7.03182 27.0341C6.49348 26.8092 6.22431 26.3595 6 25.8649C6 23.3467 6 20.8734 6 18.4002ZM40.6331 34.0941C41.4855 33.1048 42.293 32.1155 43.1454 31.2161C43.5491 30.7664 44.0426 30.7664 44.3566 31.1262C44.6706 31.4859 44.6706 31.8906 44.222 32.3403C41.7546 34.7686 40.4088 37.7365 39.691 41.0642C39.6462 41.334 39.6013 41.6038 39.5564 41.9186C41.3958 41.1991 43.1454 40.4796 44.895 39.7601C46.4651 39.0856 47.9007 38.1862 49.2017 37.062C52.1177 34.5887 53.7327 31.351 54.8542 27.7985C54.8542 27.7985 54.8094 27.7536 54.7645 27.6636C52.1625 28.3831 49.4708 29.0127 47.0483 30.2718C46.4202 30.5866 45.9716 30.5416 45.7473 30.047C45.523 29.5973 45.7025 29.1926 46.3305 28.8778C47.138 28.4731 47.9904 28.1133 48.8428 27.7985C49.6054 27.5287 50.3681 27.3039 51.1756 27.0341C50.6372 25.1004 50.1438 23.2118 49.6054 21.2781C44.2669 22.5822 38.8835 23.1218 33.4104 23.2118C33.4104 23.6165 33.4104 24.0212 33.4104 24.3809C33.4104 24.6957 33.5001 24.8306 33.859 24.9206C36.1918 25.4602 37.8966 27.2589 38.1657 29.6872C38.2554 30.5866 38.076 31.5309 38.0311 32.5652C38.8386 33.0149 39.7807 33.5545 40.6331 34.0941ZM25.2905 35.4881C25.3802 35.668 25.425 35.7579 25.4699 35.8928C26.8158 38.7258 27.4887 41.7387 27.6233 44.8865C27.6681 45.3811 27.8027 45.516 28.2962 45.516C31.1673 45.516 34.0385 45.516 36.9096 45.516C37.5825 45.516 37.5825 45.516 37.6274 44.7966C37.8068 41.6937 38.4349 38.7258 39.7807 35.8928C39.8256 35.7579 39.9153 35.623 39.9602 35.4431C38.9732 34.8586 38.076 34.3189 37.089 33.7344C35.9226 35.1733 34.4422 35.9378 32.6478 35.9378C30.8084 35.9378 29.328 35.1733 28.1616 33.7344C27.2195 34.3639 26.2774 34.9035 25.2905 35.4881ZM25.7839 41.8736C25.4699 40.7044 25.2456 39.6702 24.8867 38.6359C23.6754 34.9935 21.567 32.0256 18.1575 30.1819C16.363 29.2375 14.434 28.7429 12.5049 28.1583C11.832 27.9784 11.1142 27.7985 10.3516 27.5737C10.6656 28.4281 10.9348 29.1926 11.2039 29.912C12.5498 33.5994 14.8826 36.5674 18.2921 38.546C20.0417 39.5353 22.0156 40.2548 23.8549 41.0642C24.4381 41.379 25.0662 41.6038 25.7839 41.8736ZM32.6478 26.3146C30.4495 26.3146 28.6102 28.1133 28.6102 30.3617C28.6102 32.6101 30.4495 34.4538 32.6926 34.4089C34.8908 34.4089 36.7302 32.5652 36.7302 30.3617C36.6853 28.1583 34.846 26.3146 32.6478 26.3146ZM14.1199 20.9184C14.0302 20.8734 14.0302 20.8284 13.9854 20.8284C11.9666 20.109 9.99268 19.4344 8.01877 18.7149C7.61502 18.58 7.57015 18.7599 7.57015 19.0747C7.57015 21.0983 7.57015 23.1218 7.57015 25.1904C7.57015 25.5501 7.70474 25.6401 8.01877 25.685C8.73655 25.775 9.4992 25.9099 10.217 26.0448C11.0245 26.2246 11.7871 26.4045 12.5946 26.5844C13.0881 24.6508 13.6265 22.7621 14.1199 20.9184ZM52.656 26.4945C54.3159 26.1797 55.886 25.9099 57.4562 25.5951C57.5459 25.5951 57.6805 25.2803 57.6805 25.1004C57.6805 23.1218 57.6805 21.0983 57.6805 19.1197C57.6805 18.58 57.6356 18.5351 57.0973 18.7599C55.9309 19.2096 54.7645 19.6593 53.5981 20.064C52.7906 20.3338 51.9382 20.6036 51.0858 20.8284C51.669 22.7621 52.1625 24.6508 52.656 26.4945Z" fill="white"/>
</svg>
