<svg width="64" height="64" viewBox="0 0 64 64" fill="none" xmlns="http://www.w3.org/2000/svg">
<path d="M0 17.0402C0.484216 16.2254 1.20219 16 2.10384 16C6.56196 16.0347 11.0201 16.0173 15.4782 16.0173C15.7287 16.0173 15.9791 16.0173 16.2129 16.0867C16.6637 16.2254 16.8975 16.5721 16.8641 17.0575C16.8307 17.5603 16.5802 17.855 16.1127 17.9416C15.8622 17.9937 15.6118 17.9937 15.3613 17.9937C11.137 17.9937 6.9126 17.9937 2.67154 17.9937C2.42108 17.9937 2.18732 17.9937 1.90347 17.9937C1.90347 19.1378 1.90347 20.1953 1.90347 21.3395C21.94 21.3395 41.9932 21.3395 62.0631 21.3395C62.0631 20.2474 62.0631 19.1725 62.0631 17.9937C61.7626 17.9937 61.4787 17.9937 61.1949 17.9937C47.7871 17.9937 34.3626 17.9937 20.9549 17.9937C20.6877 17.9937 20.4206 17.9937 20.1367 17.959C19.6024 17.907 19.3019 17.5429 19.2852 17.0228C19.2685 16.4854 19.6024 16.1387 20.1033 16.0347C20.287 16 20.4707 16.0173 20.671 16.0173C34.4795 16.0173 48.288 16.0173 62.0965 16.0173C63.449 16.0173 63.9833 16.5548 63.9833 17.9763C63.9833 23.8186 63.9833 29.6609 64 35.4858C64 36.1099 63.8163 36.526 63.3321 36.9074C55.2173 43.3911 47.1025 49.8748 38.9877 56.3759C38.4868 56.7746 37.9859 56.9827 37.3347 56.9827C33.7282 56.9653 30.1216 56.9827 26.5317 56.948C26.0976 56.948 25.58 56.7573 25.2293 56.4799C17.1145 50.0482 9.01644 43.5645 0.935038 37.0808C0.617793 36.8207 0.317245 36.526 0 36.2313C0 29.8342 0 23.4372 0 17.0402ZM61.0446 36.214C60.8776 36.1446 60.8276 36.1099 60.7775 36.1099C57.5549 35.2605 54.3491 35.4165 51.1599 36.3353C47.5367 37.3755 44.6648 39.5425 42.4106 42.663C41.9598 43.2871 41.4589 43.4085 40.9747 43.0444C40.4905 42.6803 40.4571 42.0562 40.9246 41.4495C41.4756 40.7387 42.0433 40.0626 42.6444 39.3865C42.8949 39.1091 42.9617 38.8837 42.8615 38.537C41.5257 33.6482 40.2066 28.7421 38.8876 23.8359C38.7874 23.4719 38.6204 23.3679 38.2865 23.3679C34.0955 23.3852 29.9212 23.3852 25.7302 23.3679C25.3629 23.3679 25.1959 23.4719 25.0791 23.8706C24.5113 26.0376 23.927 28.1873 23.3426 30.3543C23.1589 31.0478 22.9752 31.7412 22.7915 32.4347C25.5967 33.0588 27.5001 34.6884 28.168 37.5142C28.9194 40.6693 27.8007 43.1831 25.413 44.9167C25.8805 46.6156 26.4148 48.2106 26.7154 49.8575C27.0159 51.5218 27.066 53.2381 27.233 54.9717C30.3887 54.9717 33.628 54.9717 36.9006 54.9717C36.9006 54.729 36.9006 54.5036 36.9006 54.2956C36.8839 51.4351 37.2846 48.6613 38.3532 46.0089C38.6371 45.3154 39.1213 45.0381 39.6556 45.2808C40.1899 45.5235 40.3235 46.0436 40.1064 46.7717C39.7224 48.1239 39.305 49.4934 39.0378 50.8803C38.8542 51.8512 38.8542 52.8567 38.7874 53.8448C38.8375 53.8622 38.9043 53.8795 38.9543 53.8968C46.3011 48.0199 53.6311 42.1429 61.0446 36.214ZM62.0965 23.4199C54.9502 23.4199 47.8706 23.4199 40.7409 23.4199C42.0099 28.1353 43.2789 32.7987 44.5479 37.5142C49.941 33.6135 55.8184 32.7467 62.0965 34.3763C62.0965 30.7357 62.0965 27.0951 62.0965 23.4199ZM19.4521 37.4795C20.7211 32.7814 21.9734 28.118 23.2424 23.4025C16.1127 23.4025 9.01644 23.4025 1.92017 23.4025C1.92017 27.0951 1.92017 30.7357 1.92017 34.3763C8.21498 32.7467 14.059 33.5962 19.4521 37.4795ZM25.2293 54.0529C25.1959 47.6558 22.7081 42.6803 17.9995 38.9184C13.4913 35.3125 6.57866 34.9484 2.98878 36.266C10.3856 42.1776 17.749 48.0545 25.2293 54.0529ZM24.4446 43.1658C24.4112 43.1831 24.3611 43.1831 24.4446 43.1658C25.9974 42.1776 26.7989 40.0799 26.3814 38.0863C25.9974 36.266 24.3778 34.6537 22.6747 34.4457C22.5077 34.4283 22.2071 34.6364 22.1571 34.7924C21.7897 36.0406 21.4558 37.3061 21.1385 38.5717C21.0884 38.745 21.1385 39.0051 21.2387 39.1438C22.2739 40.496 23.3426 41.7962 24.4446 43.1658Z" fill="white"/>
<path d="M61.0446 36.2139C53.6311 42.1428 46.3011 48.0198 38.971 53.8794Z" fill="white"/>
</svg>
