<svg width="64" height="64" viewBox="0 0 64 64" fill="none" xmlns="http://www.w3.org/2000/svg">
<g clip-path="url(#clip0_501_1995)">
<path d="M0 35.8745C0.213823 34.7522 0.387555 33.6165 0.654834 32.4941C1.38985 29.4879 2.85989 26.8424 4.90457 24.5309C5.79996 23.5154 5.81332 23.5154 7.47045 23.462C7.47045 23.2348 7.47045 23.0077 7.47045 22.7672C7.47045 20.282 7.43036 17.7835 7.48382 15.2983C7.57736 11.0227 8.60639 6.96094 10.5709 3.153C11.64 1.09538 13.4174 0.0398505 15.7561 -0.000233029C16.5579 -0.0135942 17.3598 -0.0135942 18.1616 -0.000233029C19.939 0.0131281 21.3289 1.38933 21.3422 3.16636C21.3823 9.92712 20.4736 16.5676 18.7496 23.1012C18.5091 24.0098 17.9745 24.3973 17.3063 24.1568C16.6916 23.943 16.4644 23.4219 16.6114 22.7138C17.146 20.2419 17.734 17.7835 18.1883 15.3117C18.91 11.3968 19.1639 7.42858 19.1906 3.44695C19.1906 3.09956 18.9902 2.73881 18.8031 2.40478C17.5068 4.91668 16.6381 7.50874 15.9833 10.181C15.0879 13.9221 14.8474 17.7167 14.9142 21.5513C14.9275 22.4866 14.9409 23.4219 14.9008 24.3438C14.8741 24.7981 15.0345 24.9985 15.4621 25.1588C18.0948 26.1209 20.4869 27.4971 22.6786 29.2206C23.133 29.568 23.4404 29.9689 23.1998 30.5835C22.9058 31.3317 22.1174 31.5188 21.4091 30.9576C19.7519 29.6749 17.9879 28.5793 16.0768 27.7242C13.2704 26.4816 10.3303 25.8002 7.25663 25.6532C7.01608 25.6399 6.65525 25.7601 6.52161 25.9472C5.62623 27.2031 4.77093 28.5125 3.91564 29.7952C3.68845 30.1426 3.80873 30.3563 4.12946 30.5434C4.79766 30.971 5.47922 31.0244 6.21424 30.7037C7.01608 30.3563 7.31009 30.4499 7.88474 31.1179C8.69994 32.0799 9.98288 32.2403 10.9718 31.4386C11.4529 31.0511 11.9207 30.8507 12.4819 31.1981C13.0299 31.5455 12.9898 32.0799 12.8695 32.6277C12.522 34.2311 13.9119 35.5271 15.5022 35.0862C16.4778 34.819 16.8119 34.9793 17.1994 35.9146C17.5469 36.7563 18.175 37.1973 19.0704 37.3175C19.9658 37.4378 20.1529 37.6248 20.2598 38.52C20.4068 39.7092 21.2353 40.4707 22.4515 40.5242C23.4003 40.5643 23.8146 41.0854 23.574 42.0206C23.3067 43.0227 23.5874 43.811 24.416 44.4123C24.9639 44.8131 25.0708 45.3075 24.8035 45.9355C24.309 47.1246 24.5095 47.8862 25.4851 48.6879C26.0464 49.1421 26.1533 49.543 25.8192 50.2645C25.4583 51.0528 25.5118 51.7877 26.0464 52.4424C26.1666 52.5893 26.5542 52.6962 26.6745 52.6161C27.9975 51.7609 29.2938 50.8791 30.5767 49.9705C30.7237 49.8637 30.8307 49.5563 30.8173 49.3426C30.55 43.5705 28.5321 38.5067 24.7367 34.1376C24.3491 33.6966 24.0551 33.2424 24.3892 32.6411C24.6298 32.2002 25.0441 31.9998 25.5118 32.1334C25.8058 32.2135 26.0998 32.4407 26.3136 32.6678C28.786 35.4737 30.5634 38.667 31.7127 42.2211C31.7795 42.4215 31.8463 42.6219 31.98 42.996C34.4122 35.3668 39.1163 29.8085 46.0656 26.2277C45.4776 23.8762 44.8494 21.5781 44.3416 19.2399C43.1923 13.9355 42.6177 8.55092 42.6578 3.11292C42.6711 1.41605 44.061 0.0131281 45.7582 -0.000233029C46.9609 -0.000233029 48.1637 -0.0536777 49.3397 0.120017C51.184 0.387241 52.5738 1.4695 53.4157 3.12628C55.3134 6.82732 56.3424 10.7822 56.5028 14.9376C56.5696 16.6879 56.5295 18.4515 56.5162 20.2019C56.5162 20.9768 56.1019 21.4444 55.4471 21.4444C54.7922 21.4444 54.4047 20.9768 54.3913 20.1885C54.3512 18.0774 54.3913 15.9664 54.2443 13.8553C54.0171 10.4348 53.0683 7.18808 51.5047 4.12837C50.7697 2.69872 49.4199 2.03066 47.5757 2.13755C49.1125 5.61146 50.3019 9.19225 50.7029 12.9334C51.1038 16.6745 51.1706 20.4424 51.3844 24.1568C52.7208 23.9563 54.1909 23.7292 55.6609 23.5421C56.2489 23.462 56.8636 23.4219 57.4517 23.462C57.8125 23.4887 58.2535 23.6357 58.5074 23.8895C61.6212 27.0829 63.5991 30.8908 63.8263 35.3534C64.0535 39.776 64.0535 44.2386 63.7995 48.6611C63.5189 53.8052 61.9419 58.6687 59.6701 63.2916C59.5364 63.5589 59.2692 63.7459 59.0687 63.973C57.024 63.973 54.9793 63.973 52.9346 63.973C52.4535 63.5989 52.0927 63.1714 52.3466 62.5167C52.6005 61.8887 53.1351 61.8353 53.7231 61.8353C54.9259 61.8486 56.1286 61.8085 57.318 61.8486C57.8258 61.862 58.053 61.6883 58.2535 61.2474C59.9641 57.4795 61.0733 53.5513 61.5811 49.4495C61.7014 48.4875 61.7281 47.4987 61.8083 46.5234C58.601 51.801 54.1107 55.1547 48.0434 56.1968C41.9896 57.239 36.644 55.5422 31.98 51.6006C31.8062 51.7342 31.6859 51.8411 31.5657 51.9346C26.0464 56.4507 19.8722 57.6265 13.0833 55.5288C11.2525 54.9676 9.56859 54.0457 8.01838 52.91C7.55064 52.576 7.35018 52.1351 7.59073 51.5739C7.80455 51.0929 8.19211 50.839 8.7133 50.9325C9.00731 50.986 9.28795 51.173 9.54187 51.3467C12.7225 53.538 16.2506 54.5534 20.0994 54.3396C21.4492 54.2595 22.7856 53.9388 24.2957 53.7117C23.5607 52.5893 23.3736 51.5472 23.4938 50.4248C23.5206 50.1442 23.4537 49.7701 23.2934 49.543C22.5183 48.4741 22.2376 47.325 22.4648 46.0156C22.5049 45.8286 22.4648 45.5614 22.3445 45.4144C21.663 44.5726 21.3022 43.624 21.3155 42.515C19.792 42.0206 18.7496 41.0453 18.2552 39.5087C18.2151 39.3751 17.9612 39.295 17.8142 39.1881C17.1326 38.6804 16.451 38.1593 15.7561 37.6783C15.5156 37.5046 15.2215 37.3042 14.9409 37.3042C13.8451 37.2774 12.8428 36.9701 12.0944 36.1952C11.5064 35.5672 11.0787 34.7789 10.5442 34.0039C9.26122 34.2979 7.96492 33.9906 6.81562 33.0687C6.70871 32.9751 6.52161 32.8816 6.4147 32.9083C5.18522 33.2156 4.04928 32.9751 2.95343 32.3204C2.88662 32.4941 2.83316 32.6144 2.79307 32.748C1.84423 36.2085 1.9645 39.629 3.15389 43.0227C3.83546 44.9467 4.83775 46.6837 6.13406 48.2603C6.48152 48.6879 6.68198 49.1288 6.37461 49.6632C5.96033 50.3714 5.10503 50.4248 4.54375 49.7167C3.80873 48.7814 3.14053 47.806 2.41888 46.8307C2.40551 46.8975 2.37878 46.9509 2.37878 47.0177C2.37878 47.1781 2.37878 47.325 2.39215 47.4854C2.99353 52.3488 4.41011 56.9718 6.70871 61.3008C6.94926 61.7417 7.21654 61.862 7.69764 61.862C11.0119 61.8353 14.3262 61.8085 17.6271 61.862C20.4201 61.9154 22.839 61.1004 24.9505 59.2298C26.621 57.7601 28.6523 56.9852 30.8841 56.7714C34.2385 56.4641 37.1251 57.5062 39.6509 59.6975C40.9739 60.8465 42.5241 61.568 44.2748 61.7016C45.7983 61.8219 47.3351 61.7685 48.872 61.8486C49.2328 61.862 49.6738 62.0357 49.9144 62.2762C50.3688 62.7438 50.1549 63.3718 49.4734 63.9597C47.696 63.9597 45.9186 63.9597 44.1412 63.9597C44.0209 63.9196 43.9006 63.8528 43.767 63.8394C41.6822 63.5321 39.8246 62.677 38.2209 61.3142C34.332 58.0273 29.6814 58.0273 25.7791 61.3142C24.6298 62.2895 23.3468 63.011 21.9035 63.4386C21.2353 63.639 20.5404 63.786 19.8588 63.9597C15.2349 63.9597 10.611 63.9597 5.98705 63.9597C5.78659 63.7325 5.53268 63.5455 5.38568 63.2916C2.80643 58.8023 1.12257 53.9789 0.400919 48.8081C0.253915 47.7793 0.13364 46.7639 0 45.7351C0 42.4482 0 39.1614 0 35.8745ZM60.2581 30.196C59.5231 28.5659 58.5742 27.1363 57.3715 25.8536C57.2512 25.72 56.9839 25.6399 56.7968 25.6399C54.2844 25.7735 51.8388 26.2812 49.46 27.1229C40.1453 30.4632 33.6104 39.3484 33.1426 49.3426C33.1293 49.5697 33.2629 49.877 33.4366 50.0106C34.6795 50.8925 35.9624 51.7342 37.2186 52.5893C37.5661 52.8165 37.7799 52.6962 37.9804 52.3889C38.4347 51.6941 38.5016 50.9994 38.1274 50.2511C37.8601 49.69 37.8868 49.1822 38.3947 48.7547C39.5306 47.7793 39.6642 47.2315 39.143 45.8553C38.9426 45.3209 38.996 44.8399 39.4771 44.4925C40.3725 43.8378 40.6799 43.0227 40.3859 41.9405C40.1587 41.0987 40.6131 40.5643 41.4684 40.5376C42.7647 40.4841 43.5665 39.7359 43.7135 38.4532C43.7937 37.705 44.208 37.3042 44.8494 37.3576C45.4776 37.3977 45.8384 37.8653 45.8384 38.6135C45.825 40.2169 44.7292 41.7401 43.1389 42.4081C42.9384 42.4883 42.6711 42.7154 42.6578 42.8891C42.5776 43.8511 42.2301 44.6795 41.6421 45.4545C41.5218 45.6148 41.4684 45.8954 41.4951 46.1092C41.6822 47.1513 41.5886 48.1801 41.0006 49.0486C40.573 49.6766 40.426 50.2645 40.4527 51.0394C40.4928 51.9079 40.1587 52.7764 39.985 53.6716C45.3038 55.4486 52.6406 54.1125 57.465 48.7814C62.0622 43.7042 62.6636 36.7563 61.0198 32.3739C59.9774 33.0152 58.8549 33.2424 57.6521 32.9618C57.5318 32.935 57.3447 33.0019 57.2378 33.0954C56.0752 34.044 54.7655 34.338 53.2955 34.0307C53.2153 34.2578 53.1485 34.4582 53.0683 34.6586C52.2531 36.7163 49.9812 37.8119 47.8831 37.1839C47.0946 36.9434 46.707 36.4223 46.854 35.7943C47.0144 35.1396 47.5891 34.8724 48.4444 35.0862C50.1416 35.5004 51.4512 34.2444 51.1038 32.5209C50.9969 31.9864 51.0236 31.492 51.5582 31.1847C52.066 30.8908 52.507 31.0378 52.9614 31.3985C54.0171 32.2536 55.2733 32.12 56.142 31.0912C56.6766 30.4632 56.9973 30.3697 57.7724 30.7037C58.6811 31.0912 59.483 30.9175 60.2581 30.196ZM16.4644 2.15092C14.6202 2.07075 13.257 2.672 12.4552 4.2219C11.2391 6.58682 10.4373 9.08536 9.99624 11.7042C9.34141 15.6457 9.67551 19.6273 9.62205 23.5956C9.62205 23.6357 9.66214 23.6758 9.67551 23.6891C10.7179 23.8895 11.7336 24.0766 12.8829 24.2904C12.4418 16.6478 13.1635 9.21897 16.4644 2.15092ZM48.0969 25.2791C49.0858 25.0386 49.0858 25.0386 49.0858 24.1568C49.0858 22.6469 49.0858 21.1371 49.0858 19.6273C49.0858 15.5655 48.5646 11.5839 47.3351 7.70916C46.7605 5.9054 46.0522 4.15509 45.3974 2.37806C45.2905 2.39142 45.1835 2.39142 45.0633 2.40478C44.9697 2.80561 44.8094 3.21981 44.8094 3.62064C44.8494 9.13881 45.4642 14.5902 46.707 19.9614C47.1347 21.7517 47.6292 23.5154 48.0969 25.2791Z" fill="white"/>
</g>
<defs>
<clipPath id="clip0_501_1995">
<rect width="64" height="64" fill="white"/>
</clipPath>
</defs>
</svg>
