<svg width="64" height="64" viewBox="0 0 64 64" fill="none" xmlns="http://www.w3.org/2000/svg">
<path d="M51.931 19.939C51.5091 21.4576 50.4967 22.3857 49.0624 22.9763C48.3874 23.2294 47.9656 23.7356 47.7124 24.4106C47.2062 25.7605 46.3625 26.6042 45.0126 27.1105C44.2532 27.3636 43.747 27.8698 43.4939 28.6291C42.9877 29.8947 42.144 30.8228 40.8784 31.2446C40.1191 31.4978 39.6128 32.0883 39.2754 32.8477C38.8535 34.1132 37.9254 34.957 36.6599 35.3788C35.9005 35.6319 35.3099 36.2225 35.0568 36.9819C34.635 38.2474 33.7913 39.0911 32.5257 39.513C31.682 39.7661 31.1758 40.3567 30.8383 41.116C30.4164 42.3816 29.5727 43.2253 28.3072 43.6471C27.4634 43.9003 26.9572 44.4909 26.7041 45.3346C26.2823 46.6001 25.4385 47.3595 24.173 47.8657C23.498 48.1188 22.9074 48.5407 22.6543 49.3C22.1481 50.8187 21.1356 51.8311 19.617 52.1686C19.7013 53.7716 18.8576 54.9528 17.8452 55.9653C16.1578 57.484 14.2172 58.5808 12.0236 58.9183C7.80505 59.5089 4.34585 55.9653 5.10518 51.7467C5.61141 49.2156 6.87697 47.1064 8.73313 45.4189C9.49247 44.744 10.4205 44.3221 11.433 44.3221C11.6017 44.3221 11.7705 44.1534 11.8548 43.9846C12.2767 42.7191 13.1204 41.8754 14.386 41.3691C15.2297 41.0317 15.7359 40.5254 16.1578 39.6817C16.4109 39.0911 16.7484 38.5849 17.0858 38.163C17.4233 37.7412 17.8452 37.8256 18.1827 38.0787C18.5201 38.4162 18.5201 38.7536 18.267 39.1755C18.0139 39.513 17.7608 39.9348 17.5921 40.3567C17.0858 41.5379 16.3265 42.3816 15.0609 42.8034C14.3016 43.0566 13.711 43.5628 13.4579 44.3221C13.3735 44.5752 13.4579 44.744 13.6266 44.8283C15.9046 46.1783 17.7608 48.0344 19.1107 50.3124C19.2795 50.5656 19.4482 50.5656 19.617 50.4812C20.2919 50.2281 20.7982 49.8062 21.0513 49.1313C21.5575 47.6969 22.4856 46.7689 23.9199 46.2626C24.5948 46.0095 25.0167 45.5033 25.2698 44.9127C25.776 43.5628 26.7041 42.6347 28.054 42.1285C28.729 41.8754 29.2352 41.4535 29.4883 40.6942C29.9946 39.3442 30.9227 38.4162 32.2726 37.9099C32.9476 37.6568 33.4538 37.1506 33.7069 36.4756C34.2131 35.1257 35.1412 34.1976 36.4911 33.6914C37.2505 33.4383 37.6723 32.9321 37.9254 32.1727C38.4317 30.9072 39.2754 29.9791 40.5409 29.5572C41.3003 29.3041 41.8065 28.7135 42.144 27.9542C42.5658 26.6886 43.4939 25.8449 44.7595 25.3387C45.5188 25.0856 46.025 24.5793 46.3625 23.7356C46.7844 22.4701 47.7124 21.542 48.978 21.1201C49.653 20.867 50.2436 20.4452 50.4967 19.6858C50.5811 19.4327 50.5811 19.264 50.2436 19.0952C47.9656 17.7453 46.1938 15.9735 44.8438 13.6955C44.6751 13.358 44.5064 13.358 44.1689 13.4424C43.5783 13.6955 43.0721 14.1174 42.8189 14.7923C42.3127 16.1423 41.3846 17.1547 40.0347 17.5766C39.3597 17.8297 38.8535 18.3359 38.6848 19.0109C38.1785 20.3608 37.2505 21.2889 35.9005 21.7951C35.2256 22.0482 34.7193 22.5544 34.4662 23.2294C33.96 24.5793 33.1163 25.5074 31.7664 25.9293C31.007 26.1824 30.5852 26.6886 30.3321 27.3636C29.8258 28.7135 28.9821 29.5572 27.6322 30.0634C26.9572 30.3166 26.451 30.8228 26.1979 31.5821C25.6917 32.9321 24.848 33.7758 23.498 34.282C22.8231 34.5351 22.3168 35.0413 22.0637 35.7163C21.8106 36.3069 21.4731 36.4756 20.9669 36.2225C20.545 36.0538 20.3763 35.6319 20.545 35.1257C20.9669 34.1132 21.6419 33.2695 22.7387 32.9321C23.7511 32.5946 24.4261 31.9196 24.7636 30.9072C25.1854 29.8103 25.9448 29.1354 26.9572 28.7135C27.8853 28.376 28.5603 27.7854 28.8978 26.773C29.3196 25.6762 30.0789 24.9168 31.1758 24.495C32.1038 24.1575 32.7788 23.5669 33.1163 22.5544C33.5381 21.4576 34.2975 20.6983 35.3943 20.2764C36.3224 19.9389 36.913 19.3484 37.2505 18.4203C37.6723 17.3235 38.4317 16.5641 39.5285 16.1423C40.4566 15.8048 41.1315 15.2142 41.469 14.2017C41.9752 12.8518 42.9033 12.0925 44.3376 11.755C44.2532 9.64571 45.6032 8.29578 47.1218 7.19896C48.8936 5.84902 50.8342 4.92095 53.1122 5.00532C55.6433 5.08969 57.4151 6.43962 58.5119 8.63326C58.765 9.22386 58.6806 9.56134 58.1744 9.81445C57.7526 9.98319 57.3307 9.81445 57.0776 9.30823C55.9808 7.03022 53.7871 6.10214 51.256 6.7771C49.3999 7.28333 47.8812 8.38015 46.5313 9.81445C45.8563 10.5738 45.6875 11.4175 46.025 12.4299C46.1938 12.8518 46.3625 13.2737 46.7 13.6111C47.7968 15.1298 49.0624 16.3954 50.5811 17.4078C52.1841 18.5046 53.3653 18.3359 54.7152 16.986C55.7277 15.8892 56.487 14.708 57.0776 13.358C57.0776 13.2737 57.162 13.1893 57.162 13.1049C57.0776 12.8518 57.4151 12.6831 57.8369 12.8518C58.2588 13.0205 58.4275 13.4424 58.2588 13.8643C57.4995 15.8048 56.487 17.5766 54.7996 18.9265C53.9559 19.6858 53.3653 19.8546 51.931 19.939ZM11.1799 57.3996C11.2643 57.3996 11.5174 57.3996 11.6861 57.3152C13.7954 56.9777 15.4828 55.8809 17.0015 54.4466C18.1827 53.3498 18.3514 52.1686 17.5077 50.8187C16.3265 48.9625 14.8078 47.3595 12.8673 46.2626C11.6861 45.5877 10.4205 45.7564 9.49247 46.6845C7.97379 48.1188 6.96134 49.8062 6.53949 51.7467C6.03326 54.7841 8.14253 57.3996 11.1799 57.3996Z" fill="white"/>
<path d="M42.4816 24.3272C42.4816 25.0865 41.891 25.5084 41.3005 25.2553C40.288 24.6647 39.3599 23.821 38.7693 22.8085C38.5162 22.3867 38.6006 21.9648 39.0224 21.7117C39.4443 21.4586 39.7818 21.6273 40.1193 21.9648C40.7099 22.6398 41.3005 23.2304 41.9754 23.821C42.1442 23.9897 42.3129 24.1585 42.4816 24.3272Z" fill="white"/>
<path d="M33.7908 32.9311C33.7908 33.7748 33.1159 34.1123 32.6096 33.7748C31.5972 33.1842 30.7535 32.3405 30.1629 31.3281C29.9098 30.9062 29.9941 30.4844 30.416 30.2312C30.8379 29.9781 31.1753 30.1469 31.5128 30.4844C32.1034 31.1593 32.694 31.6655 33.2846 32.3405C33.4533 32.5936 33.7065 32.8467 33.7908 32.9311Z" fill="white"/>
<path d="M29.4035 37.3194C29.4035 38.0787 28.8129 38.5006 28.2223 38.2475C27.2099 37.6569 26.2818 36.8132 25.6912 35.8007C25.4381 35.3789 25.6068 34.957 25.9443 34.7039C26.3662 34.4508 26.7037 34.6195 27.0411 34.957C27.6317 35.632 28.2223 36.2226 28.8973 36.8132C29.066 37.0663 29.2348 37.235 29.4035 37.3194Z" fill="white"/>
<path d="M8.05859 52.7596C8.14296 51.4096 8.73356 50.2284 9.4929 49.1316C9.74601 48.7941 10.0835 48.3723 10.3366 48.1192C10.7585 47.6973 11.1803 47.6129 11.6022 47.9504C11.9397 48.2879 11.9397 48.7098 11.5178 49.216C11.0116 49.9753 10.421 50.7347 9.99912 51.5784C9.74601 51.9159 9.74601 52.4221 9.66164 52.9283C9.57727 53.4345 9.23979 53.772 8.81793 53.6876C8.39608 53.6876 8.05859 53.2658 8.05859 52.7596Z" fill="white"/>
</svg>
