<svg width="64" height="64" viewBox="0 0 64 64" fill="none" xmlns="http://www.w3.org/2000/svg">
<path d="M11.0246 2.21533C10.8444 3.2395 10.6642 4.23985 10.484 5.26402C9.78887 9.07488 9.11949 12.8857 8.57884 16.6966C7.44605 24.4851 5.41218 32.1306 3.713 39.8476C2.37425 45.8973 0.829537 52.3043 0.958263 58.5684C0.984008 60.1404 1.11273 61.6886 1.37019 63.2129" fill="white"/>
<path d="M0.443358 63.308C0.185906 61.8075 0.031435 60.1879 0.00568977 58.5445C-0.097291 52.6615 1.21571 46.7308 2.47723 40.9907L2.78617 39.6331C3.24958 37.5609 3.713 35.4888 4.20216 33.4166C5.48942 27.9147 6.80242 22.2222 7.62627 16.5535C8.19266 12.5998 8.91353 8.55073 9.53141 5.09714L10.0721 2.07227L11.9257 2.35808L11.3851 5.38295C10.7672 8.83655 10.0463 12.8618 9.47992 16.7917C8.65608 22.5318 7.31733 28.2481 6.03007 33.7977C5.54091 35.8698 5.07749 37.942 4.61408 40.0142L4.30514 41.3718C3.04362 47.0166 1.75636 52.8282 1.85934 58.5445C1.88509 60.1165 2.01382 61.6408 2.27127 63.0699L0.443358 63.308Z" fill="white"/>
<path d="M60.6614 63.308L58.8077 63.046L60.3009 53.757C60.4812 52.6614 60.6871 51.5419 60.8673 50.4463C61.7684 45.3969 62.618 40.6095 61.7942 35.6078C60.8931 30.1773 58.4473 24.7468 54.6627 19.8403C50.2861 14.1479 47.4283 9.43192 46.7847 3.52508C46.6817 2.62 46.6302 1.6911 46.656 0.762207L48.5354 0.786025C48.5354 1.64347 48.5611 2.50091 48.6641 3.33454C49.282 8.8841 52.011 13.3619 56.2075 18.8162C60.1465 23.9132 62.721 29.6295 63.6478 35.322C64.5231 40.6095 63.5963 45.7542 62.721 50.7083C62.515 51.8039 62.3348 52.8996 62.1546 53.9952L60.6614 63.308Z" fill="white"/>
<path d="M35.1736 57.5678C35.7143 59.2827 35.637 61.2119 35.3796 62.9744C35.2251 63.9986 36.9243 64.4512 37.1045 63.4032C37.4135 61.3548 37.5164 59.1398 36.8986 57.1152C36.5639 56.1149 34.8389 56.5436 35.1736 57.5678Z" fill="white"/>
<path d="M26.4203 61.5454C25.6222 61.5454 24.7983 61.4977 24.0002 61.3787L24.2834 59.6638C25.1073 59.7829 25.9568 59.8305 26.7807 59.8067C36.2034 59.5685 43.4893 49.565 43.721 40.7762C43.7983 37.394 43.5408 34.1786 42.9744 31.4872C42.6397 29.9629 42.2021 28.5814 41.6872 27.3667L43.4121 26.7236C43.9785 28.0336 44.4676 29.5103 44.8023 31.1299C45.4202 33.9405 45.6777 37.2988 45.6004 40.8C45.343 50.3748 37.5679 61.2357 26.8322 61.4977C26.6777 61.5454 26.549 61.5454 26.4203 61.5454Z" fill="white"/>
<path d="M41.8931 50.8037C41.8931 50.8037 48.3552 53.9239 55.3321 53.3522C56.1817 53.2808 57.057 53.1617 57.9324 52.9711" fill="white"/>
<path d="M53.6072 54.305C47.1709 54.305 41.7129 51.7089 41.4555 51.5898L42.3308 50.0654C42.3823 50.0892 48.6641 53.0427 55.2549 52.5187C56.1045 52.4472 56.9283 52.3281 57.7007 52.1614L58.1383 53.8525C57.263 54.043 56.3362 54.1859 55.4094 54.2574C54.8172 54.2812 54.1993 54.305 53.6072 54.305Z" fill="white"/>
<path d="M9.99483 8.74106C9.99483 8.74106 39.988 1.61952 47.9947 5.95437Z" fill="white"/>
<path d="M10.2265 9.57492L9.76312 7.90767C10.9989 7.62186 40.2197 0.762303 48.4581 5.21625L47.5056 6.71678C39.9365 2.59628 10.5355 9.50347 10.2265 9.57492Z" fill="white"/>
<path d="M43.1804 46.4212C38.469 35.2267 5.84985 31.7493 5.51516 31.7017L5.72113 29.9868C7.11137 30.1297 39.782 33.631 44.9053 45.8019L43.1804 46.4212Z" fill="white"/>
<path d="M43.2319 49.5886L42.8714 47.8975C43.5408 47.7784 59.2969 44.825 60.6356 30.7725L62.4893 30.9154C61.0476 46.3017 43.4121 49.5648 43.2319 49.5886Z" fill="white"/>
<path d="M10.175 1.97712C9.99482 3.00129 9.81461 4.00164 9.63439 5.02581C9.45418 6.04997 11.1534 6.50251 11.3593 5.45453C11.5395 4.43036 11.7198 3.43001 11.9 2.40584C12.0802 1.38167 10.3553 0.952948 10.175 1.97712Z" fill="white"/>
<path d="M46.7332 0.78599C46.7332 1.66725 46.759 2.54851 46.8619 3.45359C46.9649 4.50158 48.7413 4.50158 48.6384 3.45359C48.5354 2.57233 48.5096 1.69107 48.5096 0.78599C48.5096 -0.261997 46.7332 -0.261997 46.7332 0.78599Z" fill="white"/>
<path d="M41.6614 27.2954C42.2536 28.6769 42.6912 30.106 43.0002 31.5588C43.2319 32.583 44.9568 32.1543 44.7251 31.1301C44.3904 29.6772 43.9785 28.2482 43.3863 26.8667C42.9744 25.8902 41.2495 26.3189 41.6614 27.2954Z" fill="white"/>
<path d="M55.3579 54.1859C56.3104 54.0906 57.263 53.9715 58.1898 53.7572C59.2969 53.519 58.8335 51.9232 57.7264 52.1614C56.9541 52.3281 56.156 52.4472 55.3579 52.5186C54.2251 52.6377 54.1993 54.2812 55.3579 54.1859Z" fill="white"/>
<path d="M26.8064 59.8542C25.9826 59.878 25.1845 59.8304 24.3864 59.7113C23.2793 59.5684 22.7902 61.1404 23.923 61.3071C24.8755 61.4262 25.8539 61.5215 26.8064 61.4977C27.9392 61.4977 27.9392 59.8304 26.8064 59.8542Z" fill="white"/>
<path d="M0.057181 58.5446C0.0829262 60.188 0.237397 61.7838 0.520594 63.4034C0.700811 64.4514 2.39999 63.9989 2.24552 62.9747C2.01382 61.498 1.88509 60.0213 1.85934 58.5446C1.80785 57.4728 0.0314358 57.4728 0.057181 58.5446Z" fill="white"/>
<path d="M59.6058 58.5919C59.3741 60.0448 59.1424 61.4977 58.9107 62.9506C58.7562 63.9747 60.4554 64.4273 60.6356 63.3793C60.8673 61.9264 61.099 60.4735 61.3307 59.0206C61.4852 57.9965 59.7603 57.5439 59.6058 58.5919Z" fill="white"/>
</svg>
