<svg width="35" height="35" viewBox="0 0 35 35" fill="none" xmlns="http://www.w3.org/2000/svg">
<g filter="url(#filter0_bii_308_30836)">
<g filter="url(#filter1_d_308_30836)">
<path fill-rule="evenodd" clip-rule="evenodd" d="M7.06851 17.6362C8.80329 13.1941 12.8839 10 18 10C23.1161 10 27.1967 13.1941 28.9315 17.6362C29.0228 17.8701 29.0228 18.1299 28.9315 18.3638C27.1967 22.8059 23.1161 26 18 26C12.8839 26 8.80329 22.8059 7.06851 18.3638C6.97716 18.1299 6.97716 17.8701 7.06851 17.6362ZM18 21C19.6569 21 21 19.6569 21 18C21 16.3431 19.6569 15 18 15C16.3431 15 15 16.3431 15 18C15 19.6569 16.3431 21 18 21Z" fill="url(#paint0_radial_308_30836)" fill-opacity="0.4"/>
</g>
</g>
<defs>
<filter id="filter0_bii_308_30836" x="-18.1818" y="-18.1818" width="71.3636" height="71.3636" filterUnits="userSpaceOnUse" color-interpolation-filters="sRGB">
<feFlood flood-opacity="0" result="BackgroundImageFix"/>
<feGaussianBlur in="BackgroundImageFix" stdDeviation="9.09091"/>
<feComposite in2="SourceAlpha" operator="in" result="effect1_backgroundBlur_308_30836"/>
<feBlend mode="normal" in="SourceGraphic" in2="effect1_backgroundBlur_308_30836" result="shape"/>
<feColorMatrix in="SourceAlpha" type="matrix" values="0 0 0 0 0 0 0 0 0 0 0 0 0 0 0 0 0 0 127 0" result="hardAlpha"/>
<feOffset dx="-9.09091" dy="9.09091"/>
<feGaussianBlur stdDeviation="4.54545"/>
<feComposite in2="hardAlpha" operator="arithmetic" k2="-1" k3="1"/>
<feColorMatrix type="matrix" values="0 0 0 0 1 0 0 0 0 1 0 0 0 0 1 0 0 0 0.15 0"/>
<feBlend mode="normal" in2="shape" result="effect2_innerShadow_308_30836"/>
<feColorMatrix in="SourceAlpha" type="matrix" values="0 0 0 0 0 0 0 0 0 0 0 0 0 0 0 0 0 0 127 0" result="hardAlpha"/>
<feOffset dy="-9.09091"/>
<feGaussianBlur stdDeviation="4.54545"/>
<feComposite in2="hardAlpha" operator="arithmetic" k2="-1" k3="1"/>
<feColorMatrix type="matrix" values="0 0 0 0 1 0 0 0 0 0.816667 0 0 0 0 1 0 0 0 1 0"/>
<feBlend mode="normal" in2="effect2_innerShadow_308_30836" result="effect3_innerShadow_308_30836"/>
</filter>
<filter id="filter1_d_308_30836" x="2" y="6" width="32" height="32" filterUnits="userSpaceOnUse" color-interpolation-filters="sRGB">
<feFlood flood-opacity="0" result="BackgroundImageFix"/>
<feColorMatrix in="SourceAlpha" type="matrix" values="0 0 0 0 0 0 0 0 0 0 0 0 0 0 0 0 0 0 127 0" result="hardAlpha"/>
<feOffset dy="4"/>
<feGaussianBlur stdDeviation="2"/>
<feComposite in2="hardAlpha" operator="out"/>
<feColorMatrix type="matrix" values="0 0 0 0 1 0 0 0 0 0.854167 0 0 0 0 0.854167 0 0 0 0.25 0"/>
<feBlend mode="normal" in2="BackgroundImageFix" result="effect1_dropShadow_308_30836"/>
<feBlend mode="normal" in="SourceGraphic" in2="effect1_dropShadow_308_30836" result="shape"/>
</filter>
<radialGradient id="paint0_radial_308_30836" cx="0" cy="0" r="1" gradientUnits="userSpaceOnUse" gradientTransform="translate(26.383 9.33366) rotate(135.279) scale(22.8114 22.8109)">
<stop stop-color="white"/>
<stop offset="1" stop-color="#F6F6F6"/>
</radialGradient>
</defs>
</svg>
