<svg width="32" height="32" viewBox="0 0 32 32" fill="none" xmlns="http://www.w3.org/2000/svg">
<circle cx="16" cy="16" r="15" fill="#F88F54" stroke="white" stroke-width="2"/>
<path d="M16 18.3438C17.0355 18.3438 17.875 17.5043 17.875 16.4688C17.875 15.4332 17.0355 14.5938 16 14.5938C14.9645 14.5938 14.125 15.4332 14.125 16.4688C14.125 17.5043 14.9645 18.3438 16 18.3438Z" fill="white"/>
<path d="M21.8594 12.7188H19.4277C19.3398 12.7188 19.2309 12.6619 19.1459 12.5723L18.3467 11.3184C18.0215 10.8437 17.875 10.8438 17.3477 10.8438H14.6523C14.125 10.8438 13.9492 10.8438 13.6542 11.3187L12.8541 12.5723C12.7891 12.6432 12.6977 12.7188 12.6016 12.7188V12.25C12.6016 12.1878 12.5769 12.1282 12.5329 12.0843C12.489 12.0403 12.4293 12.0156 12.3672 12.0156H11.1953C11.1332 12.0156 11.0735 12.0403 11.0296 12.0843C10.9856 12.1282 10.9609 12.1878 10.9609 12.25V12.7188H10.1406C9.95414 12.7188 9.7753 12.7928 9.64344 12.9247C9.51158 13.0566 9.4375 13.2354 9.4375 13.4219V20.4531C9.4375 20.6396 9.51158 20.8184 9.64344 20.9503C9.7753 21.0822 9.95414 21.1562 10.1406 21.1562H21.8594C22.0459 21.1562 22.2247 21.0822 22.3566 20.9503C22.4884 20.8184 22.5625 20.6396 22.5625 20.4531V13.4219C22.5625 13.2354 22.4884 13.0566 22.3566 12.9247C22.2247 12.7928 22.0459 12.7188 21.8594 12.7188ZM16.1321 19.2783C15.5652 19.3049 15.0036 19.1595 14.5209 18.861C14.0382 18.5625 13.6571 18.125 13.4277 17.6059C13.1983 17.0868 13.1313 16.5105 13.2355 15.9526C13.3396 15.3948 13.6101 14.8815 14.0114 14.4802C14.4127 14.0789 14.926 13.8084 15.4839 13.7042C16.0417 13.6 16.6181 13.6671 17.1371 13.8965C17.6562 14.1259 18.0937 14.507 18.3922 14.9896C18.6907 15.4723 18.8362 16.034 18.8096 16.6009C18.776 17.3001 18.4831 17.9618 17.9881 18.4569C17.4931 18.9519 16.8314 19.2447 16.1321 19.2783Z" fill="white"/>
</svg>
