<svg width="143" height="25" viewBox="0 0 143 25" fill="none" xmlns="http://www.w3.org/2000/svg">
<g clip-path="url(#clip0_215_11457)">
<path d="M12.5382 14.6457L12.5207 13.1812L12.5031 11.7168H5.78251V9.39097H12.5207V6.35876H2V20.1932H12.5207V17.1782H5.78251V14.6457H12.5382Z" fill="url(#paint0_linear_215_11457)"/>
<path d="M20.0153 16.5236H17.9217V20.1932H14.104V6.35876H20.2792C21.4931 6.35876 22.5663 6.56551 23.4635 6.97899C24.3608 7.39247 25.0645 7.99547 25.5395 8.75352C26.0321 9.5288 26.2784 10.4247 26.2784 11.4756C26.2784 12.4749 26.0497 13.3535 25.5923 14.0943C25.1349 14.8352 24.4839 15.4209 23.6394 15.8517L26.5599 20.1932H22.4783L20.0153 16.5236ZM21.8274 9.97674C21.4227 9.61494 20.8421 9.44266 20.0505 9.44266H17.9217V13.4913H20.0505C20.8421 13.4913 21.4227 13.3191 21.8274 12.9745C22.232 12.6299 22.4255 12.1303 22.4255 11.4756C22.4255 10.8382 22.232 10.3385 21.8274 9.97674Z" fill="url(#paint1_linear_215_11457)"/>
<path d="M53.8116 20.0554C52.7736 19.7797 51.9467 19.4179 51.2958 18.9528L52.5449 16.0756C53.143 16.4891 53.8468 16.8164 54.656 17.0576C55.4477 17.3161 56.2394 17.4367 57.0135 17.4367C58.4737 17.4367 59.2127 17.0576 59.2127 16.3168C59.2127 15.9206 59.0015 15.6277 58.5793 15.4382C58.1571 15.2487 57.4885 15.0419 56.5561 14.8352C55.5357 14.6112 54.6912 14.37 54.0051 14.1116C53.319 13.8532 52.7384 13.4397 52.2458 12.8711C51.7532 12.3026 51.5069 11.5445 51.5069 10.5797C51.5069 9.73555 51.7356 8.9775 52.1754 8.28836C52.6328 7.61645 53.3014 7.06514 54.1986 6.68611C55.0959 6.28986 56.1866 6.10034 57.4885 6.10034C58.3682 6.10034 59.2478 6.20371 60.1099 6.41045C60.972 6.6172 61.7285 6.91008 62.3794 7.30633L61.2007 10.2179C59.9164 9.51158 58.6673 9.14978 57.4533 9.14978C56.6968 9.14978 56.1339 9.27038 55.7996 9.49435C55.4477 9.71832 55.2718 10.0284 55.2718 10.3902C55.2718 10.752 55.4829 11.0277 55.8876 11.2172C56.2922 11.4067 56.9607 11.5962 57.8756 11.7857C58.896 12.0097 59.758 12.2509 60.4266 12.5093C61.0951 12.7678 61.6933 13.1812 62.1859 13.7326C62.6785 14.3011 62.9248 15.0591 62.9248 16.0067C62.9248 16.8337 62.6961 17.5917 62.2563 18.2636C61.7988 18.9355 61.1303 19.4696 60.2331 19.8659C59.3358 20.2621 58.245 20.4689 56.9607 20.4689C55.9052 20.4689 54.8496 20.3311 53.8116 20.0554Z" fill="url(#paint2_linear_215_11457)"/>
<path d="M77.1576 6.35876V20.1932H73.3399V14.8007H68.1323V20.1932H64.3146V6.35876H68.1323V11.5618H73.3399V6.35876H77.1576Z" fill="url(#paint3_linear_215_11457)"/>
<path d="M82.4003 19.5558C81.2568 18.9356 80.3595 18.0741 79.7262 16.9887C79.0752 15.9034 78.7585 14.6629 78.7585 13.2846C78.7585 11.9064 79.0752 10.6831 79.7262 9.58051C80.3771 8.49511 81.2744 7.63369 82.4003 7.01347C83.5439 6.39324 84.8282 6.08313 86.2532 6.08313C87.6782 6.08313 88.9625 6.39324 90.1061 7.01347C91.2496 7.63369 92.1469 8.49511 92.7802 9.58051C93.4312 10.6659 93.7478 11.9064 93.7478 13.2846C93.7478 14.6629 93.4312 15.8861 92.7802 16.9887C92.1293 18.0741 91.232 18.9356 90.1061 19.5558C88.9625 20.176 87.6782 20.4861 86.2532 20.4861C84.8106 20.4689 83.5439 20.176 82.4003 19.5558ZM88.1005 16.7475C88.6458 16.4202 89.0857 15.955 89.4199 15.352C89.7366 14.749 89.895 14.0599 89.895 13.2846C89.895 12.5093 89.7366 11.8202 89.4199 11.2172C89.1033 10.6142 88.6634 10.149 88.1005 9.82171C87.5551 9.49437 86.9217 9.32208 86.2532 9.32208C85.5671 9.32208 84.9513 9.49437 84.4059 9.82171C83.8605 10.149 83.4207 10.6142 83.0864 11.2172C82.7698 11.8202 82.6114 12.5093 82.6114 13.2846C82.6114 14.0599 82.7698 14.749 83.0864 15.352C83.4031 15.955 83.8429 16.4202 84.4059 16.7475C84.9513 17.0749 85.5847 17.2472 86.2532 17.2472C86.9217 17.2299 87.5375 17.0749 88.1005 16.7475Z" fill="url(#paint4_linear_215_11457)"/>
<path d="M104.691 6.97899C105.588 7.39247 106.292 7.99547 106.767 8.75352C107.259 9.5288 107.506 10.4247 107.506 11.4756C107.506 12.5266 107.259 13.4224 106.767 14.1805C106.274 14.9385 105.588 15.5415 104.691 15.955C103.793 16.3685 102.72 16.5752 101.506 16.5752H99.1489V20.1932H95.3312V6.35876H101.506C102.738 6.35876 103.793 6.56551 104.691 6.97899ZM103.055 12.9745C103.459 12.6299 103.653 12.1303 103.653 11.4756C103.653 10.8382 103.459 10.3213 103.055 9.97674C102.65 9.61494 102.069 9.44266 101.278 9.44266H99.1489V13.4913H101.278C102.052 13.4913 102.65 13.3191 103.055 12.9745Z" fill="url(#paint5_linear_215_11457)"/>
<path d="M108.438 19.7454C108.016 19.3319 107.805 18.7978 107.805 18.1431C107.805 17.4884 108.016 16.9544 108.438 16.5409C108.86 16.1274 109.388 15.9207 110.004 15.9207C110.655 15.9207 111.183 16.1274 111.587 16.5409C111.992 16.9544 112.203 17.4884 112.203 18.1431C112.203 18.7806 111.992 19.3147 111.57 19.7454C111.147 20.1589 110.62 20.3828 110.004 20.3828C109.388 20.3828 108.86 20.1761 108.438 19.7454Z" fill="url(#paint6_linear_215_11457)"/>
<path d="M118.871 15.1797L117.446 16.7475V20.2104H113.663V6.35876H117.446V12.1131L122.671 6.35876H126.876L121.351 12.4921L127.157 20.1932H122.724L118.871 15.1797Z" fill="url(#paint7_linear_215_11457)"/>
<path d="M136.305 12.9918H139.683V18.7116C138.909 19.2802 138.03 19.7109 137.027 20.021C136.024 20.3311 135.021 20.4689 134.018 20.4689C132.611 20.4689 131.327 20.1588 130.201 19.5558C129.075 18.9356 128.177 18.0914 127.544 16.9888C126.893 15.9034 126.576 14.6629 126.576 13.2674C126.576 11.8891 126.893 10.6487 127.544 9.54607C128.195 8.46067 129.075 7.59925 130.218 6.97903C131.362 6.3588 132.664 6.06592 134.089 6.06592C135.355 6.06592 136.481 6.28989 137.484 6.7206C138.487 7.15131 139.331 7.78876 140 8.5985L137.572 10.8554C136.657 9.82172 135.567 9.3221 134.3 9.3221C133.139 9.3221 132.206 9.6839 131.503 10.4075C130.799 11.1311 130.447 12.0787 130.447 13.2846C130.447 14.0427 130.605 14.7318 130.922 15.3348C131.239 15.9378 131.696 16.403 132.277 16.7303C132.857 17.0749 133.526 17.23 134.265 17.23C135.004 17.23 135.69 17.0749 136.323 16.782V12.9918H136.305Z" fill="url(#paint8_linear_215_11457)"/>
<path d="M50.8207 2C50.4337 4.05019 48.516 5.30787 48.516 5.30787C48.0938 4.91161 47.566 4.56704 46.8975 4.30861C41.1094 1.98277 38.8926 7.56479 38.8926 7.56479C38.8926 7.56479 36.6583 1.98277 30.8702 4.29139C30.1313 4.58427 29.5331 4.99775 29.0933 5.46292C29.0933 5.46292 27.3516 3.70562 27.2636 2C27.2636 2 26.0145 5.91086 28.0025 7.35805C26.9821 10.6831 29.0405 15.0764 29.0405 15.0764C29.0405 15.0764 30.5711 18.0052 34.2481 20.8996C37.9074 23.7768 38.875 25.0172 38.875 25.0172C38.875 25.0172 39.8427 23.794 43.502 20.8996C47.1614 18.0052 48.7096 15.0764 48.7096 15.0764C48.7096 15.0764 50.768 10.6831 49.7476 7.35805C51.8939 5.997 50.8207 2 50.8207 2ZM30.3776 7.68539C30.6767 6.63446 31.7147 5.63521 32.5767 6.1176C33.4388 6.6 32.8582 8.13333 32.8582 8.13333C30.5007 15.421 36.7111 19.9693 36.7111 19.9693C27.809 15.7311 30.0785 8.73633 30.3776 7.68539ZM45.8243 17.8157C45.8243 17.8157 49.5892 10.6659 45.8243 6.28989C45.8243 6.28989 48.2346 6.28989 48.4984 10.7004C48.7799 15.1109 45.8243 17.8157 45.8243 17.8157Z" fill="url(#paint9_linear_215_11457)"/>
</g>
<defs>
<linearGradient id="paint0_linear_215_11457" x1="6.73457" y1="1.8509" x2="6.73457" y2="22.5871" gradientUnits="userSpaceOnUse">
<stop stop-color="#FF7051"/>
<stop offset="0.481066" stop-color="#FF7051"/>
<stop offset="0.981346" stop-color="#D57AFF"/>
</linearGradient>
<linearGradient id="paint1_linear_215_11457" x1="19.7001" y1="1.8509" x2="19.7001" y2="22.5871" gradientUnits="userSpaceOnUse">
<stop stop-color="#FF7051"/>
<stop offset="0.481066" stop-color="#FF7051"/>
<stop offset="0.981346" stop-color="#D57AFF"/>
</linearGradient>
<linearGradient id="paint2_linear_215_11457" x1="56.5204" y1="1.41846" x2="56.5204" y2="22.9551" gradientUnits="userSpaceOnUse">
<stop stop-color="#FF7051"/>
<stop offset="0.481066" stop-color="#FF7051"/>
<stop offset="0.981346" stop-color="#D57AFF"/>
</linearGradient>
<linearGradient id="paint3_linear_215_11457" x1="70.0847" y1="1.8509" x2="70.0846" y2="22.5871" gradientUnits="userSpaceOnUse">
<stop stop-color="#FF7051"/>
<stop offset="0.481066" stop-color="#FF7051"/>
<stop offset="0.981346" stop-color="#D57AFF"/>
</linearGradient>
<linearGradient id="paint4_linear_215_11457" x1="85.4929" y1="1.39002" x2="85.4929" y2="22.9783" gradientUnits="userSpaceOnUse">
<stop stop-color="#FF7051"/>
<stop offset="0.481066" stop-color="#FF7051"/>
<stop offset="0.981346" stop-color="#D57AFF"/>
</linearGradient>
<linearGradient id="paint5_linear_215_11457" x1="100.801" y1="1.8509" x2="100.801" y2="22.5871" gradientUnits="userSpaceOnUse">
<stop stop-color="#FF7051"/>
<stop offset="0.481066" stop-color="#FF7051"/>
<stop offset="0.981346" stop-color="#D57AFF"/>
</linearGradient>
<linearGradient id="paint6_linear_215_11457" x1="109.781" y1="14.4667" x2="109.781" y2="21.1549" gradientUnits="userSpaceOnUse">
<stop stop-color="#FF7051"/>
<stop offset="0.481066" stop-color="#FF7051"/>
<stop offset="0.981346" stop-color="#D57AFF"/>
</linearGradient>
<linearGradient id="paint7_linear_215_11457" x1="119.726" y1="1.84529" x2="119.726" y2="22.6073" gradientUnits="userSpaceOnUse">
<stop stop-color="#FF7051"/>
<stop offset="0.481066" stop-color="#FF7051"/>
<stop offset="0.981346" stop-color="#D57AFF"/>
</linearGradient>
<linearGradient id="paint8_linear_215_11457" x1="132.607" y1="1.3728" x2="132.607" y2="22.9611" gradientUnits="userSpaceOnUse">
<stop stop-color="#FF7051"/>
<stop offset="0.481066" stop-color="#FF7051"/>
<stop offset="0.981346" stop-color="#D57AFF"/>
</linearGradient>
<linearGradient id="paint9_linear_215_11457" x1="37.7545" y1="-5.5" x2="37.7545" y2="29" gradientUnits="userSpaceOnUse">
<stop stop-color="#FF7051"/>
<stop offset="0.481066" stop-color="#FF7051"/>
<stop offset="0.981346" stop-color="#D57AFF"/>
</linearGradient>
<clipPath id="clip0_215_11457">
<rect width="138" height="23" fill="white" transform="translate(2 2)"/>
</clipPath>
</defs>
</svg>
