<svg width="24" height="25" viewBox="0 0 24 25" fill="none" xmlns="http://www.w3.org/2000/svg">
<path fill-rule="evenodd" clip-rule="evenodd" d="M9.02977 3.8437C10.9834 3.38543 13.0166 3.38543 14.9703 3.8437C17.7916 4.5055 19.9946 6.70843 20.6564 9.52977C21.1146 11.4834 21.1146 13.5166 20.6564 15.4703C19.9946 18.2916 17.7916 20.4946 14.9703 21.1564C13.0166 21.6146 10.9834 21.6146 9.02977 21.1564C6.20843 20.4946 4.0055 18.2916 3.3437 15.4703C2.88543 13.5166 2.88543 11.4834 3.3437 9.52976C4.0055 6.70842 6.20842 4.5055 9.02977 3.8437ZM12.6 10.1068C12.6 9.77541 12.3314 9.50678 12 9.50678C11.6686 9.50678 11.4 9.77541 11.4 10.1068V11.9H9.60678C9.27541 11.9 9.00678 12.1686 9.00678 12.5C9.00678 12.8314 9.27541 13.1 9.60678 13.1H11.4V14.8932C11.4 15.2246 11.6686 15.4932 12 15.4932C12.3314 15.4932 12.6 15.2246 12.6 14.8932V13.1H14.3932C14.7246 13.1 14.9932 12.8314 14.9932 12.5C14.9932 12.1686 14.7246 11.9 14.3932 11.9H12.6V10.1068Z" fill="#F268B3"/>
</svg>
