<svg width="48" height="48" viewBox="0 0 48 48" fill="none" xmlns="http://www.w3.org/2000/svg">
<path d="M6.83998 26.1198L20.84 40.1198C21.601 40.8772 22.7082 41.1711 23.7446 40.8908C24.781 40.6105 25.5892 39.7985 25.8646 38.7608C26.1401 37.7231 25.841 36.6172 25.08 35.8598L16.22 27.0198L39.04 27.0198C40.6968 27.0198 42.04 25.6767 42.04 24.0198C42.04 22.363 40.6968 21.0198 39.04 21.0198L16.22 21.0198L25.08 12.1798C25.9369 11.3219 26.193 10.0325 25.7291 8.91214C25.2652 7.79182 24.1725 7.0609 22.96 7.05984C22.1549 7.07178 21.3894 7.4112 20.84 7.99983L6.83998 21.9998C5.67016 23.1711 5.67016 25.0686 6.83998 26.2398L6.83998 26.1198Z" fill="white"/>
</svg>
