<svg width="57" height="56" viewBox="0 0 57 56" fill="none" xmlns="http://www.w3.org/2000/svg">
<g filter="url(#filter0_d_23_122)">
<path d="M6.5 25V35C6.5 35.5304 6.71071 36.0391 7.08579 36.4142C7.46086 36.7893 7.96957 37 8.5 37H10.5C10.5 38.5913 11.1321 40.1174 12.2574 41.2426C13.3826 42.3679 14.9087 43 16.5 43C18.0913 43 19.6174 42.3679 20.7426 41.2426C21.8679 40.1174 22.5 38.5913 22.5 37H34.5C34.5 38.5913 35.1321 40.1174 36.2574 41.2426C37.3826 42.3679 38.9087 43 40.5 43C42.0913 43 43.6174 42.3679 44.7426 41.2426C45.8679 40.1174 46.5 38.5913 46.5 37H48.5C49.0304 37 49.5391 36.7893 49.9142 36.4142C50.2893 36.0391 50.5 35.5304 50.5 35V11C50.5 9.4087 49.8679 7.88258 48.7426 6.75736C47.6174 5.63214 46.0913 5 44.5 5H26.5C24.9087 5 23.3826 5.63214 22.2574 6.75736C21.1321 7.88258 20.5 9.4087 20.5 11V15H16.5C15.5685 15 14.6499 15.2169 13.8167 15.6334C12.9836 16.05 12.2589 16.6548 11.7 17.4L6.9 23.8C6.8415 23.8869 6.79445 23.981 6.76 24.08L6.64 24.3C6.55173 24.523 6.50431 24.7602 6.5 25ZM38.5 37C38.5 36.6044 38.6173 36.2178 38.8371 35.8889C39.0568 35.56 39.3692 35.3036 39.7346 35.1522C40.1001 35.0009 40.5022 34.9613 40.8902 35.0384C41.2781 35.1156 41.6345 35.3061 41.9142 35.5858C42.1939 35.8655 42.3844 36.2219 42.4616 36.6098C42.5387 36.9978 42.4991 37.3999 42.3478 37.7654C42.1964 38.1308 41.94 38.4432 41.6111 38.6629C41.2822 38.8827 40.8956 39 40.5 39C39.9696 39 39.4609 38.7893 39.0858 38.4142C38.7107 38.0391 38.5 37.5304 38.5 37ZM24.5 11C24.5 10.4696 24.7107 9.96086 25.0858 9.58579C25.4609 9.21071 25.9696 9 26.5 9H44.5C45.0304 9 45.5391 9.21071 45.9142 9.58579C46.2893 9.96086 46.5 10.4696 46.5 11V33H44.94C44.3776 32.3813 43.6922 31.8869 42.9276 31.5487C42.163 31.2104 41.3361 31.0356 40.5 31.0356C39.6639 31.0356 38.837 31.2104 38.0724 31.5487C37.3078 31.8869 36.6224 32.3813 36.06 33H24.5V11ZM20.5 23H12.5L14.9 19.8C15.0863 19.5516 15.3279 19.35 15.6056 19.2111C15.8833 19.0723 16.1895 19 16.5 19H20.5V23ZM14.5 37C14.5 36.6044 14.6173 36.2178 14.8371 35.8889C15.0568 35.56 15.3692 35.3036 15.7346 35.1522C16.1001 35.0009 16.5022 34.9613 16.8902 35.0384C17.2781 35.1156 17.6345 35.3061 17.9142 35.5858C18.1939 35.8655 18.3844 36.2219 18.4616 36.6098C18.5387 36.9978 18.4991 37.3999 18.3478 37.7654C18.1964 38.1308 17.94 38.4432 17.6111 38.6629C17.2822 38.8827 16.8956 39 16.5 39C15.9696 39 15.4609 38.7893 15.0858 38.4142C14.7107 38.0391 14.5 37.5304 14.5 37ZM10.5 27H20.5V32.56C19.3197 31.5051 17.7703 30.9594 16.1894 31.0418C14.6085 31.1243 13.1242 31.8281 12.06 33H10.5V27Z" fill="white"/>
</g>
<defs>
<filter id="filter0_d_23_122" x="0.5" y="0" width="56" height="56" filterUnits="userSpaceOnUse" color-interpolation-filters="sRGB">
<feFlood flood-opacity="0" result="BackgroundImageFix"/>
<feColorMatrix in="SourceAlpha" type="matrix" values="0 0 0 0 0 0 0 0 0 0 0 0 0 0 0 0 0 0 127 0" result="hardAlpha"/>
<feOffset dy="4"/>
<feGaussianBlur stdDeviation="2"/>
<feComposite in2="hardAlpha" operator="out"/>
<feColorMatrix type="matrix" values="0 0 0 0 0 0 0 0 0 0 0 0 0 0 0 0 0 0 0.25 0"/>
<feBlend mode="normal" in2="BackgroundImageFix" result="effect1_dropShadow_23_122"/>
<feBlend mode="normal" in="SourceGraphic" in2="effect1_dropShadow_23_122" result="shape"/>
</filter>
</defs>
</svg>
