<svg width="48" height="48" viewBox="0 0 48 48" fill="none" xmlns="http://www.w3.org/2000/svg">
<path fill-rule="evenodd" clip-rule="evenodd" d="M6 4C4.89543 4 4 4.89543 4 6C4 7.10457 4.89543 8 6 8H8C9.10457 8 10 8.89543 10 10V26C10 29.3137 12.6863 32 16 32H33.9597C36.6549 32 39.0194 30.2028 39.7408 27.6059L42.5185 17.6059C43.5805 13.7827 40.7054 10 36.7374 10L14 10C14 6.68629 11.3137 4 8 4H6ZM14 26V14H36.7374C38.0601 14 39.0185 15.2609 38.6645 16.5353L35.8867 26.5353C35.6462 27.4009 34.8581 28 33.9597 28H16C14.8954 28 14 27.1046 14 26Z" fill="white"/>
<path fill-rule="evenodd" clip-rule="evenodd" d="M10 39C10 36.2386 12.2386 34 15 34C17.7614 34 20 36.2386 20 39C20 41.7614 17.7614 44 15 44C12.2386 44 10 41.7614 10 39ZM15 38C14.4477 38 14 38.4477 14 39C14 39.5523 14.4477 40 15 40C15.5523 40 16 39.5523 16 39C16 38.4477 15.5523 38 15 38Z" fill="white"/>
<path fill-rule="evenodd" clip-rule="evenodd" d="M28 39C28 36.2386 30.2386 34 33 34C35.7614 34 38 36.2386 38 39C38 41.7614 35.7614 44 33 44C30.2386 44 28 41.7614 28 39ZM33 38C32.4477 38 32 38.4477 32 39C32 39.5523 32.4477 40 33 40C33.5523 40 34 39.5523 34 39C34 38.4477 33.5523 38 33 38Z" fill="white"/>
</svg>
