<svg width="25" height="24" viewBox="0 0 25 24" fill="none" xmlns="http://www.w3.org/2000/svg">
<path d="M1.5 12.5V17.5C1.5 17.7652 1.60536 18.0196 1.79289 18.2071C1.98043 18.3946 2.23478 18.5 2.5 18.5H3.5C3.5 19.2956 3.81607 20.0587 4.37868 20.6213C4.94129 21.1839 5.70435 21.5 6.5 21.5C7.29565 21.5 8.05871 21.1839 8.62132 20.6213C9.18393 20.0587 9.5 19.2956 9.5 18.5H15.5C15.5 19.2956 15.8161 20.0587 16.3787 20.6213C16.9413 21.1839 17.7044 21.5 18.5 21.5C19.2956 21.5 20.0587 21.1839 20.6213 20.6213C21.1839 20.0587 21.5 19.2956 21.5 18.5H22.5C22.7652 18.5 23.0196 18.3946 23.2071 18.2071C23.3946 18.0196 23.5 17.7652 23.5 17.5V5.5C23.5 4.70435 23.1839 3.94129 22.6213 3.37868C22.0587 2.81607 21.2956 2.5 20.5 2.5H11.5C10.7044 2.5 9.94129 2.81607 9.37868 3.37868C8.81607 3.94129 8.5 4.70435 8.5 5.5V7.5H6.5C6.03426 7.5 5.57493 7.60844 5.15836 7.81672C4.74179 8.025 4.37944 8.32741 4.1 8.7L1.7 11.9C1.67075 11.9435 1.64722 11.9905 1.63 12.04L1.57 12.15C1.52587 12.2615 1.50216 12.3801 1.5 12.5ZM17.5 18.5C17.5 18.3022 17.5586 18.1089 17.6685 17.9444C17.7784 17.78 17.9346 17.6518 18.1173 17.5761C18.3 17.5004 18.5011 17.4806 18.6951 17.5192C18.8891 17.5578 19.0673 17.653 19.2071 17.7929C19.347 17.9327 19.4422 18.1109 19.4808 18.3049C19.5194 18.4989 19.4996 18.7 19.4239 18.8827C19.3482 19.0654 19.22 19.2216 19.0556 19.3315C18.8911 19.4414 18.6978 19.5 18.5 19.5C18.2348 19.5 17.9804 19.3946 17.7929 19.2071C17.6054 19.0196 17.5 18.7652 17.5 18.5ZM10.5 5.5C10.5 5.23478 10.6054 4.98043 10.7929 4.79289C10.9804 4.60536 11.2348 4.5 11.5 4.5H20.5C20.7652 4.5 21.0196 4.60536 21.2071 4.79289C21.3946 4.98043 21.5 5.23478 21.5 5.5V16.5H20.72C20.4388 16.1906 20.0961 15.9435 19.7138 15.7743C19.3315 15.6052 18.918 15.5178 18.5 15.5178C18.082 15.5178 17.6685 15.6052 17.2862 15.7743C16.9039 15.9435 16.5612 16.1906 16.28 16.5H10.5V5.5ZM8.5 11.5H4.5L5.7 9.9C5.79315 9.7758 5.91393 9.675 6.05279 9.60557C6.19164 9.53615 6.34475 9.5 6.5 9.5H8.5V11.5ZM5.5 18.5C5.5 18.3022 5.55865 18.1089 5.66853 17.9444C5.77841 17.78 5.93459 17.6518 6.11732 17.5761C6.30004 17.5004 6.50111 17.4806 6.69509 17.5192C6.88907 17.5578 7.06725 17.653 7.20711 17.7929C7.34696 17.9327 7.4422 18.1109 7.48079 18.3049C7.51937 18.4989 7.49957 18.7 7.42388 18.8827C7.34819 19.0654 7.22002 19.2216 7.05557 19.3315C6.89112 19.4414 6.69778 19.5 6.5 19.5C6.23478 19.5 5.98043 19.3946 5.79289 19.2071C5.60536 19.0196 5.5 18.7652 5.5 18.5ZM3.5 13.5H8.5V16.28C7.90983 15.7526 7.13513 15.4797 6.34469 15.5209C5.55425 15.5621 4.81212 15.914 4.28 16.5H3.5V13.5Z" fill="white"/>
</svg>
